<svg width="27" height="20" viewBox="0 0 27 20" fill="none" xmlns="http://www.w3.org/2000/svg">
<path d="M24.1666 0.222076H2.50001C1.12142 0.222076 0 1.30715 0 2.64106V17.1548C0 18.4887 1.12142 19.5738 2.50001 19.5738H24.1666C25.5452 19.5738 26.6666 18.4887 26.6666 17.1548V2.64106C26.6666 1.30715 25.5452 0.222076 24.1666 0.222076ZM24.1666 1.83471C24.2798 1.83471 24.3875 1.85744 24.486 1.89714L13.3333 11.2499L2.18055 1.89714C2.27902 1.85749 2.38674 1.83471 2.49996 1.83471H24.1666ZM24.1666 17.9611H2.50001C2.04022 17.9611 1.66666 17.5997 1.66666 17.1548V3.6009L12.7872 12.9264C12.9443 13.0578 13.1388 13.1232 13.3333 13.1232C13.5278 13.1232 13.7223 13.0579 13.8794 12.9264L25 3.6009V17.1548C24.9999 17.5997 24.6264 17.9611 24.1666 17.9611Z" fill="#1D2B6B"/>
</svg>
