<svg width="18" height="30" viewBox="0 0 18 30" fill="none" xmlns="http://www.w3.org/2000/svg">
<path d="M11.0255 29.9434H6.21183C5.4078 29.9434 4.75376 29.3123 4.75376 28.5366V18.0617H1.94538C1.14135 18.0617 0.487305 17.4304 0.487305 16.6549V12.1664C0.487305 11.3907 1.14135 10.7597 1.94538 10.7597H4.75376V8.51196C4.75376 6.28329 5.47913 4.38715 6.8512 3.02889C8.22948 1.66442 10.1556 0.943359 12.4214 0.943359L16.0925 0.949112C16.8952 0.950439 17.5481 1.58145 17.5481 2.35584V6.52335C17.5481 7.29906 16.8942 7.93007 16.0904 7.93007L13.6187 7.93095C12.8649 7.93095 12.673 8.07676 12.6319 8.12145C12.5643 8.19557 12.4838 8.4051 12.4838 8.98367V10.7594H15.9047C16.1622 10.7594 16.4117 10.8207 16.6262 10.9362C17.0887 11.1856 17.3763 11.6571 17.3763 12.1666L17.3745 16.6552C17.3745 17.4304 16.7204 18.0614 15.9164 18.0614H12.4838V28.5366C12.4838 29.3123 11.8295 29.9434 11.0255 29.9434ZM6.51592 28.2433H10.7214V17.3006C10.7214 16.7826 11.1582 16.3613 11.6949 16.3613H15.6123L15.6139 12.4598H11.6946C11.158 12.4598 10.7214 12.0385 10.7214 11.5206V8.98367C10.7214 8.31947 10.7913 7.56412 11.311 6.99638C11.9389 6.31006 12.9284 6.23085 13.6183 6.23085L15.7859 6.22997V2.64877L12.42 2.64346C8.77872 2.64346 6.51592 4.89227 6.51592 8.51196V11.5206C6.51592 12.0383 6.07928 12.4598 5.54265 12.4598H2.24947V16.3613H5.54265C6.07928 16.3613 6.51592 16.7826 6.51592 17.3006V28.2433ZM16.0891 2.64922H16.0893H16.0891Z" fill="white" fill-opacity="0.8"/>
</svg>
