<svg width="57" height="91" viewBox="0 0 57 91" fill="none" xmlns="http://www.w3.org/2000/svg">
<path d="M31.9922 91C32.9738 91 33.7695 90.2043 33.7695 89.2227C33.7695 88.2411 32.9738 87.4453 31.9922 87.4453C31.0106 87.4453 30.2148 88.2411 30.2148 89.2227C30.2148 90.2043 31.0106 91 31.9922 91Z" fill="white"/>
<path d="M49.7656 14.2188C48.4712 14.2188 47.2574 14.5682 46.2109 15.1753V14.2188C46.2109 10.2986 43.0217 7.10938 39.1016 7.10938C37.8071 7.10938 36.5934 7.4588 35.5469 8.06594V7.10938C35.5469 3.18927 32.3576 0 28.4375 0C24.5174 0 21.3281 3.18927 21.3281 7.10938V8.06594C20.2816 7.4588 19.0679 7.10938 17.7734 7.10938C13.8533 7.10938 10.6641 10.2986 10.6641 14.2188V36.8047C8.40399 34.4954 5.25596 33.0586 1.77734 33.0586C0.795895 33.0586 0 33.8545 0 34.8359V63.2734C0 68.2804 2.39177 73.0643 6.39844 76.0703L9.24201 78.2029C12.1257 80.3665 14.2188 85.0009 14.2188 89.2227C14.2188 90.2041 15.0146 91 15.9961 91H23.9941C24.9756 91 25.7715 90.2041 25.7715 89.2227C25.7715 88.2412 24.9756 87.4453 23.9941 87.4453H17.6775C17.2337 83.2275 15.2359 78.2561 11.375 75.3594L8.53143 73.2267C5.41521 70.8886 3.55469 67.1678 3.55469 63.2734V36.7919C7.60597 37.6177 10.6641 41.2086 10.6641 45.5V56.1641C10.6641 57.1455 11.46 57.9414 12.4414 57.9414C14.3995 57.9414 16.3256 58.4023 18.0583 59.279C19.134 63.7702 23.2029 67.2399 28.9318 72.1209C30.1027 73.1185 31.3134 74.1502 32.5995 75.2751C32.9344 75.5684 33.3519 75.7148 33.7695 75.7148C34.1872 75.7148 34.6047 75.5684 34.9397 75.2751C36.2256 74.1502 37.4365 73.1185 38.6075 72.1209C45.3265 66.396 49.7656 62.614 49.7656 56.8466C49.7656 51.5988 46.0426 47.2773 40.8789 47.2773C37.3484 47.2773 35.1089 49.293 33.7695 51.2399C32.4301 49.293 30.1907 47.2773 26.6602 47.2773C22.0163 47.2773 18.5192 50.7762 17.8799 55.3372C16.6997 54.9114 15.4705 54.6251 14.2188 54.4855C14.2188 53.4102 14.2188 15.3104 14.2188 14.2188C14.2188 12.2587 15.8134 10.6641 17.7734 10.6641C19.7335 10.6641 21.3281 12.2587 21.3281 14.2188V38.3906C21.3281 39.3721 22.124 40.168 23.1055 40.168C24.0869 40.168 24.8828 39.3721 24.8828 38.3906V7.10938C24.8828 5.14932 26.4774 3.55469 28.4375 3.55469C30.3976 3.55469 31.9922 5.14932 31.9922 7.10938V38.3906C31.9922 39.3721 32.7881 40.168 33.7695 40.168C34.751 40.168 35.5469 39.3721 35.5469 38.3906V14.2188C35.5469 12.2587 37.1415 10.6641 39.1016 10.6641C41.0616 10.6641 42.6562 12.2587 42.6562 14.2188V38.3906C42.6562 39.3721 43.4521 40.168 44.4336 40.168C45.415 40.168 46.2109 39.3721 46.2109 38.3906V21.3281C46.2109 19.3681 47.8056 17.7734 49.7656 17.7734C51.7257 17.7734 53.3203 19.3681 53.3203 21.3281V63.524C53.3203 67.5142 52.1873 71.4026 50.0436 74.7691C47.9533 78.052 46.5271 82.8861 46.2573 87.4453H39.9902C39.0088 87.4453 38.2129 88.2412 38.2129 89.2227C38.2129 90.2041 39.0088 91 39.9902 91H47.9883C48.9697 91 49.7656 90.2041 49.7656 89.2227V88.9898C49.7656 84.6368 51.0517 79.8042 53.0423 76.6782C55.5496 72.7405 56.875 68.1917 56.875 63.524V21.3281C56.875 17.408 53.6857 14.2188 49.7656 14.2188ZM26.6602 50.832C30.619 50.832 32 55.5496 32.0572 55.7523C32.2712 56.5206 32.9713 57.0527 33.7695 57.0527C34.57 57.0527 35.2717 56.5176 35.4836 55.7457C35.4971 55.6963 36.8774 50.832 40.8789 50.832C43.9187 50.832 46.2109 53.4177 46.2109 56.8466C46.2109 60.9727 42.4814 64.1506 36.3021 69.4152C35.4822 70.1139 34.6427 70.8289 33.7695 71.5831C32.8963 70.8289 32.0569 70.1137 31.237 69.4152C25.0577 64.1506 21.3281 60.9727 21.3281 56.8466C21.3281 53.4177 23.6204 50.832 26.6602 50.832Z" fill="white"/>
</svg>
