<svg width="91" height="91" viewBox="0 0 91 91" fill="none" xmlns="http://www.w3.org/2000/svg">
<path d="M38.391 36.6135C33.2265 36.6135 29.5044 40.9353 29.5044 46.1826C29.5044 51.95 33.9433 55.732 40.6624 61.4567C41.8333 62.4544 43.0442 63.4861 44.3301 64.611C44.6651 64.904 45.0826 65.0507 45.5003 65.0507C45.918 65.0507 46.3355 64.9042 46.6705 64.611C47.9564 63.4861 49.1673 62.4544 50.3382 61.4567C57.0573 55.732 61.4962 51.95 61.4962 46.1826C61.4962 40.9347 57.7732 36.6135 52.6096 36.6135C49.0791 36.6135 46.8399 38.6294 45.5003 40.5761C44.1609 38.6294 41.9215 36.6135 38.391 36.6135ZM47.2143 45.0817C47.2279 45.0327 48.6083 40.1682 52.6096 40.1682C55.6493 40.1682 57.9416 42.7538 57.9416 46.1826C57.9416 50.3087 54.2118 53.4865 48.0328 58.7511C47.2129 59.4498 46.3737 60.1648 45.5003 60.9189C44.6269 60.1648 43.7877 59.4496 42.9678 58.7511C36.7888 53.4865 33.059 50.3087 33.059 46.1826C33.059 42.7538 35.3513 40.1682 38.391 40.1682C42.3413 40.1682 43.7249 44.8656 43.7877 45.0869C44.0011 45.8561 44.7016 46.3888 45.5003 46.3888C46.3008 46.3888 47.0025 45.8536 47.2143 45.0817Z" fill="white"/>
<path d="M22.395 19.9067C23.3766 19.9067 24.1724 19.111 24.1724 18.1294C24.1724 17.1478 23.3766 16.3521 22.395 16.3521C21.4134 16.3521 20.6177 17.1478 20.6177 18.1294C20.6177 19.111 21.4134 19.9067 22.395 19.9067Z" fill="white"/>
<path d="M79.586 42.2718C80.8322 43.2214 82.3207 43.7231 83.8907 43.7231C87.8107 43.7231 90.9999 40.5339 90.9999 36.6138C90.9999 34.3746 89.9775 32.3122 88.2014 30.9603L79.2696 24.0961V1.7783C79.2696 0.796862 78.4739 0.000976562 77.4923 0.000976562H66.8283C65.8467 0.000976562 65.051 0.796862 65.051 1.7783V13.169L49.8051 1.45234C48.5589 0.502715 47.0704 0.000976562 45.5005 0.000976562C43.9306 0.000976562 42.4421 0.502715 41.1898 1.45678L27.6574 11.8568C26.8791 12.4549 26.733 13.5708 27.3312 14.3489C27.9293 15.1271 29.0453 15.2733 29.8236 14.6751L43.3499 4.2797C43.9718 3.80605 44.7154 3.55562 45.5005 3.55562C46.2855 3.55562 47.0291 3.80605 47.6452 4.27526L86.0419 33.7838C86.9338 34.4626 87.4453 35.4941 87.4453 36.6138C87.4453 38.5739 85.8507 40.1685 83.8907 40.1685C83.1056 40.1685 82.362 39.918 81.7465 39.4492C79.7555 37.918 48.1901 13.6407 46.5841 12.4054C45.9679 11.9314 45.1151 11.913 44.4789 12.3599C44.3983 12.4163 9.26387 39.4419 9.26014 39.4449C8.54761 39.9884 7.65681 40.2385 6.74824 40.1502C4.98834 39.9797 4.03356 39.152 3.65215 37.4657C3.33258 36.0529 3.83361 34.6417 4.96559 33.7788L17.1454 24.4185C17.9237 23.8205 18.0698 22.7045 17.4715 21.9264C16.8733 21.1483 15.7573 21.002 14.9792 21.6002L2.80525 30.9561C0.558716 32.6687 -0.445116 35.4635 0.1853 38.25C0.906361 41.4382 3.11557 43.3696 6.40433 43.6879C8.20743 43.8644 9.98688 43.3611 11.4159 42.2712L11.4132 42.2678C11.4887 42.2122 11.5918 42.1345 11.7315 42.0279V66.4126C7.66481 67.388 4.52001 70.6968 3.7691 74.8865C1.42445 76.5444 0.00116974 79.2378 0.00116974 82.1131C0.00116974 87.0132 3.98771 90.9997 8.88779 90.9997H82.1135C87.0136 90.9997 91.0001 87.0132 91.0001 82.1131C91.0001 79.2378 89.5768 76.5444 87.2322 74.8865C86.4811 70.6951 83.3342 67.3852 79.2698 66.4119V42.0284L79.586 42.2718ZM68.6057 3.55562H75.715V21.3644L68.6057 15.9007V3.55562ZM28.4382 87.4453H8.88761C5.94756 87.4453 3.55564 85.0533 3.55564 82.1133C3.55564 80.2142 4.60337 78.4437 6.28987 77.4923C6.79623 77.2066 7.13072 76.6914 7.186 76.1125C7.53347 72.4631 10.5547 69.672 14.2198 69.672C16.5084 69.672 18.6741 70.7992 20.0124 72.6869C20.4319 73.2784 21.1686 73.556 21.8742 73.3879C22.3297 73.2795 22.7328 73.2267 23.1064 73.2267C25.9766 73.2267 28.4032 75.5319 28.438 78.4959C28.2866 79.5644 28.8578 80.2951 29.5989 80.5533C30.9746 81.0325 31.993 82.3332 31.993 83.8904C31.9928 85.8507 30.3982 87.4453 28.4382 87.4453ZM59.0465 77.7333C57.9479 78.3548 57.0412 79.2511 56.4115 80.3362H34.589C33.9589 79.2507 33.0525 78.3546 31.9544 77.7333C31.9246 77.4132 31.8773 77.0956 31.8133 76.7797H59.1878C59.1238 77.0954 59.0765 77.4132 59.0465 77.7333ZM34.5934 87.4453C35.2 86.399 35.5475 85.1845 35.5475 83.8906H55.4535C55.4535 85.1845 55.8011 86.399 56.4075 87.4453H34.5934ZM83.8151 76.1125C83.8702 76.6914 84.2049 77.2065 84.7112 77.4923C86.3977 78.4437 87.4455 80.2142 87.4455 82.1133C87.4455 85.0533 85.0536 87.4453 82.1135 87.4453H62.5629C60.6029 87.4453 59.0083 85.8506 59.0083 83.8906C59.0083 82.3316 60.0285 81.032 61.4024 80.5535C62.1499 80.2931 62.7138 79.5584 62.5633 78.4961C62.5981 75.5395 65.0178 73.2269 67.8949 73.2269C68.2685 73.2269 68.6716 73.2796 69.1271 73.3881C69.8322 73.5558 70.5694 73.2788 70.9889 72.6871C72.3274 70.7994 74.4929 69.6722 76.7815 69.6722C80.4451 69.672 83.4673 72.4599 83.8151 76.1125ZM75.715 66.1734C73.0588 66.4441 70.5863 67.715 68.8072 69.7254C68.4967 69.6898 68.1939 69.672 67.8947 69.672C65.0907 69.672 62.4565 71.0121 60.7892 73.2267H30.2119C28.5453 71.0127 25.9106 69.672 23.1062 69.672C22.8069 69.672 22.504 69.6898 22.1937 69.7254C20.4146 67.7149 17.9424 66.4441 15.286 66.1734V39.2951C17.8659 37.3107 42.5316 18.3392 45.5003 16.0564L75.715 39.2947V66.1734Z" fill="white"/>
</svg>
