<svg width="30" height="29" viewBox="0 0 30 29" fill="none" xmlns="http://www.w3.org/2000/svg">
<path d="M21.2855 0H8.71453C3.90932 0 0 3.77901 0 8.42405V20.576C0 25.221 3.90932 29 8.71453 29H21.2855C26.0907 29 30 25.221 30 20.576V8.42405C30 3.77901 26.0907 0 21.2855 0ZM27.6562 20.576C27.6562 23.9717 24.7983 26.7344 21.2855 26.7344H8.71453C5.20166 26.7344 2.34375 23.9717 2.34375 20.576V8.42405C2.34375 5.02827 5.20166 2.26562 8.71453 2.26562H21.2855C24.7983 2.26562 27.6562 5.02827 27.6562 8.42405V20.576Z" fill="white" fill-opacity="0.8"/>
<path d="M15 6.68359C10.5414 6.68359 6.91406 10.19 6.91406 14.5C6.91406 18.81 10.5414 22.3164 15 22.3164C19.4586 22.3164 23.0859 18.81 23.0859 14.5C23.0859 10.19 19.4586 6.68359 15 6.68359ZM15 20.0508C11.8338 20.0508 9.25781 17.5607 9.25781 14.5C9.25781 11.4393 11.8338 8.94922 15 8.94922C18.1662 8.94922 20.7422 11.4393 20.7422 14.5C20.7422 17.5607 18.1662 20.0508 15 20.0508Z" fill="white" fill-opacity="0.8"/>
<path d="M23.2031 7.70312C23.8503 7.70312 24.375 7.19595 24.375 6.57031C24.375 5.94468 23.8503 5.4375 23.2031 5.4375C22.5559 5.4375 22.0312 5.94468 22.0312 6.57031C22.0312 7.19595 22.5559 7.70312 23.2031 7.70312Z" fill="white" fill-opacity="0.8"/>
</svg>
