<svg width="331" height="77" viewBox="0 0 331 77" fill="none" xmlns="http://www.w3.org/2000/svg">
<g clip-path="url(#clip0)">
<path fill-rule="evenodd" clip-rule="evenodd" d="M227.63 23.4669L229.306 29.2778H231.764L231.541 20.2262H210.867L210.644 29.2778H213.102L214.779 23.4669H218.578C218.578 33.1889 218.578 42.9109 218.578 52.633L216.343 54.1974V55.9854C219.248 55.9854 223.16 55.9854 226.177 55.9854V54.1974L223.942 52.633V25.3666C223.942 24.4726 223.718 24.0256 222.824 23.6904V23.4669H227.63ZM169.744 29.3895C169.744 24.9196 171.868 23.2434 174.326 23.2434C176.784 23.2434 179.131 24.3609 179.131 27.3781V30.1717H184.383V20.2262H181.031L180.584 22.1259H180.472C178.908 20.4497 176.561 20.0027 174.326 20.0027C169.521 20.0027 164.38 22.9082 164.38 29.5013C164.38 35.3121 164.38 41.123 164.38 46.9338C164.38 53.3034 168.627 56.4324 174.661 56.4324C177.008 56.4324 179.466 55.5384 180.807 53.4152L181.366 55.9854H184.718C184.718 50.845 184.718 45.5929 184.718 40.4525H176.337V42.017L180.36 44.3637V44.5872C179.578 44.5872 179.355 45.0341 179.243 45.9281V47.6043C179.243 50.7333 178.014 53.08 174.549 53.08C171.532 53.08 169.744 51.1802 169.744 46.9338C169.744 41.123 169.744 35.2004 169.744 29.3895ZM102.137 35.7591C100.684 35.7591 99.7904 35.7591 98.3377 35.7591V25.1431C98.3377 24.2491 98.1142 23.8021 97.2203 23.4669V23.2434H102.025C104.149 23.2434 105.154 24.9196 105.154 26.8193V31.9597C105.266 34.3064 104.372 35.7591 102.137 35.7591ZM97.2203 52.8565V52.633C98.1142 52.2977 98.3377 51.8507 98.3377 50.9568C98.3377 46.9338 98.3377 42.3522 98.3377 38.3293H102.025C105.154 38.3293 106.384 39.782 106.384 42.6874V48.7218C106.384 51.4037 105.266 52.8565 102.472 52.8565H97.2203ZM111.636 42.6874C111.636 39.335 110.071 37.5471 107.725 36.6531C109.512 35.8709 110.518 33.9711 110.518 31.9597V26.8193C110.518 21.5672 107.166 20.338 102.472 20.338H91.2976V21.7907L93.1974 23.1317C93.1974 33.0772 93.1974 43.0227 93.1974 52.9682L90.9624 54.5327V55.9854H102.584C108.507 55.9854 111.636 53.8622 111.636 48.7218V42.6874ZM120.799 29.166C120.799 25.1431 122.363 23.0199 125.716 23.0199C129.18 23.0199 130.744 25.8136 130.744 29.166V46.9338C130.744 50.2863 129.18 53.08 125.716 53.08C122.363 53.08 120.799 50.9568 120.799 46.9338V29.166ZM135.885 29.166C135.885 23.4669 131.862 19.6675 125.604 19.6675C119.346 19.6675 115.435 23.4669 115.435 29.166V46.9338C115.435 52.633 119.458 56.4324 125.604 56.4324C131.862 56.4324 135.885 52.633 135.885 46.9338V29.166ZM145.83 29.3895C145.83 24.9196 147.954 23.2434 150.412 23.2434C152.87 23.2434 155.217 24.3609 155.217 27.3781V30.1717H160.469V20.2262H157.005L156.558 22.1259H156.446C154.882 20.4497 152.535 20.0027 150.3 20.0027C145.495 20.0027 140.355 22.9082 140.355 29.5013C140.355 35.3121 140.355 41.123 140.355 46.9338C140.355 53.3034 144.601 56.4324 150.636 56.4324C152.982 56.4324 155.441 55.5384 156.782 53.4152L157.34 55.9854H160.693C160.693 50.845 160.693 45.5929 160.693 40.4525H152.312V42.017L156.335 44.3637V44.5872C155.552 44.5872 155.329 45.0341 155.217 45.9281V47.6043C155.217 50.7333 153.988 53.08 150.524 53.08C147.507 53.08 145.719 51.1802 145.719 46.9338C145.83 41.123 145.83 35.2004 145.83 29.3895ZM194.776 46.2634L193.1 53.4152L194.888 54.3092V55.8736H187.959V54.3092L189.747 53.3035C192.317 42.7992 195.111 30.507 197.681 20.0027H202.933L211.091 53.1917L212.879 54.3092V55.8736H203.827V54.5327L205.615 53.4152L203.939 46.2634H194.776ZM199.469 26.2606L195.446 43.3579H204.498L204.386 43.1344C203.492 42.9109 203.269 42.464 203.045 41.6817L202.71 40.1173L199.469 26.2606Z" fill="white"/>
<path fill-rule="evenodd" clip-rule="evenodd" d="M67.0485 9.16329H23.1317C25.3667 8.04581 27.8251 7.04009 30.1718 6.48135H53.8623C49.1689 4.02291 43.805 2.68194 38.1059 2.68194C28.0486 2.68194 18.5501 6.92834 11.8452 14.3037V10.5043C12.2922 10.0573 12.851 9.61028 13.4097 9.16329H9.16329V53.1918C8.04581 50.9568 7.04009 48.6101 6.48135 46.2634V22.2377C4.02291 27.0429 2.68194 32.4068 2.68194 38.1059C2.68194 48.1631 6.92834 57.6617 14.4154 64.3665H10.5043C10.0573 63.8078 9.49853 63.3608 9.05154 62.8021V67.0485H53.1918C51.0686 68.1659 48.7219 69.1717 46.2634 69.7304H22.2377C27.0429 72.0771 32.4067 73.4181 38.1059 73.4181C48.1631 73.4181 57.6617 69.1717 64.3665 61.6846V65.5957C63.8078 66.0427 63.3608 66.6015 62.8021 67.0485H67.0485V23.02C67.2719 23.3552 67.3837 23.8022 67.6072 24.1374C68.5012 25.9254 69.1717 27.9369 69.7304 29.9483V53.8623C72.0771 49.0571 73.4181 43.6932 73.4181 37.9941C73.4181 28.2721 69.5069 19.3323 63.0255 12.9627C62.5786 12.5157 62.1316 12.1805 61.6846 11.7335H65.484C65.931 12.1805 66.378 12.7392 66.825 13.2979V9.16329H67.0485ZM32.8537 20.5615C31.9598 20.338 31.0658 20.1145 30.0601 20.1145H20.5615V30.1718C20.5615 35.4239 24.8079 39.6703 30.0601 39.6703V43.805C22.6847 43.805 16.6504 37.8824 16.4269 30.6188V30.1718V16.0916H30.0601C32.0715 16.0916 33.9712 16.5386 35.7592 17.3209C34.53 18.2148 33.636 19.3323 32.8537 20.5615ZM55.5385 27.1546V20.1145H46.0399C40.7878 20.1145 36.5414 24.3609 36.5414 29.6131V46.4869C36.5414 47.2692 36.6532 47.9396 36.7649 48.6101C36.0944 50.0629 34.9769 51.2921 33.7477 52.2978C32.8537 50.5098 32.4068 48.6101 32.4068 46.4869V29.6131C32.4068 22.126 38.5529 15.9799 46.0399 15.9799H59.6731V27.0429V27.1546C59.6731 29.8366 58.8909 32.295 57.4382 34.4182C56.4324 33.4125 55.315 32.6302 54.1975 31.848C55.0915 30.507 55.5385 28.8308 55.5385 27.1546ZM43.358 55.5385C44.252 55.762 45.146 55.9855 46.1517 55.9855H55.6502V45.9282C55.6502 40.6761 51.4038 36.4297 46.1517 36.4297V32.4068C53.527 32.4068 59.5614 38.3294 59.7849 45.593V45.9282V60.1201H46.1517C44.1402 60.1201 42.2405 59.6731 40.4526 58.8909C41.57 57.8852 42.5758 56.8794 43.358 55.5385ZM20.5615 49.0571V55.9855H30.0601C35.3122 55.9855 39.5586 51.7391 39.5586 46.4869V29.6131C39.5586 28.8308 39.4468 28.1604 39.3351 27.4899C40.0056 26.0372 41.1231 24.8079 42.3523 23.8022C43.2463 25.5902 43.6932 27.4899 43.6932 29.6131V46.4869C43.6932 53.974 37.5471 60.1201 30.0601 60.1201H16.4269V48.9454C16.4269 46.2634 17.2091 43.805 18.6618 41.6818C19.6675 42.6875 20.785 43.4697 21.9025 44.252C21.1203 45.5929 20.5615 47.2692 20.5615 49.0571ZM59.2261 6.48135H69.7304V16.9856C73.7533 23.02 76.2117 30.2836 76.2117 38.1059C76.2117 45.9282 73.865 53.1918 69.7304 59.2261V69.7304H59.2261C53.1918 73.7533 45.9282 76.2117 38.1059 76.2117C30.2835 76.2117 22.9082 73.7533 16.8739 69.7304H6.3696V59.2261C2.3467 53.1918 0 45.9282 0 38.1059C0 30.2836 2.3467 23.02 6.3696 16.9856V6.48135H16.8739C22.9082 2.3467 30.2835 0 38.1059 0C45.9282 0 53.1918 2.3467 59.2261 6.48135Z" fill="white"/>
<path d="M245.174 7.59863H244.056V34.9768H245.174V7.59863Z" fill="white"/>
<path fill-rule="evenodd" clip-rule="evenodd" d="M257.578 34.865V27.9366H262.718V26.8192H257.578V21.567H262.942V20.4496H256.237V34.865H257.578ZM266.629 34.865V20.4496H265.288V34.865H266.629ZM271.323 34.865V21.9023L278.698 34.865H280.486V20.4496H279.257V33.4123L271.881 20.4496H270.093V34.865H271.323ZM283.391 34.865L284.956 30.8421H292.331L293.896 34.865H295.237L289.426 20.4496H287.973L282.162 34.865H283.391ZM288.755 21.6788L291.996 29.7246H285.515L288.755 21.6788ZM298.142 34.865V21.9023L305.517 34.865H307.305V20.4496H306.188V33.4123L298.813 20.4496H297.025V34.865H298.142ZM320.715 33.3005C319.709 33.7475 318.815 33.8593 317.698 33.8593C313.787 33.8593 311.44 31.2891 311.44 27.6014C311.44 24.0255 313.787 21.3435 317.586 21.3435C318.592 21.3435 319.709 21.567 320.603 22.014L320.715 20.7848C319.821 20.3378 318.592 20.2261 317.586 20.2261C313.228 20.2261 310.099 23.4667 310.099 27.7132C310.099 32.183 313.005 35.2002 317.586 35.2002C318.592 35.2002 319.821 34.9767 320.715 34.6415V33.3005ZM330.325 34.865V33.7475H324.514V28.0484H329.878V26.9309H324.514V21.6788H330.102V20.5613H323.174V34.9767H330.325V34.865ZM255.455 55.5383C256.46 55.9852 257.466 56.2087 258.584 56.2087C261.154 56.2087 263.277 54.756 263.277 52.1858C263.277 50.1744 261.936 49.1687 260.483 48.2747L259.142 47.4924C257.913 46.822 257.243 46.1515 257.243 45.034C257.243 43.246 258.695 42.4638 260.371 42.4638C261.265 42.4638 262.048 42.6873 262.83 43.0225L262.942 41.6816C262.048 41.3463 261.265 41.2346 260.371 41.2346C258.137 41.2346 255.902 42.4638 255.902 45.034C255.902 46.7102 256.907 47.6042 258.248 48.3864L259.589 49.1687C260.93 49.9509 262.048 50.7331 262.048 52.0741C262.048 54.0855 260.707 54.9795 258.807 54.9795C257.913 54.9795 256.796 54.756 255.902 54.1973L255.455 55.5383ZM270.205 55.8735V42.5756H274.452V41.4581H264.618V42.5756H268.864V55.8735H270.205ZM278.139 55.5383C278.922 55.8735 279.927 56.097 281.045 56.097C285.291 56.097 287.414 52.5211 287.414 48.6099C287.414 44.587 285.515 41.1228 281.045 41.1228C276.798 41.1228 274.675 44.6988 274.675 48.6099C274.675 51.7388 275.793 54.309 278.139 55.5383ZM277.245 52.9681C276.463 51.7388 276.016 50.2861 276.016 48.7217C276.016 45.7045 277.469 42.4638 280.933 42.4638C284.397 42.4638 285.85 45.5927 285.85 48.7217C285.85 51.8506 284.397 54.9795 280.933 54.9795C279.257 54.9795 278.028 54.0855 277.245 52.9681ZM291.326 55.8735V48.9452H292.443C294.231 48.9452 294.566 49.2804 295.237 50.8449L297.36 55.7618H298.813L296.242 50.1744C295.795 49.2804 295.348 48.6099 294.343 48.3864C296.019 48.1629 297.583 46.9337 297.583 45.034C297.583 42.3521 295.572 41.2346 293.225 41.2346H289.761V55.8735H291.326ZM291.326 42.5756H292.89C294.79 42.5756 296.466 43.0225 296.466 45.1458C296.466 47.1572 294.566 47.8277 292.778 47.8277H291.214V42.5756H291.326ZM308.199 55.8735V54.756H302.388V49.0569H307.752V47.9394H302.388V42.6873H307.976V41.5698H301.048V55.8735H308.199Z" fill="white"/>
</g>
<defs>
<clipPath id="clip0">
<rect width="330.325" height="76.1" fill="white"/>
</clipPath>
</defs>
</svg>
