<svg width="92" height="91" viewBox="0 0 92 91" fill="none" xmlns="http://www.w3.org/2000/svg">
<path d="M70.7621 87.8018L61.1759 78.2551C60.841 77.9219 60.3871 77.7345 59.9137 77.7345C59.9129 77.7345 59.912 77.7345 59.9113 77.7345L54.7679 77.7418C54.7567 77.7418 54.7454 77.7418 54.7342 77.7418C51.8951 77.7418 49.0509 77.2219 46.389 76.23L49.4754 74.1692C50.7388 73.3256 51.5882 72.0412 51.8676 70.5523C52.1467 69.0632 51.8201 67.5599 50.9476 66.319C49.8627 64.7763 48.1156 63.9388 46.3367 63.9388C46.3078 63.9388 46.2789 63.939 46.2498 63.9395L53.3591 56.8605C55.5158 54.7128 55.5158 51.2182 53.3591 49.0704C52.8343 48.5479 52.2226 48.1435 51.5565 47.8702C52.0502 47.0345 52.3142 46.0799 52.3142 45.0847C52.3142 43.6134 51.7387 42.23 50.694 41.1895C49.6491 40.149 48.2598 39.576 46.7821 39.576C45.7827 39.576 44.8242 39.8391 43.9847 40.3307C43.7102 39.6674 43.3041 39.0583 42.7794 38.5356C41.7344 37.4951 40.3452 36.9221 38.8675 36.9221C37.3897 36.9221 36.0005 37.4951 34.9556 38.5356L32.4029 41.0773C32.1315 40.4818 31.7529 39.9329 31.2745 39.4564C30.2296 38.4159 28.8404 37.8431 27.3626 37.8431C25.8849 37.8431 24.4956 38.4161 23.4507 39.4564L22.3193 40.5831L17.7193 36.0284C16.3831 34.6979 16.3831 32.5329 17.7193 31.2024C18.9711 29.956 20.9581 29.8774 22.3027 30.966L26.7575 35.4021C27.1061 35.7492 27.5629 35.9227 28.0197 35.9227C28.4764 35.9227 28.9334 35.749 29.2818 35.4021C29.9788 34.7081 29.9788 33.5826 29.2818 32.8886L21.5965 25.2361C20.2603 23.9054 20.2603 21.7404 21.5965 20.4099C22.9327 19.0792 25.1072 19.0793 26.4434 20.4099L39.9085 33.8434C40.257 34.1905 40.7138 34.364 41.1706 34.364C41.6273 34.364 42.0843 34.1903 42.4327 33.8434C43.1297 33.1493 43.1297 32.0239 42.4327 31.3299L32.198 21.1128C31.1047 19.7737 31.1838 17.7954 32.4354 16.5491C33.7718 15.2186 35.9462 15.2186 37.2823 16.5491L41.0321 20.2831C41.7293 20.9774 42.8595 20.9774 43.5563 20.2831C44.2534 19.5891 44.2535 18.4637 43.5563 17.7696L39.8065 14.0356C37.0782 11.3191 32.6393 11.3193 29.9112 14.0356C29.0096 14.9333 28.4081 16.0175 28.1023 17.1644C26.9205 16.3152 25.5061 15.8558 24.02 15.8558C22.1509 15.8558 20.3938 16.5806 19.0723 17.8963C16.6165 20.3416 16.3727 24.1666 18.3379 26.8877C17.1859 27.192 16.0968 27.7912 15.195 28.6891C12.6204 31.2529 12.4769 35.3331 14.7618 38.0676C13.6353 38.3774 12.5717 38.9705 11.6879 39.8504C8.96002 42.5669 8.96002 46.987 11.6879 49.7037L12.4846 50.4969C9.47248 54.0982 7.8355 58.5915 7.84229 63.3364L7.84657 66.2804L0.522766 73.5736C-0.174255 74.2676 -0.174255 75.393 0.522766 76.0873C0.871365 76.4342 1.32813 76.6079 1.7849 76.6079C2.24167 76.6079 2.69861 76.4342 3.04703 76.0873L10.8947 68.2728C11.2301 67.9389 11.4182 67.4856 11.4175 67.0134L11.4122 63.3316C11.4057 58.9142 13.1302 54.7608 16.2672 51.6371L25.1252 42.8167C25.1252 42.8167 25.1252 42.8165 25.1254 42.8165L25.975 41.9705C26.3456 41.6013 26.8382 41.3982 27.3624 41.3982C27.8867 41.3982 28.3793 41.6013 28.7499 41.9705C29.1206 42.3394 29.3246 42.83 29.3246 43.352C29.3246 43.8001 29.1733 44.2247 28.8959 44.5695L26.5364 46.9189C25.8393 47.613 25.8393 48.7384 26.5364 49.4326C26.538 49.4342 26.5398 49.4355 26.5412 49.4371C26.5428 49.4387 26.544 49.4403 26.5456 49.4419C26.8942 49.7888 27.351 49.9625 27.8078 49.9625C28.2645 49.9625 28.7215 49.7888 29.0699 49.4419L37.4795 41.0494C37.8501 40.6803 38.3427 40.4771 38.8669 40.4771C39.3912 40.4771 39.8838 40.6805 40.2544 41.0494C40.9666 41.7586 41.0149 42.8815 40.4009 43.6479L31.8353 52.1957C31.1383 52.8897 31.1383 54.0152 31.8353 54.7094C32.1839 55.0563 32.6407 55.23 33.0975 55.23C33.5542 55.23 34.0112 55.0563 34.3596 54.7094L45.3939 43.7034C45.7645 43.3342 46.2571 43.1311 46.7814 43.1311C47.3056 43.1311 47.7983 43.3344 48.1688 43.7034C48.9338 44.4651 48.9338 45.7047 48.1688 46.4664L37.1159 57.4536C36.4189 58.1477 36.4187 59.2731 37.1159 59.9673C37.8131 60.6612 38.9433 60.6614 39.6402 59.9673L48.2247 51.4382C48.9942 50.8266 50.1219 50.8748 50.8341 51.5843C51.5991 52.3459 51.5991 53.5856 50.8341 54.3472L38.783 66.3473C37.9341 67.1924 37.8556 68.4884 38.5965 69.429C39.3373 70.3696 40.6203 70.6026 41.647 69.9828L45.2877 67.7851C46.2056 67.2308 47.4068 67.4826 48.0224 68.3583C48.3403 68.8103 48.4592 69.3577 48.3575 69.9002C48.2557 70.4423 47.9464 70.9101 47.4864 71.2172L39.0635 76.8414C36.3227 78.6715 33.131 79.6382 29.8314 79.6382C29.8237 79.6382 29.8157 79.6382 29.808 79.6382L24.0871 79.6301C24.0862 79.6301 24.0855 79.6301 24.0846 79.6301C23.6112 79.6301 23.1571 79.8174 22.8224 80.1506L14.9746 87.9651C14.2775 88.6591 14.2775 89.7846 14.9746 90.4788C15.3232 90.8257 15.7799 90.9994 16.2367 90.9994C16.6935 90.9994 17.1504 90.8257 17.4988 90.4788L24.8228 83.186L29.803 83.1931C29.8124 83.1931 29.8216 83.1931 29.8312 83.1931C33.8411 83.1931 37.7208 82.0179 41.0515 79.7939L42.8552 78.5896C46.5409 80.3605 50.6417 81.297 54.7333 81.297C54.746 81.297 54.7594 81.297 54.7722 81.297L59.1746 81.2908L68.2378 90.3154C68.5864 90.6624 69.0432 90.836 69.5 90.836C69.9567 90.836 70.4137 90.6624 70.7621 90.3154C71.4591 89.6214 71.4591 88.496 70.7621 87.8018ZM18.6267 44.2606C18.6266 44.2607 18.6266 44.2607 18.6264 44.2609L14.9483 47.9233L14.2124 47.1905C12.8762 45.8598 12.8762 43.6948 14.2124 42.3643C15.4642 41.1179 17.4512 41.0393 18.7958 42.1279L19.7821 43.1101L18.6267 44.2606Z" fill="white"/>
<path d="M90.8662 67.7847C90.5342 67.4523 90.0737 67.2639 89.6043 67.2639C89.1348 67.2639 88.6743 67.4523 88.3423 67.7847C88.0103 68.1153 87.8193 68.572 87.8193 69.0413C87.8193 69.5087 88.0103 69.9673 88.3423 70.2977C88.6743 70.6283 89.1348 70.8186 89.6043 70.8186C90.0737 70.8186 90.5342 70.6284 90.8662 70.2977C91.1982 69.9653 91.3892 69.5087 91.3892 69.0413C91.3892 68.5719 91.1982 68.1153 90.8662 67.7847Z" fill="white"/>
<path d="M86.0664 63.0047L81.8029 58.7593L81.8132 51.5731C81.8209 46.1437 80.22 40.8904 77.1831 36.3809L69.3266 24.7148C68.2535 23.1212 66.6194 22.0497 64.7254 21.6974C62.8312 21.3451 60.919 21.7573 59.3408 22.8578C56.7548 24.6609 55.7264 27.9142 56.6409 30.7981L51.9759 26.1528C51.2789 25.459 50.1487 25.459 49.4515 26.1528C48.7545 26.8469 48.7545 27.9723 49.4515 28.6665L59.4729 38.6453C60.4 39.5684 61.822 39.6539 62.8537 38.8479C63.8854 38.042 64.141 36.6466 63.4611 35.5299L60.391 30.4873C59.4272 28.904 59.8652 26.8318 61.3883 25.7698C62.1744 25.2219 63.1274 25.0166 64.07 25.192C65.0133 25.3674 65.8271 25.9012 66.3615 26.6948L74.2179 38.3609C76.858 42.2814 78.2499 46.8482 78.2432 51.5682L78.2319 59.4919C78.2312 59.9642 78.4193 60.4174 78.7547 60.7513L83.5421 65.5184C83.8907 65.8653 84.3475 66.0389 84.8042 66.0389C85.261 66.0389 85.718 65.8653 86.0664 65.5184C86.7634 64.8243 86.7634 63.6989 86.0664 63.0047Z" fill="white"/>
<path d="M47.7793 21.9754C47.4491 21.6448 46.9886 21.4546 46.5191 21.4546C46.0479 21.4546 45.5892 21.6448 45.2554 21.9754C44.9234 22.3059 44.7324 22.7645 44.7324 23.2319C44.7324 23.7012 44.9234 24.1579 45.2554 24.4885C45.5892 24.8191 46.0479 25.0093 46.5191 25.0093C46.9886 25.0093 47.4473 24.8191 47.7793 24.4885C48.1131 24.1579 48.3041 23.6994 48.3041 23.2319C48.3041 22.7645 48.1131 22.3059 47.7793 21.9754Z" fill="white"/>
<path d="M64.3444 49.5566C65.0415 48.8625 65.0415 47.7371 64.3444 47.0429C63.6474 46.349 62.5172 46.349 61.82 47.0429L61.0414 47.8181C57.7082 51.1373 57.7082 56.538 61.0414 59.857C61.39 60.2039 61.8468 60.3776 62.3035 60.3776C62.7603 60.3776 63.2173 60.2039 63.5657 59.857C64.2627 59.1629 64.2629 58.0375 63.5657 57.3433C61.6244 55.4102 61.6244 52.2647 63.5657 50.3317L64.3444 49.5566Z" fill="white"/>
<path d="M85.1954 9.5979C84.0608 9.5979 82.9516 9.91853 81.9925 10.5049C81.0335 9.91853 79.9243 9.5979 78.7896 9.5979C75.3743 9.5979 72.5957 12.4153 72.5957 15.8781C72.5957 17.8407 74.0128 20.1976 76.9279 23.084C78.8907 25.0274 80.8268 26.5065 80.9084 26.5685C81.2282 26.8122 81.6104 26.9339 81.9925 26.9339C82.3747 26.9339 82.7567 26.8122 83.0767 26.5685C83.1583 26.5065 85.0944 25.0272 87.0571 23.084C89.9723 20.1978 91.3894 17.8407 91.3894 15.8781C91.3894 12.4152 88.6108 9.5979 85.1954 9.5979ZM81.992 22.8828C79.009 20.4159 76.1656 17.2682 76.1656 15.8781C76.1656 14.3752 77.3428 13.1526 78.7896 13.1526C79.5093 13.1526 80.1808 13.4496 80.6806 13.9892C81.0187 14.3539 81.4942 14.5613 81.9925 14.5613C82.4909 14.5613 82.9666 14.3539 83.3045 13.9892C83.8043 13.4498 84.4758 13.1526 85.1954 13.1526C86.6423 13.1526 87.8195 14.3752 87.8195 15.8781C87.8195 17.2647 84.9752 20.4132 81.992 22.8828Z" fill="white"/>
<path d="M12.5997 0.000976571C11.4651 0.000976571 10.3559 0.321609 9.39684 0.907955C8.43779 0.321609 7.32862 0.000976571 6.19394 0.000976571C2.77862 0.000798837 0 2.81807 0 6.28104C0 8.24359 1.41707 10.6005 4.33224 13.4869C6.29496 15.4303 8.23127 16.9096 8.31266 16.9716C8.63253 17.2153 9.01468 17.337 9.39684 17.337C9.779 17.337 10.161 17.2153 10.481 16.9716C10.5626 16.9096 12.4987 15.4303 14.4614 13.4871C17.3766 10.6007 18.7937 8.24376 18.7937 6.28122C18.7937 2.81824 16.0151 0.000976571 12.5997 0.000976571ZM9.3963 13.2857C6.41313 10.8188 3.56989 7.67128 3.56989 6.28104C3.56989 4.77812 4.74706 3.55549 6.19394 3.55549C6.91363 3.55549 7.58512 3.85248 8.08491 4.39208C8.42297 4.75679 8.89848 4.96421 9.39684 4.96421C9.8952 4.96421 10.3709 4.75679 10.7088 4.39208C11.2086 3.85266 11.8801 3.55549 12.5997 3.55549C14.0466 3.55549 15.2238 4.77812 15.2238 6.28104C15.2238 7.66737 12.3795 10.8161 9.3963 13.2857Z" fill="white"/>
</svg>
