<svg width="91" height="91" viewBox="0 0 91 91" fill="none" xmlns="http://www.w3.org/2000/svg">
<g clip-path="url(#clip0)">
<path d="M24.5508 45.5168C25.4465 45.4531 26.1209 44.6754 26.0572 43.7797C25.9934 42.884 25.2157 42.2096 24.32 42.2733C23.4243 42.337 22.7499 43.1148 22.8136 44.0104C22.8773 44.9061 23.6551 45.5806 24.5508 45.5168Z" fill="white"/>
<path d="M35.481 45.5003C36.3785 45.5003 37.106 44.7727 37.106 43.8753C37.106 42.9778 36.3785 42.2502 35.481 42.2502C34.5835 42.2502 33.856 42.9778 33.856 43.8753C33.856 44.7727 34.5835 45.5003 35.481 45.5003Z" fill="white"/>
<path d="M54.6079 46.5872C55.5054 46.5872 56.233 45.8597 56.233 44.9622C56.233 44.0647 55.5054 43.3372 54.6079 43.3372C53.7105 43.3372 52.9829 44.0647 52.9829 44.9622C52.9829 45.8597 53.7105 46.5872 54.6079 46.5872Z" fill="white"/>
<path d="M65.6704 46.5872C66.5679 46.5872 67.2955 45.8597 67.2955 44.9622C67.2955 44.0647 66.5679 43.3372 65.6704 43.3372C64.773 43.3372 64.0454 44.0647 64.0454 44.9622C64.0454 45.8597 64.773 46.5872 65.6704 46.5872Z" fill="white"/>
<path d="M64.1715 50.2774C63.5208 49.9072 62.6931 50.1334 62.3218 50.7843C61.8752 51.5683 61.0386 52.0554 60.1391 52.0554C59.2394 52.0554 58.4028 51.5683 57.9561 50.7843C57.5852 50.1334 56.7566 49.9068 56.1065 50.2774C55.4556 50.6481 55.2286 51.4764 55.5996 52.1271C56.5279 53.756 58.2672 54.7677 60.1391 54.7677C62.011 54.7677 63.7503 53.7558 64.6784 52.1271C65.0493 51.4764 64.8224 50.6481 64.1715 50.2774Z" fill="white"/>
<path d="M77.2902 46.5249C78.2232 43.6557 76.9061 40.6461 74.354 39.8161C74.0755 39.7256 73.7055 39.6488 73.2983 39.6508V34.7983C73.2983 30.9036 70.4727 27.6587 66.7643 27C66.6002 23.4658 63.674 20.6409 60.0998 20.6409C56.5209 20.6409 53.592 23.4734 53.4349 27.0142C49.7654 27.7047 46.9799 30.9315 46.9799 34.7985V39.651C46.5683 39.6488 46.2027 39.726 45.9242 39.8165C45.6053 39.9201 45.3059 40.0578 45.0277 40.2251C44.7563 40.066 44.4687 39.9346 44.1644 39.8358C43.8861 39.7454 43.5193 39.6663 43.1085 39.6716V33.2106C43.1085 29.2725 39.9045 26.0685 35.9664 26.0685H23.9324C19.9943 26.0685 16.7903 29.2725 16.7903 33.2106V39.6714C16.3792 39.6654 16.0127 39.7454 15.7348 39.8356C14.4593 40.2505 13.4571 41.2042 12.9129 42.5216C12.3996 43.7638 12.3591 45.1924 12.7988 46.5444C13.3899 48.3621 14.9403 50.2767 16.7905 51.0142V53.7414C16.7905 60.9974 22.6936 66.9005 29.9496 66.9005C37.2056 66.9005 43.1087 60.9972 43.1087 53.7412V51.0087C43.8284 50.7167 44.4861 50.2507 45.0471 49.7207C45.6938 50.3323 46.4371 50.8216 47.2305 51.0878C48.4286 57.201 53.8136 61.6966 60.1394 61.6966C66.4651 61.6966 71.85 57.201 73.0481 51.088C75.0079 50.4299 76.6726 48.4239 77.2902 46.5249ZM60.0999 23.3529C62.1357 23.3529 63.8171 24.8973 64.0355 26.8756H56.1645C56.383 24.8973 58.0642 23.3529 60.0999 23.3529ZM49.6923 34.7983C49.6923 31.9252 52.0299 29.5878 54.9028 29.5878H65.3756C68.2487 29.5878 70.5861 31.9254 70.5861 34.7983V37.0564C70.205 37.1028 69.8227 37.1263 69.4424 37.1263C66.3299 37.1263 63.4751 35.6523 61.6098 33.0823C61.2881 32.639 60.77 32.3834 60.222 32.3895C59.6751 32.3987 59.1661 32.6749 58.8604 33.128C57.0317 35.8343 54.0317 37.4499 50.8357 37.4499C50.4554 37.4499 50.073 37.4265 49.692 37.3801L49.6923 34.7983ZM23.9326 28.7802H35.9666C38.4092 28.7802 40.3965 30.7675 40.3965 33.2101V35.082C39.0025 33.862 37.1795 33.1205 35.186 33.1205H24.7132C22.7195 33.1205 20.8967 33.8618 19.5027 35.082V33.2101C19.5027 30.7675 21.49 28.7802 23.9326 28.7802ZM40.3967 53.7409C40.3967 59.5014 35.7102 64.1879 29.9498 64.1879C24.1894 64.1879 19.5029 59.5014 19.5029 53.7411V52.7855C20.1552 55.0952 21.6883 57.0924 23.7732 58.3234C24.3474 58.6627 25.0466 58.7581 25.6907 58.5845C26.3343 58.4114 26.8672 57.9985 27.191 57.4217C27.7514 56.4245 28.8085 55.8051 29.95 55.8051C31.0914 55.8051 32.1485 56.4245 32.7089 57.4216C33.0331 57.9985 33.5658 58.4114 34.2094 58.5845C34.8537 58.7581 35.5525 58.6627 36.1268 58.3236C38.2118 57.0924 39.7447 55.095 40.397 52.7855L40.3967 53.7409ZM42.7221 48.1405C42.5782 47.9657 42.3985 47.8182 42.1889 47.7102C41.6227 47.4174 40.9482 47.4645 40.4288 47.8332C39.1234 48.7597 38.2192 50.1199 37.8826 51.6639C37.5056 53.3938 36.4387 54.9146 34.9407 55.8694C33.872 54.1505 31.9831 53.093 29.9496 53.093C27.9163 53.093 26.0274 54.1504 24.9585 55.8694C23.4603 54.9146 22.3936 53.3938 22.0166 51.6639C21.6803 50.1211 20.7769 48.7613 19.4727 47.8349C19.2432 47.672 18.9688 47.5843 18.6875 47.5843C18.1296 47.5843 17.6287 47.8278 17.2812 48.2126C16.488 47.6773 15.6969 46.6859 15.3781 45.7053C15.1378 44.9663 15.1525 44.2033 15.4196 43.5567C15.6557 42.9853 16.0655 42.5797 16.5737 42.4144C16.7491 42.3577 16.8081 42.3387 17.042 42.667C17.384 43.1474 17.997 43.3521 18.5595 43.1721C19.1215 42.9926 19.5027 42.4704 19.5027 41.8805V41.0434C19.5027 38.1703 21.8401 35.8329 24.7132 35.8329H35.186C38.0591 35.8329 40.3965 38.1705 40.3965 41.0434V41.8805C40.3965 42.4704 40.7777 42.9926 41.3397 43.1721C41.9014 43.3521 42.5152 43.1476 42.8572 42.667C43.0022 42.4634 43.0801 42.3936 43.1599 42.3833C42.6196 43.6024 42.519 45.0811 42.9884 46.5249C43.097 46.859 43.2399 47.1963 43.4093 47.5292C43.1885 47.766 42.9555 47.9723 42.7221 48.1405ZM70.5086 49.79C69.8824 55.0314 65.4247 58.9839 60.1392 58.9839C54.8539 58.9839 50.3962 55.0314 49.77 49.79C49.6916 49.1338 49.1517 48.6298 48.4914 48.5965C47.4771 48.5455 46.0287 47.1039 45.5677 45.6861C45.2188 44.6135 45.4242 43.5258 46.0136 42.8847C46.0289 42.8687 46.0452 42.8532 46.0596 42.8367C46.2566 42.6369 46.4922 42.4837 46.7631 42.3957C46.9378 42.3383 46.9974 42.3191 47.2316 42.6481C47.5739 43.1285 48.1871 43.3333 48.7493 43.1531C49.3111 42.9735 49.6923 42.4514 49.6923 41.8615V40.1072C50.0736 40.1435 50.4554 40.1625 50.8361 40.1625C54.481 40.1625 57.9214 38.5316 60.2802 35.7405C62.6278 38.3277 65.9632 39.8388 69.4425 39.8388C69.8232 39.8388 70.205 39.8196 70.5863 39.7836V41.8616C70.5863 42.4515 70.9677 42.9737 71.5295 43.1532C72.0906 43.3331 72.7049 43.1287 73.047 42.6481C73.2811 42.3198 73.3399 42.339 73.5157 42.3956C74.6452 42.7629 75.1814 44.2394 74.7111 45.6863C74.2499 47.1043 72.8017 48.5457 71.7872 48.5967C71.1269 48.6298 70.587 49.1338 70.5086 49.79Z" fill="white"/>
<path d="M37.9299 49.265C36.8501 49.064 35.8173 48.6566 34.8917 48.0666C33.8466 47.4004 32.5619 47.198 31.3866 47.5916C31.1765 47.662 30.9675 47.7411 30.7601 47.8291C30.3687 48.0921 29.7815 48.2308 29.1389 47.8291C28.9315 47.7411 28.7225 47.662 28.5124 47.5916C27.3373 47.198 26.0526 47.4004 25.0073 48.0666C24.0817 48.6565 23.0491 49.064 21.9691 49.2648C21.4779 49.3562 21.3695 50.0058 21.8006 50.2584C22.1156 50.4429 22.446 50.6092 22.791 50.7555C24.8651 51.6349 27.0916 51.6301 29.052 50.9121C29.2802 50.8285 29.4729 50.7059 29.6298 50.5568C29.8095 50.3863 30.0886 50.3863 30.2683 50.5568C30.4254 50.7057 30.6179 50.8284 30.8461 50.9121C32.8067 51.6301 35.0331 51.6349 37.1071 50.7555C37.4521 50.6092 37.7825 50.4429 38.0975 50.2584C38.5295 50.0058 38.4211 49.3564 37.9299 49.265Z" fill="white"/>
<path d="M11.3315 60.8965L10.6917 61.2098M11.3315 60.8965L19.3905 12.4473C17.7269 12.6014 15.9784 12.6862 14.1931 12.6992L9.56787 12.7329C7.68016 12.7464 6.14453 14.2934 6.14453 16.1812V41.5856C6.14453 48.3493 7.71695 55.1352 10.6917 61.2098M11.3315 60.8965L10.6917 61.2098M11.3315 60.8965L10.6917 61.2098" fill="white" stroke="white" stroke-width="4"/>
<mask id="path-9-inside-1" fill="white">
<path d="M81.4321 12.7327L76.8069 12.6989C61.4389 12.5875 54.3884 7.18385 52.0702 4.86566C51.2138 4.00951 50.4087 3.0764 49.6772 2.09229C48.6916 0.766746 47.1786 0.00408789 45.5262 0C45.5219 0 45.5176 0 45.5134 0C43.8603 0 42.3428 0.758748 41.3491 2.08251C40.6203 3.05294 39.8065 3.9896 38.9299 4.86601C36.8273 6.96861 32.8319 9.81751 25.739 11.4482C25.009 11.6162 24.5535 12.3438 24.7213 13.0738C24.8891 13.8037 25.6173 14.2591 26.3467 14.0915C34.0669 12.3165 38.4936 9.13786 40.8477 6.78377C41.8144 5.81707 42.7126 4.78319 43.5178 3.71092C43.9943 3.07587 44.7214 2.71223 45.5134 2.71223H45.5196C46.3082 2.71418 47.03 3.078 47.5004 3.71074C48.3106 4.80061 49.2028 5.83449 50.1521 6.78377C52.7066 9.33817 60.4155 15.2924 76.787 15.4112L81.4123 15.4449C81.8153 15.4478 82.143 15.778 82.143 16.1809V41.5854C82.143 47.9376 80.6662 54.3112 77.8724 60.0166C75.8923 64.0597 73.2726 67.7529 70.086 70.9932C69.5608 71.5271 69.5681 72.3859 70.102 72.9109C70.3662 73.1706 70.7095 73.3001 71.0529 73.3001C71.4036 73.3001 71.7544 73.1647 72.0198 72.8949C75.4111 69.4462 78.1998 65.5149 80.3081 61.2096C83.2828 55.1346 84.8552 48.3489 84.8552 41.5854V16.1809C84.8554 14.2934 83.3196 12.7464 81.4321 12.7327Z"/>
</mask>
<path d="M81.4321 12.7327L76.8069 12.6989C61.4389 12.5875 54.3884 7.18385 52.0702 4.86566C51.2138 4.00951 50.4087 3.0764 49.6772 2.09229C48.6916 0.766746 47.1786 0.00408789 45.5262 0C45.5219 0 45.5176 0 45.5134 0C43.8603 0 42.3428 0.758748 41.3491 2.08251C40.6203 3.05294 39.8065 3.9896 38.9299 4.86601C36.8273 6.96861 32.8319 9.81751 25.739 11.4482C25.009 11.6162 24.5535 12.3438 24.7213 13.0738C24.8891 13.8037 25.6173 14.2591 26.3467 14.0915C34.0669 12.3165 38.4936 9.13786 40.8477 6.78377C41.8144 5.81707 42.7126 4.78319 43.5178 3.71092C43.9943 3.07587 44.7214 2.71223 45.5134 2.71223H45.5196C46.3082 2.71418 47.03 3.078 47.5004 3.71074C48.3106 4.80061 49.2028 5.83449 50.1521 6.78377C52.7066 9.33817 60.4155 15.2924 76.787 15.4112L81.4123 15.4449C81.8153 15.4478 82.143 15.778 82.143 16.1809V41.5854C82.143 47.9376 80.6662 54.3112 77.8724 60.0166C75.8923 64.0597 73.2726 67.7529 70.086 70.9932C69.5608 71.5271 69.5681 72.3859 70.102 72.9109C70.3662 73.1706 70.7095 73.3001 71.0529 73.3001C71.4036 73.3001 71.7544 73.1647 72.0198 72.8949C75.4111 69.4462 78.1998 65.5149 80.3081 61.2096C83.2828 55.1346 84.8552 48.3489 84.8552 41.5854V16.1809C84.8554 14.2934 83.3196 12.7464 81.4321 12.7327Z" fill="white"/>
<path d="M81.4321 12.7327L81.4029 16.7326L81.4031 16.7326L81.4321 12.7327ZM76.8069 12.6989L76.8361 8.69905L76.8359 8.69905L76.8069 12.6989ZM52.0702 4.86566L54.8986 2.03723L54.8983 2.03694L52.0702 4.86566ZM49.6772 2.09229L52.8874 -0.294053L52.8872 -0.29433L49.6772 2.09229ZM45.5262 0L45.5361 -4H45.5262V0ZM41.3491 2.08251L44.5477 4.48439L44.548 4.48389L41.3491 2.08251ZM38.9299 4.86601L36.1018 2.0373L36.1015 2.03759L38.9299 4.86601ZM25.739 11.4482L24.8427 7.54993L24.8421 7.55009L25.739 11.4482ZM26.3467 14.0915L27.2424 17.9899L27.243 17.9898L26.3467 14.0915ZM40.8477 6.78377L43.6761 9.61219L40.8477 6.78377ZM43.5178 3.71092L46.7164 6.1127L46.7172 6.11163L43.5178 3.71092ZM45.5196 2.71223L45.5295 -1.28777H45.5196V2.71223ZM47.5004 3.71074L50.7107 1.3245L50.7104 1.32403L47.5004 3.71074ZM50.1521 6.78377L47.3236 9.61219L47.3237 9.61229L50.1521 6.78377ZM76.787 15.4112L76.8162 11.4113L76.816 11.4113L76.787 15.4112ZM81.4123 15.4449L81.3831 19.4448L81.3841 19.4448L81.4123 15.4449ZM77.8724 60.0166L81.4647 61.776L81.4648 61.7757L77.8724 60.0166ZM70.086 70.9932L72.9376 73.7982L72.938 73.7979L70.086 70.9932ZM70.102 72.9109L67.2974 75.763L67.2977 75.7632L70.102 72.9109ZM72.0198 72.8949L74.8716 75.6998L74.8719 75.6995L72.0198 72.8949ZM80.3081 61.2096L83.9005 62.9688L83.9005 62.9687L80.3081 61.2096ZM84.8552 16.1809L80.8552 16.1806V16.1809H84.8552ZM81.4613 8.73282L76.8361 8.69905L76.7777 16.6988L81.4029 16.7326L81.4613 8.73282ZM76.8359 8.69905C62.5086 8.59516 56.4667 3.6053 54.8986 2.03723L49.2417 7.69408C52.3101 10.7624 60.3692 16.5799 76.7779 16.6988L76.8359 8.69905ZM54.8983 2.03694C54.1817 1.32047 53.504 0.535468 52.8874 -0.294053L46.467 4.47863C47.3134 5.61734 48.246 6.69855 49.242 7.69438L54.8983 2.03694ZM52.8872 -0.29433C51.1487 -2.6326 48.4493 -3.99278 45.5361 -3.99999L45.5163 3.99999C45.9078 4.00096 46.2346 4.16609 46.4672 4.47891L52.8872 -0.29433ZM45.5262 -4C45.5262 -4 45.5262 -4 45.5261 -4C45.5261 -4 45.5261 -4 45.5261 -4C45.5261 -4 45.5261 -4 45.5261 -4C45.5261 -4 45.5261 -4 45.5261 -4C45.5261 -4 45.5261 -4 45.526 -4C45.526 -4 45.526 -4 45.526 -4C45.526 -4 45.526 -4 45.526 -4C45.526 -4 45.526 -4 45.526 -4C45.526 -4 45.526 -4 45.5259 -4C45.5259 -4 45.5259 -4 45.5259 -4C45.5259 -4 45.5259 -4 45.5259 -4C45.5259 -4 45.5259 -4 45.5259 -4C45.5259 -4 45.5259 -4 45.5258 -4C45.5258 -4 45.5258 -4 45.5258 -4C45.5258 -4 45.5258 -4 45.5258 -4C45.5258 -4 45.5258 -4 45.5258 -4C45.5258 -4 45.5258 -4 45.5257 -4C45.5257 -4 45.5257 -4 45.5257 -4C45.5257 -4 45.5257 -4 45.5257 -4C45.5257 -4 45.5257 -4 45.5257 -4C45.5257 -4 45.5257 -4 45.5256 -4C45.5256 -4 45.5256 -4 45.5256 -4C45.5256 -4 45.5256 -4 45.5256 -4C45.5256 -4 45.5256 -4 45.5256 -4C45.5256 -4 45.5256 -4 45.5255 -4C45.5255 -4 45.5255 -4 45.5255 -4C45.5255 -4 45.5255 -4 45.5255 -4C45.5255 -4 45.5255 -4 45.5255 -4C45.5255 -4 45.5255 -4 45.5254 -4C45.5254 -4 45.5254 -4 45.5254 -4C45.5254 -4 45.5254 -4 45.5254 -4C45.5254 -4 45.5254 -4 45.5254 -4C45.5254 -4 45.5254 -4 45.5253 -4C45.5253 -4 45.5253 -4 45.5253 -4C45.5253 -4 45.5253 -4 45.5253 -4C45.5253 -4 45.5253 -4 45.5253 -4C45.5253 -4 45.5253 -4 45.5252 -4C45.5252 -4 45.5252 -4 45.5252 -4C45.5252 -4 45.5252 -4 45.5252 -4C45.5252 -4 45.5252 -4 45.5252 -4C45.5252 -4 45.5252 -4 45.5251 -4C45.5251 -4 45.5251 -4 45.5251 -4C45.5251 -4 45.5251 -4 45.5251 -4C45.5251 -4 45.5251 -4 45.5251 -4C45.5251 -4 45.5251 -4 45.525 -4C45.525 -4 45.525 -4 45.525 -4C45.525 -4 45.525 -4 45.525 -4C45.525 -4 45.525 -4 45.525 -4C45.525 -4 45.525 -4 45.5249 -4C45.5249 -4 45.5249 -4 45.5249 -4C45.5249 -4 45.5249 -4 45.5249 -4C45.5249 -4 45.5249 -4 45.5249 -4C45.5249 -4 45.5249 -4 45.5248 -4C45.5248 -4 45.5248 -4 45.5248 -4C45.5248 -4 45.5248 -4 45.5248 -4C45.5248 -4 45.5248 -4 45.5248 -4C45.5248 -4 45.5248 -4 45.5247 -4C45.5247 -4 45.5247 -4 45.5247 -4C45.5247 -4 45.5247 -4 45.5247 -4C45.5247 -4 45.5247 -4 45.5247 -4C45.5247 -4 45.5247 -4 45.5246 -4C45.5246 -4 45.5246 -4 45.5246 -4C45.5246 -4 45.5246 -4 45.5246 -4C45.5246 -4 45.5246 -4 45.5246 -4C45.5246 -4 45.5246 -4 45.5245 -4C45.5245 -4 45.5245 -4 45.5245 -4C45.5245 -4 45.5245 -4 45.5245 -4C45.5245 -4 45.5245 -4 45.5245 -4C45.5245 -4 45.5245 -4 45.5244 -4C45.5244 -4 45.5244 -4 45.5244 -4C45.5244 -4 45.5244 -4 45.5244 -4C45.5244 -4 45.5244 -4 45.5244 -4C45.5244 -4 45.5244 -4 45.5243 -4C45.5243 -4 45.5243 -4 45.5243 -4C45.5243 -4 45.5243 -4 45.5243 -4C45.5243 -4 45.5243 -4 45.5243 -4C45.5243 -4 45.5243 -4 45.5242 -4C45.5242 -4 45.5242 -4 45.5242 -4C45.5242 -4 45.5242 -4 45.5242 -4C45.5242 -4 45.5242 -4 45.5242 -4C45.5242 -4 45.5242 -4 45.5241 -4C45.5241 -4 45.5241 -4 45.5241 -4C45.5241 -4 45.5241 -4 45.5241 -4C45.5241 -4 45.5241 -4 45.5241 -4C45.5241 -4 45.5241 -4 45.524 -4C45.524 -4 45.524 -4 45.524 -4C45.524 -4 45.524 -4 45.524 -4C45.524 -4 45.524 -4 45.524 -4C45.524 -4 45.524 -4 45.5239 -4C45.5239 -4 45.5239 -4 45.5239 -4C45.5239 -4 45.5239 -4 45.5239 -4C45.5239 -4 45.5239 -4 45.5239 -4C45.5239 -4 45.5239 -4 45.5238 -4C45.5238 -4 45.5238 -4 45.5238 -4C45.5238 -4 45.5238 -4 45.5238 -4C45.5238 -4 45.5238 -4 45.5238 -4C45.5238 -4 45.5238 -4 45.5237 -4C45.5237 -4 45.5237 -4 45.5237 -4C45.5237 -4 45.5237 -4 45.5237 -4C45.5237 -4 45.5237 -4 45.5237 -4C45.5237 -4 45.5237 -4 45.5236 -4C45.5236 -4 45.5236 -4 45.5236 -4C45.5236 -4 45.5236 -4 45.5236 -4C45.5236 -4 45.5236 -4 45.5236 -4C45.5236 -4 45.5236 -4 45.5235 -4C45.5235 -4 45.5235 -4 45.5235 -4C45.5235 -4 45.5235 -4 45.5235 -4C45.5235 -4 45.5235 -4 45.5235 -4C45.5235 -4 45.5235 -4 45.5234 -4C45.5234 -4 45.5234 -4 45.5234 -4C45.5234 -4 45.5234 -4 45.5234 -4C45.5234 -4 45.5234 -4 45.5234 -4C45.5234 -4 45.5234 -4 45.5233 -4C45.5233 -4 45.5233 -4 45.5233 -4C45.5233 -4 45.5233 -4 45.5233 -4C45.5233 -4 45.5233 -4 45.5233 -4C45.5233 -4 45.5233 -4 45.5232 -4C45.5232 -4 45.5232 -4 45.5232 -4C45.5232 -4 45.5232 -4 45.5232 -4C45.5232 -4 45.5232 -4 45.5232 -4C45.5232 -4 45.5232 -4 45.5231 -4C45.5231 -4 45.5231 -4 45.5231 -4C45.5231 -4 45.5231 -4 45.5231 -4C45.5231 -4 45.5231 -4 45.5231 -4C45.5231 -4 45.5231 -4 45.523 -4C45.523 -4 45.523 -4 45.523 -4C45.523 -4 45.523 -4 45.523 -4C45.523 -4 45.523 -4 45.523 -4C45.523 -4 45.523 -4 45.5229 -4C45.5229 -4 45.5229 -4 45.5229 -4C45.5229 -4 45.5229 -4 45.5229 -4C45.5229 -4 45.5229 -4 45.5229 -4C45.5229 -4 45.5229 -4 45.5228 -4C45.5228 -4 45.5228 -4 45.5228 -4C45.5228 -4 45.5228 -4 45.5228 -4C45.5228 -4 45.5228 -4 45.5228 -4C45.5228 -4 45.5228 -4 45.5227 -4C45.5227 -4 45.5227 -4 45.5227 -4C45.5227 -4 45.5227 -4 45.5227 -4C45.5227 -4 45.5227 -4 45.5227 -4C45.5227 -4 45.5227 -4 45.5226 -4C45.5226 -4 45.5226 -4 45.5226 -4C45.5226 -4 45.5226 -4 45.5226 -4C45.5226 -4 45.5226 -4 45.5226 -4C45.5226 -4 45.5226 -4 45.5225 -4C45.5225 -4 45.5225 -4 45.5225 -4C45.5225 -4 45.5225 -4 45.5225 -4C45.5225 -4 45.5225 -4 45.5225 -4C45.5225 -4 45.5225 -4 45.5224 -4C45.5224 -4 45.5224 -4 45.5224 -4C45.5224 -4 45.5224 -4 45.5224 -4C45.5224 -4 45.5224 -4 45.5224 -4C45.5224 -4 45.5224 -4 45.5223 -4C45.5223 -4 45.5223 -4 45.5223 -4C45.5223 -4 45.5223 -4 45.5223 -4C45.5223 -4 45.5223 -4 45.5223 -4C45.5223 -4 45.5223 -4 45.5222 -4C45.5222 -4 45.5222 -4 45.5222 -4C45.5222 -4 45.5222 -4 45.5222 -4C45.5222 -4 45.5222 -4 45.5222 -4C45.5222 -4 45.5222 -4 45.5222 -4C45.5221 -4 45.5221 -4 45.5221 -4C45.5221 -4 45.5221 -4 45.5221 -4C45.5221 -4 45.5221 -4 45.5221 -4C45.5221 -4 45.5221 -4 45.522 -4C45.522 -4 45.522 -4 45.522 -4C45.522 -4 45.522 -4 45.522 -4C45.522 -4 45.522 -4 45.522 -4C45.522 -4 45.522 -4 45.5219 -4C45.5219 -4 45.5219 -4 45.5219 -4C45.5219 -4 45.5219 -4 45.5219 -4C45.5219 -4 45.5219 -4 45.5219 -4C45.5219 -4 45.5219 -4 45.5218 -4C45.5218 -4 45.5218 -4 45.5218 -4C45.5218 -4 45.5218 -4 45.5218 -4C45.5218 -4 45.5218 -4 45.5218 -4C45.5218 -4 45.5218 -4 45.5217 -4C45.5217 -4 45.5217 -4 45.5217 -4C45.5217 -4 45.5217 -4 45.5217 -4C45.5217 -4 45.5217 -4 45.5217 -4C45.5217 -4 45.5217 -4 45.5217 -4C45.5216 -4 45.5216 -4 45.5216 -4C45.5216 -4 45.5216 -4 45.5216 -4C45.5216 -4 45.5216 -4 45.5216 -4C45.5216 -4 45.5216 -4 45.5215 -4C45.5215 -4 45.5215 -4 45.5215 -4C45.5215 -4 45.5215 -4 45.5215 -4C45.5215 -4 45.5215 -4 45.5215 -4C45.5215 -4 45.5215 -4 45.5215 -4C45.5214 -4 45.5214 -4 45.5214 -4C45.5214 -4 45.5214 -4 45.5214 -4C45.5214 -4 45.5214 -4 45.5214 -4C45.5214 -4 45.5214 -4 45.5213 -4C45.5213 -4 45.5213 -4 45.5213 -4C45.5213 -4 45.5213 -4 45.5213 -4C45.5213 -4 45.5213 -4 45.5213 -4C45.5213 -4 45.5213 -4 45.5212 -4C45.5212 -4 45.5212 -4 45.5212 -4C45.5212 -4 45.5212 -4 45.5212 -4C45.5212 -4 45.5212 -4 45.5212 -4C45.5212 -4 45.5212 -4 45.5212 -4C45.5211 -4 45.5211 -4 45.5211 -4C45.5211 -4 45.5211 -4 45.5211 -4C45.5211 -4 45.5211 -4 45.5211 -4C45.5211 -4 45.5211 -4 45.521 -4C45.521 -4 45.521 -4 45.521 -4C45.521 -4 45.521 -4 45.521 -4C45.521 -4 45.521 -4 45.521 -4C45.521 -4 45.521 -4 45.521 -4C45.5209 -4 45.5209 -4 45.5209 -4C45.5209 -4 45.5209 -4 45.5209 -4C45.5209 -4 45.5209 -4 45.5209 -4C45.5209 -4 45.5209 -4 45.5208 -4C45.5208 -4 45.5208 -4 45.5208 -4C45.5208 -4 45.5208 -4 45.5208 -4C45.5208 -4 45.5208 -4 45.5208 -4C45.5208 -4 45.5208 -4 45.5208 -4C45.5207 -4 45.5207 -4 45.5207 -4C45.5207 -4 45.5207 -4 45.5207 -4C45.5207 -4 45.5207 -4 45.5207 -4C45.5207 -4 45.5207 -4 45.5207 -4C45.5206 -4 45.5206 -4 45.5206 -4C45.5206 -4 45.5206 -4 45.5206 -4C45.5206 -4 45.5206 -4 45.5206 -4C45.5206 -4 45.5206 -4 45.5205 -4C45.5205 -4 45.5205 -4 45.5205 -4C45.5205 -4 45.5205 -4 45.5205 -4C45.5205 -4 45.5205 -4 45.5205 -4C45.5205 -4 45.5205 -4 45.5205 -4C45.5204 -4 45.5204 -4 45.5204 -4C45.5204 -4 45.5204 -4 45.5204 -4C45.5204 -4 45.5204 -4 45.5204 -4C45.5204 -4 45.5204 -4 45.5203 -4C45.5203 -4 45.5203 -4 45.5203 -4C45.5203 -4 45.5203 -4 45.5203 -4C45.5203 -4 45.5203 -4 45.5203 -4C45.5203 -4 45.5203 -4 45.5203 -4C45.5202 -4 45.5202 -4 45.5202 -4C45.5202 -4 45.5202 -4 45.5202 -4C45.5202 -4 45.5202 -4 45.5202 -4C45.5202 -4 45.5202 -4 45.5202 -4C45.5201 -4 45.5201 -4 45.5201 -4C45.5201 -4 45.5201 -4 45.5201 -4C45.5201 -4 45.5201 -4 45.5201 -4C45.5201 -4 45.5201 -4 45.5201 -4C45.52 -4 45.52 -4 45.52 -4C45.52 -4 45.52 -4 45.52 -4C45.52 -4 45.52 -4 45.52 -4C45.52 -4 45.52 -4 45.52 -4C45.5199 -4 45.5199 -4 45.5199 -4C45.5199 -4 45.5199 -4 45.5199 -4C45.5199 -4 45.5199 -4 45.5199 -4C45.5199 -4 45.5199 -4 45.5198 -4C45.5198 -4 45.5198 -4 45.5198 -4C45.5198 -4 45.5198 -4 45.5198 -4C45.5198 -4 45.5198 -4 45.5198 -4C45.5198 -4 45.5198 -4 45.5198 -4C45.5197 -4 45.5197 -4 45.5197 -4C45.5197 -4 45.5197 -4 45.5197 -4C45.5197 -4 45.5197 -4 45.5197 -4C45.5197 -4 45.5197 -4 45.5196 -4C45.5196 -4 45.5196 -4 45.5196 -4C45.5196 -4 45.5196 -4 45.5196 -4C45.5196 -4 45.5196 -4 45.5196 -4C45.5196 -4 45.5196 -4 45.5196 -4C45.5195 -4 45.5195 -4 45.5195 -4C45.5195 -4 45.5195 -4 45.5195 -4C45.5195 -4 45.5195 -4 45.5195 -4C45.5195 -4 45.5195 -4 45.5195 -4C45.5194 -4 45.5194 -4 45.5194 -4C45.5194 -4 45.5194 -4 45.5194 -4C45.5194 -4 45.5194 -4 45.5194 -4C45.5194 -4 45.5194 -4 45.5194 -4C45.5193 -4 45.5193 -4 45.5193 -4C45.5193 -4 45.5193 -4 45.5193 -4C45.5193 -4 45.5193 -4 45.5193 -4C45.5193 -4 45.5193 -4 45.5193 -4C45.5192 -4 45.5192 -4 45.5192 -4C45.5192 -4 45.5192 -4 45.5192 -4C45.5192 -4 45.5192 -4 45.5192 -4C45.5192 -4 45.5192 -4 45.5191 -4C45.5191 -4 45.5191 -4 45.5191 -4C45.5191 -4 45.5191 -4 45.5191 -4C45.5191 -4 45.5191 -4 45.5191 -4C45.5191 -4 45.5191 -4 45.5191 -4C45.519 -4 45.519 -4 45.519 -4C45.519 -4 45.519 -4 45.519 -4C45.519 -4 45.519 -4 45.519 -4C45.519 -4 45.519 -4 45.519 -4C45.5189 -4 45.5189 -4 45.5189 -4C45.5189 -4 45.5189 -4 45.5189 -4C45.5189 -4 45.5189 -4 45.5189 -4C45.5189 -4 45.5189 -4 45.5189 -4C45.5188 -4 45.5188 -4 45.5188 -4C45.5188 -4 45.5188 -4 45.5188 -4C45.5188 -4 45.5188 -4 45.5188 -4C45.5188 -4 45.5188 -4 45.5188 -4C45.5187 -4 45.5187 -4 45.5187 -4C45.5187 -4 45.5187 -4 45.5187 -4C45.5187 -4 45.5187 -4 45.5187 -4C45.5187 -4 45.5187 -4 45.5187 -4C45.5186 -4 45.5186 -4 45.5186 -4C45.5186 -4 45.5186 -4 45.5186 -4C45.5186 -4 45.5186 -4 45.5186 -4C45.5186 -4 45.5186 -4 45.5186 -4C45.5185 -4 45.5185 -4 45.5185 -4C45.5185 -4 45.5185 -4 45.5185 -4C45.5185 -4 45.5185 -4 45.5185 -4C45.5185 -4 45.5185 -4 45.5185 -4C45.5184 -4 45.5184 -4 45.5184 -4C45.5184 -4 45.5184 -4 45.5184 -4C45.5184 -4 45.5184 -4 45.5184 -4C45.5184 -4 45.5184 -4 45.5184 -4C45.5183 -4 45.5183 -4 45.5183 -4C45.5183 -4 45.5183 -4 45.5183 -4C45.5183 -4 45.5183 -4 45.5183 -4C45.5183 -4 45.5183 -4 45.5183 -4C45.5182 -4 45.5182 -4 45.5182 -4C45.5182 -4 45.5182 -4 45.5182 -4C45.5182 -4 45.5182 -4 45.5182 -4C45.5182 -4 45.5182 -4 45.5182 -4C45.5181 -4 45.5181 -4 45.5181 -4C45.5181 -4 45.5181 -4 45.5181 -4C45.5181 -4 45.5181 -4 45.5181 -4C45.5181 -4 45.5181 -4 45.5181 -4C45.518 -4 45.518 -4 45.518 -4C45.518 -4 45.518 -4 45.518 -4C45.518 -4 45.518 -4 45.518 -4C45.518 -4 45.518 -4 45.518 -4C45.5179 -4 45.5179 -4 45.5179 -4C45.5179 -4 45.5179 -4 45.5179 -4C45.5179 -4 45.5179 -4 45.5179 -4C45.5179 -4 45.5179 -4 45.5179 -4C45.5178 -4 45.5178 -4 45.5178 -4C45.5178 -4 45.5178 -4 45.5178 -4C45.5178 -4 45.5178 -4 45.5178 -4C45.5178 -4 45.5178 -4 45.5178 -4C45.5177 -4 45.5177 -4 45.5177 -4C45.5177 -4 45.5177 -4 45.5177 -4C45.5177 -4 45.5177 -4 45.5177 -4C45.5177 -4 45.5177 -4 45.5177 -4C45.5176 -4 45.5176 -4 45.5176 -4C45.5176 -4 45.5176 -4 45.5176 -4C45.5176 -4 45.5176 -4 45.5176 -4C45.5176 -4 45.5176 -4 45.5176 -4C45.5175 -4 45.5175 -4 45.5175 -4C45.5175 -4 45.5175 -4 45.5175 -4C45.5175 -4 45.5175 -4 45.5175 -4C45.5175 -4 45.5175 -4 45.5175 -4C45.5174 -4 45.5174 -4 45.5174 -4C45.5174 -4 45.5174 -4 45.5174 -4C45.5174 -4 45.5174 -4 45.5174 -4C45.5174 -4 45.5174 -4 45.5174 -4C45.5173 -4 45.5173 -4 45.5173 -4C45.5173 -4 45.5173 -4 45.5173 -4C45.5173 -4 45.5173 -4 45.5173 -4C45.5173 -4 45.5173 -4 45.5173 -4C45.5172 -4 45.5172 -4 45.5172 -4C45.5172 -4 45.5172 -4 45.5172 -4C45.5172 -4 45.5172 -4 45.5172 -4C45.5172 -4 45.5172 -4 45.5172 -4C45.5171 -4 45.5171 -4 45.5171 -4C45.5171 -4 45.5171 -4 45.5171 -4C45.5171 -4 45.5171 -4 45.5171 -4C45.5171 -4 45.5171 -4 45.5171 -4C45.517 -4 45.517 -4 45.517 -4C45.517 -4 45.517 -4 45.517 -4C45.517 -4 45.517 -4 45.517 -4C45.517 -4 45.517 -4 45.517 -4C45.5169 -4 45.5169 -4 45.5169 -4C45.5169 -4 45.5169 -4 45.5169 -4C45.5169 -4 45.5169 -4 45.5169 -4C45.5169 -4 45.5169 -4 45.5169 -4C45.5168 -4 45.5168 -4 45.5168 -4C45.5168 -4 45.5168 -4 45.5168 -4C45.5168 -4 45.5168 -4 45.5168 -4C45.5168 -4 45.5168 -4 45.5168 -4C45.5167 -4 45.5167 -4 45.5167 -4C45.5167 -4 45.5167 -4 45.5167 -4C45.5167 -4 45.5167 -4 45.5167 -4C45.5167 -4 45.5167 -4 45.5167 -4C45.5166 -4 45.5166 -4 45.5166 -4C45.5166 -4 45.5166 -4 45.5166 -4C45.5166 -4 45.5166 -4 45.5166 -4C45.5166 -4 45.5166 -4 45.5166 -4C45.5165 -4 45.5165 -4 45.5165 -4C45.5165 -4 45.5165 -4 45.5165 -4C45.5165 -4 45.5165 -4 45.5165 -4C45.5165 -4 45.5165 -4 45.5165 -4C45.5164 -4 45.5164 -4 45.5164 -4C45.5164 -4 45.5164 -4 45.5164 -4C45.5164 -4 45.5164 -4 45.5164 -4C45.5164 -4 45.5164 -4 45.5164 -4C45.5163 -4 45.5163 -4 45.5163 -4C45.5163 -4 45.5163 -4 45.5163 -4C45.5163 -4 45.5163 -4 45.5163 -4C45.5163 -4 45.5163 -4 45.5163 -4C45.5162 -4 45.5162 -4 45.5162 -4C45.5162 -4 45.5162 -4 45.5162 -4C45.5162 -4 45.5162 -4 45.5162 -4C45.5162 -4 45.5162 -4 45.5162 -4C45.5161 -4 45.5161 -4 45.5161 -4C45.5161 -4 45.5161 -4 45.5161 -4C45.5161 -4 45.5161 -4 45.5161 -4C45.5161 -4 45.5161 -4 45.5161 -4C45.516 -4 45.516 -4 45.516 -4C45.516 -4 45.516 -4 45.516 -4C45.516 -4 45.516 -4 45.516 -4C45.516 -4 45.516 -4 45.516 -4C45.5159 -4 45.5159 -4 45.5159 -4C45.5159 -4 45.5159 -4 45.5159 -4C45.5159 -4 45.5159 -4 45.5159 -4C45.5159 -4 45.5159 -4 45.5159 -4C45.5158 -4 45.5158 -4 45.5158 -4C45.5158 -4 45.5158 -4 45.5158 -4C45.5158 -4 45.5158 -4 45.5158 -4C45.5158 -4 45.5158 -4 45.5158 -4C45.5157 -4 45.5157 -4 45.5157 -4C45.5157 -4 45.5157 -4 45.5157 -4C45.5157 -4 45.5157 -4 45.5157 -4C45.5157 -4 45.5157 -4 45.5157 -4C45.5156 -4 45.5156 -4 45.5156 -4C45.5156 -4 45.5156 -4 45.5156 -4C45.5156 -4 45.5156 -4 45.5156 -4C45.5156 -4 45.5156 -4 45.5156 -4C45.5155 -4 45.5155 -4 45.5155 -4C45.5155 -4 45.5155 -4 45.5155 -4C45.5155 -4 45.5155 -4 45.5155 -4C45.5155 -4 45.5155 -4 45.5155 -4C45.5154 -4 45.5154 -4 45.5154 -4C45.5154 -4 45.5154 -4 45.5154 -4C45.5154 -4 45.5154 -4 45.5154 -4C45.5154 -4 45.5154 -4 45.5154 -4C45.5153 -4 45.5153 -4 45.5153 -4C45.5153 -4 45.5153 -4 45.5153 -4C45.5153 -4 45.5153 -4 45.5153 -4C45.5153 -4 45.5153 -4 45.5153 -4C45.5152 -4 45.5152 -4 45.5152 -4C45.5152 -4 45.5152 -4 45.5152 -4C45.5152 -4 45.5152 -4 45.5152 -4C45.5152 -4 45.5152 -4 45.5152 -4C45.5151 -4 45.5151 -4 45.5151 -4C45.5151 -4 45.5151 -4 45.5151 -4C45.5151 -4 45.5151 -4 45.5151 -4C45.5151 -4 45.5151 -4 45.5151 -4C45.515 -4 45.515 -4 45.515 -4C45.515 -4 45.515 -4 45.515 -4C45.515 -4 45.515 -4 45.515 -4C45.515 -4 45.515 -4 45.515 -4C45.5149 -4 45.5149 -4 45.5149 -4C45.5149 -4 45.5149 -4 45.5149 -4C45.5149 -4 45.5149 -4 45.5149 -4C45.5149 -4 45.5149 -4 45.5149 -4C45.5148 -4 45.5148 -4 45.5148 -4C45.5148 -4 45.5148 -4 45.5148 -4C45.5148 -4 45.5148 -4 45.5148 -4C45.5148 -4 45.5148 -4 45.5148 -4C45.5147 -4 45.5147 -4 45.5147 -4C45.5147 -4 45.5147 -4 45.5147 -4C45.5147 -4 45.5147 -4 45.5147 -4C45.5147 -4 45.5147 -4 45.5147 -4C45.5146 -4 45.5146 -4 45.5146 -4C45.5146 -4 45.5146 -4 45.5146 -4C45.5146 -4 45.5146 -4 45.5146 -4C45.5146 -4 45.5146 -4 45.5146 -4C45.5145 -4 45.5145 -4 45.5145 -4C45.5145 -4 45.5145 -4 45.5145 -4C45.5145 -4 45.5145 -4 45.5145 -4C45.5145 -4 45.5145 -4 45.5145 -4C45.5144 -4 45.5144 -4 45.5144 -4C45.5144 -4 45.5144 -4 45.5144 -4C45.5144 -4 45.5144 -4 45.5144 -4C45.5144 -4 45.5144 -4 45.5144 -4C45.5143 -4 45.5143 -4 45.5143 -4C45.5143 -4 45.5143 -4 45.5143 -4C45.5143 -4 45.5143 -4 45.5143 -4C45.5143 -4 45.5143 -4 45.5143 -4C45.5142 -4 45.5142 -4 45.5142 -4C45.5142 -4 45.5142 -4 45.5142 -4C45.5142 -4 45.5142 -4 45.5142 -4C45.5142 -4 45.5142 -4 45.5142 -4C45.5141 -4 45.5141 -4 45.5141 -4C45.5141 -4 45.5141 -4 45.5141 -4C45.5141 -4 45.5141 -4 45.5141 -4C45.5141 -4 45.5141 -4 45.5141 -4C45.514 -4 45.514 -4 45.514 -4C45.514 -4 45.514 -4 45.514 -4C45.514 -4 45.514 -4 45.514 -4C45.514 -4 45.514 -4 45.514 -4C45.5139 -4 45.5139 -4 45.5139 -4C45.5139 -4 45.5139 -4 45.5139 -4C45.5139 -4 45.5139 -4 45.5139 -4C45.5139 -4 45.5139 -4 45.5139 -4C45.5138 -4 45.5138 -4 45.5138 -4C45.5138 -4 45.5138 -4 45.5138 -4C45.5138 -4 45.5138 -4 45.5138 -4C45.5138 -4 45.5138 -4 45.5138 -4C45.5137 -4 45.5137 -4 45.5137 -4C45.5137 -4 45.5137 -4 45.5137 -4C45.5137 -4 45.5137 -4 45.5137 -4C45.5137 -4 45.5137 -4 45.5137 -4C45.5136 -4 45.5136 -4 45.5136 -4C45.5136 -4 45.5136 -4 45.5136 -4C45.5136 -4 45.5136 -4 45.5136 -4C45.5136 -4 45.5136 -4 45.5136 -4C45.5135 -4 45.5135 -4 45.5135 -4C45.5135 -4 45.5135 -4 45.5135 -4C45.5135 -4 45.5135 -4 45.5135 -4C45.5135 -4 45.5135 -4 45.5135 -4C45.5134 -4 45.5134 -4 45.5134 -4C45.5134 -4 45.5134 -4 45.5134 -4C45.5134 -4 45.5134 -4 45.5134 -4V4C45.5134 4 45.5134 4 45.5134 4C45.5134 4 45.5134 4 45.5134 4C45.5134 4 45.5134 4 45.5135 4C45.5135 4 45.5135 4 45.5135 4C45.5135 4 45.5135 4 45.5135 4C45.5135 4 45.5135 4 45.5135 4C45.5135 4 45.5135 4 45.5136 4C45.5136 4 45.5136 4 45.5136 4C45.5136 4 45.5136 4 45.5136 4C45.5136 4 45.5136 4 45.5136 4C45.5136 4 45.5136 4 45.5137 4C45.5137 4 45.5137 4 45.5137 4C45.5137 4 45.5137 4 45.5137 4C45.5137 4 45.5137 4 45.5137 4C45.5137 4 45.5137 4 45.5138 4C45.5138 4 45.5138 4 45.5138 4C45.5138 4 45.5138 4 45.5138 4C45.5138 4 45.5138 4 45.5138 4C45.5138 4 45.5138 4 45.5139 4C45.5139 4 45.5139 4 45.5139 4C45.5139 4 45.5139 4 45.5139 4C45.5139 4 45.5139 4 45.5139 4C45.5139 4 45.5139 4 45.514 4C45.514 4 45.514 4 45.514 4C45.514 4 45.514 4 45.514 4C45.514 4 45.514 4 45.514 4C45.514 4 45.514 4 45.5141 4C45.5141 4 45.5141 4 45.5141 4C45.5141 4 45.5141 4 45.5141 4C45.5141 4 45.5141 4 45.5141 4C45.5141 4 45.5141 4 45.5142 4C45.5142 4 45.5142 4 45.5142 4C45.5142 4 45.5142 4 45.5142 4C45.5142 4 45.5142 4 45.5142 4C45.5142 4 45.5142 4 45.5143 4C45.5143 4 45.5143 4 45.5143 4C45.5143 4 45.5143 4 45.5143 4C45.5143 4 45.5143 4 45.5143 4C45.5143 4 45.5143 4 45.5144 4C45.5144 4 45.5144 4 45.5144 4C45.5144 4 45.5144 4 45.5144 4C45.5144 4 45.5144 4 45.5144 4C45.5144 4 45.5144 4 45.5145 4C45.5145 4 45.5145 4 45.5145 4C45.5145 4 45.5145 4 45.5145 4C45.5145 4 45.5145 4 45.5145 4C45.5145 4 45.5145 4 45.5146 4C45.5146 4 45.5146 4 45.5146 4C45.5146 4 45.5146 4 45.5146 4C45.5146 4 45.5146 4 45.5146 4C45.5146 4 45.5146 4 45.5147 4C45.5147 4 45.5147 4 45.5147 4C45.5147 4 45.5147 4 45.5147 4C45.5147 4 45.5147 4 45.5147 4C45.5147 4 45.5147 4 45.5148 4C45.5148 4 45.5148 4 45.5148 4C45.5148 4 45.5148 4 45.5148 4C45.5148 4 45.5148 4 45.5148 4C45.5148 4 45.5148 4 45.5149 4C45.5149 4 45.5149 4 45.5149 4C45.5149 4 45.5149 4 45.5149 4C45.5149 4 45.5149 4 45.5149 4C45.5149 4 45.5149 4 45.515 4C45.515 4 45.515 4 45.515 4C45.515 4 45.515 4 45.515 4C45.515 4 45.515 4 45.515 4C45.515 4 45.515 4 45.5151 4C45.5151 4 45.5151 4 45.5151 4C45.5151 4 45.5151 4 45.5151 4C45.5151 4 45.5151 4 45.5151 4C45.5151 4 45.5151 4 45.5152 4C45.5152 4 45.5152 4 45.5152 4C45.5152 4 45.5152 4 45.5152 4C45.5152 4 45.5152 4 45.5152 4C45.5152 4 45.5152 4 45.5153 4C45.5153 4 45.5153 4 45.5153 4C45.5153 4 45.5153 4 45.5153 4C45.5153 4 45.5153 4 45.5153 4C45.5153 4 45.5153 4 45.5154 4C45.5154 4 45.5154 4 45.5154 4C45.5154 4 45.5154 4 45.5154 4C45.5154 4 45.5154 4 45.5154 4C45.5154 4 45.5154 4 45.5155 4C45.5155 4 45.5155 4 45.5155 4C45.5155 4 45.5155 4 45.5155 4C45.5155 4 45.5155 4 45.5155 4C45.5155 4 45.5155 4 45.5156 4C45.5156 4 45.5156 4 45.5156 4C45.5156 4 45.5156 4 45.5156 4C45.5156 4 45.5156 4 45.5156 4C45.5156 4 45.5156 4 45.5157 4C45.5157 4 45.5157 4 45.5157 4C45.5157 4 45.5157 4 45.5157 4C45.5157 4 45.5157 4 45.5157 4C45.5157 4 45.5157 4 45.5158 4C45.5158 4 45.5158 4 45.5158 4C45.5158 4 45.5158 4 45.5158 4C45.5158 4 45.5158 4 45.5158 4C45.5158 4 45.5158 4 45.5159 4C45.5159 4 45.5159 4 45.5159 4C45.5159 4 45.5159 4 45.5159 4C45.5159 4 45.5159 4 45.5159 4C45.5159 4 45.5159 4 45.516 4C45.516 4 45.516 4 45.516 4C45.516 4 45.516 4 45.516 4C45.516 4 45.516 4 45.516 4C45.516 4 45.516 4 45.5161 4C45.5161 4 45.5161 4 45.5161 4C45.5161 4 45.5161 4 45.5161 4C45.5161 4 45.5161 4 45.5161 4C45.5161 4 45.5161 4 45.5162 4C45.5162 4 45.5162 4 45.5162 4C45.5162 4 45.5162 4 45.5162 4C45.5162 4 45.5162 4 45.5162 4C45.5162 4 45.5162 4 45.5163 4C45.5163 4 45.5163 4 45.5163 4C45.5163 4 45.5163 4 45.5163 4C45.5163 4 45.5163 4 45.5163 4C45.5163 4 45.5163 4 45.5164 4C45.5164 4 45.5164 4 45.5164 4C45.5164 4 45.5164 4 45.5164 4C45.5164 4 45.5164 4 45.5164 4C45.5164 4 45.5164 4 45.5165 4C45.5165 4 45.5165 4 45.5165 4C45.5165 4 45.5165 4 45.5165 4C45.5165 4 45.5165 4 45.5165 4C45.5165 4 45.5165 4 45.5166 4C45.5166 4 45.5166 4 45.5166 4C45.5166 4 45.5166 4 45.5166 4C45.5166 4 45.5166 4 45.5166 4C45.5166 4 45.5166 4 45.5167 4C45.5167 4 45.5167 4 45.5167 4C45.5167 4 45.5167 4 45.5167 4C45.5167 4 45.5167 4 45.5167 4C45.5167 4 45.5167 4 45.5168 4C45.5168 4 45.5168 4 45.5168 4C45.5168 4 45.5168 4 45.5168 4C45.5168 4 45.5168 4 45.5168 4C45.5168 4 45.5168 4 45.5169 4C45.5169 4 45.5169 4 45.5169 4C45.5169 4 45.5169 4 45.5169 4C45.5169 4 45.5169 4 45.5169 4C45.5169 4 45.5169 4 45.517 4C45.517 4 45.517 4 45.517 4C45.517 4 45.517 4 45.517 4C45.517 4 45.517 4 45.517 4C45.517 4 45.517 4 45.5171 4C45.5171 4 45.5171 4 45.5171 4C45.5171 4 45.5171 4 45.5171 4C45.5171 4 45.5171 4 45.5171 4C45.5171 4 45.5171 4 45.5172 4C45.5172 4 45.5172 4 45.5172 4C45.5172 4 45.5172 4 45.5172 4C45.5172 4 45.5172 4 45.5172 4C45.5172 4 45.5172 4 45.5173 4C45.5173 4 45.5173 4 45.5173 4C45.5173 4 45.5173 4 45.5173 4C45.5173 4 45.5173 4 45.5173 4C45.5173 4 45.5173 4 45.5174 4C45.5174 4 45.5174 4 45.5174 4C45.5174 4 45.5174 4 45.5174 4C45.5174 4 45.5174 4 45.5174 4C45.5174 4 45.5174 4 45.5175 4C45.5175 4 45.5175 4 45.5175 4C45.5175 4 45.5175 4 45.5175 4C45.5175 4 45.5175 4 45.5175 4C45.5175 4 45.5175 4 45.5176 4C45.5176 4 45.5176 4 45.5176 4C45.5176 4 45.5176 4 45.5176 4C45.5176 4 45.5176 4 45.5176 4C45.5176 4 45.5176 4 45.5177 4C45.5177 4 45.5177 4 45.5177 4C45.5177 4 45.5177 4 45.5177 4C45.5177 4 45.5177 4 45.5177 4C45.5177 4 45.5177 4 45.5178 4C45.5178 4 45.5178 4 45.5178 4C45.5178 4 45.5178 4 45.5178 4C45.5178 4 45.5178 4 45.5178 4C45.5178 4 45.5178 4 45.5179 4C45.5179 4 45.5179 4 45.5179 4C45.5179 4 45.5179 4 45.5179 4C45.5179 4 45.5179 4 45.5179 4C45.5179 4 45.5179 4 45.518 4C45.518 4 45.518 4 45.518 4C45.518 4 45.518 4 45.518 4C45.518 4 45.518 4 45.518 4C45.518 4 45.518 4 45.5181 4C45.5181 4 45.5181 4 45.5181 4C45.5181 4 45.5181 4 45.5181 4C45.5181 4 45.5181 4 45.5181 4C45.5181 4 45.5181 4 45.5182 4C45.5182 4 45.5182 4 45.5182 4C45.5182 4 45.5182 4 45.5182 4C45.5182 4 45.5182 4 45.5182 4C45.5182 4 45.5182 4 45.5183 4C45.5183 4 45.5183 4 45.5183 4C45.5183 4 45.5183 4 45.5183 4C45.5183 4 45.5183 4 45.5183 4C45.5183 4 45.5183 4 45.5184 4C45.5184 4 45.5184 4 45.5184 4C45.5184 4 45.5184 4 45.5184 4C45.5184 4 45.5184 4 45.5184 4C45.5184 4 45.5184 4 45.5185 4C45.5185 4 45.5185 4 45.5185 4C45.5185 4 45.5185 4 45.5185 4C45.5185 4 45.5185 4 45.5185 4C45.5185 4 45.5185 4 45.5186 4C45.5186 4 45.5186 4 45.5186 4C45.5186 4 45.5186 4 45.5186 4C45.5186 4 45.5186 4 45.5186 4C45.5186 4 45.5186 4 45.5187 4C45.5187 4 45.5187 4 45.5187 4C45.5187 4 45.5187 4 45.5187 4C45.5187 4 45.5187 4 45.5187 4C45.5187 4 45.5187 4 45.5188 4C45.5188 4 45.5188 4 45.5188 4C45.5188 4 45.5188 4 45.5188 4C45.5188 4 45.5188 4 45.5188 4C45.5188 4 45.5188 4 45.5189 4C45.5189 4 45.5189 4 45.5189 4C45.5189 4 45.5189 4 45.5189 4C45.5189 4 45.5189 4 45.5189 4C45.5189 4 45.5189 4 45.519 4C45.519 4 45.519 4 45.519 4C45.519 4 45.519 4 45.519 4C45.519 4 45.519 4 45.519 4C45.519 4 45.519 4 45.5191 4C45.5191 4 45.5191 4 45.5191 4C45.5191 4 45.5191 4 45.5191 4C45.5191 4 45.5191 4 45.5191 4C45.5191 4 45.5191 4 45.5191 4C45.5192 4 45.5192 4 45.5192 4C45.5192 4 45.5192 4 45.5192 4C45.5192 4 45.5192 4 45.5192 4C45.5192 4 45.5192 4 45.5193 4C45.5193 4 45.5193 4 45.5193 4C45.5193 4 45.5193 4 45.5193 4C45.5193 4 45.5193 4 45.5193 4C45.5193 4 45.5193 4 45.5194 4C45.5194 4 45.5194 4 45.5194 4C45.5194 4 45.5194 4 45.5194 4C45.5194 4 45.5194 4 45.5194 4C45.5194 4 45.5194 4 45.5195 4C45.5195 4 45.5195 4 45.5195 4C45.5195 4 45.5195 4 45.5195 4C45.5195 4 45.5195 4 45.5195 4C45.5195 4 45.5195 4 45.5196 4C45.5196 4 45.5196 4 45.5196 4C45.5196 4 45.5196 4 45.5196 4C45.5196 4 45.5196 4 45.5196 4C45.5196 4 45.5196 4 45.5196 4C45.5197 4 45.5197 4 45.5197 4C45.5197 4 45.5197 4 45.5197 4C45.5197 4 45.5197 4 45.5197 4C45.5197 4 45.5197 4 45.5198 4C45.5198 4 45.5198 4 45.5198 4C45.5198 4 45.5198 4 45.5198 4C45.5198 4 45.5198 4 45.5198 4C45.5198 4 45.5198 4 45.5198 4C45.5199 4 45.5199 4 45.5199 4C45.5199 4 45.5199 4 45.5199 4C45.5199 4 45.5199 4 45.5199 4C45.5199 4 45.5199 4 45.52 4C45.52 4 45.52 4 45.52 4C45.52 4 45.52 4 45.52 4C45.52 4 45.52 4 45.52 4C45.52 4 45.52 4 45.5201 4C45.5201 4 45.5201 4 45.5201 4C45.5201 4 45.5201 4 45.5201 4C45.5201 4 45.5201 4 45.5201 4C45.5201 4 45.5201 4 45.5202 4C45.5202 4 45.5202 4 45.5202 4C45.5202 4 45.5202 4 45.5202 4C45.5202 4 45.5202 4 45.5202 4C45.5202 4 45.5202 4 45.5203 4C45.5203 4 45.5203 4 45.5203 4C45.5203 4 45.5203 4 45.5203 4C45.5203 4 45.5203 4 45.5203 4C45.5203 4 45.5203 4 45.5203 4C45.5204 4 45.5204 4 45.5204 4C45.5204 4 45.5204 4 45.5204 4C45.5204 4 45.5204 4 45.5204 4C45.5204 4 45.5204 4 45.5205 4C45.5205 4 45.5205 4 45.5205 4C45.5205 4 45.5205 4 45.5205 4C45.5205 4 45.5205 4 45.5205 4C45.5205 4 45.5205 4 45.5205 4C45.5206 4 45.5206 4 45.5206 4C45.5206 4 45.5206 4 45.5206 4C45.5206 4 45.5206 4 45.5206 4C45.5206 4 45.5206 4 45.5207 4C45.5207 4 45.5207 4 45.5207 4C45.5207 4 45.5207 4 45.5207 4C45.5207 4 45.5207 4 45.5207 4C45.5207 4 45.5207 4 45.5208 4C45.5208 4 45.5208 4 45.5208 4C45.5208 4 45.5208 4 45.5208 4C45.5208 4 45.5208 4 45.5208 4C45.5208 4 45.5208 4 45.5208 4C45.5209 4 45.5209 4 45.5209 4C45.5209 4 45.5209 4 45.5209 4C45.5209 4 45.5209 4 45.5209 4C45.5209 4 45.5209 4 45.521 4C45.521 4 45.521 4 45.521 4C45.521 4 45.521 4 45.521 4C45.521 4 45.521 4 45.521 4C45.521 4 45.521 4 45.521 4C45.5211 4 45.5211 4 45.5211 4C45.5211 4 45.5211 4 45.5211 4C45.5211 4 45.5211 4 45.5211 4C45.5211 4 45.5211 4 45.5212 4C45.5212 4 45.5212 4 45.5212 4C45.5212 4 45.5212 4 45.5212 4C45.5212 4 45.5212 4 45.5212 4C45.5212 4 45.5212 4 45.5212 4C45.5213 4 45.5213 4 45.5213 4C45.5213 4 45.5213 4 45.5213 4C45.5213 4 45.5213 4 45.5213 4C45.5213 4 45.5213 4 45.5213 4C45.5214 4 45.5214 4 45.5214 4C45.5214 4 45.5214 4 45.5214 4C45.5214 4 45.5214 4 45.5214 4C45.5214 4 45.5214 4 45.5215 4C45.5215 4 45.5215 4 45.5215 4C45.5215 4 45.5215 4 45.5215 4C45.5215 4 45.5215 4 45.5215 4C45.5215 4 45.5215 4 45.5215 4C45.5216 4 45.5216 4 45.5216 4C45.5216 4 45.5216 4 45.5216 4C45.5216 4 45.5216 4 45.5216 4C45.5216 4 45.5216 4 45.5217 4C45.5217 4 45.5217 4 45.5217 4C45.5217 4 45.5217 4 45.5217 4C45.5217 4 45.5217 4 45.5217 4C45.5217 4 45.5217 4 45.5217 4C45.5218 4 45.5218 4 45.5218 4C45.5218 4 45.5218 4 45.5218 4C45.5218 4 45.5218 4 45.5218 4C45.5218 4 45.5218 4 45.5218 4C45.5219 4 45.5219 4 45.5219 4C45.5219 4 45.5219 4 45.5219 4C45.5219 4 45.5219 4 45.5219 4C45.5219 4 45.5219 4 45.5219 4C45.522 4 45.522 4 45.522 4C45.522 4 45.522 4 45.522 4C45.522 4 45.522 4 45.522 4C45.522 4 45.522 4 45.522 4C45.5221 4 45.5221 4 45.5221 4C45.5221 4 45.5221 4 45.5221 4C45.5221 4 45.5221 4 45.5221 4C45.5221 4 45.5221 4 45.5222 4C45.5222 4 45.5222 4 45.5222 4C45.5222 4 45.5222 4 45.5222 4C45.5222 4 45.5222 4 45.5222 4C45.5222 4 45.5222 4 45.5222 4C45.5223 4 45.5223 4 45.5223 4C45.5223 4 45.5223 4 45.5223 4C45.5223 4 45.5223 4 45.5223 4C45.5223 4 45.5223 4 45.5223 4C45.5224 4 45.5224 4 45.5224 4C45.5224 4 45.5224 4 45.5224 4C45.5224 4 45.5224 4 45.5224 4C45.5224 4 45.5224 4 45.5224 4C45.5225 4 45.5225 4 45.5225 4C45.5225 4 45.5225 4 45.5225 4C45.5225 4 45.5225 4 45.5225 4C45.5225 4 45.5225 4 45.5225 4C45.5226 4 45.5226 4 45.5226 4C45.5226 4 45.5226 4 45.5226 4C45.5226 4 45.5226 4 45.5226 4C45.5226 4 45.5226 4 45.5226 4C45.5227 4 45.5227 4 45.5227 4C45.5227 4 45.5227 4 45.5227 4C45.5227 4 45.5227 4 45.5227 4C45.5227 4 45.5227 4 45.5227 4C45.5228 4 45.5228 4 45.5228 4C45.5228 4 45.5228 4 45.5228 4C45.5228 4 45.5228 4 45.5228 4C45.5228 4 45.5228 4 45.5228 4C45.5229 4 45.5229 4 45.5229 4C45.5229 4 45.5229 4 45.5229 4C45.5229 4 45.5229 4 45.5229 4C45.5229 4 45.5229 4 45.5229 4C45.523 4 45.523 4 45.523 4C45.523 4 45.523 4 45.523 4C45.523 4 45.523 4 45.523 4C45.523 4 45.523 4 45.523 4C45.5231 4 45.5231 4 45.5231 4C45.5231 4 45.5231 4 45.5231 4C45.5231 4 45.5231 4 45.5231 4C45.5231 4 45.5231 4 45.5231 4C45.5232 4 45.5232 4 45.5232 4C45.5232 4 45.5232 4 45.5232 4C45.5232 4 45.5232 4 45.5232 4C45.5232 4 45.5232 4 45.5232 4C45.5233 4 45.5233 4 45.5233 4C45.5233 4 45.5233 4 45.5233 4C45.5233 4 45.5233 4 45.5233 4C45.5233 4 45.5233 4 45.5233 4C45.5234 4 45.5234 4 45.5234 4C45.5234 4 45.5234 4 45.5234 4C45.5234 4 45.5234 4 45.5234 4C45.5234 4 45.5234 4 45.5234 4C45.5235 4 45.5235 4 45.5235 4C45.5235 4 45.5235 4 45.5235 4C45.5235 4 45.5235 4 45.5235 4C45.5235 4 45.5235 4 45.5235 4C45.5236 4 45.5236 4 45.5236 4C45.5236 4 45.5236 4 45.5236 4C45.5236 4 45.5236 4 45.5236 4C45.5236 4 45.5236 4 45.5236 4C45.5237 4 45.5237 4 45.5237 4C45.5237 4 45.5237 4 45.5237 4C45.5237 4 45.5237 4 45.5237 4C45.5237 4 45.5237 4 45.5237 4C45.5238 4 45.5238 4 45.5238 4C45.5238 4 45.5238 4 45.5238 4C45.5238 4 45.5238 4 45.5238 4C45.5238 4 45.5238 4 45.5238 4C45.5239 4 45.5239 4 45.5239 4C45.5239 4 45.5239 4 45.5239 4C45.5239 4 45.5239 4 45.5239 4C45.5239 4 45.5239 4 45.5239 4C45.524 4 45.524 4 45.524 4C45.524 4 45.524 4 45.524 4C45.524 4 45.524 4 45.524 4C45.524 4 45.524 4 45.524 4C45.5241 4 45.5241 4 45.5241 4C45.5241 4 45.5241 4 45.5241 4C45.5241 4 45.5241 4 45.5241 4C45.5241 4 45.5241 4 45.5241 4C45.5242 4 45.5242 4 45.5242 4C45.5242 4 45.5242 4 45.5242 4C45.5242 4 45.5242 4 45.5242 4C45.5242 4 45.5242 4 45.5242 4C45.5243 4 45.5243 4 45.5243 4C45.5243 4 45.5243 4 45.5243 4C45.5243 4 45.5243 4 45.5243 4C45.5243 4 45.5243 4 45.5243 4C45.5244 4 45.5244 4 45.5244 4C45.5244 4 45.5244 4 45.5244 4C45.5244 4 45.5244 4 45.5244 4C45.5244 4 45.5244 4 45.5244 4C45.5245 4 45.5245 4 45.5245 4C45.5245 4 45.5245 4 45.5245 4C45.5245 4 45.5245 4 45.5245 4C45.5245 4 45.5245 4 45.5245 4C45.5246 4 45.5246 4 45.5246 4C45.5246 4 45.5246 4 45.5246 4C45.5246 4 45.5246 4 45.5246 4C45.5246 4 45.5246 4 45.5246 4C45.5247 4 45.5247 4 45.5247 4C45.5247 4 45.5247 4 45.5247 4C45.5247 4 45.5247 4 45.5247 4C45.5247 4 45.5247 4 45.5247 4C45.5248 4 45.5248 4 45.5248 4C45.5248 4 45.5248 4 45.5248 4C45.5248 4 45.5248 4 45.5248 4C45.5248 4 45.5248 4 45.5248 4C45.5249 4 45.5249 4 45.5249 4C45.5249 4 45.5249 4 45.5249 4C45.5249 4 45.5249 4 45.5249 4C45.5249 4 45.5249 4 45.5249 4C45.525 4 45.525 4 45.525 4C45.525 4 45.525 4 45.525 4C45.525 4 45.525 4 45.525 4C45.525 4 45.525 4 45.525 4C45.5251 4 45.5251 4 45.5251 4C45.5251 4 45.5251 4 45.5251 4C45.5251 4 45.5251 4 45.5251 4C45.5251 4 45.5251 4 45.5251 4C45.5252 4 45.5252 4 45.5252 4C45.5252 4 45.5252 4 45.5252 4C45.5252 4 45.5252 4 45.5252 4C45.5252 4 45.5252 4 45.5252 4C45.5253 4 45.5253 4 45.5253 4C45.5253 4 45.5253 4 45.5253 4C45.5253 4 45.5253 4 45.5253 4C45.5253 4 45.5253 4 45.5253 4C45.5254 4 45.5254 4 45.5254 4C45.5254 4 45.5254 4 45.5254 4C45.5254 4 45.5254 4 45.5254 4C45.5254 4 45.5254 4 45.5254 4C45.5255 4 45.5255 4 45.5255 4C45.5255 4 45.5255 4 45.5255 4C45.5255 4 45.5255 4 45.5255 4C45.5255 4 45.5255 4 45.5255 4C45.5256 4 45.5256 4 45.5256 4C45.5256 4 45.5256 4 45.5256 4C45.5256 4 45.5256 4 45.5256 4C45.5256 4 45.5256 4 45.5256 4C45.5257 4 45.5257 4 45.5257 4C45.5257 4 45.5257 4 45.5257 4C45.5257 4 45.5257 4 45.5257 4C45.5257 4 45.5257 4 45.5257 4C45.5258 4 45.5258 4 45.5258 4C45.5258 4 45.5258 4 45.5258 4C45.5258 4 45.5258 4 45.5258 4C45.5258 4 45.5258 4 45.5258 4C45.5259 4 45.5259 4 45.5259 4C45.5259 4 45.5259 4 45.5259 4C45.5259 4 45.5259 4 45.5259 4C45.5259 4 45.5259 4 45.5259 4C45.526 4 45.526 4 45.526 4C45.526 4 45.526 4 45.526 4C45.526 4 45.526 4 45.526 4C45.526 4 45.526 4 45.526 4C45.5261 4 45.5261 4 45.5261 4C45.5261 4 45.5261 4 45.5261 4C45.5261 4 45.5261 4 45.5261 4C45.5261 4 45.5261 4 45.5261 4C45.5262 4 45.5262 4 45.5262 4V-4ZM45.5134 -4C42.6003 -4 39.8983 -2.64778 38.1501 -0.31886L44.548 4.48389C44.7872 4.16528 45.1203 4 45.5134 4V-4ZM38.1505 -0.31936C37.5371 0.497446 36.8475 1.29177 36.1018 2.0373L41.7581 7.69473C42.7655 6.68744 43.7036 5.60844 44.5477 4.48439L38.1505 -0.31936ZM36.1015 2.03759C34.5446 3.59447 31.2246 6.08268 24.8427 7.54993L26.6353 15.3465C34.4391 13.5523 39.11 10.3427 41.7583 7.69444L36.1015 2.03759ZM24.8421 7.55009C21.9596 8.21333 20.1604 11.0872 20.823 13.9698L28.6196 12.1777C28.9467 13.6005 28.0585 15.019 26.6359 15.3464L24.8421 7.55009ZM20.823 13.9698C21.486 16.8546 24.3621 18.6517 27.2424 17.9899L25.4509 10.1931C26.8724 9.86645 28.2921 10.7528 28.6196 12.1777L20.823 13.9698ZM27.243 17.9898C35.6961 16.0462 40.792 12.4963 43.6761 9.61219L38.0192 3.95534C36.1951 5.77946 32.4377 8.58669 25.4504 10.1932L27.243 17.9898ZM43.6761 9.61219C44.7737 8.51462 45.796 7.33846 46.7164 6.1127L40.3191 1.30914C39.6292 2.22791 38.8551 3.11952 38.0192 3.95534L43.6761 9.61219ZM46.7172 6.11163C46.4397 6.48149 45.9825 6.71223 45.5134 6.71223V-1.28777C43.4603 -1.28777 41.5488 -0.329746 40.3183 1.3102L46.7172 6.11163ZM45.5134 6.71223H45.5196V-1.28777H45.5134V6.71223ZM45.5097 6.71221C45.0373 6.71104 44.5729 6.47722 44.2905 6.09745L50.7104 1.32403C49.4871 -0.321211 47.5791 -1.28268 45.5295 -1.28776L45.5097 6.71221ZM44.2902 6.09698C45.2154 7.34177 46.2351 8.52363 47.3236 9.61219L52.9805 3.95534C52.1705 3.14534 51.4057 2.25944 50.7107 1.3245L44.2902 6.09698ZM47.3237 9.61229C50.6 12.8883 59.3059 19.2845 76.758 19.4111L76.816 11.4113C61.5251 11.3004 54.8133 5.78802 52.9804 3.95524L47.3237 9.61229ZM76.7578 19.4111L81.3831 19.4448L81.4415 11.445L76.8162 11.4113L76.7578 19.4111ZM81.3841 19.4448C79.5878 19.4322 78.143 17.975 78.143 16.1809H86.143C86.143 13.581 84.0427 11.4634 81.4406 11.445L81.3841 19.4448ZM78.143 16.1809V41.5854H86.143V16.1809H78.143ZM78.143 41.5854C78.143 47.3278 76.8056 53.0997 74.28 58.2575L81.4648 61.7757C84.5268 55.5227 86.143 48.5475 86.143 41.5854H78.143ZM74.2801 58.2573C72.4908 61.9108 70.1222 65.2517 67.2341 68.1884L72.938 73.7979C76.4231 70.254 79.2938 66.2087 81.4647 61.776L74.2801 58.2573ZM67.2344 68.1881C65.1594 70.2975 65.1886 73.6893 67.2974 75.763L72.9066 70.0588C73.9476 71.0825 73.9622 72.7566 72.9376 73.7982L67.2344 68.1881ZM67.2977 75.7632C68.3393 76.7873 69.7024 77.3001 71.0529 77.3001V69.3001C71.7167 69.3001 72.393 69.5538 72.9064 70.0586L67.2977 75.7632ZM71.0529 77.3001C72.4322 77.3001 73.8241 76.7648 74.8716 75.6998L69.168 70.0901C69.6847 69.5647 70.375 69.3001 71.0529 69.3001V77.3001ZM74.8719 75.6995C78.5617 71.9472 81.6014 67.6637 83.9005 62.9688L76.7157 59.4504C74.7982 63.366 72.2606 66.9451 69.1677 70.0903L74.8719 75.6995ZM83.9005 62.9687C87.1434 56.3462 88.8552 48.9588 88.8552 41.5854H80.8552C80.8552 47.739 79.4223 53.9231 76.7156 59.4505L83.9005 62.9687ZM88.8552 41.5854V16.1809H80.8552V41.5854H88.8552ZM88.8552 16.1813C88.8556 12.0956 85.5463 8.76244 81.4611 8.73282L81.4031 16.7326C81.0929 16.7304 80.8552 16.4912 80.8552 16.1806L88.8552 16.1813Z" fill="white" mask="url(#path-9-inside-1)"/>
<path d="M45.5001 85.2174C46.5801 85.2174 47.4557 84.3418 47.4557 83.2618C47.4557 82.1817 46.5801 81.3062 45.5001 81.3062C44.42 81.3062 43.5444 82.1817 43.5444 83.2618C43.5444 84.3418 44.42 85.2174 45.5001 85.2174Z" fill="white"/>
<path d="M45.5001 11.5348C46.5801 11.5348 47.4557 10.6592 47.4557 9.57915C47.4557 8.49909 46.5801 7.62354 45.5001 7.62354C44.42 7.62354 43.5444 8.49909 43.5444 9.57915C43.5444 10.6592 44.42 11.5348 45.5001 11.5348Z" fill="white"/>
<path d="M76.8951 23.0565C77.9751 23.0565 78.8507 22.1809 78.8507 21.1009C78.8507 20.0208 77.9751 19.1453 76.8951 19.1453C75.815 19.1453 74.9395 20.0208 74.9395 21.1009C74.9395 22.1809 75.815 23.0565 76.8951 23.0565Z" fill="white"/>
<path d="M13.8716 23.0565C14.9517 23.0565 15.8272 22.1809 15.8272 21.1009C15.8272 20.0208 14.9517 19.1453 13.8716 19.1453C12.7916 19.1453 11.916 20.0208 11.916 21.1009C11.916 22.1809 12.7916 23.0565 13.8716 23.0565Z" fill="white"/>
</g>
<defs>
<clipPath id="clip0">
<rect width="91" height="91" fill="white"/>
</clipPath>
</defs>
</svg>
