<svg width="20" height="20" viewBox="0 0 20 20" fill="none" xmlns="http://www.w3.org/2000/svg">
<path d="M14.374 19.5739C13.7284 19.5739 13.0883 19.4635 12.4623 19.2434C9.70467 18.2741 7.145 16.6954 5.05992 14.678C2.97484 12.6605 1.34325 10.1838 0.341533 7.51553C0.0196307 6.65804 -0.0753659 5.77288 0.0592776 4.88454C0.185406 4.05245 0.518519 3.24466 1.02264 2.54847C1.52899 1.84923 2.20404 1.26764 2.9748 0.866594C3.79672 0.438944 4.69384 0.222076 5.6413 0.222076C5.93598 0.222076 6.19066 0.421294 6.25241 0.70007L7.23339 5.12961C7.27781 5.33018 7.2141 5.53889 7.06422 5.68394L5.38799 7.3058C6.96926 10.3478 9.53511 12.8304 12.679 14.3605L14.3552 12.7386C14.5051 12.5936 14.7208 12.532 14.9281 12.5749L19.506 13.5241C19.7941 13.5838 20 13.8302 20 14.1154C20 15.0321 19.7759 15.9002 19.3339 16.6955C18.9194 17.4412 18.3183 18.0944 17.5956 18.5844C16.8762 19.0721 16.0413 19.3945 15.1813 19.5165C14.9118 19.5548 14.6424 19.5739 14.374 19.5739ZM5.14194 1.45797C3.89219 1.59146 2.78293 2.22529 2.04631 3.24254C1.21799 4.3864 1.02483 5.79332 1.51637 7.10262C3.44224 12.2324 7.58744 16.2432 12.889 18.1067C14.2422 18.5823 15.6962 18.3954 16.8784 17.5939C17.9298 16.8812 18.5848 15.8079 18.7228 14.5986L14.9987 13.8265L13.2481 15.5203C13.0618 15.7005 12.7788 15.7484 12.5404 15.64C8.8222 13.9498 5.81247 11.0376 4.06566 7.43994C3.95367 7.20928 4.00312 6.93541 4.1894 6.75521L5.93996 5.06139L5.14194 1.45797Z" fill="#1D2B6B"/>
</svg>
