<svg width="91" height="91" viewBox="0 0 91 91" fill="none" xmlns="http://www.w3.org/2000/svg">
<path d="M61.5794 50.5207C62.5468 49.5531 63.0797 48.2663 63.0797 46.8972C63.0797 45.0513 62.0881 43.4037 60.5854 42.5013C61.0162 41.6759 61.2599 40.7411 61.2599 39.7562C61.2599 38.2249 60.6796 36.7708 59.6263 35.6619C59.0912 35.0987 58.4616 34.6522 57.772 34.3387C58.1438 33.551 58.3436 32.6838 58.3436 31.8017C58.3436 30.2135 57.7253 28.7196 56.6011 27.5935C55.4766 26.4711 53.9827 25.8528 52.3945 25.8528H37.4408C34.1605 25.8528 31.4918 28.5215 31.4918 31.8017C31.4918 32.6289 31.6596 33.4316 31.9916 34.1901C32.0138 34.2406 32.0366 34.2904 32.0601 34.3401C29.9974 35.28 28.5756 37.3609 28.5756 39.7562C28.5756 40.7288 28.8082 41.6649 29.2455 42.5029C28.887 42.7175 28.5542 42.9759 28.2576 43.2731C27.2893 44.2394 26.7561 45.5266 26.7561 46.8974C26.7561 49.7222 29.0553 52.0201 31.8813 52.0201H32.6089V53.5052C32.6089 55.5119 33.1021 57.5016 34.0352 59.2596C34.2746 59.7106 34.7364 59.9678 35.2138 59.9678C35.4246 59.9678 35.6386 59.9177 35.8376 59.812C36.488 59.4668 36.7352 58.6599 36.39 58.0096C35.6604 56.6351 35.2749 55.0777 35.2749 53.5052V41.5707H36.5311C39.0249 41.5707 41.2111 40.2281 42.4042 38.2274C44.7098 41.3805 48.4313 43.347 52.4521 43.347C53.0967 43.347 53.7438 43.2969 54.3746 43.1982L54.5609 43.1693V53.5054C54.5609 58.8222 50.2354 63.1475 44.9188 63.1475C42.9818 63.1475 41.1138 62.5754 39.5171 61.493C38.9075 61.0799 38.0789 61.2392 37.6656 61.8484C37.2526 62.4579 37.4118 63.2867 38.0211 63.6999C40.0611 65.0825 42.4461 65.8135 44.9186 65.8135C51.7054 65.8135 57.2267 60.2922 57.2267 53.5054V52.0203H57.9544C59.3252 52.0201 60.6124 51.4876 61.5794 50.5207ZM31.8813 49.3541C30.5253 49.3541 29.4221 48.2519 29.4221 46.8974C29.4221 46.2396 29.6773 45.6227 30.1428 45.1581C30.4036 44.8968 30.7119 44.704 31.0503 44.5842C31.5277 44.9269 32.054 45.1979 32.6091 45.3874V49.3541H31.8813ZM53.9633 40.5642C53.4676 40.6417 52.9593 40.681 52.4521 40.681C48.3755 40.681 44.6908 38.1076 43.2827 34.2772C43.0599 33.6708 42.4346 33.3116 41.7979 33.4248C41.1618 33.538 40.6985 34.0911 40.6985 34.7372C40.6985 37.0351 38.8289 38.9047 36.5311 38.9047H33.9412C33.205 38.9047 32.6082 39.5015 32.6082 40.2377V42.4217C32.4642 42.3183 32.3283 42.2033 32.2022 42.0773C31.5827 41.4577 31.2416 40.6335 31.2416 39.7564C31.2416 38.0157 32.6016 36.5759 34.3377 36.4788C34.8686 36.4491 35.3313 36.1065 35.5145 35.6072C35.6977 35.1079 35.5668 34.5475 35.1811 34.1812C34.8656 33.8816 34.6065 33.5135 34.433 33.1191C34.2505 32.702 34.1579 32.2589 34.1579 31.8019C34.1579 29.9917 35.6306 28.519 37.4408 28.519H52.3945C53.2714 28.519 54.0963 28.8604 54.716 29.4789C55.336 30.1001 55.6776 30.9251 55.6776 31.8019C55.6776 32.7094 55.3141 33.5545 54.6542 34.1814C54.2685 34.5477 54.1375 35.1081 54.3209 35.6074C54.5042 36.1066 54.9666 36.4491 55.4977 36.4788C56.3334 36.5256 57.1131 36.8876 57.6934 37.4983C58.2743 38.1095 58.5938 38.9115 58.5938 39.7564C58.5938 40.8438 58.0592 41.8224 57.2272 42.4224V41.6125C57.2272 41.2231 57.057 40.8532 56.7612 40.5999C56.5181 40.3916 56.2099 40.2795 55.8942 40.2795C55.826 40.2795 55.7572 40.2846 55.689 40.2953L53.9633 40.5642ZM57.2269 45.3879C57.7892 45.1967 58.3125 44.9249 58.783 44.5855C59.7401 44.9272 60.4135 45.8438 60.4135 46.8972C60.4135 47.5542 60.1579 48.1714 59.6938 48.6355C59.2307 49.0987 58.6129 49.3539 57.9544 49.3539H57.2267V45.3879H57.2269Z" fill="white"/>
<path d="M39.8904 53.1904C41.2764 54.5763 43.0971 55.2693 44.9178 55.2693C46.7385 55.2693 48.5592 54.5763 49.9452 53.1904C50.466 52.6698 50.466 51.8259 49.9454 51.3053C49.4248 50.7847 48.5807 50.7845 48.0603 51.3053C46.3274 53.0379 43.5084 53.0379 41.7756 51.3053C41.2551 50.7845 40.411 50.7847 39.8906 51.3053C39.3698 51.8257 39.3698 52.6698 39.8904 53.1904Z" fill="white"/>
<path d="M42.054 48.0153C42.7901 48.0153 43.387 47.4185 43.387 46.6823V44.4651C43.387 43.7289 42.7901 43.1321 42.054 43.1321C41.3178 43.1321 40.7209 43.7289 40.7209 44.4651V46.6823C40.7209 47.4185 41.3178 48.0153 42.054 48.0153Z" fill="white"/>
<path d="M49.115 46.6823V44.4651C49.115 43.7289 48.5183 43.1321 47.782 43.1321C47.0456 43.1321 46.449 43.7289 46.449 44.4651V46.6823C46.449 47.4185 47.0456 48.0153 47.782 48.0153C48.5183 48.0153 49.115 47.4185 49.115 46.6823Z" fill="white"/>
<path d="M48.638 69.5311C46.9076 67.8032 44.0921 67.803 42.3618 69.5311L36.6999 75.185C35.404 76.4788 35.0342 78.3336 35.7343 80.0255C36.3613 81.5412 37.6886 82.5425 39.2747 82.7348V89.6672C39.2747 90.4034 39.8716 91.0002 40.6078 91.0002H50.3919C51.1282 91.0002 51.7249 90.4034 51.7249 89.6672V82.7347C53.311 82.5423 54.6383 81.541 55.2655 80.0253C55.9654 78.3332 55.5956 76.4786 54.2999 75.1849L48.638 69.5311ZM52.8021 79.006C52.6955 79.2631 52.2629 80.1024 51.1618 80.1024H50.3919C49.6555 80.1024 49.0588 80.6992 49.0588 81.4354V88.3342H41.9408V81.4354C41.9408 80.6992 41.3439 80.1024 40.6078 80.1024H39.8378C38.7369 80.1024 38.3041 79.2631 38.1977 79.0061C38.0912 78.749 37.8045 77.8494 38.5835 77.0715L44.2454 71.4176C44.9372 70.7269 46.0624 70.7269 46.754 71.4176L52.4159 77.0715C53.1951 77.8493 52.9086 78.7488 52.8021 79.006Z" fill="white"/>
<path d="M42.362 21.4691C43.2272 22.333 44.3635 22.7651 45.5001 22.7649C46.6365 22.7649 47.7732 22.3329 48.6382 21.4691L54.3001 15.8152C55.5958 14.5214 55.9656 12.6666 55.2657 10.9747C54.6385 9.45902 53.3112 8.45767 51.7251 8.26536V1.33301C51.7251 0.596832 51.1284 0 50.3921 0H40.608C39.8718 0 39.275 0.596832 39.275 1.33301V8.26554C37.6889 8.45785 36.3615 9.4592 35.7345 10.9749C35.0344 12.667 35.4044 14.5216 36.7001 15.8153L42.362 21.4691ZM38.1981 11.994C38.3045 11.7369 38.7373 10.8978 39.8382 10.8978H40.6081C41.3443 10.8978 41.9411 10.301 41.9411 9.56478V2.66602H49.0592V9.56478C49.0592 10.301 49.6559 10.8978 50.3922 10.8978H51.1622C52.2631 10.8978 52.6959 11.737 52.8025 11.9942C52.909 12.2514 53.1955 13.1509 52.4165 13.9289L46.7546 19.5828C46.063 20.2733 44.9378 20.2734 44.246 19.5828L38.5841 13.9289C37.8049 13.1509 38.0916 12.2514 38.1981 11.994Z" fill="white"/>
<path d="M10.9749 55.2657C11.5414 55.4999 12.1256 55.6144 12.7013 55.6144C13.8455 55.6144 14.9547 55.1621 15.8153 54.2999L21.4692 48.638C23.1972 46.9077 23.1972 44.0922 21.4692 42.3618L15.8153 36.6999C14.5216 35.404 12.6668 35.0342 10.9749 35.7343C9.4592 36.3613 8.45785 37.6886 8.26554 39.2747H1.33301C0.596832 39.2747 0 39.8716 0 40.6078V50.392C0 51.1282 0.596832 51.725 1.33301 51.725H8.26554C8.45767 53.3113 9.4592 54.6386 10.9749 55.2657ZM2.66602 49.0592V41.9409H9.56478C10.301 41.9409 10.8978 41.3441 10.8978 40.6079V39.838C10.8978 38.7371 11.737 38.3043 11.994 38.1979C12.2512 38.0912 13.1506 37.8047 13.9287 38.5837L19.5826 44.2456C20.2733 44.9374 20.2733 46.0626 19.5826 46.7542L13.9287 52.4161C13.1507 53.1953 12.2514 52.9084 11.994 52.8019C11.7369 52.6955 10.8978 52.2627 10.8978 51.1618V50.3919C10.8978 49.6557 10.301 49.0589 9.56478 49.0589H2.66602V49.0592Z" fill="white"/>
<path d="M89.6669 39.2749H82.7345C82.5422 37.6888 81.5409 36.3616 80.0251 35.7344C78.3333 35.0345 76.4785 35.4044 75.1847 36.7L69.5308 42.3619C67.8029 44.0922 67.8029 46.9077 69.5308 48.6381L75.1845 54.3C76.0455 55.1622 77.1546 55.6145 78.2988 55.6145C78.8743 55.6145 79.4589 55.5001 80.0251 55.2658C81.5409 54.6386 82.5422 53.3114 82.7345 51.7253H89.6669C90.4032 51.7253 90.9999 51.1285 90.9999 50.3923V40.6081C90.9999 39.8717 90.4032 39.2749 89.6669 39.2749ZM88.3339 49.0591H81.4353C80.6989 49.0591 80.1023 49.656 80.1023 50.3922V51.1621C80.1023 52.263 79.263 52.6958 79.006 52.8022C78.7488 52.9089 77.8491 53.1952 77.071 52.4164L71.4171 46.7545C70.7266 46.0627 70.7266 44.9375 71.4171 44.2459L77.071 38.584H77.0712C77.4828 38.1717 77.9286 38.0579 78.2953 38.0579C78.6214 38.0579 78.8848 38.148 79.0058 38.1982C79.263 38.3046 80.1023 38.7374 80.1023 39.8383V40.6082C80.1023 41.3444 80.6989 41.9412 81.4353 41.9412H88.3339V49.0591Z" fill="white"/>
<path d="M26.2887 60.2734L18.2871 60.2676C18.2859 60.2676 18.285 60.2676 18.2836 60.2676C16.4541 60.2676 14.8824 61.3173 14.1815 63.0077C13.5532 64.5229 13.7837 66.1696 14.7692 67.4269L9.86749 72.329C9.3469 72.8496 9.3469 73.6936 9.86749 74.214L16.786 81.1325C17.0359 81.3826 17.375 81.523 17.7285 81.523C18.082 81.523 18.4211 81.3826 18.671 81.1325L23.5731 76.2304C24.8306 77.2162 26.4769 77.4467 27.9923 76.8182C29.6838 76.1169 30.7337 74.5437 30.7324 72.7127L30.7266 64.7111C30.7248 62.266 28.734 60.2752 26.2887 60.2734ZM26.9712 74.3557C26.7144 74.4623 25.8147 74.7496 25.0362 73.9711L24.4918 73.4267C24.2419 73.1766 23.9028 73.0362 23.5493 73.0362C23.1958 73.0362 22.8567 73.1766 22.6068 73.4267L17.7287 78.305L12.6954 73.2715L17.5735 68.3934C18.0941 67.8728 18.0941 67.0288 17.5735 66.5084L17.0291 65.964C16.2506 65.1855 16.538 64.2862 16.6445 64.029C16.7511 63.772 17.1841 62.9338 18.2839 62.9338H18.2855L26.2871 62.9396C27.2645 62.9403 28.0602 63.7359 28.0607 64.7132L28.0666 72.7148C28.0671 73.8156 27.2282 74.2489 26.9712 74.3557Z" fill="white"/>
<path d="M64.713 30.7266H65.7956C66.532 30.7266 67.1286 30.1298 67.1286 29.3936C67.1286 28.6574 66.532 28.0606 65.7956 28.0606H64.7144C63.7366 28.0597 62.9405 27.2633 62.9394 26.2859L62.9341 18.2861C62.9334 17.1845 63.7723 16.7512 64.0293 16.6445C64.2861 16.5379 65.1853 16.2507 65.9639 17.0292L66.5078 17.573C66.7577 17.8231 67.0968 17.9635 67.4505 17.9635C67.8042 17.9635 68.1429 17.8231 68.3932 17.573L73.2713 12.6948L78.3053 17.7289L73.427 22.6072C73.1771 22.8573 73.0367 23.1962 73.0367 23.5499C73.0367 23.9036 73.1771 24.2425 73.4272 24.4924L73.971 25.0363C74.7495 25.8148 74.4623 26.7137 74.3557 26.9709C74.2492 27.2279 73.8162 28.0661 72.7162 28.0661C72.7157 28.0661 72.7152 28.0661 72.7148 28.0661L71.1259 28.0643C71.1253 28.0643 71.1248 28.0643 71.1243 28.0643C70.3888 28.0643 69.7921 28.6603 69.7913 29.3957C69.7904 30.1319 70.3867 30.7295 71.1227 30.7304L72.7123 30.7321H72.7155C74.5457 30.7321 76.1175 29.6824 76.8183 27.992C77.4465 26.4774 77.2161 24.8312 76.2308 23.5739L81.133 18.6718C81.6536 18.1512 81.6536 17.3071 81.133 16.7867L74.2138 9.86753C73.9637 9.61746 73.6248 9.47705 73.2711 9.47705C72.9174 9.47705 72.5787 9.61746 72.3284 9.86753L67.4263 14.7696C66.1692 13.7844 64.5229 13.5541 63.0082 14.1822C61.3169 14.8834 60.2668 16.4567 60.2681 18.2882L60.2734 26.2886C60.2757 28.7332 62.2667 30.7241 64.713 30.7266Z" fill="white"/>
<path d="M14.7696 23.5729C13.7841 24.8304 13.5536 26.4769 14.1819 27.9921C14.8827 29.6826 16.4544 30.7323 18.284 30.7323H18.2875L26.2891 30.7264C28.7344 30.7246 30.7252 28.7338 30.727 26.2885L30.7328 18.2869C30.7341 16.4559 29.6842 14.8828 27.9927 14.1815C26.4777 13.5532 24.8308 13.7835 23.5735 14.7692L18.6711 9.86731C18.1505 9.34655 17.3064 9.34673 16.786 9.86731L9.86753 16.7858C9.61746 17.0357 9.47705 17.3748 9.47705 17.7283C9.47705 18.0818 9.61746 18.421 9.86753 18.6709L14.7696 23.5729ZM17.7285 12.6951L22.6066 17.5732C23.1272 18.0937 23.9713 18.0937 24.4917 17.5732L25.0361 17.0288C25.8147 16.2503 26.7139 16.5375 26.9711 16.6441C27.2283 16.7508 28.067 17.1843 28.0663 18.285L28.0604 26.2866C28.0597 27.264 27.2642 28.0597 26.2868 28.0602L18.2852 28.0661C18.2847 28.0661 18.2841 28.0661 18.2836 28.0661C17.1838 28.0661 16.7508 27.2279 16.6442 26.9709C16.5375 26.7139 16.2503 25.8144 17.0288 25.0359L17.5732 24.4915C17.8233 24.2416 17.9637 23.9025 17.9637 23.5489C17.9637 23.1954 17.8233 22.8563 17.5732 22.6064L12.6951 17.7283L17.7285 12.6951Z" fill="white"/>
<path d="M76.2304 67.4269C77.2162 66.1694 77.4465 64.5229 76.8184 63.0077C76.1176 61.3173 74.5459 60.2676 72.7161 60.2676C72.715 60.2676 72.7138 60.2676 72.7125 60.2676L64.7113 60.2734C62.2658 60.2752 60.275 62.266 60.2733 64.7113L60.2676 72.7127C60.2662 74.5437 61.316 76.1169 63.0075 76.8184C64.5227 77.4468 66.1694 77.2163 67.4267 76.2306L72.3286 81.1327C72.5787 81.3828 72.9176 81.5232 73.2713 81.5232C73.625 81.5232 73.9638 81.3828 74.214 81.1327L81.1325 74.2142C81.6531 73.6936 81.6531 72.8496 81.1325 72.3292L76.2304 67.4269ZM73.2715 78.3048L68.3936 73.4267C68.1332 73.1663 67.7921 73.0362 67.4509 73.0362C67.1098 73.0362 66.7686 73.1663 66.5084 73.4265L65.9638 73.9709C65.1853 74.7494 64.2858 74.462 64.0288 74.3555C63.7718 74.2489 62.9329 73.8154 62.9338 72.7147L62.9395 64.7131C62.9402 63.7357 63.7357 62.94 64.7133 62.9395L72.7147 62.9336H72.7163C73.8161 62.9336 74.2491 63.7718 74.3557 64.0288C74.4623 64.2858 74.7497 65.1853 73.9711 65.9638L73.4269 66.5082C72.9063 67.0288 72.9063 67.8727 73.4269 68.3932L78.305 73.2713L73.2715 78.3048Z" fill="white"/>
</svg>
