<svg width="91" height="91" viewBox="0 0 91 91" fill="none" xmlns="http://www.w3.org/2000/svg">
<path d="M90.8979 88.481L80.8194 64.2652C80.8173 64.2602 80.8154 64.2551 80.8132 64.2501L77.7804 56.9632C77.5742 56.4676 77.09 56.1449 76.5533 56.1449H63.4815C66.0241 52.7054 68.1402 49.2792 69.793 45.9152C72.7219 39.9536 74.207 34.1641 74.207 28.7071C74.207 12.8779 61.3291 0 45.5001 0C29.6711 0 16.793 12.8779 16.793 28.7073C16.793 34.1643 18.2779 39.954 21.207 45.9154C22.8597 49.2793 24.9758 52.7054 27.5185 56.145H14.4465C13.9098 56.145 13.4256 56.468 13.2194 56.9633L7.64746 70.3514C7.3654 71.0291 7.68603 71.8072 8.36373 72.0891C9.04125 72.3713 9.81937 72.0505 10.1014 71.3728L11.2955 68.504C12.6317 68.478 15.246 68.3083 18.3172 67.4852C23.3473 66.1367 27.5276 63.5646 30.5436 60.0005C30.6267 60.1005 30.7081 60.2009 30.792 60.301C31.7671 61.4655 32.7393 62.5684 33.6918 63.6085C27.6433 65.6999 24.0408 69.2835 24.0408 73.2331C24.0408 74.738 24.5567 76.1666 25.5012 77.4723C21.3986 79.997 16.9154 81.0904 12.15 80.723C9.75201 80.538 7.82466 80.0052 6.67294 79.6117L8.05661 76.287C8.33867 75.6093 8.01804 74.8311 7.34034 74.5493C6.66228 74.2667 5.88451 74.5876 5.60263 75.2655L0.102105 88.481C-0.0686978 88.891 -0.0231978 89.3595 0.223497 89.729C0.470015 90.0987 0.884847 90.3207 1.32918 90.3207H53.7391C53.7404 90.3207 53.7416 90.3209 53.7429 90.3209C53.7439 90.3209 53.745 90.3207 53.7462 90.3207H89.671C90.1153 90.3207 90.5303 90.0987 90.7766 89.729C91.0232 89.3597 91.0685 88.8914 90.8979 88.481ZM75.6667 58.8031L77.6405 63.5454C71.8714 64.126 67.4313 67.1514 65.3773 68.823C63.7484 66.6644 60.9388 64.8483 57.3175 63.5982C58.2669 62.5611 59.2361 61.4616 60.2079 60.3008C60.626 59.8016 61.0328 59.3023 61.4334 58.8031H75.6667ZM17.7099 64.896C15.6219 65.4628 13.7448 65.696 12.4255 65.7894L15.3332 58.8031H28.0718C25.4627 61.6879 21.9899 63.7339 17.7099 64.896ZM32.8301 58.5948C21.772 45.3878 19.4512 35.0521 19.4512 28.7073C19.4512 14.3437 31.1367 2.6582 45.5001 2.6582C59.8635 2.6582 71.549 14.3437 71.549 28.7073C71.549 35.0435 69.2338 45.3649 58.2042 58.5535C52.8842 64.915 47.5007 69.5604 45.4997 71.2109C43.5045 69.5661 38.1465 64.9441 32.8301 58.5948ZM55.2806 73.233C55.2806 74.3186 51.8283 76.4316 45.4997 76.4316C39.1711 76.4316 35.7188 74.3186 35.7188 73.233C35.7188 72.4703 37.4245 71.2016 40.6321 70.5136C42.9775 72.6397 44.5526 73.8661 44.6868 73.9698C44.9263 74.1552 45.2132 74.2476 45.5001 74.2476C45.7869 74.2476 46.074 74.155 46.3134 73.9698C46.4476 73.8661 48.0225 72.6395 50.3682 70.5138C53.5751 71.2018 55.2806 72.4703 55.2806 73.233ZM67.1389 87.6629C69.1837 87.0109 71.1096 86.2611 72.9033 85.4101C73.5665 85.0955 73.8491 84.3026 73.5345 83.6395C73.2197 82.9764 72.427 82.6938 71.7639 83.0082C66.7711 85.377 60.6841 86.9423 53.6721 87.6627H3.32176L5.64848 82.072C6.93386 82.5242 9.09902 83.1404 11.8264 83.3636C12.455 83.415 13.1329 83.4463 13.8534 83.4463C17.5714 83.4463 22.4159 82.6143 27.3571 79.4432C31.1297 82.6301 37.7777 84.7052 45.4992 84.7052C46.2332 84.7052 46.8283 84.1103 46.8283 83.3761C46.8283 82.642 46.2332 82.047 45.4992 82.047C40.326 82.047 35.4833 81.0424 31.8634 79.2183C28.581 77.5643 26.6984 75.3827 26.6984 73.233C26.6984 70.464 29.8067 67.7056 34.8101 66.0338C35.0973 65.9379 35.3287 65.7525 35.4867 65.52C36.484 66.5553 37.4427 67.509 38.3411 68.3737C37.9233 68.5045 37.5212 68.6458 37.1414 68.8008C34.5093 69.8736 33.0599 71.4476 33.0599 73.2333C33.0599 75.0188 34.5095 76.593 37.1414 77.6656C39.3953 78.5844 42.3636 79.09 45.499 79.09C48.6344 79.09 51.6026 78.5842 53.8566 77.6656C56.4885 76.593 57.9381 75.0188 57.9381 73.2333C57.9381 71.4478 56.4885 69.8736 53.8566 68.8008C53.4771 68.6462 53.0753 68.5047 52.6578 68.3741C53.4889 67.5741 54.3712 66.6993 55.2883 65.7528C59.5441 67.0057 62.6987 69.0299 63.836 71.3399C63.8575 71.3955 63.8824 71.4501 63.9118 71.5029C64.1645 72.0661 64.2999 72.645 64.2999 73.2333C64.2999 76.2898 60.5375 79.2909 54.7144 80.8784C54.0063 81.0716 53.5886 81.8022 53.7814 82.5103C53.9426 83.1015 54.4783 83.4902 55.0629 83.4902C55.1786 83.4902 55.2963 83.4749 55.4134 83.4431C62.5343 81.5015 66.9578 77.5894 66.9578 73.2335C66.9578 72.549 66.8517 71.8797 66.6473 71.2301C68.2547 69.8548 72.8129 66.4394 78.7147 66.1279L82.2461 74.6131C81.6285 75.6029 79.8894 77.992 76.2401 80.4682C75.6326 80.8802 75.4744 81.7066 75.8866 82.3141C76.1436 82.6931 76.562 82.8971 76.9877 82.8971C77.2445 82.8971 77.504 82.8226 77.7327 82.6676C80.536 80.7657 82.3446 78.8903 83.4485 77.5016L87.6778 87.6634H67.1389V87.6629Z" fill="white"/>
<path d="M45.5 16.4585C43.0457 16.4585 40.6772 17.1822 38.6509 18.5513C38.0425 18.9622 37.8827 19.7883 38.2934 20.3966C38.7042 21.0049 39.5303 21.1645 40.1387 20.754C41.7242 19.6828 43.578 19.1167 45.5 19.1167C50.7883 19.1167 55.0904 23.4189 55.0904 28.7072C55.0904 33.9955 50.7883 38.2978 45.5 38.2978C40.2117 38.2978 35.9097 33.9955 35.9097 28.7072C35.9097 27.1421 36.2946 25.5898 37.0225 24.2184C37.3664 23.57 37.1199 22.7654 36.4717 22.4211C35.8227 22.0772 35.0187 22.3237 34.6744 22.9719C33.7436 24.7258 33.2515 26.7091 33.2515 28.7072C33.2515 35.4613 38.7463 40.956 45.5 40.956C52.2537 40.956 57.7486 35.4611 57.7486 28.7072C57.7486 21.9532 52.2539 16.4585 45.5 16.4585Z" fill="white"/>
</svg>
