<svg width="91" height="91" viewBox="0 0 91 91" fill="none" xmlns="http://www.w3.org/2000/svg">
<g clip-path="url(#clip0)">
<path d="M86.4657 45.4693L82.3371 44.9523C81.0819 41.8814 79.2786 39.0409 77.0374 36.5831L80.0729 23.7234C80.1977 23.1948 80.074 22.6383 79.737 22.2125C79.4 21.7866 78.8869 21.5381 78.3439 21.5378L77.9556 21.5376C77.9533 21.5376 77.9517 21.5376 77.9493 21.5376C72.9104 21.5376 68.3691 24.708 66.5829 29.3583C65.3196 28.8562 64.0209 28.4426 62.6964 28.1292C61.7411 27.9033 60.7836 28.4943 60.5577 29.4498C60.3318 30.4051 60.923 31.3626 61.8783 31.5885C66.4025 32.6586 70.4383 34.9464 73.6194 38.1213C73.7356 38.2915 73.8805 38.4422 74.0508 38.5642C76.3696 40.9981 78.2026 43.9182 79.3917 47.1907C79.6193 47.8177 80.1794 48.2645 80.8413 48.3474L86.0243 48.9963C86.8346 49.0978 87.4455 49.79 87.4455 50.6065V59.5674C87.4455 60.3839 86.8344 61.0762 86.0243 61.1776L81.2214 61.7789C80.5306 61.8653 79.9538 62.3471 79.7459 63.0117C78.321 67.5643 75.6137 71.5902 71.9163 74.6536C71.5088 74.9913 71.2729 75.4931 71.2729 76.0222V85.8462C71.2729 86.728 70.5556 87.4453 69.674 87.4453H59.3642C58.4825 87.4453 57.7652 86.728 57.7652 85.8462V82.1021C57.7652 81.1205 56.9693 80.3248 55.9878 80.3248H41.0557C40.0742 80.3248 39.2783 81.1205 39.2783 82.1021V85.8462C39.2783 86.728 38.561 87.4453 37.6793 87.4453H27.3693C26.4877 87.4453 25.7704 86.728 25.7704 85.8462V78.9095C25.7704 78.2577 25.4137 77.6584 24.841 77.3475C16.8639 73.0165 11.9082 64.693 11.9082 55.6254C11.9082 42.006 22.9883 30.9259 36.6077 30.9259H38.8349C39.8163 30.9259 40.6122 30.1302 40.6122 29.1485C40.6122 28.1669 39.8163 27.3712 38.8349 27.3712H36.6077C23.4141 27.3712 12.3049 36.4618 9.21142 48.7082H7.90916C5.50798 48.7082 3.55468 46.7547 3.55468 44.3537C3.55468 41.9527 5.50798 39.9992 7.90916 39.9992C8.89061 39.9992 9.6865 39.2035 9.6865 38.2219C9.6865 37.2402 8.89061 36.4445 7.90916 36.4445C3.5481 36.4445 0 39.9924 0 44.3537C0 48.7149 3.5481 52.2628 7.90916 52.2628H8.55452C8.42299 53.3659 8.3535 54.4875 8.3535 55.6254C8.3535 65.6405 13.6382 74.8619 22.2155 79.9442V85.8464C22.2155 88.6882 24.5275 91.0002 27.3691 91.0002H37.6789C40.5207 91.0002 42.8327 88.6882 42.8327 85.8464V83.8796H54.2101V85.8464C54.2101 88.6882 56.5221 91.0002 59.3639 91.0002H69.6737C72.5153 91.0002 74.8273 88.6882 74.8273 85.8464V76.8417C78.436 73.6679 81.1592 69.6644 82.7709 65.1674L86.4655 64.7048C89.0504 64.3813 90.9998 62.1726 90.9998 59.5674V50.6065C90.9998 48.0015 89.0506 45.7928 86.4657 45.4693ZM74.0525 33.7549C72.7266 32.6703 71.3065 31.7095 69.8129 30.8845C70.7948 28.0629 73.19 25.9635 76.0463 25.308L74.0525 33.7549Z" fill="white"/>
<path d="M70.7505 45.1321C70.4201 44.8015 69.9616 44.6113 69.4941 44.6113C69.0267 44.6113 68.5681 44.8015 68.2376 45.1321C67.907 45.4627 67.7168 45.9212 67.7168 46.3887C67.7168 46.8561 67.9068 47.3147 68.2376 47.6452C68.5683 47.9758 69.0267 48.166 69.4941 48.166C69.9616 48.166 70.4201 47.9758 70.7505 47.6452C71.0811 47.3147 71.2715 46.8561 71.2715 46.3887C71.2715 45.9212 71.0811 45.4627 70.7505 45.1321Z" fill="white"/>
<path d="M52.1191 10.3677C51.1377 10.3677 50.3418 11.1634 50.3418 12.145V19.1948C50.3418 20.1765 51.1377 20.9722 52.1191 20.9722C53.1006 20.9722 53.8965 20.1765 53.8965 19.1948V12.145C53.8965 11.1636 53.1008 10.3677 52.1191 10.3677Z" fill="white"/>
<path d="M53.3755 4.43971C53.0451 4.10912 52.5866 3.91895 52.1191 3.91895C51.6515 3.91895 51.1931 4.10912 50.8626 4.43971C50.532 4.77029 50.3418 5.22885 50.3418 5.69629C50.3418 6.1655 50.5318 6.62228 50.8626 6.95287C51.1931 7.28345 51.6515 7.47363 52.1191 7.47363C52.5866 7.47363 53.0451 7.28345 53.3755 6.95287C53.7061 6.62228 53.8965 6.16373 53.8965 5.69629C53.8965 5.22885 53.7061 4.77207 53.3755 4.43971Z" fill="white"/>
<path d="M37.6797 0C36.6982 0 35.9023 0.795715 35.9023 1.77734V4.79882C35.9023 5.78044 36.6982 6.57616 37.6797 6.57616C38.6611 6.57616 39.457 5.78044 39.457 4.79882V1.77734C39.457 0.795715 38.6613 0 37.6797 0Z" fill="white"/>
<path d="M20.2505 55.6252C20.2505 54.6436 19.4546 53.8479 18.4731 53.8479C17.4917 53.8479 16.6958 54.6436 16.6958 55.6252L16.696 55.7196C16.702 56.6973 17.4967 57.4859 18.4731 57.4859C18.4767 57.4859 18.4804 57.4859 18.4843 57.4859C19.4658 57.4797 20.2567 56.679 20.2507 55.6974L20.2505 55.6252Z" fill="white"/>
<path d="M28.1181 69.6098C25.0286 67.7295 22.6169 64.8408 21.3276 61.4758C20.9763 60.5589 19.9484 60.1005 19.032 60.4521C18.1154 60.8033 17.6571 61.8309 18.0083 62.7477C19.5777 66.8439 22.5119 70.3593 26.2704 72.6464C26.5591 72.822 26.8777 72.9057 27.1925 72.9057C27.7923 72.9057 28.378 72.6019 28.7127 72.052C29.2229 71.2135 28.9565 70.1201 28.1181 69.6098Z" fill="white"/>
<path d="M37.6797 8.54053C33.5635 8.54053 30.2148 11.8892 30.2148 16.0054C30.2148 20.1215 33.5635 23.4702 37.6797 23.4702C41.7958 23.4702 45.1445 20.1215 45.1445 16.0054C45.1445 11.8892 41.7958 8.54053 37.6797 8.54053ZM37.6797 19.9155C35.5236 19.9155 33.7695 18.1614 33.7695 16.0054C33.7695 13.8493 35.5236 12.0952 37.6797 12.0952C39.8358 12.0952 41.5898 13.8493 41.5898 16.0054C41.5898 18.1614 39.8358 19.9155 37.6797 19.9155Z" fill="white"/>
<path d="M60.0742 37.6797H58.4746C59.1773 36.5416 59.584 35.2024 59.584 33.7695C59.584 29.6534 56.2353 26.3047 52.1191 26.3047C48.003 26.3047 44.6543 29.6534 44.6543 33.7695C44.6541 35.2024 45.0608 36.5416 45.7636 37.6797H36.9687C35.9873 37.6797 35.1914 38.4754 35.1914 39.457C35.1914 40.4386 35.9873 41.2343 36.9687 41.2343H60.0742C61.0556 41.2343 61.8515 40.4386 61.8515 39.457C61.8515 38.4754 61.0558 37.6797 60.0742 37.6797ZM52.1191 37.6797C49.9631 37.6797 48.209 35.9256 48.209 33.7695C48.209 31.6134 49.9631 29.8594 52.1191 29.8594C54.2752 29.8594 56.0293 31.6134 56.0293 33.7695C56.0293 35.9256 54.2751 37.6797 52.1191 37.6797Z" fill="white"/>
</g>
<defs>
<clipPath id="clip0">
<rect width="91" height="91" fill="white"/>
</clipPath>
</defs>
</svg>
