<svg width="45" height="28" viewBox="0 0 45 28" fill="none" xmlns="http://www.w3.org/2000/svg">
<path d="M22.7719 27.75C29.2819 27.75 26.9606 23.7203 27.4631 22.5617C27.4556 21.6963 27.4481 20.864 27.4781 20.358C27.8906 20.4717 28.8637 20.9538 30.8737 22.8642C33.9769 25.9258 34.77 27.75 37.2769 27.75H41.8912C43.3537 27.75 44.115 27.1578 44.4956 26.661C44.8631 26.1807 45.2231 25.3373 44.8294 24.0247C43.8 20.864 37.7962 15.4062 37.4231 14.8305C37.4794 14.7242 37.5694 14.583 37.6162 14.5097H37.6125C38.7975 12.9788 43.32 6.35317 43.9856 3.70217C43.9875 3.6985 43.9894 3.693 43.9894 3.6875C44.3494 2.4775 44.0194 1.69283 43.6781 1.24917C43.1644 0.5855 42.3469 0.25 41.2425 0.25H36.6281C35.0831 0.25 33.9113 1.01083 33.3188 2.39867C32.3269 4.8645 29.5406 9.9355 27.4519 11.7303C27.3881 9.1875 27.4312 7.246 27.465 5.80317C27.5325 2.989 27.75 0.25 24.7631 0.25H17.5106C15.6394 0.25 13.8488 2.24833 15.7875 4.62067C17.4825 6.69967 16.3969 7.85833 16.7625 13.626C15.3375 12.1318 12.8025 8.09667 11.01 2.9395C10.5075 1.54433 9.74625 0.251833 7.60312 0.251833H2.98875C1.1175 0.251833 0 1.24917 0 2.91933C0 6.67033 8.49188 27.75 22.7719 27.75ZM7.60312 3.00183C8.01 3.00183 8.05125 3.00183 8.35312 3.83967C10.1888 9.12517 14.3063 16.9462 17.3138 16.9462C19.5731 16.9462 19.5731 14.682 19.5731 13.8295L19.5712 7.0425C19.4475 4.79667 18.6112 3.67833 18.0619 3L24.6394 3.00733C24.6431 3.0385 24.6019 10.5148 24.6581 12.3262C24.6581 14.8983 26.7469 16.3723 30.0075 13.1457C33.4481 9.34883 35.8275 3.67283 35.9231 3.44183C36.0638 3.11183 36.1856 3 36.6281 3H41.2425H41.2612C41.2594 3.0055 41.2594 3.011 41.2575 3.0165C40.8356 4.9415 36.6712 11.0758 35.2781 12.9807C35.2556 13.01 35.235 13.0412 35.2144 13.0723C34.6012 14.0513 34.1025 15.133 35.2988 16.6547H35.3006C35.4094 16.783 35.6925 17.0837 36.105 17.5017C37.3875 18.796 41.7862 23.2217 42.1763 24.9817C41.9175 25.022 41.6362 24.9927 37.2769 25.0018C36.3488 25.0018 35.6231 23.6452 32.8537 20.9135C30.3637 18.5448 28.7475 17.5768 27.2756 17.5768C24.4181 17.5768 24.6262 19.8447 24.6525 22.5873C24.6619 25.561 24.6431 24.6205 24.6637 24.8075C24.4969 24.8717 24.0188 25 22.7719 25C10.875 25 3.1275 6.5365 2.82937 3.00733C2.9325 2.99817 4.35187 3.00367 7.60312 3.00183Z" fill="white" fill-opacity="0.8"/>
</svg>
