<svg width="120" height="120" viewBox="0 0 120 120" fill="none" xmlns="http://www.w3.org/2000/svg">
<path d="M63.504 91.2H54.904C52.896 91.2 50.6 89.48 50.6 86.04V80C50.5552 78.5615 50.1987 77.1498 49.555 75.8625C48.9114 74.5752 47.996 73.443 46.872 72.544C44.4183 70.6578 42.4405 68.223 41.0971 65.4348C39.7537 62.6466 39.082 59.5825 39.136 56.488C39.2986 51.2969 41.4351 46.3633 45.1098 42.693C48.7845 39.0228 53.7207 36.8923 58.912 36.736C64.2611 36.6693 69.4177 38.7296 73.248 42.464C77.0663 46.2617 79.2288 51.4147 79.264 56.8C79.3042 59.7805 78.6526 62.7297 77.3602 65.4158C76.0678 68.1018 74.17 70.4515 71.816 72.28C70.5991 73.2346 69.6091 74.4473 68.9174 75.8307C68.2257 77.2141 67.8495 78.7337 67.816 80.28V86.872C67.7956 88.0107 67.3352 89.0974 66.5314 89.9042C65.7276 90.711 64.6426 91.1754 63.504 91.2ZM59.2 39.6C50.024 39.6 42.288 47.344 42 56.512C41.9393 59.1624 42.5046 61.7897 43.65 64.1805C44.7954 66.5714 46.4886 68.6584 48.592 70.272C50.084 71.4221 51.2971 72.8943 52.1407 74.5787C52.9843 76.2631 53.4367 78.1163 53.464 80V86.016C53.464 86.592 53.464 88.312 54.904 88.312H63.504C63.6948 88.3224 63.8856 88.2925 64.0641 88.2242C64.2425 88.1559 64.4046 88.0508 64.5397 87.9157C64.6748 87.7806 64.7799 87.6185 64.8482 87.4401C64.9165 87.2616 64.9464 87.0708 64.936 86.88V80.28C65.0103 78.2913 65.5092 76.3416 66.3992 74.5616C67.2892 72.7816 68.5497 71.2127 70.096 69.96C72.0731 68.3855 73.6675 66.3834 74.7594 64.104C75.8513 61.8246 76.4122 59.3274 76.4 56.8C76.4091 54.5043 75.9571 52.2302 75.0707 50.1125C74.1844 47.9948 72.8817 46.0767 71.24 44.472C69.6535 42.9062 67.7729 41.6696 65.7066 40.8335C63.6403 39.9973 61.429 39.5781 59.2 39.6Z" fill="#1D2B6B" stroke="#1D2B6B" stroke-width="0.25" stroke-miterlimit="10"/>
<path d="M66.4 82.6H52C51.6202 82.6 51.256 82.4491 50.9874 82.1806C50.7189 81.912 50.568 81.5478 50.568 81.168C50.568 80.7882 50.7189 80.424 50.9874 80.1554C51.256 79.8869 51.6202 79.736 52 79.736H66.4C66.7798 79.736 67.144 79.8869 67.4126 80.1554C67.6811 80.424 67.832 80.7882 67.832 81.168C67.832 81.5478 67.6811 81.912 67.4126 82.1806C67.144 82.4491 66.7798 82.6 66.4 82.6Z" fill="#1D2B6B" stroke="#1D2B6B" stroke-width="0.25" stroke-miterlimit="10"/>
<path d="M59.2 31C59.012 31.0101 58.824 30.981 58.6478 30.9146C58.4717 30.8482 58.3112 30.746 58.1766 30.6144C58.042 30.4828 57.9362 30.3247 57.8658 30.1501C57.7955 29.9755 57.7622 29.7882 57.768 29.6V23.832C57.768 23.4522 57.9189 23.088 58.1874 22.8194C58.456 22.5509 58.8202 22.4 59.2 22.4C59.5798 22.4 59.944 22.5509 60.2126 22.8194C60.4811 23.088 60.632 23.4522 60.632 23.832V29.6C60.639 29.7885 60.6065 29.9763 60.5366 30.1515C60.4667 30.3267 60.3609 30.4853 60.2261 30.6172C60.0912 30.749 59.9302 30.8512 59.7535 30.9171C59.5768 30.9831 59.3883 31.0113 59.2 31Z" fill="#1D2B6B" stroke="#1D2B6B" stroke-width="0.25" stroke-miterlimit="10"/>
<path d="M78.4 39.024C77.9977 39.0668 77.593 38.9678 77.256 38.744C77.1197 38.6147 77.0112 38.459 76.937 38.2864C76.8628 38.1138 76.8246 37.9279 76.8246 37.74C76.8246 37.5521 76.8628 37.3662 76.937 37.1936C77.0112 37.021 77.1197 36.8653 77.256 36.736L81.256 32.736C81.3878 32.6042 81.5444 32.4996 81.7166 32.4282C81.8889 32.3569 82.0735 32.3201 82.26 32.3201C82.4464 32.3201 82.6311 32.3569 82.8034 32.4282C82.9756 32.4996 83.1321 32.6042 83.264 32.736C83.3958 32.8678 83.5004 33.0244 83.5718 33.1966C83.6431 33.3689 83.6799 33.5535 83.6799 33.74C83.6799 33.9265 83.6431 34.1111 83.5718 34.2834C83.5004 34.4556 83.3958 34.6122 83.264 34.744L79.264 38.744C78.9951 38.8816 78.7062 38.9761 78.408 39.024H78.4Z" fill="#1D2B6B" stroke="#1D2B6B" stroke-width="0.25" stroke-miterlimit="10"/>
<path d="M92.168 58.232H86.4C86.0202 58.232 85.656 58.0811 85.3874 57.8126C85.1189 57.544 84.968 57.1798 84.968 56.8C84.968 56.4202 85.1189 56.056 85.3874 55.7874C85.656 55.5189 86.0202 55.368 86.4 55.368H92.136C92.5158 55.368 92.88 55.5189 93.1486 55.7874C93.4171 56.056 93.568 56.4202 93.568 56.8C93.568 57.1798 93.4171 57.544 93.1486 57.8126C92.88 58.0811 92.5158 58.232 92.136 58.232H92.168Z" fill="#1D2B6B" stroke="#1D2B6B" stroke-width="0.25" stroke-miterlimit="10"/>
<path d="M82.4 81.456C81.994 81.4991 81.5859 81.3971 81.248 81.168L77.248 77.168C76.9817 76.9028 76.8317 76.5426 76.8309 76.1668C76.8302 75.791 76.9788 75.4303 77.244 75.164C77.5092 74.8977 77.8693 74.7477 78.2451 74.747C78.621 74.7462 78.9817 74.8948 79.248 75.16L83.248 79.16C83.3843 79.2893 83.4928 79.445 83.567 79.6176C83.6411 79.7902 83.6794 79.9761 83.6794 80.164C83.6794 80.3519 83.6411 80.5378 83.567 80.7104C83.4928 80.883 83.3843 81.0387 83.248 81.168C83.248 81.456 82.96 81.456 82.392 81.456H82.4Z" fill="#1D2B6B" stroke="#1D2B6B" stroke-width="0.25" stroke-miterlimit="10"/>
<path d="M36 81.456C35.594 81.4991 35.1859 81.3971 34.848 81.168C34.7137 81.0375 34.607 80.8815 34.5341 80.709C34.4613 80.5365 34.4237 80.3512 34.4237 80.164C34.4237 79.9768 34.4613 79.7915 34.5341 79.619C34.607 79.4466 34.7137 79.2905 34.848 79.16L38.848 75.16C39.1143 74.8937 39.4754 74.7441 39.852 74.7441C40.2286 74.7441 40.5897 74.8937 40.856 75.16C41.1223 75.4263 41.2719 75.7874 41.2719 76.164C41.2719 76.5406 41.1223 76.9017 40.856 77.168L36.856 81.168C36.7438 81.2768 36.6087 81.3591 36.4606 81.409C36.3125 81.4588 36.1551 81.4749 36 81.456Z" fill="#1D2B6B" stroke="#1D2B6B" stroke-width="0.25" stroke-miterlimit="10"/>
<path d="M32 58.232H26.232C25.8522 58.232 25.488 58.0811 25.2194 57.8126C24.9509 57.544 24.8 57.1798 24.8 56.8C24.8 56.4202 24.9509 56.056 25.2194 55.7874C25.488 55.5189 25.8522 55.368 26.232 55.368H32C32.3798 55.368 32.744 55.5189 33.0126 55.7874C33.2811 56.056 33.432 56.4202 33.432 56.8C33.432 57.1798 33.2811 57.544 33.0126 57.8126C32.744 58.0811 32.3798 58.232 32 58.232Z" fill="#1D2B6B" stroke="#1D2B6B" stroke-width="0.25" stroke-miterlimit="10"/>
<path d="M40 39.024C39.5978 39.0655 39.1936 38.9665 38.856 38.744L34.856 34.44C34.5897 34.1737 34.4401 33.8126 34.4401 33.436C34.4401 33.0594 34.5897 32.6983 34.856 32.432C35.1223 32.1657 35.4834 32.0161 35.86 32.0161C36.2366 32.0161 36.5977 32.1657 36.864 32.432L40.864 36.432C40.9983 36.5625 41.105 36.7186 41.1779 36.891C41.2507 37.0635 41.2883 37.2488 41.2883 37.436C41.2883 37.6232 41.2507 37.8085 41.1779 37.981C41.105 38.1534 40.9983 38.3095 40.864 38.44C40.576 38.728 40.288 39.008 40 39.008V39.024Z" fill="#1D2B6B" stroke="#1D2B6B" stroke-width="0.25" stroke-miterlimit="10"/>
<path d="M70.664 58.232C70.4729 58.2437 70.2815 58.2146 70.1025 58.1468C69.9234 58.079 69.7609 57.9739 69.6255 57.8385C69.4901 57.7031 69.385 57.5406 69.3172 57.3615C69.2494 57.1825 69.2203 56.9911 69.232 56.8C69.2009 54.149 68.1339 51.6154 66.2593 49.7407C64.3846 47.8661 61.851 46.7991 59.2 46.768C58.8202 46.768 58.456 46.6171 58.1874 46.3486C57.9189 46.08 57.768 45.7158 57.768 45.336C57.768 44.9562 57.9189 44.592 58.1874 44.3234C58.456 44.0549 58.8202 43.904 59.2 43.904C60.896 43.8966 62.5766 44.225 64.145 44.8704C65.7135 45.5158 67.1386 46.4653 68.3382 47.6641C69.5378 48.863 70.4882 50.2875 71.1345 51.8556C71.7809 53.4236 72.1104 55.104 72.104 56.8C72.1158 56.9918 72.0866 57.1839 72.0183 57.3636C71.95 57.5432 71.8442 57.7062 71.7079 57.8417C71.5716 57.9772 71.408 58.0821 71.228 58.1494C71.048 58.2167 70.8558 58.2449 70.664 58.232Z" fill="#1D2B6B" stroke="#1D2B6B" stroke-width="0.25" stroke-miterlimit="10"/>
</svg>
