<svg width="106" height="106" viewBox="0 0 106 106" fill="none" xmlns="http://www.w3.org/2000/svg">
<path d="M89.888 30.4361H72.1294V19.504C72.1276 18.0546 71.5505 16.6652 70.5249 15.641C69.4994 14.6168 68.1092 14.0415 66.6598 14.0415H39.3401C37.8907 14.0415 36.5006 14.6168 35.475 15.641C34.4495 16.6652 33.8724 18.0546 33.8705 19.504V30.4361H16.112C15.0249 30.4361 13.9824 30.868 13.2138 31.6366C12.4451 32.4053 12.0133 33.4478 12.0133 34.5348V50.9295C12.0196 51.1713 12.088 51.4074 12.2117 51.6153C12.3354 51.8232 12.5104 51.9958 12.72 52.1167L14.7693 53.2827V86.4465C14.7684 86.9851 14.8738 87.5184 15.0794 88.0161C15.285 88.5138 15.5869 88.966 15.9677 89.3468C16.3485 89.7276 16.8007 90.0295 17.2984 90.2351C17.7961 90.4408 18.3295 90.5461 18.868 90.5452H87.1744C87.7129 90.5461 88.2463 90.4408 88.744 90.2351C89.2417 90.0295 89.6939 89.7276 90.0746 89.3468C90.4554 88.966 90.7573 88.5138 90.9629 88.0161C91.1686 87.5184 91.274 86.9851 91.273 86.4465V53.2827L93.3224 52.1167C93.5319 51.9958 93.7069 51.8232 93.8307 51.6153C93.9544 51.4074 94.0227 51.1713 94.029 50.9295V34.5348C94.0291 33.993 93.9217 33.4565 93.713 32.9565C93.5044 32.4564 93.1987 32.0027 92.8136 31.6215C92.4285 31.2404 91.9717 30.9393 91.4695 30.7359C90.9673 30.5324 90.4298 30.4305 89.888 30.4361ZM66.6598 30.4361V24.9665H69.3946V30.4361H66.6598ZM63.9321 30.4361H42.0678V22.2388H63.9321V30.4361ZM39.3401 16.7692H66.6598C67.019 16.7692 67.3746 16.8399 67.7064 16.9774C68.0382 17.1148 68.3397 17.3163 68.5936 17.5702C68.8476 17.8242 69.049 18.1256 69.1865 18.4574C69.3239 18.7892 69.3946 19.1449 69.3946 19.504V22.2388H66.6598V20.8679C66.6598 20.5062 66.5161 20.1592 66.2604 19.9035C66.0046 19.6477 65.6577 19.504 65.296 19.504H40.704C40.3423 19.504 39.9953 19.6477 39.7396 19.9035C39.4838 20.1592 39.3401 20.5062 39.3401 20.8679V22.2388H36.6053V19.504C36.6053 19.1449 36.676 18.7892 36.8135 18.4574C36.9509 18.1256 37.1524 17.8242 37.4063 17.5702C37.6603 17.3163 37.9617 17.1148 38.2935 16.9774C38.6253 16.8399 38.981 16.7692 39.3401 16.7692ZM36.6053 24.9665H39.3401V30.4361H36.6053V24.9665ZM91.2518 50.1733L82.68 55.0281H81.6906C81.5113 55.0272 81.3335 55.0618 81.1676 55.1301C81.0017 55.1983 80.851 55.2987 80.7242 55.4255C80.5973 55.5524 80.4969 55.7031 80.4287 55.869C80.3605 56.0349 80.3258 56.2126 80.3268 56.392C80.3258 56.5714 80.3605 56.7491 80.4287 56.915C80.4969 57.0809 80.5973 57.2317 80.7242 57.3585C80.851 57.4853 81.0017 57.5858 81.1676 57.654C81.3335 57.7222 81.5113 57.7568 81.6906 57.7559H83.0545C83.3011 57.7566 83.544 57.6959 83.7612 57.5792L88.5382 54.8444V86.4465C88.5382 86.6266 88.5028 86.8048 88.4339 86.9712C88.365 87.1375 88.264 87.2886 88.1367 87.4159C88.0094 87.5432 87.8583 87.6442 87.6919 87.7131C87.5256 87.782 87.3473 87.8175 87.1673 87.8175H18.8468C18.6667 87.8175 18.4885 87.782 18.3221 87.7131C18.1558 87.6442 18.0047 87.5432 17.8774 87.4159C17.7501 87.2886 17.6491 87.1375 17.5802 86.9712C17.5113 86.8048 17.4758 86.6266 17.4758 86.4465V54.8444L22.26 57.5721C22.4745 57.6965 22.7188 57.76 22.9666 57.7559H24.3093C24.4887 57.7568 24.6664 57.7222 24.8323 57.654C24.9982 57.5858 25.149 57.4853 25.2758 57.3585C25.4026 57.2317 25.5031 57.0809 25.5713 56.915C25.6395 56.7491 25.6741 56.5714 25.6732 56.392C25.6741 56.2126 25.6395 56.0349 25.5713 55.869C25.5031 55.7031 25.4026 55.5524 25.2758 55.4255C25.149 55.2987 24.9982 55.1983 24.8323 55.1301C24.6664 55.0618 24.4887 55.0272 24.3093 55.0281H23.32L14.7481 50.1733V34.5348C14.7472 34.3551 14.7818 34.177 14.8499 34.0107C14.918 33.8444 15.0183 33.6932 15.1451 33.5658C15.2718 33.4384 15.4225 33.3373 15.5884 33.2684C15.7543 33.1994 15.9323 33.1639 16.112 33.1639H89.888C90.0677 33.1639 90.2456 33.1994 90.4115 33.2684C90.5775 33.3373 90.7281 33.4384 90.8549 33.5658C90.9816 33.6932 91.0819 33.8444 91.15 34.0107C91.2182 34.177 91.2528 34.3551 91.2518 34.5348V50.1733Z" fill="#1D2B6B"/>
<path d="M70.4052 45.4599H72.1294C72.3085 45.4599 72.4859 45.4246 72.6514 45.3561C72.8168 45.2875 72.9672 45.187 73.0938 45.0604C73.2205 44.9338 73.3209 44.7834 73.3895 44.6179C73.458 44.4525 73.4933 44.2751 73.4933 44.096C73.4933 43.9169 73.458 43.7395 73.3895 43.5741C73.3209 43.4086 73.2205 43.2582 73.0938 43.1316C72.9672 43.005 72.8168 42.9045 72.6514 42.836C72.4859 42.7674 72.3085 42.7321 72.1294 42.7321H56.8442C56.5665 41.9339 56.0471 41.242 55.3582 40.7523C54.6693 40.2626 53.8451 39.9996 53 39.9996C52.1548 39.9996 51.3306 40.2626 50.6417 40.7523C49.9528 41.242 49.4335 41.9339 49.1557 42.7321H33.8705C33.5088 42.7321 33.1619 42.8758 32.9061 43.1316C32.6503 43.3874 32.5066 43.7343 32.5066 44.096C32.5066 44.4577 32.6503 44.8046 32.9061 45.0604C33.1619 45.3162 33.5088 45.4599 33.8705 45.4599H35.5948L27.2278 59.8052C27.1057 60.0206 27.0424 60.2643 27.0441 60.5119V65.9744C27.0441 69.7409 31.9484 72.8079 37.9692 72.8079C43.99 72.8079 48.9013 69.7197 48.9013 65.9532V60.4907C48.903 60.2431 48.8397 59.9994 48.7176 59.784L40.3506 45.4599H49.1557C49.3581 46.0321 49.6858 46.5518 50.115 46.981C50.5442 47.4101 51.0639 47.7379 51.6361 47.9403V80.6095C51.6342 81.0712 51.4495 81.5133 51.1224 81.8391C50.7952 82.1649 50.3523 82.3479 49.8906 82.3479H44.8026C44.6229 82.3479 44.445 82.3834 44.2791 82.4524C44.1131 82.5213 43.9625 82.6224 43.8357 82.7498C43.709 82.8772 43.6087 83.0284 43.5405 83.1947C43.4724 83.361 43.4378 83.5391 43.4388 83.7188C43.4388 84.0805 43.5825 84.4274 43.8382 84.6832C44.094 84.939 44.4409 85.0827 44.8026 85.0827H61.1973C61.559 85.0827 61.9059 84.939 62.1617 84.6832C62.4175 84.4274 62.5612 84.0805 62.5612 83.7188C62.5621 83.5391 62.5275 83.361 62.4594 83.1947C62.3913 83.0284 62.2909 82.8772 62.1642 82.7498C62.0375 82.6224 61.8868 82.5213 61.7209 82.4524C61.5549 82.3834 61.377 82.3479 61.1973 82.3479H56.1093C55.6476 82.3479 55.2047 82.1649 54.8776 81.8391C54.5504 81.5133 54.3657 81.0712 54.3638 80.6095V47.9403C54.936 47.7379 55.4558 47.4101 55.8849 46.981C56.3141 46.5518 56.6419 46.0321 56.8442 45.4599H65.6493L57.2824 59.8052C57.1603 60.0206 57.0969 60.2643 57.0986 60.5119V65.9744C57.0986 69.7409 62.0029 72.8079 68.0308 72.8079C74.0586 72.8079 78.9558 69.7409 78.9558 65.9744V60.4907C78.9575 60.2431 78.8942 59.9994 78.7721 59.784L70.4052 45.4599ZM46.1665 65.9532C46.1665 67.628 42.9794 70.0519 37.9692 70.0519C32.9589 70.0519 29.7718 67.628 29.7718 65.9532V64.5893H46.1665V65.9532ZM46.1665 61.8545H29.7718V60.8581L37.9692 46.8096L46.1665 60.8581V61.8545ZM53 45.4599C52.7302 45.4599 52.4665 45.3799 52.2422 45.23C52.018 45.0802 51.8431 44.8671 51.7399 44.6179C51.6367 44.3687 51.6097 44.0945 51.6623 43.8299C51.7149 43.5654 51.8448 43.3223 52.0356 43.1316C52.2263 42.9409 52.4693 42.811 52.7339 42.7583C52.9985 42.7057 53.2727 42.7327 53.5219 42.836C53.7711 42.9392 53.9841 43.114 54.134 43.3383C54.2838 43.5626 54.3638 43.8263 54.3638 44.096C54.3648 44.2754 54.3301 44.4531 54.2619 44.619C54.1937 44.7849 54.0933 44.9357 53.9665 45.0625C53.8396 45.1893 53.6889 45.2898 53.523 45.358C53.3571 45.4262 53.1793 45.4608 53 45.4599ZM68.0308 46.8096L76.2281 60.8581V61.8545H59.8334V60.8581L68.0308 46.8096ZM76.2281 65.9532C76.2281 67.628 73.034 70.0519 68.0308 70.0519C63.0276 70.0519 59.8334 67.628 59.8334 65.9532V64.5893H76.2281V65.9532Z" fill="#1D2B6B"/>
<path d="M28.408 42.7321C28.5874 42.7312 28.7652 42.7658 28.931 42.834C29.0969 42.9023 29.2477 43.0027 29.3745 43.1295C29.5013 43.2563 29.6018 43.4071 29.67 43.573C29.7382 43.7389 29.7728 43.9166 29.7719 44.096C29.7728 44.2754 29.7382 44.4531 29.67 44.619C29.6018 44.7849 29.5013 44.9357 29.3745 45.0625C29.2477 45.1893 29.0969 45.2897 28.931 45.358C28.7652 45.4262 28.5874 45.4608 28.408 45.4599C28.2286 45.4608 28.0509 45.4262 27.885 45.358C27.7191 45.2897 27.5684 45.1893 27.4415 45.0625C27.3147 44.9357 27.2143 44.7849 27.1461 44.619C27.0778 44.4531 27.0432 44.2754 27.0441 44.096C27.0432 43.9166 27.0778 43.7389 27.1461 43.573C27.2143 43.4071 27.3147 43.2563 27.4415 43.1295C27.5684 43.0027 27.7191 42.9023 27.885 42.834C28.0509 42.7658 28.2286 42.7312 28.408 42.7321Z" fill="#1D2B6B"/>
<path d="M77.592 42.7321C77.7714 42.7312 77.9492 42.7658 78.1151 42.834C78.281 42.9023 78.4317 43.0027 78.5585 43.1295C78.6853 43.2563 78.7858 43.4071 78.854 43.573C78.9222 43.7389 78.9568 43.9166 78.9559 44.096C78.9568 44.2754 78.9222 44.4531 78.854 44.619C78.7858 44.7849 78.6853 44.9357 78.5585 45.0625C78.4317 45.1893 78.281 45.2897 78.1151 45.358C77.9492 45.4262 77.7714 45.4608 77.592 45.4599C77.4127 45.4608 77.2349 45.4262 77.069 45.358C76.9031 45.2897 76.7524 45.1893 76.6255 45.0625C76.4987 44.9357 76.3983 44.7849 76.3301 44.619C76.2619 44.4531 76.2272 44.2754 76.2282 44.096C76.2272 43.9166 76.2619 43.7389 76.3301 43.573C76.3983 43.4071 76.4987 43.2563 76.6255 43.1295C76.7524 43.0027 76.9031 42.9023 77.069 42.834C77.2349 42.7658 77.4127 42.7312 77.592 42.7321Z" fill="#1D2B6B"/>
</svg>
