<svg width="63" height="64" viewBox="0 0 63 64" fill="none" xmlns="http://www.w3.org/2000/svg">
<path d="M42.6267 25.925L41.9367 24.052C41.3194 24.287 40.6934 24.502 40.0752 24.692L40.6442 26.606C41.3027 26.404 41.9701 26.175 42.6267 25.925Z" fill="#1D2B6B"/>
<path d="M36.4219 30.28V27.592C37.1523 27.473 37.8856 27.327 38.6131 27.157L38.1691 25.208C37.2202 25.432 36.2585 25.608 35.3105 25.735L34.4531 25.85V30.281C34.4531 30.549 34.459 30.816 34.4728 31.082L36.4396 30.98C36.4278 30.747 36.4219 30.515 36.4219 30.28Z" fill="#1D2B6B"/>
<path d="M18.7031 13C15.4458 13 12.7969 15.691 12.7969 19C12.7969 22.309 15.4458 25 18.7031 25C21.9604 25 24.6094 22.309 24.6094 19C24.6094 15.691 21.9604 13 18.7031 13ZM18.7031 23C16.5316 23 14.7656 21.206 14.7656 19C14.7656 16.794 16.5316 15 18.7031 15C20.8747 15 22.6406 16.794 22.6406 19C22.6406 21.206 20.8747 23 18.7031 23Z" fill="#1D2B6B"/>
<path d="M44.7674 18.788L44.2979 18.529L43.8283 18.788C40.0601 20.862 35.7948 21.973 31.4941 21.999L30.5156 22.005V30.28C30.5156 38.957 35.9189 46.775 43.9612 49.733L44.2969 49.856L44.6325 49.733C52.6749 46.775 58.0781 38.957 58.0781 30.28V22.005L57.0997 21.999C52.8019 21.973 48.5376 20.862 44.7674 18.788ZM56.1094 30.28C56.1094 37.997 51.3775 44.962 44.2969 47.725C37.2163 44.961 32.4844 37.996 32.4844 30.28V23.975C36.5971 23.804 40.6517 22.714 44.2979 20.798C47.945 22.714 51.9986 23.804 56.1094 23.975V30.28Z" fill="#1D2B6B"/>
<path d="M40.3597 31.586L36.0146 36L42.3284 42.414L54.5485 30L50.2034 25.586L42.3284 33.586L40.3597 31.586ZM51.7647 30L42.3284 39.586L38.7985 36L40.3597 34.414L42.3284 36.414L50.2034 28.414L51.7647 30Z" fill="#1D2B6B"/>
<path d="M62.0156 18H57.2621C52.8383 18 48.5553 16.683 44.8373 14.164L44.2595 13.823L43.7171 14.19C41.4757 15.709 39.0078 16.785 36.4219 17.399V15.208L33.828 14.588C33.5012 13.429 33.0455 12.313 32.4686 11.256L33.8723 8.953L28.5931 3.59L26.3261 5.016C25.2856 4.43 24.1871 3.967 23.0462 3.635L22.4359 1H14.9704L14.3601 3.635C13.2192 3.967 12.1206 4.43 11.0801 5.016L8.81311 3.59L3.53391 8.953L4.93762 11.256C4.36078 12.313 3.90502 13.429 3.5782 14.588L0.984375 15.208V22.792L3.5782 23.412C3.90502 24.571 4.36078 25.687 4.93762 26.744L3.53391 29.047L8.81311 34.41L11.0801 32.984C12.1206 33.57 13.2192 34.033 14.3601 34.365L14.9704 37H22.4359L23.0462 34.365C24.1871 34.033 25.2856 33.57 26.3261 32.984L26.7799 33.269C27.3075 37.592 28.9436 41.647 31.4508 45.049L28.1393 57.384L33.0002 56.149L36.6788 62.378L39.9794 52.319C41.263 52.978 42.6087 53.536 44.0193 53.958L44.2969 54.042L44.5745 53.959C45.9851 53.537 47.3307 52.979 48.6143 52.32L51.915 62.379L55.5936 56.15L60.4544 57.385L57.143 45.05C60.2211 40.872 62.0156 35.718 62.0156 30.28V18ZM26.3478 30.646L25.833 30.964C24.6369 31.7 23.3454 32.245 21.9909 32.581L21.4042 32.727L20.8766 35H16.5296L16.003 32.727L15.4163 32.581C14.0618 32.245 12.7703 31.7 11.5743 30.964L11.0595 30.646L9.10448 31.875L6.03028 28.752L7.24008 26.766L6.92705 26.243C6.20255 25.028 5.66606 23.716 5.33531 22.34L5.19159 21.744L2.95312 21.208V16.792L5.19061 16.257L5.33433 15.661C5.66508 14.285 6.20156 12.973 6.92606 11.758L7.23909 11.235L6.0293 9.248L9.1035 6.125L11.0585 7.354L11.5733 7.036C12.7693 6.3 14.0608 5.755 15.4153 5.419L16.002 5.273L16.5296 3H20.8766L21.4033 5.273L21.99 5.419C23.3445 5.755 24.636 6.3 25.832 7.036L26.3468 7.354L28.3018 6.125L31.376 9.248L30.1662 11.234L30.4792 11.757C31.2037 12.972 31.7402 14.284 32.0709 15.66L32.2147 16.256L34.4531 16.792V17.774C33.4245 17.92 32.383 18 31.3317 18H30.4654C29.9624 11.85 24.885 7 18.7031 7C12.1895 7 6.89062 12.383 6.89062 19C6.89062 25.617 12.1895 31 18.7031 31C21.6366 31 24.4322 29.881 26.5781 27.932V30.281C26.5781 30.457 26.5958 30.63 26.5998 30.805L26.3478 30.646ZM26.5781 18V24.979C24.7206 27.497 21.8049 29 18.7031 29C13.2753 29 8.85938 24.514 8.85938 19C8.85938 13.486 13.2753 9 18.7031 9C23.7983 9 28.0015 12.954 28.4967 18H26.5781ZM36.165 57.621L33.9373 53.85L30.9232 54.615L32.9894 46.917C34.5171 48.618 36.2772 50.106 38.2302 51.326L36.165 57.621ZM57.6706 54.615L54.6564 53.85L52.4288 57.621L50.3636 51.326C52.3166 50.106 54.0766 48.618 55.6044 46.917L57.6706 54.615ZM60.0469 30.28C60.0469 40.174 53.5854 49.045 44.2969 51.956C35.0083 49.045 28.5469 40.174 28.5469 30.28V20H31.3317C35.9317 20 40.3909 18.691 44.2959 16.192C48.1822 18.686 52.6523 20 57.2621 20H60.0469V30.28Z" fill="#1D2B6B"/>
</svg>
