<svg width="63" height="64" viewBox="0 0 63 64" fill="none" xmlns="http://www.w3.org/2000/svg">
<path d="M47.25 14.9333C47.25 15.5224 47.7201 16 48.3 16C48.8799 16 49.35 15.5224 49.35 14.9333C49.3468 12.3999 47.5927 10.217 45.15 9.70666V9.59999C45.15 9.01089 44.6799 8.53333 44.1 8.53333C43.5201 8.53333 43.05 9.01089 43.05 9.59999V9.70666C40.6031 10.2114 38.8447 12.3969 38.8447 14.9333C38.8447 17.4697 40.6031 19.6553 43.05 20.16V26.4715C41.7956 26.0209 40.9551 24.8183 40.95 23.4667C40.95 22.8776 40.4799 22.4 39.9 22.4C39.3201 22.4 38.85 22.8776 38.85 23.4667C38.8531 26.0001 40.6073 28.183 43.05 28.6933V28.8C43.05 29.3891 43.5201 29.8667 44.1 29.8667C44.6799 29.8667 45.15 29.3891 45.15 28.8V28.6933C47.5968 28.1886 49.3552 26.0031 49.3552 23.4667C49.3552 20.9303 47.5968 18.7447 45.15 18.24V11.9296C46.4041 12.38 47.2445 13.5821 47.25 14.9333ZM40.95 14.9333C40.9555 13.5821 41.7959 12.38 43.05 11.9296V17.9371C41.7959 17.4867 40.9555 16.2846 40.95 14.9333ZM47.25 23.4667C47.2445 24.8179 46.4041 26.02 45.15 26.4704V20.4629C46.4041 20.9133 47.2445 22.1154 47.25 23.4667Z" fill="#1D2B6B"/>
<path d="M44.1004 4.26668C35.9818 4.26668 29.4004 10.9526 29.4004 19.2C29.4004 27.4475 35.9818 34.1334 44.1004 34.1334C52.219 34.1334 58.8004 27.4475 58.8004 19.2C58.7917 10.9562 52.2154 4.2755 44.1004 4.26668ZM44.1004 32C37.1416 32 31.5004 26.2693 31.5004 19.2C31.5004 12.1308 37.1416 6.40001 44.1004 6.40001C51.0592 6.40001 56.7004 12.1308 56.7004 19.2C56.6929 26.2661 51.0561 31.9924 44.1004 32Z" fill="#1D2B6B"/>
<path d="M44.0996 -2.3791e-05C34.0802 0.0168332 25.8134 7.97082 25.2531 18.1333H24.1496C21.83 18.1333 19.9496 20.0436 19.9496 22.4V33.6917L18.5919 32.3125C18.18 31.9083 17.5251 31.9141 17.12 32.3255C16.715 32.7369 16.7093 33.4022 17.1072 33.8208L20.2572 37.0208C20.6673 37.4372 21.3319 37.4372 21.7419 37.0208L24.8919 33.8208C25.2899 33.4022 25.2842 32.7369 24.8792 32.3255C24.4741 31.9141 23.8192 31.9083 23.4072 32.3125L22.0496 33.6917V22.4C22.0496 21.2218 22.9898 20.2666 24.1496 20.2666H25.2531C25.7959 30.0138 33.4547 37.7942 43.0496 38.3456V41.1584L42.7419 40.8458C42.3299 40.4416 41.6751 40.4474 41.27 40.8588C40.865 41.2703 40.8593 41.9356 41.2572 42.3541L43.3572 44.4874C43.7673 44.9039 44.4319 44.9039 44.8419 44.4874L46.9419 42.3541C47.3399 41.9356 47.3342 41.2703 46.9292 40.8588C46.5241 40.4474 45.8692 40.4416 45.4572 40.8458L45.1496 41.1584V38.3456C55.367 37.7763 63.2799 29.0448 62.9953 18.6536C62.7108 8.26247 54.3324 -0.0086406 44.0996 -2.3791e-05ZM44.0996 36.2666C34.8212 36.2666 27.2996 28.6256 27.2996 19.2C27.2996 9.77431 34.8212 2.13331 44.0996 2.13331C53.378 2.13331 60.8996 9.77431 60.8996 19.2C60.8886 28.621 53.3734 36.2555 44.0996 36.2666Z" fill="#1D2B6B"/>
<path d="M3.15 64H8.4C9.29092 63.9972 10.1385 63.6093 10.731 62.9334H37.065C38.6056 62.9339 40.1165 62.5032 41.432 61.6886L61.11 49.519C62.0552 48.9339 62.714 47.9712 62.9244 46.8672C63.1338 45.7973 62.8956 44.6871 62.2671 43.8027C62.2484 43.7714 62.2281 43.7411 62.2062 43.712C61.1924 42.3375 59.4252 41.7785 57.8225 42.3254L38.387 48.9067C38.0653 49.0155 37.7285 49.071 37.3895 49.071H36.7868C37.2857 47.6828 37.1422 46.1401 36.3962 44.8715L36.3017 44.7115C35.16 42.7886 33.1141 41.6093 30.9036 41.6H25.41C23.473 41.5977 21.594 40.9279 20.0802 39.7003C18.1938 38.1714 15.8532 37.3371 13.44 37.3334H11.3568C10.9134 36.0594 9.73013 35.2056 8.4 35.2H3.15C1.4103 35.2 0 36.6327 0 38.4V60.8C0 62.5673 1.4103 64 3.15 64ZM18.7688 41.3664C20.6554 42.8955 22.9965 43.7299 25.41 43.7334H30.9026C32.3762 43.7375 33.7411 44.5223 34.503 45.8038L34.5975 45.9627C35.1705 46.9338 35.1082 48.1606 34.44 49.0667H28.0613C25.9879 49.0647 23.9607 49.6884 22.2369 50.8587L21.4673 51.3792C20.9848 51.7062 20.8546 52.3686 21.1764 52.8587C21.4982 53.3488 22.1503 53.4811 22.6328 53.1542L23.4014 52.6336C24.7806 51.6974 26.4025 51.1984 28.0613 51.2H37.3937C37.9582 51.2002 38.5191 51.108 39.0548 50.927L58.4913 44.3446C59.2029 44.0953 59.9921 44.3191 60.4737 44.9067C60.4916 44.9376 60.5126 44.9675 60.5336 44.9974C60.843 45.4158 60.9641 45.9476 60.8669 46.4615C60.7697 46.9755 60.4633 47.4239 60.0233 47.696L40.341 59.8667C39.3539 60.4771 38.2206 60.8 37.065 60.8H11.55V39.4667H13.44C15.3767 39.4693 17.2552 40.139 18.7688 41.3664ZM2.1 38.4C2.1 37.8109 2.5701 37.3334 3.15 37.3334H8.4C8.9799 37.3334 9.45 37.8109 9.45 38.4V60.8C9.45 61.3891 8.9799 61.8667 8.4 61.8667H3.15C2.5701 61.8667 2.1 61.3891 2.1 60.8V38.4Z" fill="#1D2B6B"/>
</svg>
