<svg width="60" height="64" viewBox="0 0 60 64" fill="none" xmlns="http://www.w3.org/2000/svg">
<path d="M46 47.75C45.6685 47.75 45.3505 47.8817 45.1161 48.1161C44.8817 48.3505 44.75 48.6685 44.75 49V50.7554H13.25V45.25H30.875V46C30.875 46.3315 31.0067 46.6495 31.2411 46.8839C31.4755 47.1183 31.7935 47.25 32.125 47.25C32.4565 47.25 32.7745 47.1183 33.0089 46.8839C33.2433 46.6495 33.375 46.3315 33.375 46V14C33.375 13.6685 33.2433 13.3505 33.0089 13.1161C32.7745 12.8817 32.4565 12.75 32.125 12.75C31.7935 12.75 31.4755 12.8817 31.2411 13.1161C31.0067 13.3505 30.875 13.6685 30.875 14V14.75H13.25V10.2446H44.75V10.875C44.75 11.2065 44.8817 11.5245 45.1161 11.7589C45.3505 11.9933 45.6685 12.125 46 12.125C46.3315 12.125 46.6495 11.9933 46.8839 11.7589C47.1183 11.5245 47.25 11.2065 47.25 10.875V4C47.249 3.13835 46.9063 2.31228 46.297 1.703C45.6877 1.09372 44.8616 0.750992 44 0.75H14C13.1384 0.750992 12.3123 1.09372 11.703 1.703C11.0937 2.31228 10.751 3.13835 10.75 4V14.75H4C3.13835 14.751 2.31228 15.0937 1.703 15.703C1.09372 16.3123 0.750992 17.1384 0.75 18V42C0.750992 42.8616 1.09372 43.6877 1.703 44.297C2.31228 44.9063 3.13835 45.249 4 45.25H10.75V60C10.751 60.8616 11.0937 61.6877 11.703 62.297C12.3123 62.9063 13.1384 63.249 14 63.25H44C44.8616 63.249 45.6877 62.9063 46.297 62.297C46.9063 61.6877 47.249 60.8616 47.25 60V49C47.25 48.6685 47.1183 48.3505 46.8839 48.1161C46.6495 47.8817 46.3315 47.75 46 47.75ZM13.25 4C13.2502 3.80115 13.3293 3.6105 13.4699 3.46989C13.6105 3.32928 13.8011 3.2502 14 3.25H44C44.1989 3.2502 44.3895 3.32928 44.5301 3.46989C44.6707 3.6105 44.7498 3.80115 44.75 4V7.74463H13.25V4ZM3.25 22.25H30.875V23.875H3.25V22.25ZM4 17.25H30.875V19.75H3.25V18C3.2502 17.8011 3.32928 17.6105 3.46989 17.4699C3.6105 17.3293 3.80115 17.2502 4 17.25ZM3.25 42V26.375H30.875V42.75H4C3.80115 42.7498 3.6105 42.6707 3.46989 42.5301C3.32928 42.3895 3.2502 42.1989 3.25 42ZM44.75 60C44.7498 60.1989 44.6707 60.3895 44.5301 60.5301C44.3895 60.6707 44.1989 60.7498 44 60.75H14C13.8011 60.7498 13.6105 60.6707 13.4699 60.5301C13.3293 60.3895 13.2502 60.1989 13.25 60V53.2554H44.75V60Z" fill="#1D2B6B"/>
<path d="M25.8857 58.2526H32.2552C32.5868 58.2526 32.9047 58.1209 33.1391 57.8865C33.3735 57.6521 33.5052 57.3341 33.5052 57.0026C33.5052 56.6711 33.3735 56.3532 33.1391 56.1187C32.9047 55.8843 32.5868 55.7526 32.2552 55.7526H25.8857C25.5542 55.7526 25.2363 55.8843 25.0019 56.1187C24.7674 56.3532 24.6357 56.6711 24.6357 57.0026C24.6357 57.3341 24.7674 57.6521 25.0019 57.8865C25.2363 58.1209 25.5542 58.2526 25.8857 58.2526Z" fill="#1D2B6B"/>
<path d="M6 35.25H20.25C20.5815 35.25 20.8995 35.1183 21.1339 34.8839C21.3683 34.6495 21.5 34.3315 21.5 34V30C21.5 29.6685 21.3683 29.3505 21.1339 29.1161C20.8995 28.8817 20.5815 28.75 20.25 28.75H6C5.66848 28.75 5.35054 28.8817 5.11612 29.1161C4.8817 29.3505 4.75 29.6685 4.75 30V34C4.75 34.3315 4.8817 34.6495 5.11612 34.8839C5.35054 35.1183 5.66848 35.25 6 35.25ZM7.25 31.25H19V32.75H7.25V31.25Z" fill="#1D2B6B"/>
<path d="M17.5 38.875C17.5 38.5435 17.3683 38.2255 17.1339 37.9911C16.8995 37.7567 16.5815 37.625 16.25 37.625H6.125C5.79348 37.625 5.47554 37.7567 5.24112 37.9911C5.0067 38.2255 4.875 38.5435 4.875 38.875C4.875 39.2065 5.0067 39.5245 5.24112 39.7589C5.47554 39.9933 5.79348 40.125 6.125 40.125H16.25C16.5815 40.125 16.8995 39.9933 17.1339 39.7589C17.3683 39.5245 17.5 39.2065 17.5 38.875Z" fill="#1D2B6B"/>
<path d="M44.106 39.3016C44.4375 39.3016 44.7554 39.1699 44.9898 38.9355C45.2243 38.7011 45.356 38.3831 45.356 38.0516V37.2936C46.4374 37.2287 47.4534 36.7537 48.1967 35.9654C48.94 35.1772 49.3546 34.1351 49.356 33.0516V32.9266C49.3547 31.7999 48.9065 30.7196 48.1097 29.9228C47.313 29.1261 46.2327 28.6779 45.106 28.6766H42.981C42.5168 28.6766 42.0717 28.4923 41.7435 28.1641C41.4153 27.8359 41.231 27.3908 41.231 26.9266C41.231 26.4625 41.4153 26.0174 41.7435 25.6892C42.0717 25.361 42.5168 25.1766 42.981 25.1766H46.0823C46.1752 25.1767 46.2671 25.1955 46.3525 25.232C46.4379 25.2686 46.515 25.322 46.5793 25.389C46.6435 25.4561 46.6935 25.5355 46.7262 25.6224C46.759 25.7093 46.7738 25.802 46.7698 25.8948C46.7615 26.0595 46.7858 26.2243 46.8415 26.3796C46.8971 26.5349 46.9829 26.6776 47.094 26.7996C47.2051 26.9215 47.3392 27.0203 47.4886 27.0902C47.638 27.1601 47.7998 27.1997 47.9646 27.2068C48.1294 27.2139 48.294 27.1883 48.4489 27.1314C48.6037 27.0746 48.7458 26.9877 48.8669 26.8757C48.988 26.7637 49.0858 26.6288 49.1545 26.4789C49.2233 26.3289 49.2616 26.1669 49.2675 26.002C49.2859 25.5722 49.2172 25.1431 49.0654 24.7405C48.9136 24.338 48.682 23.9703 48.3844 23.6596C48.0867 23.349 47.7293 23.1018 47.3336 22.9329C46.9379 22.764 46.5122 22.677 46.082 22.677H45.3556V21.927C45.3556 21.5955 45.2239 21.2775 44.9895 21.0431C44.755 20.8087 44.4371 20.677 44.1056 20.677C43.7741 20.677 43.4561 20.8087 43.2217 21.0431C42.9873 21.2775 42.8556 21.5955 42.8556 21.927V22.6801C41.7401 22.7133 40.6824 23.1839 39.9111 23.9903C39.1397 24.7968 38.7165 25.8743 38.7329 26.9901C38.7493 28.106 39.204 29.1706 39.9988 29.954C40.7936 30.7374 41.8646 31.1767 42.9806 31.177H45.1056C45.5695 31.1775 46.0144 31.3621 46.3424 31.6901C46.6705 32.0182 46.8551 32.463 46.8556 32.927V33.052C46.8551 33.516 46.6705 33.9608 46.3424 34.2889C46.0144 34.6169 45.5695 34.8015 45.1056 34.802H41.9543C41.863 34.802 41.7725 34.7838 41.6882 34.7485C41.6039 34.7132 41.5275 34.6614 41.4635 34.5963C41.3994 34.5311 41.349 34.4539 41.3151 34.369C41.2812 34.2841 41.2645 34.1934 41.2661 34.102L41.2685 33.9723C41.2715 33.8081 41.2421 33.645 41.1821 33.4921C41.1221 33.3393 41.0325 33.1998 40.9186 33.0816C40.8047 32.9634 40.6686 32.8688 40.5181 32.8032C40.3676 32.7376 40.2056 32.7023 40.0415 32.6993C39.8773 32.6962 39.7142 32.7256 39.5614 32.7856C39.4085 32.8456 39.269 32.9352 39.1508 33.0491C39.0326 33.163 38.938 33.2991 38.8724 33.4496C38.8068 33.6001 38.7715 33.7621 38.7685 33.9263L38.7661 34.0564C38.7584 34.4798 38.8352 34.9006 38.9919 35.2941C39.1487 35.6875 39.3822 36.0458 39.679 36.348C39.9757 36.6502 40.3297 36.8903 40.7202 37.0541C41.1108 37.218 41.53 37.3025 41.9536 37.3025H42.8548V38.0525C42.8549 38.2167 42.8874 38.3792 42.9503 38.5308C43.0133 38.6825 43.1055 38.8202 43.2217 38.9362C43.3378 39.0522 43.4757 39.1442 43.6275 39.2069C43.7792 39.2696 43.9418 39.3018 44.106 39.3016Z" fill="#1D2B6B"/>
<path d="M55.1473 14.8451H46.165C45.8335 14.8451 45.5156 14.9768 45.2812 15.2112C45.0467 15.4457 44.915 15.7636 44.915 16.0951C44.915 16.4266 45.0467 16.7446 45.2812 16.979C45.5156 17.2134 45.8335 17.3451 46.165 17.3451H55.1473L53.2812 19.2111C53.1651 19.3272 53.073 19.465 53.0102 19.6167C52.9474 19.7684 52.9151 19.931 52.9151 20.0952C52.9151 20.2593 52.9474 20.4219 53.0103 20.5736C53.0731 20.7252 53.1652 20.863 53.2813 20.9791C53.3974 21.0952 53.5352 21.1873 53.6869 21.2501C53.8386 21.3129 54.0011 21.3452 54.1653 21.3452C54.3295 21.3452 54.4921 21.3129 54.6437 21.25C54.7954 21.1872 54.9332 21.0951 55.0493 20.979L59.0493 16.979C59.1654 16.8629 59.2575 16.7251 59.3203 16.5735C59.3831 16.4218 59.4155 16.2592 59.4155 16.0951C59.4155 15.9309 59.3831 15.7683 59.3203 15.6167C59.2575 15.465 59.1654 15.3272 59.0493 15.2111L55.0493 11.2111C54.8149 10.9767 54.4969 10.845 54.1654 10.845C53.8338 10.845 53.5159 10.9768 53.2815 11.2112C53.0471 11.4456 52.9154 11.7636 52.9154 12.0951C52.9154 12.4266 53.0471 12.7446 53.2815 12.979L55.1473 14.8451Z" fill="#1D2B6B"/>
<path d="M41.165 17.3451C41.4966 17.3451 41.8145 17.2134 42.0489 16.979C42.2833 16.7446 42.415 16.4266 42.415 16.0951C42.415 15.7636 42.2833 15.4457 42.0489 15.2112C41.8145 14.9768 41.4966 14.8451 41.165 14.8451H40.165C39.8335 14.8451 39.5156 14.9768 39.2812 15.2112C39.0467 15.4457 38.915 15.7636 38.915 16.0951C38.915 16.4266 39.0467 16.7446 39.2812 16.979C39.5156 17.2134 39.8335 17.3451 40.165 17.3451H41.165Z" fill="#1D2B6B"/>
<path d="M55.0089 39.1161C54.7741 38.8834 54.4567 38.7532 54.1261 38.7539C53.7956 38.7546 53.4787 38.8862 53.245 39.12C53.0112 39.3537 52.8796 39.6706 52.8789 40.0011C52.8782 40.3317 53.0084 40.6491 53.2411 40.8839L55.1073 42.75H46.125C45.7935 42.75 45.4755 42.8817 45.2411 43.1161C45.0067 43.3505 44.875 43.6685 44.875 44C44.875 44.3315 45.0067 44.6495 45.2411 44.8839C45.4755 45.1183 45.7935 45.25 46.125 45.25H55.1073L53.2411 47.1161C53.1242 47.232 53.0314 47.3699 52.9679 47.5217C52.9044 47.6736 52.8715 47.8365 52.8711 48.0011C52.8708 48.1658 52.9029 48.3288 52.9658 48.481C53.0286 48.6331 53.1208 48.7714 53.2372 48.8878C53.3536 49.0042 53.4919 49.0964 53.644 49.1593C53.7962 49.2221 53.9593 49.2542 54.1239 49.2539C54.2885 49.2535 54.4514 49.2206 54.6033 49.1571C54.7551 49.0937 54.893 49.0008 55.0089 48.8839L59.0089 44.8839C59.2433 44.6495 59.375 44.3315 59.375 44C59.375 43.6685 59.2433 43.3505 59.0089 43.1161L55.0089 39.1161Z" fill="#1D2B6B"/>
<path d="M40.125 42.75C39.7935 42.75 39.4755 42.8817 39.2411 43.1161C39.0067 43.3505 38.875 43.6685 38.875 44C38.875 44.3315 39.0067 44.6495 39.2411 44.8839C39.4755 45.1183 39.7935 45.25 40.125 45.25H41.125C41.4565 45.25 41.7745 45.1183 42.0089 44.8839C42.2433 44.6495 42.375 44.3315 42.375 44C42.375 43.6685 42.2433 43.3505 42.0089 43.1161C41.7745 42.8817 41.4565 42.75 41.125 42.75H40.125Z" fill="#1D2B6B"/>
</svg>
