<svg width="120" height="120" viewBox="0 0 120 120" fill="none" xmlns="http://www.w3.org/2000/svg">
<path d="M87.072 61.712C86.7304 61.712 86.4028 61.8477 86.1612 62.0892C85.9197 62.3308 85.784 62.6584 85.784 63C85.784 63.4318 85.6125 63.8459 85.3072 64.1512C85.0019 64.4565 84.5878 64.628 84.156 64.628C83.7242 64.628 83.3101 64.4565 83.0048 64.1512C82.6995 63.8459 82.528 63.4318 82.528 63C82.542 62.8229 82.5192 62.6447 82.461 62.4768C82.4028 62.3089 82.3105 62.1549 82.1899 62.0244C82.0693 61.8939 81.923 61.7898 81.7602 61.7186C81.5974 61.6473 81.4217 61.6106 81.244 61.6106C81.0663 61.6106 80.8905 61.6473 80.7277 61.7186C80.5649 61.7898 80.4187 61.8939 80.2981 62.0244C80.1775 62.1549 80.0852 62.3089 80.027 62.4768C79.9688 62.6447 79.946 62.8229 79.96 63C80.0072 64.0811 80.4699 65.1024 81.2517 65.8507C82.0334 66.599 83.0738 67.0167 84.156 67.0167C85.2382 67.0167 86.2786 66.599 87.0603 65.8507C87.8421 65.1024 88.3048 64.0811 88.352 63C88.352 62.6598 88.2174 62.3334 87.9776 62.0921C87.7378 61.8507 87.4122 61.7141 87.072 61.712Z" fill="#1D2B6B" stroke="#1D2B6B" stroke-width="0.25" stroke-miterlimit="10"/>
<path d="M99.112 61.928L95.504 60.8C95.274 60.7269 95.0651 60.5992 94.8952 60.4278C94.7252 60.2565 94.5993 60.0466 94.528 59.816C93.7673 57.3932 92.6133 55.1121 91.112 53.064C90.4076 52.1005 89.6349 51.1888 88.8 50.336C89.348 47.954 89.6165 45.5162 89.6 43.072C89.552 39.8 88.896 37.888 87.608 37.208C86.912 36.848 84.792 35.736 73.352 40.976C73.0835 41.1011 72.8288 41.254 72.592 41.432C71.792 41.224 70.992 41.032 70.24 40.856L69.968 40.8C70.9099 38.7562 71.4529 36.5514 71.568 34.304C71.5874 34.129 71.5707 33.952 71.5189 33.7837C71.4672 33.6154 71.3815 33.4596 71.2672 33.3257C71.1528 33.1919 71.0123 33.0829 70.8542 33.0055C70.6961 32.9281 70.5238 32.8839 70.3479 32.8757C70.1721 32.8675 69.9964 32.8954 69.8318 32.9577C69.6672 33.0201 69.5171 33.1155 69.3908 33.2381C69.2644 33.3607 69.1646 33.5079 69.0974 33.6705C69.0302 33.8332 68.997 34.008 69 34.184C68.865 37.1279 67.8626 39.9661 66.1189 42.3418C64.3752 44.7176 61.968 46.5247 59.2 47.536C55.7741 47.056 52.2979 47.056 48.872 47.536C46.5872 46.6927 44.5431 45.3038 42.9176 43.49C41.2922 41.6763 40.1346 39.4929 39.5458 37.1296C38.9569 34.7664 38.9546 32.295 39.5389 29.9307C40.1233 27.5664 41.2767 25.3807 42.8987 23.5639C44.5207 21.7471 46.5622 20.3543 48.8454 19.5067C51.1286 18.659 53.5844 18.3823 55.999 18.7005C58.4137 19.0188 60.7139 19.9223 62.6996 21.3326C64.6852 22.7428 66.2961 24.617 67.392 26.792C67.559 27.0707 67.8252 27.276 68.1372 27.3667C68.4492 27.4575 68.784 27.4269 69.0744 27.2812C69.3649 27.1355 69.5895 26.8854 69.7033 26.581C69.8171 26.2766 69.8116 25.9405 69.688 25.64C68.4717 23.2288 66.7143 21.1315 64.553 19.5122C62.3917 17.8929 59.8852 16.7954 57.2294 16.3055C54.5736 15.8155 51.8405 15.9465 49.2437 16.6881C46.6469 17.4297 44.2569 18.7618 42.2603 20.5803C40.2638 22.3989 38.7149 24.6545 37.7347 27.171C36.7545 29.6874 36.3696 32.3965 36.6101 35.0864C36.8506 37.7762 37.71 40.374 39.121 42.6767C40.532 44.9794 42.4565 46.9245 44.744 48.36C43.944 48.56 43.144 48.8 42.344 49.056C42.0453 49.1811 41.8047 49.4141 41.6701 49.7086C41.5355 50.0032 41.5168 50.3376 41.6177 50.6453C41.7186 50.953 41.9317 51.2114 42.2145 51.3691C42.4974 51.5267 42.8292 51.572 43.144 51.496C50.1861 49.1522 57.7979 49.1522 64.84 51.496C64.9722 51.5367 65.1096 51.5583 65.248 51.56C65.5509 51.5562 65.8427 51.4457 66.0722 51.2481C66.3017 51.0504 66.4542 50.7782 66.5029 50.4792C66.5516 50.1803 66.4934 49.8737 66.3385 49.6134C66.1837 49.3532 65.942 49.1558 65.656 49.056C64.856 48.8 64.056 48.56 63.256 48.36C65.3826 47.026 67.197 45.2497 68.576 43.152C68.9387 43.216 69.2907 43.288 69.632 43.368C70.088 43.464 70.552 43.576 71.008 43.688L70.96 43.856C70.3598 46.4326 70.4426 49.1212 71.2 51.656C71.7797 53.5839 72.9736 55.2695 74.6 56.456C76.4415 57.7704 78.6495 58.4728 80.912 58.464C82.3359 58.498 83.7451 58.1705 85.008 57.512C86.216 56.832 87.224 55.392 88.024 53.232C88.392 53.664 88.744 54.104 89.072 54.56C90.4072 56.3828 91.4342 58.4125 92.112 60.568C92.3099 61.1805 92.649 61.7379 93.1021 62.1951C93.5551 62.6523 94.1093 62.9965 94.72 63.2L98.328 64.352C98.7924 64.4958 99.1984 64.7848 99.4864 65.1764C99.7744 65.5681 99.9292 66.0418 99.928 66.528V72.512C99.9288 72.9971 99.7737 73.4696 99.4856 73.8599C99.1976 74.2503 98.7918 74.5377 98.328 74.68L92.512 76.544C91.5678 76.8648 90.7775 77.5267 90.296 78.4C87.7366 82.583 84.0296 85.9428 79.616 88.08C79.3429 88.2189 79.1056 88.419 78.9225 88.6646C78.7393 88.9101 78.6153 89.1947 78.56 89.496L76.696 99.368C76.6686 99.4986 76.5973 99.6159 76.4939 99.7003C76.3906 99.7847 76.2614 99.8312 76.128 99.832H70.072C69.9382 99.8327 69.8083 99.7868 69.7046 99.7021C69.6009 99.6174 69.53 99.4993 69.504 99.368L68.472 93.912C68.369 93.4009 68.0728 92.9493 67.6451 92.6513C67.2174 92.3532 66.6911 92.2317 66.176 92.312C63.5284 92.7143 60.854 92.9149 58.176 92.912C56.2111 92.9147 54.2478 92.8025 52.296 92.576C51.7925 92.5173 51.2853 92.6488 50.8738 92.9448C50.4623 93.2408 50.1763 93.68 50.072 94.176L49.096 99.36C49.0672 99.4899 48.9956 99.6064 48.8925 99.6906C48.7895 99.7747 48.661 99.8217 48.528 99.824H42.472C42.3384 99.8225 42.2095 99.7746 42.1073 99.6885C42.0052 99.6024 41.9361 99.4834 41.912 99.352L40.112 90.032C40.057 89.7358 39.9356 89.4559 39.7569 89.2134C39.5781 88.9709 39.3467 88.7721 39.08 88.632C30.896 84.264 26.568 76.96 26.568 67.52C26.4685 63.138 27.5371 58.8085 29.664 54.976C31.6799 51.5782 34.5585 48.7741 38.008 46.848C38.2787 46.6656 38.4701 46.3872 38.5434 46.069C38.6166 45.7509 38.5664 45.4169 38.4028 45.1344C38.2392 44.8519 37.9745 44.6421 37.6621 44.5473C37.3497 44.4526 37.013 44.48 36.72 44.624C33.3696 46.4805 30.5025 49.0986 28.3499 52.267C26.1974 55.4353 24.8197 59.0653 24.328 62.864H23.96C23.9797 61.9873 23.819 61.116 23.488 60.304C23.1867 59.4495 22.6697 58.6875 21.987 58.0917C21.3044 57.496 20.4794 57.0869 19.592 56.904C18.9539 56.8231 18.3057 56.9183 17.7178 57.1791C17.1298 57.44 16.6243 57.8566 16.256 58.384C15.032 59.984 15.232 61.288 15.616 62.072C16.256 63.408 17.92 64.344 20.68 64.936C20.6018 65.0558 20.5163 65.1707 20.424 65.28C19.8658 66.0361 19.1444 66.6567 18.3134 67.0958C17.4824 67.5348 16.5632 67.781 15.624 67.816C15.2738 67.8264 14.9413 67.9723 14.6965 68.223C14.4518 68.4737 14.3139 68.8096 14.312 69.16C14.3118 69.5062 14.4459 69.8389 14.6862 70.0881C14.9264 70.3373 15.2541 70.4836 15.6 70.496H15.888C17.488 70.496 19.992 69.912 22.424 66.864C22.7973 66.4006 23.1117 65.8927 23.36 65.352L24.056 65.424C24.056 66.12 23.992 66.824 23.992 67.544C23.895 72.5261 25.2067 77.4344 27.776 81.704C30.2096 85.5455 33.6079 88.6818 37.632 90.8L39.384 99.856C39.5198 100.574 39.9015 101.223 40.4636 101.69C41.0257 102.157 41.7331 102.414 42.464 102.416H48.528C49.2599 102.414 49.9683 102.158 50.5318 101.691C51.0952 101.223 51.4785 100.575 51.616 99.856L52.512 95.2C54.3964 95.3939 56.2896 95.4901 58.184 95.488C60.8148 95.4885 63.4424 95.3067 66.048 94.944L66.984 99.88C67.12 100.6 67.503 101.249 68.0667 101.716C68.6305 102.184 69.3397 102.44 70.072 102.44H76.128C76.8628 102.433 77.572 102.169 78.133 101.694C78.6939 101.219 79.0713 100.564 79.2 99.84L81.016 90.24C85.7689 87.8719 89.7504 84.2012 92.496 79.656C92.674 79.3508 92.9592 79.1227 93.296 79.016L99.112 77.152C100.094 76.8451 100.951 76.2308 101.558 75.3998C102.164 74.5687 102.487 73.5648 102.48 72.536V66.536C102.486 65.5086 102.162 64.5065 101.555 63.677C100.949 62.8475 100.093 62.2345 99.112 61.928ZM86.856 46.68C86.368 50.904 85.04 54.512 83.712 55.264C82.2 56.12 78.704 56.288 76.08 54.368C73.456 52.448 72.584 49 73.552 44.384C73.6054 44.1538 73.7091 43.9382 73.8558 43.7529C74.0024 43.5675 74.1883 43.417 74.4 43.312C80.8 40.368 84.528 39.408 85.904 39.408C86.0612 39.4018 86.2183 39.4235 86.368 39.472C86.816 39.912 87.36 42.4 86.856 46.68ZM17.92 60.92C17.792 60.648 18.104 60.168 18.304 59.904C18.3865 59.7614 18.5024 59.6411 18.6418 59.5533C18.7812 59.4655 18.9398 59.4129 19.104 59.4H19.232C19.6663 59.5278 20.0626 59.7603 20.3862 60.0769C20.7097 60.3935 20.9507 60.7846 21.088 61.216C21.2396 61.6021 21.3287 62.0099 21.352 62.424C19.6 62.072 18.224 61.536 17.92 60.92Z" fill="#1D2B6B" stroke="#1D2B6B" stroke-width="0.25" stroke-miterlimit="10"/>
<path d="M55.288 32.04V27.448C56.888 27.56 57.456 28.248 58 28.248C58.68 28.248 58.992 27.384 58.992 26.96C58.992 25.848 56.824 25.36 55.288 25.36V24.8C55.288 24.528 54.944 24.28 54.608 24.28C54.4525 24.2641 54.2969 24.3096 54.1743 24.4067C54.0518 24.5038 53.972 24.6449 53.952 24.8V25.456C51.8 25.68 49.656 26.808 49.656 29.664C49.656 32.52 51.92 33.368 53.952 34.096V39.408C51.648 39.2 51.032 37.6 50.288 37.6C49.72 37.6 49.248 38.344 49.248 38.888C49.248 39.992 51.144 41.512 53.952 41.552V42.256C53.972 42.4111 54.0518 42.5522 54.1743 42.6493C54.2969 42.7464 54.4525 42.7919 54.608 42.776C54.944 42.776 55.288 42.528 55.288 42.256V41.456C55.8645 41.4224 56.4286 41.2751 56.9478 41.0224C57.4671 40.7698 57.9312 40.417 58.3134 39.9842C58.6957 39.5513 58.9885 39.0472 59.1749 38.5007C59.3614 37.9542 59.4379 37.3762 59.4 36.8C59.4 33.76 57.256 32.8 55.288 32.04ZM54.088 31.608C52.888 31.16 51.92 30.688 51.92 29.392C51.92 28.096 52.824 27.656 54.088 27.496V31.608ZM55.152 39.328V34.528C56.256 35 57.144 35.64 57.144 37.064C57.1728 37.6266 56.9806 38.1782 56.6085 38.6011C56.2363 39.0241 55.7137 39.2849 55.152 39.328Z" fill="#1D2B6B" stroke="#1D2B6B" stroke-width="0.25" stroke-miterlimit="10"/>
</svg>
