<svg width="120" height="120" viewBox="0 0 120 120" fill="none" xmlns="http://www.w3.org/2000/svg">
<path d="M72.128 63.496C77.9345 59.0625 82.641 53.3503 85.882 46.8031C89.1231 40.2558 90.8114 33.0496 90.816 25.744C90.8181 25.6215 90.7959 25.4997 90.7508 25.3858C90.7056 25.2719 90.6383 25.168 90.5527 25.0803C90.4672 24.9925 90.3651 24.9226 90.2524 24.8744C90.1397 24.8263 90.0186 24.801 89.896 24.8C79.3327 24.806 69.0745 28.3427 60.752 34.848C57.5354 37.3518 54.6509 40.2552 52.168 43.488C51.2962 44.0224 50.2701 44.2482 49.2545 44.1292C48.2389 44.0103 47.2927 43.5534 46.568 42.832C45.3685 41.6376 43.7447 40.9669 42.052 40.9669C40.3593 40.9669 38.7355 41.6376 37.536 42.832L28.44 51.784C28.269 51.9563 28.1731 52.1892 28.1731 52.432C28.1731 52.6748 28.269 52.9077 28.44 53.08L33.704 58.28C35.0317 59.5961 36.7347 60.4682 38.5787 60.7763C40.4226 61.0843 42.3166 60.8131 44 60C43.9602 60.1562 43.9613 60.32 44.0034 60.4755C44.0454 60.6311 44.1269 60.7732 44.24 60.888L46.888 63.528L40.416 64.904C40.1774 64.954 39.9684 65.0967 39.8349 65.3007C39.7014 65.5047 39.6543 65.7533 39.704 65.992C39.7424 66.1642 39.8283 66.3222 39.952 66.448L43.208 69.704C42.4593 69.2748 41.6462 68.9695 40.8 68.8C40.5364 68.7362 40.2693 68.6882 40 68.656C39.679 68.6145 39.3557 68.5931 39.032 68.592C37.9567 68.587 36.8912 68.7968 35.898 69.2089C34.9048 69.621 34.0039 70.2272 33.248 70.992C31.6887 72.5252 30.7999 74.6134 30.776 76.8C30.7739 77.0405 30.8668 77.2721 31.0346 77.4445C31.2024 77.6168 31.4315 77.7158 31.672 77.72H32.36C31.017 79.5652 30.4433 81.8599 30.76 84.12C30.8039 84.3275 30.9175 84.5137 31.082 84.6477C31.2465 84.7816 31.4519 84.8551 31.664 84.856H34.168C34.412 84.856 34.646 84.7591 34.8185 84.5865C34.9911 84.414 35.088 84.18 35.088 83.936C35.088 83.692 34.9911 83.458 34.8185 83.2855C34.646 83.1129 34.412 83.016 34.168 83.016H32.528C32.5167 81.9878 32.7316 80.9698 33.1574 80.0339C33.5832 79.0979 34.2095 78.2671 34.992 77.6C35.1752 77.4396 35.2873 77.2131 35.3038 76.9702C35.3203 76.7273 35.2398 76.4877 35.08 76.304C34.9935 76.2095 34.8885 76.1337 34.7715 76.0814C34.6546 76.0292 34.5281 76.0014 34.4 76H32.656C32.8565 74.5973 33.5113 73.2991 34.52 72.304C35.098 71.7096 35.7879 71.2354 36.5499 70.9086C37.3118 70.5818 38.1309 70.409 38.96 70.4H39.008C39.1546 70.3918 39.3014 70.3918 39.448 70.4C38.88 70.7359 38.3988 71.2004 38.0431 71.7562C37.6874 72.312 37.4671 72.9436 37.4 73.6L36.872 77.856C36.8426 78.0978 36.9103 78.3414 37.0603 78.5334C37.2103 78.7254 37.4303 78.85 37.672 78.88H37.896L42.144 78.352C42.7912 78.2718 43.4112 78.044 43.9564 77.6861C44.5015 77.3283 44.9571 76.8499 45.288 76.288C45.288 76.456 45.288 76.624 45.288 76.792C45.2903 77.6256 45.1275 78.4513 44.8089 79.2217C44.4904 79.992 44.0224 80.6915 43.432 81.28C43.282 81.4545 43.2028 81.6788 43.21 81.9087C43.2172 82.1387 43.3104 82.3576 43.471 82.5223C43.6317 82.687 43.8482 82.7855 44.078 82.7984C44.3077 82.8113 44.5339 82.7377 44.712 82.592C45.5943 81.7119 46.2636 80.6415 46.6685 79.4629C47.0734 78.2842 47.2032 77.0286 47.048 75.792C47.048 75.536 46.968 75.272 46.912 74.992C46.7242 74.1453 46.4 73.3347 45.952 72.592L49.152 75.792C49.2368 75.8776 49.3377 75.9456 49.4489 75.992C49.5602 76.0384 49.6795 76.0623 49.8 76.0623C49.9205 76.0623 50.0398 76.0384 50.1511 75.992C50.2623 75.9456 50.3632 75.8776 50.448 75.792C50.5673 75.6736 50.6505 75.5238 50.688 75.36L52.288 69.04L54.688 71.44C54.8024 71.5537 54.9445 71.6357 55.1002 71.6778C55.2559 71.7199 55.4199 71.7206 55.576 71.68L55.736 71.632C54.8889 73.3196 54.5916 75.2302 54.8857 77.0954C55.1799 78.9606 56.0507 80.6869 57.376 82.032L62.536 87.2C62.7104 87.3777 62.9436 87.4858 63.192 87.504C63.4407 87.4873 63.6744 87.379 63.848 87.2L72.8 78.12C73.9969 76.9202 74.669 75.2947 74.669 73.6C74.669 71.9053 73.9969 70.2798 72.8 69.08C72.0836 68.3561 71.6287 67.4143 71.507 66.4032C71.3853 65.392 71.6038 64.3692 72.128 63.496ZM88.928 26.696C88.8713 29.4864 88.5607 32.2659 88 35C84.8967 33.2793 82.3342 30.7278 80.6 27.632C83.3537 27.0543 86.155 26.7329 88.968 26.672L88.928 26.696ZM34.992 56.976L30.4 52.44L38.824 44.136C39.6751 43.2918 40.8253 42.8181 42.024 42.8181C43.2227 42.8181 44.3729 43.2918 45.224 44.136C45.8968 44.8063 46.7103 45.3184 47.6056 45.6353C48.5008 45.9521 49.4554 46.0658 50.4 45.968C48.0399 49.4593 46.1566 53.2501 44.8 57.24C43.4346 58.4441 41.6639 59.0862 39.8441 59.0373C38.0243 58.9883 36.2906 58.2518 34.992 56.976ZM43.952 74.744C43.8249 75.2037 43.5638 75.6151 43.2018 75.9257C42.8399 76.2364 42.3937 76.4321 41.92 76.488L38.84 76.872L39.2 73.792C39.18 73.4768 39.2224 73.1608 39.3245 72.862C39.4267 72.5632 39.5867 72.2874 39.7955 72.0504C40.0042 71.8134 40.2576 71.6199 40.5411 71.4809C40.8247 71.3418 41.1328 71.26 41.448 71.24C41.7632 71.22 42.0792 71.2624 42.378 71.3645C42.6768 71.4667 42.9526 71.6267 43.1896 71.8355C43.4266 72.0442 43.6201 72.2976 43.7591 72.5811C43.8982 72.8647 43.98 73.1728 44 73.488C44.1115 73.8992 44.1115 74.3328 44 74.744H43.952ZM49.32 73.296L42.4 66.4L48.384 65.128L50.784 67.528L49.32 73.296ZM55.576 69.704L45.856 60C46.024 59.424 46.2 58.848 46.384 58.28C48.5889 51.5808 52.3017 45.4769 57.2364 40.4382C62.1711 35.3994 68.1963 31.5602 74.848 29.216C76.144 28.768 77.456 28.368 78.784 28.04C80.7546 31.7996 83.8244 34.8694 87.584 36.84C85.6304 44.6581 81.6399 51.8189 76.0188 57.5932C70.3977 63.3674 63.3468 67.549 55.584 69.712L55.576 69.704ZM71.496 76.8L63.2 85.24L58.656 80.64C57.3658 79.3218 56.6308 77.5586 56.6025 75.7143C56.5742 73.87 57.2549 72.0852 58.504 70.728C62.4627 69.4034 66.2287 67.5607 69.704 65.248C69.6047 66.1857 69.7139 67.1338 70.0236 68.0245C70.3334 68.9151 70.8362 69.7263 71.496 70.4C72.3485 71.2548 72.8272 72.4128 72.8272 73.62C72.8272 74.8272 72.3485 75.9852 71.496 76.84V76.8Z" fill="#1D2B6B" stroke="#1D2B6B" stroke-width="0.75" stroke-miterlimit="10"/>
<path d="M40.448 82.92C39.9605 83.0354 39.461 83.0918 38.96 83.088H37.512C37.268 83.088 37.034 83.1849 36.8615 83.3575C36.6889 83.53 36.592 83.764 36.592 84.008C36.592 84.252 36.6889 84.486 36.8615 84.6585C37.034 84.8311 37.268 84.928 37.512 84.928H38.96C39.604 84.9295 40.2458 84.8543 40.872 84.704C40.9978 84.6849 41.1183 84.64 41.2258 84.572C41.3333 84.5039 41.4256 84.4144 41.4967 84.3089C41.5679 84.2034 41.6164 84.0843 41.6392 83.9592C41.662 83.834 41.6585 83.7054 41.6291 83.5817C41.5997 83.4579 41.5449 83.3415 41.4683 83.24C41.3916 83.1385 41.2947 83.0539 41.1837 82.9918C41.0727 82.9296 40.95 82.8911 40.8234 82.8787C40.6968 82.8664 40.5689 82.8804 40.448 82.92Z" fill="#1D2B6B" stroke="#1D2B6B" stroke-width="0.75" stroke-miterlimit="10"/>
<path d="M77.368 64C77.5812 64.0024 77.7883 63.9286 77.952 63.792C78.608 63.248 79.256 62.68 79.88 62.104C80.0403 61.9358 80.131 61.7132 80.134 61.4809C80.1369 61.2486 80.0519 61.0238 79.8959 60.8516C79.7399 60.6794 79.5245 60.5726 79.2931 60.5527C79.0616 60.5327 78.8311 60.6011 78.648 60.744C78.048 61.296 77.424 61.84 76.8 62.344C76.6128 62.5 76.4944 62.7233 76.4705 62.9658C76.4465 63.2083 76.5189 63.4504 76.672 63.64C76.7599 63.7429 76.8691 63.8255 76.992 63.8821C77.1149 63.9388 77.2487 63.9681 77.384 63.968L77.368 64Z" fill="#1D2B6B" stroke="#1D2B6B" stroke-width="0.75" stroke-miterlimit="10"/>
<path d="M92.52 39.792C92.2866 39.7223 92.0351 39.748 91.8207 39.8635C91.6062 39.979 91.4463 40.1748 91.376 40.408C90.6044 42.9629 89.6086 45.4445 88.4 47.824C87.96 48.688 87.488 49.552 86.992 50.392C86.384 51.416 85.72 52.432 85.032 53.416C83.9396 54.9692 82.7506 56.4521 81.472 57.856C81.3076 58.0363 81.2215 58.2746 81.2328 58.5184C81.244 58.7622 81.3517 58.9916 81.532 59.156C81.7123 59.3204 81.9506 59.4065 82.1944 59.3952C82.4382 59.384 82.6676 59.2763 82.832 59.096C84.161 57.6327 85.3981 56.0884 86.536 54.472C87.248 53.456 87.936 52.392 88.568 51.32C89.088 50.448 89.576 49.552 90.04 48.648C91.2961 46.1731 92.3321 43.5925 93.136 40.936C93.2057 40.7026 93.1799 40.4511 93.0645 40.2367C92.949 40.0222 92.7532 39.8623 92.52 39.792Z" fill="#1D2B6B" stroke="#1D2B6B" stroke-width="0.75" stroke-miterlimit="10"/>
<path d="M20.072 62.4C20.1923 62.4026 20.3119 62.3806 20.4234 62.3352C20.5348 62.2898 20.6358 62.222 20.72 62.136L21.424 61.432C21.5716 61.2557 21.6478 61.0305 21.6377 60.8008C21.6275 60.5711 21.5317 60.3535 21.3691 60.1909C21.2065 60.0283 20.9889 59.9325 20.7592 59.9223C20.5295 59.9122 20.3043 59.9884 20.128 60.136L19.424 60.84C19.3384 60.9248 19.2704 61.0257 19.224 61.137C19.1776 61.2482 19.1537 61.3675 19.1537 61.488C19.1537 61.6085 19.1776 61.7278 19.224 61.8391C19.2704 61.9503 19.3384 62.0512 19.424 62.136C19.5973 62.3052 19.8298 62.3999 20.072 62.4Z" fill="#1D2B6B" stroke="#1D2B6B" stroke-width="0.75" stroke-miterlimit="10"/>
<path d="M23.416 59.408L26.56 56.264C26.6509 56.1797 26.7238 56.0779 26.7743 55.9647C26.8249 55.8515 26.852 55.7293 26.8542 55.6054C26.8563 55.4814 26.8334 55.3583 26.7867 55.2435C26.7401 55.1286 26.6708 55.0244 26.5828 54.937C26.4949 54.8496 26.3902 54.7809 26.2751 54.735C26.16 54.6891 26.0367 54.6669 25.9128 54.6698C25.7889 54.6727 25.6668 54.7006 25.554 54.7518C25.4411 54.8031 25.3397 54.8766 25.256 54.968L22.12 58.112C22.0216 58.1934 21.9413 58.2943 21.8841 58.4084C21.8268 58.5225 21.7939 58.6472 21.7875 58.7747C21.7811 58.9022 21.8013 59.0296 21.8468 59.1489C21.8923 59.2681 21.9621 59.3766 22.0518 59.4674C22.1415 59.5582 22.2491 59.6294 22.3678 59.6764C22.4865 59.7233 22.6137 59.7451 22.7412 59.7403C22.8688 59.7354 22.9939 59.7041 23.1087 59.6483C23.2235 59.5924 23.3254 59.5133 23.408 59.416L23.416 59.408Z" fill="#1D2B6B" stroke="#1D2B6B" stroke-width="0.75" stroke-miterlimit="10"/>
<path d="M20 66.336C20.1733 66.5051 20.4059 66.5997 20.648 66.5997C20.8901 66.5997 21.1227 66.5051 21.296 66.336L24.984 62.64C25.1316 62.4637 25.2078 62.2385 25.1977 62.0088C25.1875 61.7791 25.0917 61.5615 24.9291 61.3989C24.7665 61.2363 24.5489 61.1405 24.3192 61.1303C24.0895 61.1202 23.8643 61.1964 23.688 61.344L20 65.032C19.9141 65.1175 19.846 65.2191 19.7995 65.331C19.753 65.4429 19.7291 65.5628 19.7291 65.684C19.7291 65.8052 19.753 65.9251 19.7995 66.037C19.846 66.1489 19.9141 66.2505 20 66.336Z" fill="#1D2B6B" stroke="#1D2B6B" stroke-width="0.75" stroke-miterlimit="10"/>
<path d="M26.952 60.304C27.1938 60.3023 27.4258 60.2078 27.6 60.04L28.96 58.672C29.0584 58.5906 29.1387 58.4897 29.1959 58.3756C29.2532 58.2615 29.2861 58.1368 29.2925 58.0093C29.2989 57.8818 29.2787 57.7544 29.2332 57.6351C29.1877 57.5159 29.1179 57.4074 29.0282 57.3166C28.9385 57.2258 28.8309 57.1546 28.7122 57.1076C28.5935 57.0607 28.4663 57.0389 28.3388 57.0438C28.2112 57.0486 28.0861 57.0799 27.9713 57.1357C27.8565 57.1916 27.7546 57.2707 27.672 57.368L26.312 58.728C26.1729 58.8546 26.0759 59.0208 26.0341 59.2042C25.9924 59.3876 26.0079 59.5795 26.0785 59.7538C26.1491 59.9282 26.2714 60.0767 26.4291 60.1793C26.5867 60.282 26.772 60.3339 26.96 60.328L26.952 60.304Z" fill="#1D2B6B" stroke="#1D2B6B" stroke-width="0.75" stroke-miterlimit="10"/>
<path d="M22.4 67.456L18.328 71.536C18.2114 71.7141 18.1602 71.9271 18.1831 72.1387C18.2059 72.3503 18.3015 72.5474 18.4534 72.6965C18.6053 72.8455 18.8042 72.9373 19.0162 72.9562C19.2282 72.9751 19.4401 72.9199 19.616 72.8L23.688 68.8C23.8673 68.6292 23.9714 68.3942 23.9774 68.1466C23.9834 67.8991 23.8908 67.6593 23.72 67.48C23.5492 67.3007 23.3142 67.1966 23.0666 67.1906C22.8191 67.1846 22.5793 67.2772 22.4 67.448V67.456Z" fill="#1D2B6B" stroke="#1D2B6B" stroke-width="0.75" stroke-miterlimit="10"/>
<path d="M31.368 59.784C31.2832 59.6984 31.1823 59.6304 31.071 59.584C30.9598 59.5376 30.8405 59.5137 30.72 59.5137C30.5995 59.5137 30.4802 59.5376 30.3689 59.584C30.2577 59.6304 30.1568 59.6984 30.072 59.784L25.272 64.584C25.1736 64.6654 25.0933 64.7663 25.036 64.8804C24.9788 64.9945 24.9459 65.1192 24.9395 65.2467C24.9331 65.3742 24.9533 65.5016 24.9988 65.6209C25.0443 65.7401 25.1141 65.8486 25.2038 65.9394C25.2935 66.0302 25.4011 66.1014 25.5198 66.1484C25.6385 66.1953 25.7657 66.2171 25.8932 66.2123C26.0208 66.2074 26.1459 66.1761 26.2607 66.1203C26.3755 66.0644 26.4774 65.9853 26.56 65.888L31.36 61.088C31.4474 61.0036 31.517 60.9026 31.5648 60.7909C31.6126 60.6793 31.6376 60.5592 31.6383 60.4377C31.6391 60.3162 31.6155 60.1958 31.5691 60.0836C31.5227 59.9713 31.4543 59.8695 31.368 59.784Z" fill="#1D2B6B" stroke="#1D2B6B" stroke-width="0.75" stroke-miterlimit="10"/>
<path d="M48.616 90.192L47.92 90.896C47.8221 90.978 47.7424 91.0794 47.6858 91.1938C47.6292 91.3083 47.5971 91.4332 47.5915 91.5608C47.5859 91.6883 47.6068 91.8156 47.6531 91.9346C47.6993 92.0536 47.7698 92.1617 47.8601 92.252C47.9503 92.3422 48.0584 92.4127 48.1774 92.459C48.2964 92.5052 48.4237 92.5262 48.5512 92.5205C48.6788 92.5149 48.8037 92.4828 48.9182 92.4262C49.0326 92.3697 49.1341 92.2899 49.216 92.192L49.92 91.496C50.0915 91.3223 50.1876 91.0881 50.1876 90.844C50.1876 90.5999 50.0915 90.3657 49.92 90.192C49.748 90.0234 49.5168 89.929 49.276 89.929C49.0352 89.929 48.804 90.0234 48.632 90.192H48.616Z" fill="#1D2B6B" stroke="#1D2B6B" stroke-width="0.75" stroke-miterlimit="10"/>
<path d="M54.552 84.264L51.416 87.4C51.3304 87.4848 51.2624 87.5857 51.216 87.697C51.1696 87.8082 51.1458 87.9275 51.1458 88.048C51.1458 88.1685 51.1696 88.2878 51.216 88.3991C51.2624 88.5103 51.3304 88.6112 51.416 88.696C51.5015 88.7819 51.6031 88.85 51.715 88.8965C51.8269 88.943 51.9468 88.9669 52.068 88.9669C52.1892 88.9669 52.3091 88.943 52.421 88.8965C52.5329 88.85 52.6345 88.7819 52.72 88.696L55.848 85.6C55.9956 85.4237 56.0718 85.1985 56.0617 84.9688C56.0515 84.7391 55.9557 84.5215 55.7931 84.3589C55.6305 84.1963 55.4129 84.1005 55.1832 84.0903C54.9535 84.0802 54.7283 84.1564 54.552 84.304V84.264Z" fill="#1D2B6B" stroke="#1D2B6B" stroke-width="0.75" stroke-miterlimit="10"/>
<path d="M49.296 95.624C49.3808 95.7096 49.4817 95.7776 49.593 95.824C49.7042 95.8704 49.8235 95.8943 49.944 95.8943C50.0645 95.8943 50.1838 95.8704 50.2951 95.824C50.4063 95.7776 50.5072 95.7096 50.592 95.624L54.288 91.936C54.4525 91.764 54.544 91.535 54.5431 91.297C54.5423 91.059 54.4493 90.8305 54.2836 90.6597C54.1179 90.4888 53.8925 90.3888 53.6546 90.3807C53.4167 90.3725 53.185 90.4569 53.008 90.616L49.312 94.304C49.2236 94.3893 49.1531 94.4912 49.1044 94.6039C49.0557 94.7166 49.0298 94.8379 49.0283 94.9607C49.0269 95.0834 49.0497 95.2053 49.0957 95.3192C49.1416 95.433 49.2097 95.5367 49.296 95.624Z" fill="#1D2B6B" stroke="#1D2B6B" stroke-width="0.75" stroke-miterlimit="10"/>
<path d="M55.592 89.328C55.6768 89.4136 55.7777 89.4816 55.889 89.528C56.0002 89.5744 56.1195 89.5982 56.24 89.5982C56.3605 89.5982 56.4798 89.5744 56.591 89.528C56.7023 89.4816 56.8032 89.4136 56.888 89.328L58.256 87.968C58.4036 87.7917 58.4798 87.5665 58.4697 87.3368C58.4595 87.107 58.3637 86.8895 58.2011 86.7269C58.0385 86.5643 57.8209 86.4685 57.5912 86.4583C57.3615 86.4481 57.1363 86.5244 56.96 86.672L55.592 88C55.368 88.352 55.528 88.896 55.592 89.328Z" fill="#1D2B6B" stroke="#1D2B6B" stroke-width="0.75" stroke-miterlimit="10"/>
<path d="M51.688 96.752L47.608 100.832C47.5096 100.913 47.4293 101.014 47.3721 101.128C47.3148 101.242 47.282 101.367 47.2755 101.495C47.2691 101.622 47.2893 101.75 47.3348 101.869C47.3803 101.988 47.4501 102.097 47.5398 102.187C47.6295 102.278 47.7372 102.349 47.8558 102.396C47.9745 102.443 48.1017 102.465 48.2292 102.46C48.3568 102.455 48.4819 102.424 48.5967 102.368C48.7115 102.312 48.8134 102.233 48.896 102.136L52.976 98.056C53.0744 97.9747 53.1547 97.8737 53.2119 97.7596C53.2692 97.6455 53.3021 97.5208 53.3085 97.3933C53.3149 97.2658 53.2947 97.1384 53.2492 97.0191C53.2037 96.8999 53.1339 96.7914 53.0442 96.7006C52.9545 96.6098 52.8469 96.5386 52.7282 96.4916C52.6095 96.4447 52.4823 96.4229 52.3548 96.4278C52.2272 96.4326 52.1021 96.4639 51.9873 96.5197C51.8725 96.5756 51.7706 96.6547 51.688 96.752Z" fill="#1D2B6B" stroke="#1D2B6B" stroke-width="0.75" stroke-miterlimit="10"/>
<path d="M59.36 89.072L54.56 93.872C54.3839 94.046 54.2841 94.2828 54.2826 94.5303C54.2811 94.7779 54.378 95.0159 54.552 95.192C54.726 95.3681 54.9628 95.4679 55.2103 95.4694C55.4579 95.4709 55.6959 95.374 55.872 95.2L60.672 90.4C60.8207 90.2246 60.8984 89.9999 60.8897 89.7701C60.881 89.5402 60.7865 89.322 60.6249 89.1584C60.4633 88.9948 60.2463 88.8976 60.0166 88.8861C59.7869 88.8745 59.5612 88.9494 59.384 89.096L59.36 89.072Z" fill="#1D2B6B" stroke="#1D2B6B" stroke-width="0.75" stroke-miterlimit="10"/>
<path d="M85.344 77.936C84.6014 77.6829 83.9267 77.2629 83.3719 76.7081C82.8171 76.1533 82.3971 75.4786 82.144 74.736C82.1061 74.6217 82.0459 74.5161 81.967 74.4252C81.888 74.3343 81.7918 74.2599 81.684 74.2063C81.5762 74.1528 81.4588 74.1211 81.3386 74.1132C81.2185 74.1052 81.098 74.1211 80.984 74.16C80.8493 74.2037 80.7269 74.2786 80.6268 74.3788C80.5266 74.4789 80.4517 74.6013 80.408 74.736C80.1539 75.4781 79.7334 76.1522 79.1788 76.7068C78.6242 77.2614 77.9501 77.6819 77.208 77.936C77.0254 77.9974 76.8667 78.1146 76.7542 78.2711C76.6418 78.4275 76.5813 78.6153 76.5813 78.808C76.5813 79.0007 76.6418 79.1885 76.7542 79.3449C76.8667 79.5014 77.0254 79.6186 77.208 79.68C77.9543 79.9382 78.6311 80.3647 79.1861 80.9266C79.741 81.4885 80.1591 82.1705 80.408 82.92C80.4848 83.151 80.6499 83.3422 80.8674 83.4516C81.0848 83.5611 81.3367 83.5799 81.568 83.504C81.7023 83.4573 81.8242 83.3804 81.924 83.2791C82.0239 83.1778 82.0992 83.055 82.144 82.92C82.3918 82.17 82.8095 81.4873 83.3646 80.9253C83.9197 80.3633 84.5971 79.9371 85.344 79.68C85.575 79.6032 85.7662 79.4381 85.8756 79.2206C85.9851 79.0032 86.0039 78.7513 85.928 78.52C85.8803 78.3853 85.8031 78.263 85.702 78.162C85.601 78.061 85.4787 77.9837 85.344 77.936ZM81.24 80.6C80.7606 79.898 80.1558 79.2906 79.456 78.808C80.1555 78.3284 80.7604 77.7235 81.24 77.024C81.724 77.7199 82.3281 78.324 83.024 78.808C82.3283 79.2954 81.7243 79.9021 81.24 80.6Z" fill="#1D2B6B" stroke="#1D2B6B" stroke-width="0.75" stroke-miterlimit="10"/>
<path d="M20.256 42.824C20.9966 43.0808 21.6694 43.5021 22.2236 44.0564C22.7779 44.6106 23.1992 45.2834 23.456 46.024C23.4931 46.139 23.5527 46.2455 23.6313 46.3373C23.7099 46.429 23.8059 46.5043 23.9139 46.5586C24.0218 46.613 24.1394 46.6453 24.26 46.6538C24.3805 46.6623 24.5015 46.6467 24.616 46.608C24.7516 46.5635 24.8746 46.4874 24.9748 46.3858C25.0749 46.2842 25.1494 46.1602 25.192 46.024C25.4487 45.2834 25.8701 44.6106 26.4244 44.0564C26.9786 43.5021 27.6514 43.0808 28.392 42.824C28.5756 42.7648 28.7358 42.6489 28.8494 42.4929C28.9629 42.3369 29.0241 42.149 29.0241 41.956C29.0241 41.7631 28.9629 41.5751 28.8494 41.4191C28.7358 41.2631 28.5756 41.1472 28.392 41.088C27.646 40.8269 26.9698 40.3984 26.4151 39.8353C25.8604 39.2723 25.442 38.5898 25.192 37.84C25.1541 37.7257 25.0939 37.6201 25.015 37.5292C24.936 37.4383 24.8398 37.3639 24.732 37.3103C24.6242 37.2568 24.5068 37.2251 24.3866 37.2172C24.2665 37.2092 24.146 37.2251 24.032 37.264C23.8973 37.3077 23.7749 37.3826 23.6748 37.4828C23.5746 37.5829 23.4997 37.7053 23.456 37.84C23.206 38.5898 22.7876 39.2723 22.2329 39.8353C21.6782 40.3984 21.002 40.8269 20.256 41.088C20.0724 41.1472 19.9122 41.2631 19.7986 41.4191C19.6851 41.5751 19.6239 41.7631 19.6239 41.956C19.6239 42.149 19.6851 42.3369 19.7986 42.4929C19.9122 42.6489 20.0724 42.7648 20.256 42.824ZM24.352 40.168C24.8366 40.8661 25.4438 41.4705 26.144 41.952C25.4454 42.4387 24.8387 43.0454 24.352 43.744C23.8705 43.0438 23.2661 42.4366 22.568 41.952C23.2675 41.4724 23.8724 40.8676 24.352 40.168Z" fill="#1D2B6B" stroke="#1D2B6B" stroke-width="0.75" stroke-miterlimit="10"/>
<path d="M36.288 34C37.2158 34 37.968 33.2478 37.968 32.32C37.968 31.3922 37.2158 30.64 36.288 30.64C35.3602 30.64 34.608 31.3922 34.608 32.32C34.608 33.2478 35.3602 34 36.288 34Z" fill="#1D2B6B" stroke="#1D2B6B" stroke-width="0.75" stroke-miterlimit="10"/>
<path d="M78.344 93.792C79.2718 93.792 80.024 93.0398 80.024 92.112C80.024 91.1842 79.2718 90.432 78.344 90.432C77.4162 90.432 76.664 91.1842 76.664 92.112C76.664 93.0398 77.4162 93.792 78.344 93.792Z" fill="#1D2B6B" stroke="#1D2B6B" stroke-width="0.75" stroke-miterlimit="10"/>
<path d="M68.36 40.576C67.2527 40.5701 66.1611 40.8382 65.1825 41.3565C64.204 41.8748 63.3689 42.6272 62.7516 43.5465C62.1344 44.4659 61.7542 45.5237 61.6449 46.6256C61.5356 47.7275 61.7007 48.8394 62.1254 49.862C62.55 50.8847 63.2212 51.7864 64.0789 52.4868C64.9366 53.1872 65.9542 53.6645 67.0412 53.8761C68.1281 54.0878 69.2505 54.0273 70.3083 53.6999C71.3662 53.3726 72.3266 52.7886 73.104 52C74.043 51.0624 74.6826 49.8672 74.9419 48.5658C75.2012 47.2645 75.0684 45.9154 74.5604 44.6895C74.0524 43.4637 73.192 42.4161 72.0883 41.6796C70.9845 40.943 69.687 40.5506 68.36 40.552V40.576ZM71.808 50.728C71.1268 51.4097 70.2587 51.874 69.3135 52.0622C68.3683 52.2504 67.3886 52.1541 66.4982 51.7854C65.6078 51.4168 64.8467 50.7923 64.3112 49.991C63.7758 49.1898 63.49 48.2477 63.49 47.284C63.49 46.3203 63.7758 45.3782 64.3112 44.577C64.8467 43.7757 65.6078 43.1513 66.4982 42.7826C67.3886 42.4139 68.3683 42.3176 69.3135 42.5058C70.2587 42.6941 71.1268 43.1584 71.808 43.84C72.7191 44.7546 73.2307 45.993 73.2307 47.284C73.2307 48.575 72.7191 49.8134 71.808 50.728Z" fill="#1D2B6B" stroke="#1D2B6B" stroke-width="0.75" stroke-miterlimit="10"/>
</svg>
