<svg width="75" height="75" viewBox="0 0 75 75" fill="none" xmlns="http://www.w3.org/2000/svg">
<g clip-path="url(#clip0)">
<path d="M22.1052 24.8535C22.1052 23.1567 20.7576 21.7775 19.0998 21.7775C17.442 21.7775 16.0944 23.1567 16.0944 24.8535C16.0944 26.5502 17.442 27.9294 19.0998 27.9294C20.7576 27.9294 22.1052 26.5502 22.1052 24.8535ZM19.0998 25.4687C18.7692 25.4687 18.4987 25.1918 18.4987 24.8535C18.4987 24.5151 18.7692 24.2383 19.0998 24.2383C19.4304 24.2383 19.7009 24.5151 19.7009 24.8535C19.7009 25.1918 19.4304 25.4687 19.0998 25.4687Z" fill="#1D2B6B"/>
<path d="M32.3236 21.7775C30.6658 21.7775 29.3182 23.1567 29.3182 24.8535C29.3182 26.5502 30.6658 27.9294 32.3236 27.9294C33.9813 27.9294 35.329 26.5502 35.329 24.8535C35.329 23.1567 33.9813 21.7775 32.3236 21.7775ZM32.3236 25.4687C31.993 25.4687 31.7225 25.1918 31.7225 24.8535C31.7225 24.5151 31.993 24.2383 32.3236 24.2383C32.6542 24.2383 32.9246 24.5151 32.9246 24.8535C32.9246 25.1918 32.6542 25.4687 32.3236 25.4687Z" fill="#1D2B6B"/>
<path d="M25.7117 36.5423C23.7233 36.5423 22.1052 34.8861 22.1052 32.8511H19.7009C19.7009 36.2433 22.3974 39.003 25.7117 39.003C29.026 39.003 31.7225 36.2433 31.7225 32.8511H29.3182C29.3182 34.8861 27.7001 36.5423 25.7117 36.5423Z" fill="#1D2B6B"/>
<path d="M75 42.6942C75 40.8781 74.1982 39.1666 72.853 38.0076C73.4516 36.317 73.311 34.4247 72.4238 32.851C71.5366 31.2786 70.0051 30.2069 68.2751 29.8919C67.9674 28.1214 66.9203 26.5538 65.384 25.6458C63.8452 24.7378 61.9951 24.5938 60.3457 25.2066C59.2121 23.8285 57.5399 23.0078 55.7655 23.0078C53.9912 23.0078 52.319 23.8285 51.1865 25.2053C49.536 24.5938 47.6847 24.7378 46.1483 25.6446C45.7023 25.9079 45.3032 26.2327 44.9461 26.5957V16.8559C44.9461 8.03639 37.9352 0.860718 29.3181 0.860718H22.1797C18.7187 0.860718 15.6508 2.98684 14.3657 6.27446L14.0628 7.05453C9.80958 7.48271 6.47721 11.1628 6.47721 15.6255V30.3902V46.3029C4.94687 47.7991 3.74471 49.6558 3.04746 51.7929L0 61.1501H45.6831L41.9107 72.7306L48.1835 71.1249L52.8106 75.8607L55.7655 63.761L58.7204 75.8607L63.3475 71.1249L69.6204 72.7306L65.39 59.7388C66.9227 58.8296 67.9686 57.2657 68.2751 55.4964C70.0051 55.1815 71.5366 54.1098 72.4238 52.5373C73.311 50.9637 73.4516 49.0713 72.853 47.3807C74.1982 46.2217 75 44.5102 75 42.6942ZM8.88152 15.6255C8.88152 12.2333 11.5779 9.47349 14.8923 9.47349H15.7061L16.5993 7.18864C17.5178 4.83859 19.7081 3.32151 22.1797 3.32151H29.3181C36.6092 3.32151 42.5418 9.39351 42.5418 16.8559V26.1527C41.8314 25.7295 41.0175 25.4686 40.1375 25.4686V20.547C40.1375 18.512 38.5194 16.8559 36.5311 16.8559H14.8923C12.9039 16.8559 11.2858 18.512 11.2858 20.547V25.4686C10.4058 25.4686 9.59199 25.7295 8.88152 26.1527V15.6255ZM42.5118 30.0826C41.514 30.4013 40.6112 30.9747 39.9007 31.756C40.0474 30.9119 40.1375 30.0469 40.1375 29.1598V27.9294C41.3601 27.9294 42.3615 28.8719 42.5118 30.0826ZM38.3355 36.2887C38.3716 36.8719 38.481 37.4515 38.6781 38.0076C37.3882 39.1186 36.6056 40.7403 36.5431 42.4727L33.0136 41.871C35.2363 40.5287 37.0829 38.6031 38.3355 36.2887ZM25.7117 41.4638C19.083 41.4638 13.6901 35.9442 13.6901 29.1598V20.547C13.6901 19.8679 14.2287 19.3167 14.8923 19.3167H36.5311C37.1947 19.3167 37.7332 19.8679 37.7332 20.547V29.1598C37.7332 35.9442 32.3404 41.4638 25.7117 41.4638ZM11.2858 27.9294V29.1598C11.2858 30.437 11.4613 31.6686 11.7607 32.851H11.2858C9.95985 32.851 8.88152 31.7473 8.88152 30.3902C8.88152 29.0331 9.95985 27.9294 11.2858 27.9294ZM8.88152 34.6277C9.59199 35.051 10.4058 35.3118 11.2858 35.3118H12.6142C13.85 38.0568 15.8817 40.3453 18.4098 41.8723L13.4184 42.7237C11.7823 43.0018 10.2592 43.6059 8.88152 44.4364V34.6277ZM11.5503 58.6893L12.4651 54.0089L10.1077 53.5266L9.0979 58.6893H3.33718L5.32795 52.5718C6.59983 48.6702 9.85165 45.8268 13.814 45.15L16.4178 44.7059L14.6843 49.1427L17.1235 51.6391L15.9213 55.3303L19.2032 58.6893H11.5503ZM22.6029 58.6893L18.6719 54.6647L19.874 50.9735L17.5058 48.5496L19.1924 44.2334L19.8644 44.119C19.9413 44.4499 20.0459 44.7698 20.1734 45.0787L23.0225 58.6893H22.6029ZM25.9425 58.6893H25.4809L23.3086 48.3097C24.0467 48.6431 24.8533 48.8461 25.7117 48.8461C26.57 48.8461 27.3767 48.6431 28.1148 48.3097L25.9425 58.6893ZM25.7117 46.3854C24.2739 46.3854 23.0405 45.5142 22.4611 44.2654L22.2988 43.4902C23.3951 43.7634 24.5336 43.9246 25.7117 43.9246C26.8898 43.9246 28.0282 43.7634 29.1246 43.4902L28.9623 44.2666C28.3829 45.5142 27.1495 46.3854 25.7117 46.3854ZM28.4009 58.6893L31.25 45.0787C31.3774 44.7698 31.482 44.4499 31.559 44.119L32.231 44.2334L33.9176 48.5496L31.5481 50.9747L32.7503 54.6659L28.8204 58.6893H28.4009ZM39.8731 58.6893H32.2201L35.502 55.3316L34.2999 51.6404L36.739 49.1439L35.0055 44.7071L37.0059 45.0479C37.3738 45.9412 37.9412 46.7459 38.6781 47.3807C38.0794 49.0713 38.2201 50.9637 39.1073 52.5373C39.3693 53.0012 39.6915 53.4146 40.0534 53.785L38.9582 54.0089L39.8731 58.6893ZM42.3254 58.6905L41.5885 54.9206C42.1115 55.1913 42.6705 55.3906 43.2571 55.4977C43.4675 56.7071 44.0289 57.8157 44.85 58.6905H42.3254ZM51.5075 71.0474L48.9217 68.4008L45.5773 69.256L48.4276 60.5042C49.352 60.6149 50.2981 60.5128 51.1877 60.183C51.8669 61.0098 52.7445 61.6312 53.7183 61.9991L51.5075 71.0474ZM65.955 69.256L62.6094 68.4008L60.0236 71.0474L57.8128 61.9991C58.7877 61.6312 59.6641 61.0098 60.3445 60.183C61.2341 60.514 62.1802 60.6161 63.1059 60.5054L65.955 69.256ZM70.7468 45.8932L69.6781 46.5109L70.302 47.5911C70.9692 48.7453 70.9824 50.1701 70.3405 51.3082C69.6985 52.4475 68.4459 53.1415 67.1764 53.1316L65.9502 53.1193L65.9622 54.3743C65.9754 55.7154 65.2914 56.9557 64.1806 57.6127C63.0674 58.2697 61.6777 58.255 60.5489 57.5733L59.4934 56.9348L58.8911 58.0274C58.2468 59.1938 57.0482 59.9197 55.7655 59.9197C54.4828 59.9197 53.2843 59.1938 52.6399 58.0274L52.0364 56.9335L50.981 57.5721C49.8533 58.255 48.4624 58.2685 47.3493 57.6115C46.2373 56.9545 45.5544 55.7142 45.5677 54.3731L45.5797 53.1181L44.3535 53.1304C43.0684 53.1353 41.8302 52.4451 41.1894 51.3069C40.5475 50.1688 40.5619 48.744 41.2279 47.5899L41.8518 46.5096L40.7843 45.8932C39.6446 45.2337 38.9354 44.007 38.9354 42.6942C38.9354 41.3813 39.6446 40.1546 40.7843 39.4951L41.853 38.8775L41.2291 37.7972C40.5619 36.6431 40.5487 35.2183 41.1906 34.0802C41.8314 32.9408 43.0744 32.2592 44.3547 32.2567L45.5809 32.269L45.5689 31.014C45.5556 29.6729 46.2397 28.4327 47.3505 27.7756C48.4636 27.1186 49.8545 27.1334 50.9822 27.815L52.0377 28.4536L52.6411 27.3598C53.2843 26.1946 54.4828 25.4686 55.7655 25.4686C57.0482 25.4686 58.2468 26.1946 58.8911 27.361L59.4946 28.4548L60.5501 27.8162C61.6777 27.1334 63.0686 27.1198 64.1818 27.7769C65.2938 28.4339 65.9766 29.6741 65.9634 31.0153L65.9514 32.2703L67.1776 32.258C68.4423 32.2543 69.6985 32.9433 70.3417 34.0814C70.9836 35.2195 70.9692 36.6443 70.3032 37.7984L69.6793 38.8787L70.748 39.4964C71.8864 40.1546 72.5957 41.3813 72.5957 42.6942C72.5957 44.007 71.8864 45.2337 70.7468 45.8932Z" fill="#1D2B6B"/>
<path d="M55.7656 30.3902C49.1369 30.3902 43.744 35.9098 43.744 42.6942C43.744 49.4786 49.1369 54.9981 55.7656 54.9981C58.8647 54.9981 61.8076 53.7935 64.0532 51.6084L62.3954 49.8255C60.5994 51.5751 58.2444 52.5373 55.7656 52.5373C50.4629 52.5373 46.1483 48.1214 46.1483 42.6942C46.1483 37.2669 50.4629 32.851 55.7656 32.851C61.0683 32.851 65.3828 37.2669 65.3828 42.6942C65.3828 44.8067 64.7396 46.8209 63.5207 48.5176L65.4573 49.9744C66.9817 47.852 67.7871 45.3346 67.7871 42.6942C67.7871 35.9098 62.3942 30.3902 55.7656 30.3902Z" fill="#1D2B6B"/>
<path d="M56.9676 50.0765V36.5422H54.1991L50.2897 39.2097L51.6241 41.2571L54.5633 39.2515V50.0765H56.9676Z" fill="#1D2B6B"/>
</g>
<defs>
<clipPath id="clip0">
<rect width="75" height="75" fill="white"/>
</clipPath>
</defs>
</svg>
