<svg width="76" height="75" viewBox="0 0 76 75" fill="none" xmlns="http://www.w3.org/2000/svg">
<path d="M66.4723 41.7453C66.4986 43.9298 66.5195 46.109 66.5667 48.2883C66.6649 49.2609 66.8403 50.2244 67.0912 51.1697C65.1769 50.6496 63.2416 50.1659 61.5843 48.9384C61.3577 48.7079 61.0912 48.5194 60.7976 48.3819C58.6998 47.8254 58.0914 46.2131 57.7767 44.3511C57.7295 44.0806 57.525 43.6749 57.3309 43.6281C55.1386 43.1392 54.4306 41.4593 53.9166 39.5973C53.8681 39.4191 53.8049 39.2451 53.7278 39.0772C53.7016 39.0251 53.6124 38.9991 53.4656 38.9003C52.1544 40.2838 50.8065 39.7481 49.5426 38.7339C48.609 40.2942 47.8381 40.5179 46.2384 39.5609C45.394 39.0408 45.2944 39.6597 44.985 40.1382C44.6021 40.7311 44.8381 41.0172 45.415 41.1368C48.095 41.6933 48.845 43.6801 49.2227 46.0206C49.3305 46.6654 49.6154 47.2682 50.0461 47.763C51.0373 48.8396 52.1439 49.807 53.3292 50.92C53.7843 50.2441 54.4275 49.7138 55.1807 49.3934C55.9339 49.073 56.7647 48.9764 57.5722 49.1153" stroke="#1D2B6B" stroke-width="2.5" stroke-linecap="round" stroke-linejoin="round"/>
<path d="M9.12195 32.2169C9.19013 29.2003 9.77229 26.2981 11.6079 23.7911C13.7845 20.8213 16.8211 19.5939 20.4452 19.6667C21.1729 19.6974 21.8817 19.9057 22.5088 20.2732C23.1359 20.6407 23.6619 21.1559 24.0401 21.7733C24.4182 22.3906 24.637 23.091 24.6768 23.8122C24.7167 24.5335 24.5764 25.2534 24.2685 25.908C23.8018 26.9482 24.022 27.6555 24.8822 28.3473C27.0062 30.022 28.6531 29.8244 30.153 27.6087C30.8528 26.6196 31.3141 25.4843 31.5015 24.2903C31.6888 23.0964 31.5971 21.8757 31.2334 20.7225C30.7614 19.1622 29.5604 18.1792 28.029 17.6018C27.3097 17.2961 26.6092 16.9488 25.9311 16.5616C24.7091 15.9011 23.4923 16.1715 22.1707 16.5148C21.5938 15.3134 21.7563 14.8869 22.9679 14.5228C23.6234 14.3251 24.2948 14.1743 24.9556 14.0027C25.1287 13.9559 25.3752 13.9299 25.4433 13.8154C26.5657 11.9691 28.3961 12.3331 30.0272 12.51C31.6583 12.6868 33.3785 13.0301 35.0096 12.1875L35.2666 12.458C34.8732 12.9989 34.4432 13.5658 34.0865 14.1587C33.924 14.4344 33.7194 14.9337 33.8453 15.0897C35.8435 17.5446 36.9501 20.3896 37.7945 23.4947C37.9073 23.2457 38.0002 22.9883 38.0725 22.7249C38.5737 20.0345 39.7335 17.5073 41.4501 15.3654C41.8486 14.8453 41.8434 14.5748 41.3714 14.1119C40.8777 13.5772 40.4977 12.9492 40.2543 12.2655C42.478 13.3057 44.6388 12.4059 46.7944 12.3955C48.0111 12.3955 49.0601 12.5516 49.9412 13.6282C50.4027 14.1795 51.5146 14.1951 52.3327 14.45C53.6229 14.8505 53.796 15.2249 53.2663 16.4888C51.7191 16.1715 50.1614 15.6982 48.8293 17.0921C48.609 17.321 48.1685 17.3522 47.8276 17.4614C45.2052 18.3092 43.8259 20.0307 43.8259 22.7041C43.7491 24.7775 44.4883 26.7992 45.887 28.3421C47.3818 29.9596 50.4551 29.4811 51.331 27.4267C51.4421 27.0228 51.4106 26.5934 51.2418 26.2096C49.8048 22.4701 52.102 19.3754 56.1141 19.6771C60.8815 20.0307 64.3378 22.7977 65.5126 27.3955C65.986 29.2687 66.2567 31.1866 66.3202 33.1167" stroke="#1D2B6B" stroke-width="2.5" stroke-linecap="round" stroke-linejoin="round"/>
<path d="M57.4253 49.9734L58.941 51.7834L58.6997 52.1475C58.1753 51.6273 57.677 51.1957 57.1578 52.0798C57.0215 52.3139 56.4498 52.3191 56.0669 52.3815C55.3222 52.4959 54.5722 52.5739 53.8222 52.6728C53.5121 52.6882 53.2182 52.8148 52.9954 53.0292C52.7725 53.2435 52.6358 53.5309 52.6107 53.8378C52.4856 54.1971 52.2974 54.5317 52.0548 54.826C51.8659 55.1329 51.6614 55.4345 51.331 55.9495C51.053 55.7258 50.4237 55.4293 50.2506 54.9977C50.1247 54.67 50.5076 54.025 50.8275 53.6662C52.1124 52.2463 52.1072 51.6898 50.6544 50.4883C49.9387 49.8304 49.1724 49.2287 48.3625 48.6887C47.8013 48.3559 47.0566 48.3351 46.401 48.1686C46.0643 48.0856 45.7386 47.9634 45.4307 47.8045C43.7105 46.8163 43.0182 46.6083 41.943 46.8683C42.8661 49.0476 43.7839 51.2165 44.7122 53.3801C45.5304 55.2889 46.3853 57.1873 47.1825 59.1013C47.5076 59.8867 47.6597 60.7345 46.9517 61.4106C46.6582 61.7599 46.2519 61.9979 45.8017 62.0841C45.3515 62.1704 44.8851 62.0996 44.4815 61.8839C44.289 61.8111 44.0882 61.7622 43.8836 61.7383C43.1755 64.2088 41.8277 64.7757 39.8609 63.4026C39.4309 64.2816 38.9431 65.0982 37.763 65.1034C36.583 65.1086 36.0743 64.4376 35.6652 63.543C33.0429 64.5833 32.0464 64.1308 31.6215 61.6915C31.3174 61.7903 31.0184 61.8527 30.7457 61.9723C30.3819 62.1497 29.9668 62.1948 29.5728 62.0998C29.1789 62.0047 28.8311 61.7755 28.5901 61.4522C28.3921 61.1738 28.2553 60.8572 28.1884 60.5231C28.1216 60.1889 28.1262 59.8445 28.202 59.5122C29.251 56.6984 30.4887 53.9418 31.6635 51.1904C32.3335 49.7129 32.903 48.1925 33.368 46.6395C32.66 46.8215 31.931 46.962 31.2387 47.196C30.2632 47.5289 29.5132 48.4807 28.265 48.1062C27.9713 48.0178 27.4783 48.4131 27.1374 48.6679C26.2091 49.3597 25.3017 50.067 24.4206 50.816C23.3979 51.6898 23.3717 52.2463 24.258 53.2709C24.4172 53.4188 24.5645 53.5788 24.6986 53.7494C24.9346 54.1499 25.3909 54.6648 25.2807 54.9664C25.1182 55.4033 24.5412 55.6946 24.0955 56.0951C23.4871 54.9456 23.1567 53.8638 22.4486 53.1513C21.9242 52.6312 20.9382 52.5999 20.1357 52.4543C19.3333 52.3087 18.4679 52.6103 17.8753 51.7314C17.7914 51.6065 17.1463 51.851 16.7267 51.929C16.3124 50.8888 17.6917 50.8472 18.0169 50.0618L17.0414 49.7133C17.5658 49.0736 19.3438 48.8708 20.2616 49.3597C20.5617 49.4886 20.8314 49.6782 21.0536 49.9162C21.814 50.8836 22.5116 50.738 23.2406 49.9162C23.4732 49.6395 23.7352 49.3884 24.022 49.1672C24.7007 48.6951 25.2707 48.0858 25.6947 47.3793C26.1187 46.6729 26.3869 45.8854 26.4818 45.0688C26.7335 43.0663 27.8297 41.6152 29.98 41.1888C30.6303 41.0587 30.7929 40.6686 30.4415 40.0809C30.1635 39.6024 30.0062 39.1187 29.2352 39.5608C27.6199 40.5282 26.8122 40.3202 25.9049 38.8171C24.6252 39.6336 23.314 40.4138 21.9399 38.7286C21.6042 39.6076 21.3472 40.289 21.064 40.9859C20.8576 41.6227 20.4897 42.1962 19.9957 42.6516C19.5016 43.1069 18.8979 43.4288 18.2424 43.5865C18.0882 43.6416 17.9501 43.7335 17.8404 43.8542C17.7306 43.9748 17.6525 44.1205 17.613 44.2782C17.461 46.3586 16.4854 47.5497 14.5607 48.5431C12.7815 49.5457 10.9136 50.3848 8.98034 51.05C8.8313 51.0877 8.67781 51.1052 8.52405 51.102C8.64992 49.781 8.85446 48.5015 8.88593 47.1648C8.93313 45.1832 8.9646 43.2016 8.99607 41.2148" stroke="#1D2B6B" stroke-width="2.5" stroke-linecap="round" stroke-linejoin="round"/>
<path d="M66.3202 37.3243V37.4128" stroke="#1D2B6B" stroke-width="2.5" stroke-linecap="round" stroke-linejoin="round"/>
<path d="M9.15344 36.8042V36.8926" stroke="#1D2B6B" stroke-width="2.5" stroke-linecap="round" stroke-linejoin="round"/>
<path d="M37.8523 73.3004C57.9109 73.3004 74.1716 57.1748 74.1716 37.2828C74.1716 17.3909 57.9109 1.26526 37.8523 1.26526C17.7937 1.26526 1.53296 17.3909 1.53296 37.2828C1.53296 57.1748 17.7937 73.3004 37.8523 73.3004Z" stroke="#1D2B6B" stroke-width="2.5" stroke-miterlimit="10"/>
</svg>