<svg width="100" height="101" viewBox="0 0 100 101" fill="none" xmlns="http://www.w3.org/2000/svg">
<path d="M82.4723 55.7453C82.4986 57.9298 82.5195 60.109 82.5667 62.2883C82.6649 63.2609 82.8403 64.2244 83.0912 65.1697C81.1769 64.6496 79.2416 64.1659 77.5843 62.9384C77.3577 62.7079 77.0912 62.5194 76.7976 62.3819C74.6998 61.8254 74.0914 60.2131 73.7767 58.3511C73.7295 58.0806 73.525 57.6749 73.3309 57.6281C71.1386 57.1392 70.4306 55.4593 69.9166 53.5973C69.8681 53.4191 69.8049 53.2451 69.7278 53.0772C69.7016 53.0251 69.6124 52.9991 69.4656 52.9003C68.1544 54.2838 66.8065 53.7481 65.5426 52.7339C64.609 54.2942 63.8381 54.5179 62.2384 53.5609C61.394 53.0408 61.2944 53.6597 60.985 54.1382C60.6021 54.7311 60.8381 55.0172 61.415 55.1368C64.095 55.6933 64.845 57.6801 65.2227 60.0206C65.3305 60.6654 65.6154 61.2682 66.0461 61.763C67.0373 62.8396 68.1439 63.807 69.3292 64.92C69.7843 64.2441 70.4275 63.7138 71.1807 63.3934C71.9339 63.073 72.7647 62.9764 73.5722 63.1153" stroke="#1D2B6B" stroke-width="2.5" stroke-linecap="round" stroke-linejoin="round"/>
<path d="M25.1219 46.2169C25.1901 43.2003 25.7723 40.2981 27.6079 37.7911C29.7845 34.8213 32.8211 33.5939 36.4452 33.6667C37.1729 33.6974 37.8817 33.9057 38.5088 34.2732C39.1359 34.6407 39.6619 35.1559 40.0401 35.7733C40.4182 36.3906 40.637 37.091 40.6768 37.8122C40.7167 38.5335 40.5764 39.2534 40.2685 39.908C39.8018 40.9482 40.022 41.6555 40.8822 42.3473C43.0062 44.022 44.6531 43.8244 46.153 41.6087C46.8528 40.6196 47.3141 39.4843 47.5015 38.2903C47.6888 37.0964 47.5971 35.8757 47.2334 34.7225C46.7614 33.1622 45.5604 32.1792 44.029 31.6018C43.3097 31.2961 42.6092 30.9488 41.9311 30.5616C40.7091 29.9011 39.4923 30.1715 38.1707 30.5148C37.5938 29.3134 37.7563 28.8869 38.9679 28.5228C39.6234 28.3251 40.2948 28.1743 40.9556 28.0027C41.1287 27.9559 41.3752 27.9299 41.4433 27.8154C42.5657 25.9691 44.3961 26.3331 46.0272 26.51C47.6583 26.6868 49.3785 27.0301 51.0096 26.1875L51.2666 26.458C50.8732 26.9989 50.4432 27.5658 50.0865 28.1587C49.924 28.4344 49.7194 28.9337 49.8453 29.0897C51.8435 31.5446 52.9501 34.3896 53.7945 37.4947C53.9073 37.2457 54.0002 36.9883 54.0725 36.7249C54.5737 34.0345 55.7335 31.5073 57.4501 29.3654C57.8486 28.8453 57.8434 28.5748 57.3714 28.1119C56.8777 27.5772 56.4977 26.9492 56.2543 26.2655C58.478 27.3057 60.6388 26.4059 62.7944 26.3955C64.0111 26.3955 65.0601 26.5516 65.9412 27.6282C66.4027 28.1795 67.5146 28.1951 68.3327 28.45C69.6229 28.8505 69.796 29.2249 69.2663 30.4888C67.7191 30.1715 66.1614 29.6982 64.8293 31.0921C64.609 31.321 64.1685 31.3522 63.8276 31.4614C61.2052 32.3092 59.8259 34.0307 59.8259 36.7041C59.7491 38.7775 60.4883 40.7992 61.887 42.3421C63.3818 43.9596 66.4551 43.4811 67.331 41.4267C67.4421 41.0228 67.4106 40.5934 67.2418 40.2096C65.8048 36.4701 68.102 33.3754 72.1141 33.6771C76.8815 34.0307 80.3378 36.7977 81.5126 41.3955C81.986 43.2687 82.2567 45.1866 82.3202 47.1167" stroke="#1D2B6B" stroke-width="2.5" stroke-linecap="round" stroke-linejoin="round"/>
<path d="M73.4253 63.9734L74.941 65.7834L74.6997 66.1475C74.1753 65.6273 73.677 65.1957 73.1578 66.0798C73.0215 66.3139 72.4498 66.3191 72.0669 66.3815C71.3222 66.4959 70.5722 66.5739 69.8222 66.6728C69.5121 66.6882 69.2182 66.8148 68.9954 67.0292C68.7725 67.2435 68.6358 67.5309 68.6107 67.8378C68.4856 68.1971 68.2974 68.5317 68.0548 68.826C67.8659 69.1329 67.6614 69.4345 67.331 69.9495C67.053 69.7258 66.4237 69.4293 66.2506 68.9977C66.1247 68.67 66.5076 68.025 66.8275 67.6662C68.1124 66.2463 68.1072 65.6898 66.6544 64.4883C65.9387 63.8304 65.1724 63.2287 64.3625 62.6887C63.8013 62.3559 63.0566 62.3351 62.401 62.1686C62.0643 62.0856 61.7386 61.9634 61.4307 61.8045C59.7105 60.8163 59.0182 60.6083 57.943 60.8683C58.8661 63.0476 59.7839 65.2165 60.7122 67.3801C61.5304 69.2889 62.3853 71.1873 63.1825 73.1013C63.5076 73.8867 63.6597 74.7345 62.9517 75.4106C62.6582 75.7599 62.2519 75.9979 61.8017 76.0841C61.3515 76.1704 60.8851 76.0996 60.4815 75.8839C60.289 75.8111 60.0882 75.7622 59.8836 75.7383C59.1755 78.2088 57.8277 78.7757 55.8609 77.4026C55.4309 78.2816 54.9431 79.0982 53.763 79.1034C52.583 79.1086 52.0743 78.4376 51.6652 77.543C49.0429 78.5833 48.0464 78.1308 47.6215 75.6915C47.3174 75.7903 47.0184 75.8527 46.7457 75.9723C46.3819 76.1497 45.9668 76.1948 45.5728 76.0998C45.1789 76.0047 44.8311 75.7755 44.5901 75.4522C44.3921 75.1738 44.2553 74.8572 44.1884 74.5231C44.1216 74.1889 44.1262 73.8445 44.202 73.5122C45.251 70.6984 46.4887 67.9418 47.6635 65.1904C48.3335 63.7129 48.903 62.1925 49.368 60.6395C48.66 60.8215 47.931 60.962 47.2387 61.196C46.2632 61.5289 45.5132 62.4807 44.265 62.1062C43.9713 62.0178 43.4783 62.4131 43.1374 62.6679C42.2091 63.3597 41.3017 64.067 40.4206 64.816C39.3979 65.6898 39.3717 66.2463 40.258 67.2709C40.4172 67.4188 40.5645 67.5788 40.6986 67.7494C40.9346 68.1499 41.3909 68.6648 41.2807 68.9664C41.1182 69.4033 40.5412 69.6946 40.0955 70.0951C39.4871 68.9456 39.1567 67.8638 38.4486 67.1513C37.9242 66.6312 36.9382 66.5999 36.1357 66.4543C35.3333 66.3087 34.4679 66.6103 33.8753 65.7314C33.7914 65.6065 33.1463 65.851 32.7267 65.929C32.3124 64.8888 33.6917 64.8472 34.0169 64.0618L33.0414 63.7133C33.5658 63.0736 35.3438 62.8708 36.2616 63.3597C36.5617 63.4886 36.8314 63.6782 37.0536 63.9162C37.814 64.8836 38.5116 64.738 39.2406 63.9162C39.4732 63.6395 39.7352 63.3884 40.022 63.1672C40.7007 62.6951 41.2707 62.0858 41.6947 61.3793C42.1187 60.6729 42.3869 59.8854 42.4818 59.0688C42.7335 57.0663 43.8297 55.6152 45.98 55.1888C46.6303 55.0587 46.7929 54.6686 46.4415 54.0809C46.1635 53.6024 46.0062 53.1187 45.2352 53.5608C43.6199 54.5282 42.8122 54.3202 41.9049 52.8171C40.6252 53.6336 39.314 54.4138 37.9399 52.7286C37.6042 53.6076 37.3472 54.289 37.064 54.9859C36.8576 55.6227 36.4897 56.1962 35.9957 56.6516C35.5016 57.1069 34.8979 57.4288 34.2424 57.5865C34.0882 57.6416 33.9501 57.7335 33.8404 57.8542C33.7306 57.9748 33.6525 58.1205 33.613 58.2782C33.461 60.3586 32.4854 61.5497 30.5607 62.5431C28.7815 63.5457 26.9136 64.3848 24.9803 65.05C24.8313 65.0877 24.6778 65.1052 24.524 65.102C24.6499 63.781 24.8545 62.5015 24.8859 61.1648C24.9331 59.1832 24.9646 57.2016 24.9961 55.2148" stroke="#1D2B6B" stroke-width="2.5" stroke-linecap="round" stroke-linejoin="round"/>
<path d="M82.3202 51.3243V51.4128" stroke="#1D2B6B" stroke-width="2.5" stroke-linecap="round" stroke-linejoin="round"/>
<path d="M25.1534 50.8042V50.8926" stroke="#1D2B6B" stroke-width="2.5" stroke-linecap="round" stroke-linejoin="round"/>
<path d="M53.8522 87.3004C73.9108 87.3004 90.1715 71.1748 90.1715 51.2828C90.1715 31.3909 73.9108 15.2653 53.8522 15.2653C33.7936 15.2653 17.5329 31.3909 17.5329 51.2828C17.5329 71.1748 33.7936 87.3004 53.8522 87.3004Z" stroke="#1D2B6B" stroke-width="2.5" stroke-miterlimit="10"/>
</svg>
