<svg width="101" height="103" viewBox="0 0 101 103" fill="none" xmlns="http://www.w3.org/2000/svg">
<path d="M20.5687 49.1529L23.837 32.3549C23.837 32.3549 24.4567 25.1944 34.6961 25.8999L31.5178 42.8729C31.5178 42.8729 37.5194 35.007 47.0542 35.007C56.589 35.007 64.9796 35.0971 64.9796 35.0971L63.7666 42.3955C63.7666 42.3955 62.8131 49.5932 52.7062 49.1529L53.5008 44.0239C53.5008 44.0239 42.6417 42.3849 39.1086 49.1689L20.5687 49.1529Z" stroke="#1D2B6B" stroke-width="3" stroke-linecap="round" stroke-linejoin="round"/>
<path d="M79.5838 52.102C78.9182 50.8206 77.9748 49.7044 76.8227 48.8353C75.6706 47.9662 74.339 47.3661 72.9253 47.079C71.653 46.818 70.3615 46.6619 69.0637 46.6123L70.9124 36.4921C70.9124 36.4921 84.2082 37.0225 89.3516 46.66C94.4951 56.2975 89.3516 65.0227 89.3516 65.0227C89.3516 65.0227 87.3705 69.266 82.1529 72.2946C79.035 74.0804 75.5 75.0065 71.9083 74.9785H62.3735L61.4253 79.2218C61.4253 79.2218 60.3182 86.4565 49.2631 85.1889L51.2601 74.9785C51.2601 74.9785 35.1198 76.9834 29.0123 60.2703L26.2631 75.0793L15.0703 74.9785L19.4669 53.3644H39.9084C39.9084 53.3644 36.9103 65.9722 52.9711 64.8477C52.9711 64.8477 54.9204 58.3184 65.2657 59.3686L64.2063 64.7734C64.2063 64.7734 75.5103 66.7147 79.3507 60.3445" stroke="#1D2B6B" stroke-width="3" stroke-linecap="round" stroke-linejoin="round"/>
<path d="M79.9864 55.5603V56.2233" stroke="#1D2B6B" stroke-width="3" stroke-linecap="round" stroke-linejoin="round"/>
</svg>
