<svg width="81" height="63" viewBox="0 0 81 63" fill="none" xmlns="http://www.w3.org/2000/svg">
<path d="M7.56873 25.1529L10.837 8.35492C10.837 8.35492 11.4568 1.19441 21.6961 1.89985L18.5179 18.8729C18.5179 18.8729 24.5195 11.007 34.0543 11.007C43.5891 11.007 51.9797 11.0971 51.9797 11.0971L50.7667 18.3955C50.7667 18.3955 49.8132 25.5932 39.7063 25.1529L40.5009 20.0239C40.5009 20.0239 29.6418 18.3849 26.1086 25.1689L7.56873 25.1529Z" stroke="#1D2B6B" stroke-width="3" stroke-linecap="round" stroke-linejoin="round"/>
<path d="M66.5838 28.102C65.9182 26.8206 64.9749 25.7044 63.8228 24.8353C62.6707 23.9662 61.339 23.3661 59.9253 23.079C58.6531 22.818 57.3615 22.6619 56.0638 22.6123L57.9124 12.4921C57.9124 12.4921 71.2082 13.0225 76.3517 22.66C81.4952 32.2975 76.3517 41.0227 76.3517 41.0227C76.3517 41.0227 74.3706 45.266 69.1529 48.2946C66.0351 50.0804 62.5001 51.0065 58.9083 50.9785H49.3735L48.4253 55.2218C48.4253 55.2218 47.3182 62.4565 36.2632 61.1889L38.2602 50.9785C38.2602 50.9785 22.1199 52.9834 16.0123 36.2703L13.2631 51.0793L2.07031 50.9785L6.46691 29.3644H26.9085C26.9085 29.3644 23.9103 41.9722 39.9711 40.8477C39.9711 40.8477 41.9205 34.3184 52.2657 35.3686L51.2063 40.7734C51.2063 40.7734 62.5103 42.7147 66.3507 36.3445" stroke="#1D2B6B" stroke-width="3" stroke-linecap="round" stroke-linejoin="round"/>
<path d="M66.9863 31.5603V32.2233" stroke="#1D2B6B" stroke-width="3" stroke-linecap="round" stroke-linejoin="round"/>
</svg>
