<svg width="22" height="20" viewBox="0 0 22 20" fill="none" xmlns="http://www.w3.org/2000/svg">
<path d="M16.4922 19.3954H2.22868C1.00023 19.3954 0 18.3951 0 17.1667V2.90312C0 1.67467 1.00023 0.674438 2.22868 0.674438H13.3721C13.6181 0.674438 13.8178 0.874128 13.8178 1.12018C13.8178 1.36622 13.6181 1.56591 13.3721 1.56591H2.22868C1.49143 1.56591 0.891473 2.16587 0.891473 2.90312V17.1667C0.891473 17.9039 1.49143 18.5039 2.22868 18.5039H16.4922C17.2295 18.5039 17.8295 17.9039 17.8295 17.1667V9.58917C17.8295 9.34312 18.0291 9.14343 18.2752 9.14343C18.5212 9.14343 18.7209 9.34312 18.7209 9.58917V17.1667C18.7209 18.3951 17.7207 19.3954 16.4922 19.3954Z" fill="#1D2B6B"/>
<path d="M11.1436 11.595C11.0295 11.595 10.9154 11.5513 10.828 11.4648L6.81641 7.45321C6.64258 7.27937 6.64258 6.99678 6.81641 6.82294C6.99025 6.6491 7.27285 6.6491 7.44668 6.82294L11.1427 10.519L20.6342 1.02747C20.8081 0.853635 21.0907 0.853635 21.2645 1.02747C21.4384 1.20131 21.4384 1.48391 21.2645 1.65774L11.4583 11.4639C11.3718 11.5513 11.2577 11.595 11.1436 11.595Z" fill="#1D2B6B"/>
</svg>
