<svg width="80" height="80" viewBox="0 0 80 80" fill="none" xmlns="http://www.w3.org/2000/svg">
<path d="M20.8908 59.2C20.7917 59.1009 20.6741 59.0222 20.5446 58.9685C20.4151 58.9148 20.2763 58.8872 20.1361 58.8872C19.9959 58.8872 19.8571 58.9148 19.7276 58.9685C19.5981 59.0222 19.4805 59.1009 19.3814 59.2C19.2815 59.2992 19.2021 59.4172 19.148 59.5472C19.0938 59.6771 19.0659 59.8166 19.0659 59.9574C19.0659 60.0982 19.0938 60.2376 19.148 60.3676C19.2021 60.4976 19.2815 60.6156 19.3814 60.7147C19.4805 60.8139 19.5981 60.8926 19.7276 60.9462C19.8571 60.9999 19.9959 61.0276 20.1361 61.0276C20.2763 61.0276 20.4151 60.9999 20.5446 60.9462C20.6741 60.8926 20.7917 60.8139 20.8908 60.7147C20.9907 60.6156 21.0701 60.4976 21.1243 60.3676C21.1784 60.2376 21.2063 60.0982 21.2063 59.9574C21.2063 59.8166 21.1784 59.6771 21.1243 59.5472C21.0701 59.4172 20.9907 59.2992 20.8908 59.2Z" fill="#1D2B6B"/>
<path d="M62.0586 30.08C61.91 29.928 61.7194 29.8239 61.5113 29.781C61.3031 29.7381 61.0869 29.7583 60.8904 29.8391C60.6938 29.9199 60.5259 30.0576 60.4081 30.2345C60.2903 30.4114 60.228 30.6195 60.2293 30.832C60.2292 30.9727 60.2569 31.1121 60.3109 31.2421C60.3649 31.3721 60.4441 31.4901 60.5439 31.5893C60.6431 31.6893 60.7611 31.7687 60.8911 31.8228C61.021 31.877 61.1605 31.9048 61.3013 31.9048C61.4421 31.9048 61.5815 31.877 61.7115 31.8228C61.8415 31.7687 61.9594 31.6893 62.0586 31.5893C62.1578 31.4903 62.2365 31.3726 62.2901 31.2431C62.3438 31.1136 62.3714 30.9748 62.3714 30.8347C62.3714 30.6945 62.3438 30.5557 62.2901 30.4262C62.2365 30.2967 62.1578 30.1791 62.0586 30.08Z" fill="#1D2B6B"/>
<path d="M66.2934 10.8054C66.1941 10.7056 66.0761 10.6264 65.9461 10.5724C65.8162 10.5184 65.6768 10.4906 65.536 10.4907H39.1947C38.9118 10.4907 38.6405 10.6031 38.4404 10.8031C38.2404 11.0032 38.128 11.2745 38.128 11.5574V14.6187L27.9947 17.3387C27.8534 17.3703 27.72 17.4303 27.6026 17.5151C27.4853 17.5999 27.3864 17.7077 27.312 17.832C27.2377 17.9562 27.1894 18.0943 27.1702 18.2378C27.1509 18.3813 27.1611 18.5273 27.2 18.6667L32.48 38.2881L27.9254 42.8374C27.6302 42.4026 27.2325 42.0472 26.7674 41.8026C26.3024 41.5579 25.7842 41.4316 25.2587 41.4347H14.9974C14.1487 41.4347 13.3347 41.7719 12.7346 42.372C12.1345 42.9721 11.7974 43.786 11.7974 44.6347V62.0907C11.7974 62.9394 12.1345 63.7534 12.7346 64.3535C13.3347 64.9536 14.1487 65.2907 14.9974 65.2907H25.2747C25.9935 65.2932 26.6922 65.0535 27.2583 64.6104C27.8243 64.1673 28.2246 63.5465 28.3947 62.8481L29.664 64.0001C30.6485 64.8541 31.9074 65.3254 33.2107 65.3281H65.536C65.8189 65.3281 66.0902 65.2157 66.2903 65.0156C66.4903 64.8156 66.6027 64.5443 66.6027 64.2614V11.5627C66.6035 11.4223 66.5766 11.2832 66.5235 11.1532C66.4704 11.0233 66.3922 10.9051 66.2934 10.8054ZM26.3467 62.1014C26.3467 62.3843 26.2343 62.6556 26.0343 62.8556C25.8342 63.0557 25.5629 63.1681 25.28 63.1681H14.9974C14.7145 63.1681 14.4432 63.0557 14.2431 62.8556C14.0431 62.6556 13.9307 62.3843 13.9307 62.1014V44.6454C13.9307 44.3625 14.0431 44.0912 14.2431 43.8911C14.4432 43.6911 14.7145 43.5787 14.9974 43.5787H19.0667V55.9147C19.0667 56.1976 19.1791 56.4689 19.3791 56.669C19.5792 56.869 19.8505 56.9814 20.1334 56.9814C20.4163 56.9814 20.6876 56.869 20.8876 56.669C21.0876 56.4689 21.2 56.1976 21.2 55.9147V43.5734H25.2694C25.5523 43.5734 25.8236 43.6858 26.0236 43.8858C26.2236 44.0859 26.336 44.3572 26.336 44.6401V62.0961L26.3467 62.1014ZM29.5467 19.1361L38.1067 16.8427V20.8001L37.392 20.9921C37.2563 21.0278 37.1289 21.0901 37.0172 21.1752C36.9056 21.2603 36.8118 21.3666 36.7414 21.4881C36.6711 21.6095 36.6256 21.7437 36.6073 21.8828C36.589 22.0219 36.5983 22.1632 36.6347 22.2987C36.8306 23.0377 36.7263 23.8241 36.3447 24.4865C35.963 25.1489 35.3349 25.6336 34.5974 25.8347C34.4616 25.8705 34.3342 25.9327 34.2226 26.0179C34.1109 26.103 34.0172 26.2093 33.9467 26.3307C33.8758 26.4529 33.8298 26.5879 33.8115 26.728C33.7932 26.8681 33.8029 27.0104 33.84 27.1467L38.0107 42.6134H35.8774L34.7734 38.2774C34.7359 38.143 34.6745 38.0166 34.592 37.9041L29.5467 19.1361ZM38.1227 25.7174V34.7521L36.1707 27.5201C36.9717 27.1057 37.646 26.4829 38.1227 25.7174ZM53.5094 63.1681H33.2107C32.4264 63.1673 31.6688 62.8832 31.0774 62.3681L28.4907 60.1121V45.3334L33.168 40.6561L34.016 43.9734C34.0742 44.2037 34.2076 44.4079 34.395 44.5538C34.5824 44.6997 34.8132 44.7788 35.0507 44.7787H56.1014C56.4988 44.7787 56.88 44.9366 57.1611 45.2177C57.4421 45.4987 57.6 45.8799 57.6 46.2774C57.6 46.6749 57.4421 47.0561 57.1611 47.3371C56.88 47.6182 56.4988 47.7761 56.1014 47.7761H45.3334C45.0505 47.7761 44.7792 47.8884 44.5791 48.0885C44.3791 48.2885 44.2667 48.5598 44.2667 48.8427C44.2667 49.1256 44.3791 49.3969 44.5791 49.597C44.7792 49.797 45.0505 49.9094 45.3334 49.9094H59.472C59.8695 49.9094 60.2507 50.0673 60.5317 50.3483C60.8128 50.6294 60.9707 51.0106 60.9707 51.4081C60.9707 51.8055 60.8128 52.1867 60.5317 52.4678C60.2507 52.7488 59.8695 52.9067 59.472 52.9067H45.3334C45.0505 52.9067 44.7792 53.0191 44.5791 53.2191C44.3791 53.4192 44.2667 53.6905 44.2667 53.9734C44.2667 54.2563 44.3791 54.5276 44.5791 54.7276C44.7792 54.9277 45.0505 55.0401 45.3334 55.0401H57.1787C57.5762 55.0401 57.9574 55.198 58.2384 55.479C58.5195 55.7601 58.6774 56.1413 58.6774 56.5387C58.6774 56.9362 58.5195 57.3174 58.2384 57.5984C57.9574 57.8795 57.5762 58.0374 57.1787 58.0374H45.3334C45.0505 58.0374 44.7792 58.1498 44.5791 58.3498C44.3791 58.5499 44.2667 58.8212 44.2667 59.1041C44.2667 59.387 44.3791 59.6583 44.5791 59.8583C44.7792 60.0583 45.0505 60.1707 45.3334 60.1707H53.5307C53.9282 60.1707 54.3094 60.3286 54.5904 60.6097C54.8715 60.8907 55.0294 61.2719 55.0294 61.6694C55.0294 62.0669 54.8715 62.4481 54.5904 62.7291C54.3094 63.0102 53.9282 63.1681 53.5307 63.1681H53.5094ZM64.464 63.1681H56.8214C57.0357 62.6975 57.1465 62.1865 57.1465 61.6694C57.1465 61.1523 57.0357 60.6413 56.8214 60.1707H57.1574C58.1225 60.1707 59.0483 59.7877 59.7312 59.1057C60.4142 58.4237 60.7986 57.4986 60.8 56.5334C60.8016 55.9662 60.6682 55.4068 60.4107 54.9014C60.9836 54.7479 61.5103 54.4568 61.9452 54.0535C62.38 53.6501 62.7098 53.1467 62.9058 52.5869C63.1019 52.0271 63.1583 51.428 63.0701 50.8414C62.982 50.2549 62.752 49.6988 62.4 49.2214V35.6534C62.4 35.3705 62.2876 35.0992 62.0876 34.8991C61.8876 34.6991 61.6163 34.5867 61.3334 34.5867C61.0505 34.5867 60.7791 34.6991 60.5791 34.8991C60.3791 35.0992 60.2667 35.3705 60.2667 35.6534V47.8347C60.0108 47.7791 59.7499 47.7505 59.488 47.7494H59.4507C59.666 47.2792 59.777 46.7679 59.776 46.2507C59.7746 45.2856 59.3902 44.3604 58.7072 43.6784C58.0243 42.9964 57.0985 42.6134 56.1334 42.6134H54.4C55.486 42.1495 56.3785 41.3248 56.9266 40.2788C57.4747 39.2327 57.6447 38.0295 57.408 36.8725C57.1712 35.7156 56.5422 34.6759 55.6273 33.9292C54.7123 33.1825 53.5676 32.7747 52.3867 32.7747C51.2058 32.7747 50.0611 33.1825 49.1461 33.9292C48.2312 34.6759 47.6022 35.7156 47.3654 36.8725C47.1287 38.0295 47.2987 39.2327 47.8468 40.2788C48.3949 41.3248 49.2874 42.1495 50.3734 42.6134H44.5067V22.2507C45.4462 22.0451 46.3071 21.5746 46.9876 20.8951C47.6681 20.2155 48.1397 19.3552 48.3467 18.4161H56.4C56.6088 19.3544 57.081 20.2137 57.7613 20.8929C58.4415 21.5722 59.3014 22.0432 60.24 22.2507V25.6001C60.24 25.883 60.3524 26.1543 60.5524 26.3543C60.7525 26.5543 61.0238 26.6667 61.3067 26.6667C61.5896 26.6667 61.8609 26.5543 62.0609 26.3543C62.261 26.1543 62.3734 25.883 62.3734 25.6001V21.3334C62.3734 21.0505 62.261 20.7792 62.0609 20.5791C61.8609 20.3791 61.5896 20.2667 61.3067 20.2667C60.5424 20.2667 59.8093 19.9635 59.2683 19.4235C58.7274 18.8836 58.4228 18.151 58.4214 17.3867C58.4214 17.1038 58.309 16.8325 58.1089 16.6325C57.9089 16.4324 57.6376 16.3201 57.3547 16.3201H47.3814C47.0985 16.3201 46.8272 16.4324 46.6271 16.6325C46.4271 16.8325 46.3147 17.1038 46.3147 17.3867C46.3147 17.7649 46.2402 18.1394 46.0955 18.4889C45.9507 18.8383 45.7386 19.1558 45.4712 19.4232C45.2037 19.6906 44.8862 19.9028 44.5368 20.0475C44.1874 20.1922 43.8129 20.2667 43.4347 20.2667C43.1518 20.2667 42.8805 20.3791 42.6804 20.5791C42.4804 20.7792 42.368 21.0505 42.368 21.3334V42.6667H40.2667V12.6347H64.464V63.1681ZM52.3627 40.8854C51.772 40.8854 51.1945 40.7102 50.7034 40.382C50.2122 40.0539 49.8294 39.5874 49.6034 39.0417C49.3773 38.4959 49.3182 37.8954 49.4334 37.3161C49.5487 36.7367 49.8331 36.2045 50.2508 35.7868C50.6685 35.3691 51.2007 35.0847 51.78 34.9694C52.3594 34.8542 52.9599 34.9134 53.5056 35.1394C54.0514 35.3655 54.5178 35.7483 54.846 36.2394C55.1742 36.7306 55.3494 37.308 55.3494 37.8987C55.3494 38.6908 55.0347 39.4505 54.4746 40.0106C53.9145 40.5707 53.1548 40.8854 52.3627 40.8854Z" fill="#1D2B6B" stroke="#1D2B6B" stroke-width="0.25" stroke-miterlimit="10"/>
</svg>
