<svg width="70" height="70" viewBox="0 0 70 70" fill="none" xmlns="http://www.w3.org/2000/svg">
<path d="M18.6199 28.8913C18.6549 27.8806 19.081 26.9229 19.8084 26.2203C20.5358 25.5176 21.5076 25.1249 22.5189 25.1249C23.5303 25.1249 24.5021 25.5176 25.2295 26.2203C25.9569 26.9229 26.383 27.8806 26.4179 28.8913C26.4181 29.8717 26.468 30.8514 26.5673 31.8267H28.5599C29.1429 31.8267 29.702 31.5951 30.1142 31.1829C30.5264 30.7707 30.7579 30.2116 30.7579 29.6287V26.4553C30.7579 26.344 30.7799 26.2338 30.8227 26.131C30.8654 26.0282 30.9281 25.9349 31.007 25.8564C31.0859 25.7779 31.1796 25.7158 31.2826 25.6736C31.3856 25.6314 31.496 25.61 31.6073 25.6107H34.7759C35.342 25.5846 35.8762 25.3414 36.2675 24.9316C36.6589 24.5218 36.8773 23.977 36.8773 23.4103C36.8773 22.8437 36.6589 22.2988 36.2675 21.8891C35.8762 21.4793 35.342 21.2361 34.7759 21.21H31.6073C31.4964 21.2106 31.3864 21.1894 31.2837 21.1475C31.181 21.1056 31.0875 21.0439 31.0086 20.9659C30.9298 20.8879 30.867 20.7951 30.824 20.6929C30.781 20.5906 30.7586 20.4809 30.7579 20.37V17.192C30.7555 16.6098 30.5231 16.0522 30.1115 15.6405C29.6998 15.2288 29.1421 14.9964 28.5599 14.994H25.3866C25.1626 14.994 24.9477 14.905 24.7893 14.7466C24.6309 14.5882 24.5419 14.3733 24.5419 14.1493V10.976C24.5419 10.393 24.3104 9.83397 23.8982 9.42176C23.486 9.00956 22.9269 8.77798 22.3439 8.77798C21.761 8.77798 21.2019 9.00956 20.7897 9.42176C20.3775 9.83397 20.1459 10.393 20.1459 10.976V14.1493C20.1447 14.3738 20.0547 14.5886 19.8955 14.7469C19.7364 14.9051 19.5211 14.994 19.2966 14.994H16.1279C15.5457 14.9976 14.9883 15.2302 14.5761 15.6415C14.164 16.0528 13.9302 16.6097 13.9253 17.192V29.6287C13.9277 30.2117 14.1607 30.77 14.5734 31.1818C14.9861 31.5936 15.5449 31.8254 16.1279 31.8267H18.6199V28.8913ZM48.5333 38.318C48.329 39.5224 48.2198 40.7411 48.2066 41.9627C48.2066 44.2493 48.8506 48.4027 51.0066 49.8587C51.122 49.9352 51.2165 50.0393 51.2817 50.1615C51.3469 50.2837 51.3806 50.4202 51.3799 50.5587V52.7893H59.9573C60.4126 51.1293 61.0106 49.5117 61.7446 47.9547C63.0046 45.0893 64.316 42.112 64.316 36.4233C64.3395 33.3904 63.9197 30.3702 63.0699 27.4587C62.6398 25.9886 62.0284 24.5778 61.2499 23.2587V29.6287C61.245 30.6589 60.8333 31.6455 60.1043 32.3736C59.3753 33.1017 58.3882 33.5123 57.3579 33.516H55.7666V38.066C55.7666 38.29 55.6776 38.5049 55.5192 38.6633C55.3608 38.8217 55.146 38.9107 54.9219 38.9107C54.6979 38.9107 54.4831 38.8217 54.3247 38.6633C54.1663 38.5049 54.0773 38.29 54.0773 38.066V28.8913C54.0773 28.3047 53.8442 27.742 53.4294 27.3272C53.0146 26.9124 52.4519 26.6793 51.8653 26.6793C51.2786 26.6793 50.716 26.9124 50.3012 27.3272C49.8863 27.742 49.6533 28.3047 49.6533 28.8913C49.6129 31.4341 49.3396 33.9678 48.8366 36.4607L48.5333 38.318ZM55.7666 28.8913V31.8267H57.3579C57.9409 31.8254 58.4998 31.5936 58.9125 31.1818C59.3251 30.77 59.5582 30.2117 59.5606 29.6287V17.192C59.5557 16.6097 59.3219 16.0528 58.9098 15.6415C58.4976 15.2302 57.9402 14.9976 57.3579 14.994H54.1846C53.961 14.9928 53.7468 14.9034 53.5887 14.7452C53.4306 14.5871 53.3412 14.373 53.34 14.1493V10.976C53.3513 10.3981 53.1332 9.8393 52.7333 9.42199C52.4242 9.12318 52.0343 8.92137 51.6119 8.84144C51.1895 8.76151 50.7529 8.80696 50.356 8.97218C49.959 9.1374 49.6191 9.41516 49.3782 9.77123C49.1372 10.1273 49.0057 10.5461 48.9999 10.976V14.1493C49.0006 14.26 48.9793 14.3698 48.9374 14.4722C48.8954 14.5747 48.8336 14.6678 48.7556 14.7463C48.6775 14.8248 48.5847 14.8871 48.4825 14.9296C48.3803 14.9721 48.2706 14.994 48.1599 14.994H44.9399C44.3577 14.9976 43.8003 15.2302 43.3881 15.6415C42.976 16.0528 42.7422 16.6097 42.7373 17.192V19.5253H45.0706C46.0789 19.5603 47.0342 19.9853 47.7352 20.711C48.4361 21.4366 48.8279 22.4061 48.8279 23.415C48.8279 24.4239 48.4361 25.3934 47.7352 26.119C47.0342 26.8446 46.0789 27.2697 45.0706 27.3047H42.7373V29.638C42.7422 30.2194 42.9763 30.7753 43.3887 31.1851C43.8011 31.5949 44.3586 31.8254 44.9399 31.8267H47.8333C47.9219 30.8933 47.9826 29.932 47.9826 28.8913C48.0176 27.8806 48.4437 26.9229 49.1711 26.2203C49.8985 25.5176 50.8703 25.1249 51.8816 25.1249C52.893 25.1249 53.8648 25.5176 54.5922 26.2203C55.3195 26.9229 55.7456 27.8806 55.7806 28.8913H55.7666ZM18.6199 33.516H16.1279C15.0977 33.5123 14.1106 33.1017 13.3816 32.3736C12.6526 31.6455 12.2409 30.6589 12.2359 29.6287V24.8827C11.7466 25.9655 11.3501 27.088 11.0506 28.238C10.3776 30.9137 10.0482 33.6643 10.0706 36.4233C10.0706 42.112 11.3773 45.0893 12.6373 47.9547C13.3713 49.5117 13.9693 51.1293 14.4246 52.7893H23.0019V50.5587C23.0022 50.4198 23.0369 50.2832 23.1028 50.1611C23.1688 50.0389 23.264 49.935 23.3799 49.8587C25.5453 48.4027 26.1799 44.2587 26.1799 41.9627C26.1272 40.1133 25.9117 38.2722 25.5359 36.4607C25.0398 33.967 24.7712 31.4335 24.7333 28.8913C24.7071 28.3216 24.4624 27.7839 24.05 27.39C23.6376 26.9961 23.0892 26.7763 22.5189 26.7763C21.9487 26.7763 21.4003 26.9961 20.9879 27.39C20.5755 27.7839 20.3308 28.3216 20.3046 28.8913V38.066C20.3132 38.1819 20.2979 38.2983 20.2594 38.408C20.221 38.5177 20.1604 38.6182 20.0813 38.7034C20.0023 38.7886 19.9065 38.8565 19.8 38.903C19.6934 38.9494 19.5785 38.9734 19.4623 38.9734C19.3461 38.9734 19.2311 38.9494 19.1246 38.903C19.0181 38.8565 18.9223 38.7886 18.8432 38.7034C18.7642 38.6182 18.7035 38.5177 18.6651 38.408C18.6267 38.2983 18.6113 38.1819 18.6199 38.066V33.516ZM47.1893 36.176C47.3433 35.322 47.4973 34.44 47.6279 33.516H44.9399C43.9114 33.5123 42.9262 33.1011 42.2002 32.3725C41.4742 31.6439 41.0666 30.6572 41.0666 29.6287V26.4553C41.066 26.3442 41.0874 26.2341 41.1297 26.1314C41.1719 26.0286 41.2341 25.9352 41.3126 25.8567C41.3912 25.7781 41.4846 25.7159 41.5873 25.6737C41.6901 25.6315 41.8002 25.61 41.9113 25.6107H45.0799C45.646 25.5846 46.1802 25.3414 46.5715 24.9316C46.9629 24.5218 47.1813 23.977 47.1813 23.4103C47.1813 22.8437 46.9629 22.2988 46.5715 21.8891C46.1802 21.4793 45.646 21.2361 45.0799 21.21H41.8973C41.6761 21.2075 41.4649 21.1179 41.3093 20.9607C41.1538 20.8034 41.0666 20.5912 41.0666 20.37V17.192C41.0691 16.1618 41.4794 15.1744 42.2079 14.4459C42.9364 13.7175 43.9237 13.3071 44.9539 13.3047H47.2873V10.9713C47.3222 9.96303 47.7473 9.00771 48.4729 8.30677C49.1986 7.60584 50.1681 7.21407 51.1769 7.21407C52.1858 7.21407 53.1553 7.60584 53.8809 8.30677C54.6066 9.00771 55.0317 9.96303 55.0666 10.9713V13.3047H57.3999C58.4302 13.3083 59.4173 13.7189 60.1463 14.447C60.8753 15.1751 61.287 16.1617 61.2919 17.192V20.4587C62.6919 21.98 63.8913 24.2433 64.722 26.992C65.6184 30.0612 66.0633 33.2446 66.0426 36.442C66.0426 42.476 64.6426 45.6213 63.3313 48.65C62.6797 50.0401 62.1367 51.4787 61.7073 52.9527C62.5003 53.1822 63.1979 53.6621 63.6958 54.3206C64.1937 54.9792 64.4652 55.7811 64.4699 56.6067V63.56C64.4687 63.7844 64.3787 63.9993 64.2195 64.1576C64.0604 64.3158 63.8451 64.4047 63.6206 64.4047H61.2873C61.0633 64.4047 60.8484 64.3157 60.69 64.1573C60.5316 63.9989 60.4426 63.784 60.4426 63.56C60.4426 63.336 60.5316 63.1211 60.69 62.9627C60.8484 62.8043 61.0633 62.7153 61.2873 62.7153H62.7993V56.588C62.7968 56.0293 62.5738 55.4942 62.1788 55.0992C61.7837 54.7041 61.2486 54.4811 60.6899 54.4787H50.5539C49.9953 54.4811 49.4602 54.7041 49.0651 55.0992C48.6701 55.4942 48.4471 56.0293 48.4446 56.588V62.7153H52.7333C52.9573 62.7153 53.1721 62.8043 53.3306 62.9627C53.489 63.1211 53.5779 63.336 53.5779 63.56C53.5779 63.784 53.489 63.9989 53.3306 64.1573C53.1721 64.3157 52.9573 64.4047 52.7333 64.4047H47.5999C47.3755 64.4047 47.1602 64.3158 47.001 64.1576C46.8419 63.9993 46.7518 63.7844 46.7506 63.56V56.588C46.7507 56.0889 46.8497 55.5948 47.0419 55.1342C47.2342 54.6736 47.5158 54.2557 47.8706 53.9047C48.3735 53.3965 49.0116 53.0434 49.7093 52.8873V50.974C47.3059 48.986 46.5219 44.856 46.5219 41.9627C46.5354 40.6424 46.654 39.3254 46.8766 38.024L47.1893 36.176ZM23.9819 64.4C23.7579 64.4 23.5431 64.311 23.3847 64.1526C23.2263 63.9942 23.1373 63.7794 23.1373 63.5553C23.1373 63.3313 23.2263 63.1165 23.3847 62.9581C23.5431 62.7997 23.7579 62.7107 23.9819 62.7107H25.9559V56.588C25.9535 56.0293 25.7305 55.4942 25.3354 55.0992C24.9404 54.7041 24.4053 54.4811 23.8466 54.4787H13.7573C13.2018 54.486 12.6715 54.7112 12.2805 55.1057C11.8895 55.5002 11.669 56.0325 11.6666 56.588V62.7153H15.9599C16.184 62.7153 16.3988 62.8043 16.5572 62.9627C16.7156 63.1211 16.8046 63.336 16.8046 63.56C16.8046 63.784 16.7156 63.9989 16.5572 64.1573C16.3988 64.3157 16.184 64.4047 15.9599 64.4047H10.8033C10.6926 64.4047 10.583 64.3828 10.4807 64.3403C10.3785 64.2978 10.2857 64.2355 10.2076 64.157C10.1296 64.0785 10.0678 63.9853 10.0259 63.8829C9.98393 63.7804 9.96266 63.6707 9.96328 63.56V56.588C9.96287 56.0897 10.0608 55.5962 10.2513 55.1357C10.4419 54.6753 10.7215 54.2569 11.0739 53.9047C11.5311 53.4481 12.0961 53.1142 12.7166 52.934C12.2908 51.4594 11.7493 50.0208 11.0973 48.6313C9.76261 45.6027 8.39994 42.4667 8.39994 36.4233C8.37039 33.518 8.71546 30.6211 9.42661 27.804C9.96142 25.5659 10.9112 23.448 12.2266 21.56V17.192C12.2315 16.1617 12.6433 15.1751 13.3723 14.447C14.1012 13.7189 15.0883 13.3083 16.1186 13.3047H18.4519V10.9713C18.4519 9.94033 18.8615 8.95157 19.5905 8.22256C20.3195 7.49354 21.3083 7.08398 22.3393 7.08398C23.3703 7.08398 24.359 7.49354 25.088 8.22256C25.8171 8.95157 26.2266 9.94033 26.2266 10.9713V13.3047H28.5599C29.5894 13.3096 30.5753 13.7207 31.3033 14.4486C32.0312 15.1766 32.4424 16.1625 32.4473 17.192V19.5253H34.7806C35.7889 19.5603 36.7442 19.9853 37.4452 20.711C38.1461 21.4366 38.5379 22.4061 38.5379 23.415C38.5379 24.4239 38.1461 25.3934 37.4452 26.119C36.7442 26.8446 35.7889 27.2697 34.7806 27.3047H32.4473V29.638C32.4424 30.6675 32.0312 31.6534 31.3033 32.3813C30.5753 33.1093 29.5894 33.5204 28.5599 33.5253H26.7726C26.9033 34.4587 27.0573 35.3313 27.2066 36.1853C27.6027 38.0903 27.8276 40.0269 27.8786 41.972C27.8786 44.8653 27.0946 48.972 24.6913 50.9833V52.8967C25.3889 53.0527 26.0271 53.4058 26.5299 53.914C26.8831 54.266 27.1633 54.6842 27.3547 55.1446C27.5461 55.6051 27.6448 56.0987 27.6453 56.5973V63.56C27.6453 63.7832 27.5569 63.9973 27.3995 64.1556C27.2421 64.3139 27.0285 64.4034 26.8053 64.4047L23.9819 64.4Z" fill="#1D2B6B" stroke="#1D2B6B" stroke-width="0.5" stroke-miterlimit="10"/>
<path d="M57.8667 62.9347C57.6889 62.7626 57.4516 62.6656 57.2041 62.6641C56.9565 62.6641 56.7192 62.7624 56.5441 62.9374C56.3691 63.1125 56.2708 63.3499 56.2708 63.5974C56.2708 63.8449 56.3691 64.0823 56.5441 64.2574C56.7192 64.4324 56.9565 64.5307 57.2041 64.5307C57.4516 64.5307 57.689 64.4324 57.8641 64.2574C58.0391 64.0823 58.1374 63.8449 58.1374 63.5974C58.1359 63.3499 58.0389 63.1125 57.8667 62.9347Z" fill="#1D2B6B"/>
<path d="M21.1214 62.9347C20.9436 62.7626 20.7062 62.6656 20.4587 62.6641C20.2112 62.6641 19.9738 62.7624 19.7988 62.9374C19.6237 63.1125 19.5254 63.3499 19.5254 63.5974C19.5254 63.8449 19.6237 64.0823 19.7988 64.2574C19.9738 64.4324 20.2112 64.5307 20.4587 64.5307C20.7063 64.5307 20.9437 64.4324 21.1187 64.2574C21.2937 64.0823 21.3921 63.8449 21.3921 63.5974C21.3905 63.3499 21.2936 63.1125 21.1214 62.9347Z" fill="#1D2B6B"/>
</svg>
