<svg width="93" height="93" viewBox="0 0 93 93" fill="none" xmlns="http://www.w3.org/2000/svg">
<path d="M48.9799 66.1416H43.9827C43.8063 66.1294 43.6292 66.1535 43.4625 66.2126C43.2957 66.2717 43.143 66.3645 43.0136 66.4852C42.8843 66.6058 42.7812 66.7518 42.7107 66.914C42.6401 67.0763 42.6038 67.2512 42.6038 67.4281C42.6038 67.605 42.6401 67.78 42.7107 67.9422C42.7812 68.1044 42.8843 68.2504 43.0136 68.3711C43.143 68.4917 43.2957 68.5845 43.4625 68.6436C43.6292 68.7027 43.8063 68.7269 43.9827 68.7146H48.9799C49.3515 68.7146 49.7079 68.8622 49.9707 69.125C50.2335 69.3878 50.3811 69.7442 50.3811 70.1158C50.3811 70.4874 50.2335 70.8438 49.9707 71.1066C49.7079 71.3694 49.3515 71.517 48.9799 71.517H35.5259C34.53 71.5182 33.5462 71.2993 32.6448 70.8759C31.7434 70.4526 30.9467 69.8352 30.3117 69.068L27.0939 65.1992C26.2445 64.1788 25.1877 63.3509 23.9936 62.7704C22.7996 62.1899 21.4957 61.8703 20.1685 61.8326V54.2252H24.9115C27.226 54.2307 29.4482 55.133 31.1115 56.7424L38.0555 63.4446C38.3022 63.6748 38.4473 63.9936 38.4589 64.3308C38.4705 64.668 38.3477 64.996 38.1175 65.2426C37.8873 65.4893 37.5685 65.6344 37.2314 65.646C36.8942 65.6576 36.5662 65.5348 36.3195 65.3046L30.8697 60.3074C30.7451 60.1934 30.5993 60.1051 30.4406 60.0475C30.2819 59.9898 30.1134 59.964 29.9447 59.9715C29.776 59.979 29.6105 60.0196 29.4575 60.0911C29.3045 60.1625 29.1671 60.2634 29.0531 60.388C28.9391 60.5126 28.8508 60.6584 28.7932 60.8171C28.7355 60.9758 28.7097 61.1443 28.7172 61.313C28.7247 61.4817 28.7653 61.6473 28.8368 61.8002C28.9082 61.9532 29.0091 62.0906 29.1337 62.2046L34.5835 67.2018C35.2968 67.8554 36.2325 68.2124 37.1999 68.2C37.9648 68.2009 38.7126 67.9732 39.3472 67.5461C39.9818 67.119 40.4743 66.5121 40.7615 65.8031C41.0487 65.0941 41.1174 64.3155 40.959 63.5672C40.8005 62.8188 40.422 62.1349 39.8721 61.6032L32.9343 54.8948C30.7841 52.8108 27.9059 51.6475 24.9115 51.6522H19.9143C19.6706 51.0739 19.2619 50.5802 18.7392 50.2329C18.2165 49.8855 17.6031 49.6999 16.9755 49.6992H10.9119C10.5699 49.6992 10.2419 49.8351 10 50.0769C9.75818 50.3188 9.62231 50.6468 9.62231 50.9888V60.4004C9.62231 60.5698 9.65567 60.7375 9.72048 60.8939C9.78529 61.0504 9.88028 61.1926 10 61.3123C10.1198 61.4321 10.2619 61.527 10.4184 61.5919C10.5749 61.6567 10.7426 61.69 10.9119 61.69C11.0813 61.69 11.249 61.6567 11.4054 61.5919C11.5619 61.527 11.704 61.4321 11.8238 61.3123C11.9435 61.1926 12.0385 61.0504 12.1033 60.8939C12.1682 60.7375 12.2015 60.5698 12.2015 60.4004V52.2722H16.9755C17.1399 52.2722 17.2976 52.3375 17.4139 52.4538C17.5302 52.5701 17.5955 52.7278 17.5955 52.8922V63.24C17.5955 63.4045 17.5302 63.5622 17.4139 63.6784C17.2976 63.7947 17.1399 63.86 16.9755 63.86H15.6363C15.3105 63.8827 15.0055 64.028 14.7827 64.2668C14.56 64.5056 14.4361 64.82 14.4361 65.1465C14.4361 65.4731 14.56 65.7875 14.7827 66.0262C15.0055 66.265 15.3105 66.4104 15.6363 66.433H16.9755C17.6114 66.4333 18.2328 66.2433 18.7598 65.8875C19.2868 65.5318 19.6954 65.0265 19.9329 64.4366C20.9224 64.4434 21.8985 64.6654 22.7935 65.0873C23.6885 65.5091 24.4811 66.1206 25.1161 66.8794L28.3277 70.7482C29.2084 71.7998 30.31 72.6444 31.5541 73.2219C32.7982 73.7995 34.1543 74.0959 35.5259 74.09H48.9799C50.0339 74.09 51.0448 73.6713 51.7901 72.926C52.5354 72.1807 52.9541 71.1698 52.9541 70.1158C52.9541 69.0618 52.5354 68.0509 51.7901 67.3056C51.0448 66.5603 50.0339 66.1416 48.9799 66.1416Z" fill="#1D2B6B"/>
<path d="M74.2822 30.2374C73.9412 30.2374 73.6142 30.3724 73.3725 30.6129C73.1308 30.8534 72.9942 31.1798 72.9926 31.5208V40.1574H68.2C68.0356 40.1574 67.8779 40.0921 67.7616 39.9758C67.6453 39.8595 67.58 39.7018 67.58 39.5374V29.2144C67.58 29.0499 67.6453 28.8922 67.7616 28.776C67.8779 28.6597 68.0356 28.5944 68.2 28.5944H69.44C69.6227 28.6199 69.8087 28.6059 69.9855 28.5534C70.1622 28.501 70.3257 28.4111 70.4649 28.2901C70.604 28.169 70.7156 28.0196 70.792 27.8517C70.8684 27.6839 70.908 27.5016 70.908 27.3172C70.908 27.1328 70.8684 26.9505 70.792 26.7826C70.7156 26.6148 70.604 26.4653 70.4649 26.3443C70.3257 26.2232 70.1622 26.1334 69.9855 26.0809C69.8087 26.0284 69.6227 26.0145 69.44 26.04H68.2C67.5634 26.0402 66.9414 26.2302 66.4135 26.5859C65.8856 26.9415 65.4757 27.4465 65.2364 28.0364C64.2476 28.0312 63.2719 27.8098 62.3776 27.3879C61.4833 26.9659 60.6921 26.3535 60.0594 25.5936L56.8602 21.7C55.9848 20.6416 54.8859 19.7902 53.6424 19.2071C52.3989 18.6239 51.0417 18.3234 49.6682 18.3272H36.2142C35.1602 18.3272 34.1493 18.7459 33.404 19.4912C32.6587 20.2365 32.24 21.2474 32.24 22.3014C32.24 23.3554 32.6587 24.3663 33.404 25.1116C34.1493 25.8569 35.1602 26.2756 36.2142 26.2756H41.7136C41.89 26.2878 42.0671 26.2637 42.2339 26.2046C42.4006 26.1455 42.5533 26.0527 42.6827 25.932C42.812 25.8114 42.9151 25.6654 42.9857 25.5032C43.0562 25.341 43.0926 25.166 43.0926 24.9891C43.0926 24.8122 43.0562 24.6372 42.9857 24.475C42.9151 24.3128 42.812 24.1668 42.6827 24.0461C42.5533 23.9255 42.4006 23.8327 42.2339 23.7736C42.0671 23.7145 41.89 23.6903 41.7136 23.7026H36.2142C35.8426 23.7026 35.4862 23.555 35.2234 23.2922C34.9606 23.0294 34.813 22.673 34.813 22.3014C34.813 21.9298 34.9606 21.5734 35.2234 21.3106C35.4862 21.0478 35.8426 20.9002 36.2142 20.9002H49.6682C50.6665 20.9028 51.6519 21.1265 52.5535 21.5553C53.4551 21.9841 54.2504 22.6073 54.8824 23.3802L58.1002 27.249C58.9496 28.2694 60.0064 29.0973 61.2005 29.6778C62.3945 30.2583 63.6985 30.5779 65.0256 30.6156V38.2044H60.2826C57.9669 38.1991 55.7438 37.2943 54.0826 35.681L47.12 28.985C46.8733 28.7556 46.7279 28.4376 46.7157 28.101C46.7035 27.7644 46.8255 27.4367 47.0549 27.1901C47.2843 26.9434 47.6023 26.798 47.9389 26.7858C48.2755 26.7736 48.6031 26.8956 48.8498 27.125L54.3058 32.1222C54.5574 32.3524 54.8901 32.4732 55.2308 32.4581C55.5715 32.443 55.8922 32.2932 56.1224 32.0416C56.3526 31.79 56.4734 31.4573 56.4583 31.1166C56.4432 30.7759 56.2934 30.4552 56.0418 30.225L50.592 25.2278C49.8451 24.5707 48.8723 24.2292 47.8785 24.2754C46.8848 24.3217 45.9479 24.752 45.2652 25.4756C44.5826 26.1993 44.2076 27.1597 44.2194 28.1544C44.2311 29.1492 44.6287 30.1005 45.3282 30.8078L52.2722 37.51C54.4224 39.594 57.3006 40.7573 60.295 40.7526H65.255C65.4967 41.3355 65.9051 41.8342 66.4289 42.186C66.9528 42.5379 67.5689 42.7272 68.2 42.7304H74.2636C74.6045 42.7287 74.931 42.5921 75.1715 42.3505C75.412 42.1088 75.547 41.7817 75.547 41.4408V31.5208C75.547 31.1836 75.4144 30.8599 75.1777 30.6198C74.941 30.3796 74.6193 30.2423 74.2822 30.2374Z" fill="#1D2B6B"/>
<path d="M51.2059 62.1364C51.1055 61.929 50.9516 61.7521 50.7601 61.6239C50.5685 61.4957 50.3463 61.421 50.1163 61.4073C49.8862 61.3936 49.6567 61.4416 49.4513 61.5462C49.246 61.6508 49.0723 61.8082 48.948 62.0023C48.8238 62.1964 48.7536 62.4202 48.7446 62.6504C48.7357 62.8807 48.7883 63.1092 48.897 63.3124C49.0058 63.5156 49.1668 63.686 49.3634 63.8063C49.56 63.9265 49.7851 63.9922 50.0155 63.9964C50.193 63.9965 50.3685 63.9584 50.5301 63.8848C50.6925 63.8184 50.8396 63.7195 50.9625 63.5942C51.0853 63.4689 51.1813 63.3199 51.2446 63.1562C51.3079 62.9925 51.3371 62.8177 51.3304 62.6423C51.3237 62.467 51.2814 62.2948 51.2059 62.1364Z" fill="#1D2B6B"/>
<path d="M54.4049 59.9726C54.1969 59.7133 53.8967 59.5443 53.567 59.501C53.2373 59.4577 52.9037 59.5433 52.6357 59.7401C52.3677 59.9369 52.1861 60.2297 52.1287 60.5572C52.0714 60.8847 52.1427 61.2217 52.3279 61.4978C52.4443 61.6636 52.5996 61.7982 52.7801 61.8901C52.9606 61.982 53.1608 62.0282 53.3633 62.0248C53.6374 62.0253 53.9045 61.9384 54.1259 61.7768C54.2642 61.6779 54.3813 61.5523 54.4704 61.4075C54.5595 61.2626 54.6188 61.1015 54.6448 60.9334C54.6708 60.7654 54.663 60.5938 54.6218 60.4288C54.5806 60.2638 54.5068 60.1088 54.4049 59.9726Z" fill="#1D2B6B"/>
<path d="M47.6037 63.5871C47.5541 63.3457 47.4368 63.1236 47.2654 62.9465C47.0941 62.7695 46.8758 62.645 46.6362 62.5876C46.3966 62.5303 46.1457 62.5424 45.9127 62.6225C45.6798 62.7027 45.4745 62.8476 45.321 63.0403C45.1674 63.233 45.072 63.4654 45.0459 63.7104C45.0198 63.9554 45.064 64.2027 45.1734 64.4234C45.2829 64.6442 45.453 64.8291 45.6638 64.9566C45.8746 65.0841 46.1174 65.1488 46.3637 65.1433C46.444 65.1524 46.5251 65.1524 46.6055 65.1433H46.6427C46.8086 65.1054 46.9654 65.0349 47.1038 64.9358C47.2422 64.8368 47.3596 64.7112 47.449 64.5664C47.5385 64.4216 47.5982 64.2604 47.6247 64.0923C47.6513 63.9241 47.6441 63.7524 47.6037 63.5871Z" fill="#1D2B6B"/>
<path d="M57.0957 57.1702C56.9705 57.0567 56.8241 56.969 56.6649 56.9123C56.5057 56.8555 56.3368 56.8307 56.168 56.8393C55.9993 56.848 55.8338 56.8899 55.6813 56.9626C55.5287 57.0354 55.392 57.1375 55.2791 57.2632C55.0566 57.5224 54.9461 57.8592 54.9716 58.1997C54.9972 58.5403 55.1568 58.8568 55.4155 59.0798C55.6734 59.3003 56.0075 59.4108 56.346 59.3876C56.6845 59.3644 57.0004 59.2094 57.2259 58.9558C57.4396 58.6992 57.5454 58.3698 57.5211 58.0367C57.4968 57.7037 57.3443 57.3931 57.0957 57.1702ZM56.3765 58.28L56.2339 58.1498L56.4199 58.28H56.3765Z" fill="#1D2B6B"/>
<path d="M60.3755 50.22C60.0467 50.1197 59.6914 50.1541 59.3879 50.3157C59.0845 50.4773 58.8576 50.7529 58.7573 51.0818C58.657 51.4106 58.6915 51.7659 58.8531 52.0693C59.0147 52.3728 59.2903 52.5997 59.6191 52.7C59.7419 52.7366 59.8692 52.7554 59.9973 52.7558C60.2737 52.7577 60.5434 52.6708 60.7667 52.5078C60.9899 52.3448 61.1549 52.1144 61.2373 51.8506C61.2898 51.687 61.3091 51.5145 61.294 51.3434C61.279 51.1722 61.2298 51.0058 61.1496 50.8539C61.0693 50.702 60.9594 50.5677 60.8265 50.4588C60.6936 50.35 60.5403 50.2687 60.3755 50.22Z" fill="#1D2B6B"/>
<path d="M61.9999 43.5426C61.9999 43.5426 61.9999 43.5426 61.9999 43.493C61.8844 43.2151 61.6753 42.9864 61.4089 42.8464C61.1424 42.7065 60.8355 42.6641 60.5411 42.7267C60.2467 42.7892 59.9835 42.9528 59.797 43.189C59.6105 43.4252 59.5125 43.7192 59.5199 44.02C59.5753 44.3103 59.7286 44.5728 59.9544 44.7636C60.1801 44.9543 60.4645 45.0617 60.7599 45.0679C60.8361 45.077 60.9131 45.077 60.9893 45.0679C61.1561 45.0346 61.3146 44.9686 61.4558 44.8738C61.597 44.779 61.718 44.6573 61.8119 44.5155C61.9059 44.3737 61.9708 44.2148 62.0031 44.0479C62.0354 43.8809 62.0343 43.7092 61.9999 43.5426Z" fill="#1D2B6B"/>
<path d="M60.8407 46.3387C60.672 46.3234 60.502 46.3416 60.3404 46.3923C60.1788 46.443 60.0289 46.5252 59.8992 46.6342C59.7695 46.7431 59.6627 46.8766 59.5849 47.027C59.507 47.1774 59.4597 47.3417 59.4457 47.5105V47.5601C59.4348 47.7314 59.4585 47.9031 59.5155 48.0651C59.5725 48.227 59.6615 48.3757 59.7772 48.5025C59.893 48.6292 60.0331 48.7313 60.1892 48.8027C60.3452 48.8741 60.5141 48.9133 60.6857 48.9179H60.7601C61.0916 48.9143 61.4091 48.7837 61.6473 48.5531C61.8855 48.3225 62.0262 48.0093 62.0405 47.6781C62.0548 47.3469 61.9416 47.0227 61.7242 46.7724C61.5067 46.5221 61.2017 46.3647 60.8717 46.3325L60.8407 46.3387Z" fill="#1D2B6B"/>
<path d="M59.1108 53.8531C58.8131 53.6858 58.4612 53.6434 58.1322 53.7352C57.8033 53.8271 57.5242 54.0456 57.3562 54.3429C57.195 54.6442 57.1593 54.9969 57.2568 55.3243C57.3543 55.6518 57.5772 55.9274 57.877 56.0913C58.066 56.1985 58.2798 56.254 58.497 56.2525C58.7278 56.2521 58.9543 56.1898 59.1528 56.072C59.3512 55.9542 59.5145 55.7853 59.6254 55.5829L58.5032 54.9629L59.6254 55.5829C59.783 55.2846 59.8173 54.9364 59.7211 54.613C59.6249 54.2896 59.4058 54.0168 59.1108 53.8531Z" fill="#1D2B6B"/>
<path d="M35.7553 29.3321C35.6808 29.1803 35.5769 29.0448 35.4497 28.9335C35.3224 28.8222 35.1743 28.7373 35.014 28.6837C34.8536 28.63 34.6843 28.6087 34.5156 28.6211C34.347 28.6334 34.1825 28.6791 34.0317 28.7555C33.8066 28.8712 33.6207 29.0508 33.4975 29.2719C33.3742 29.4929 33.319 29.7455 33.3389 29.9978C33.3588 30.2501 33.4528 30.4909 33.6092 30.6899C33.7656 30.8889 33.9773 31.0372 34.2177 31.1162C34.4582 31.1952 34.7166 31.2014 34.9605 31.1339C35.2045 31.0664 35.423 30.9283 35.5887 30.737C35.7543 30.5456 35.8597 30.3096 35.8915 30.0585C35.9234 29.8074 35.8803 29.5525 35.7677 29.3259L35.7553 29.3321Z" fill="#1D2B6B"/>
<path d="M39.4815 28.2534C39.4416 28.0891 39.3696 27.9344 39.2697 27.798C39.1697 27.6616 39.0438 27.5464 38.8992 27.4588C38.7546 27.3712 38.5942 27.3131 38.427 27.2877C38.2599 27.2624 38.0894 27.2703 37.9253 27.311C37.6245 27.3909 37.3627 27.577 37.1882 27.8348C37.0138 28.0926 36.9386 28.4048 36.9763 28.7138C37.0141 29.0228 37.1624 29.3077 37.3938 29.516C37.6252 29.7242 37.9241 29.8417 38.2353 29.8468C38.3443 29.848 38.4529 29.8334 38.5577 29.8034C38.8847 29.7186 39.1651 29.5083 39.338 29.2181C39.5109 28.928 39.5625 28.5813 39.4815 28.2534Z" fill="#1D2B6B"/>
<path d="M32.3517 31.186C32.1359 30.9219 31.8242 30.754 31.4849 30.7192C31.1456 30.6843 30.8063 30.7853 30.5413 31L31.3411 32.0044L30.5351 31C30.285 31.2184 30.1288 31.5247 30.099 31.8554C30.0691 32.186 30.1679 32.5154 30.3748 32.7751C30.5817 33.0347 30.8808 33.2045 31.2097 33.2492C31.5387 33.2939 31.8722 33.21 32.1409 33.015C32.2762 32.9097 32.3892 32.7786 32.4732 32.6291C32.5572 32.4797 32.6106 32.315 32.6302 32.1447C32.6499 31.9744 32.6353 31.8019 32.5875 31.6373C32.5397 31.4727 32.4595 31.3193 32.3517 31.186Z" fill="#1D2B6B"/>
<path d="M25.4882 40.3497C25.3249 40.3046 25.1544 40.2924 24.9863 40.3135C24.8183 40.3347 24.6562 40.389 24.5092 40.4731C24.3622 40.5572 24.2334 40.6696 24.1301 40.8038C24.0267 40.938 23.951 41.0913 23.9072 41.2549C23.9051 41.2693 23.9051 41.2839 23.9072 41.2983C23.8665 41.4623 23.8585 41.6328 23.8839 41.8C23.9093 41.9671 23.9674 42.1276 24.055 42.2722C24.1426 42.4168 24.2578 42.5427 24.3942 42.6426C24.5305 42.7425 24.6853 42.8145 24.8496 42.8545C24.9511 42.879 25.0551 42.8915 25.1596 42.8917C25.471 42.8883 25.7708 42.773 26.0041 42.5667C26.2374 42.3603 26.3886 42.0769 26.43 41.7682C26.4714 41.4595 26.4003 41.1463 26.2296 40.8858C26.0589 40.6253 25.8001 40.435 25.5006 40.3497H25.4882Z" fill="#1D2B6B"/>
<path d="M24.6635 44.1315C24.4926 44.1223 24.3216 44.1473 24.1604 44.2049C23.9992 44.2625 23.8511 44.3516 23.7248 44.467C23.5984 44.5824 23.4962 44.7218 23.4243 44.8771C23.3523 45.0324 23.312 45.2005 23.3057 45.3715V45.4211C23.2999 45.5893 23.3274 45.7571 23.3867 45.9147C23.446 46.0722 23.5358 46.2165 23.651 46.3393C23.7663 46.462 23.9047 46.5607 24.0582 46.6298C24.2117 46.6988 24.3774 46.7369 24.5457 46.7417H24.5829C24.9123 46.7304 25.225 46.5941 25.4574 46.3604C25.6898 46.1268 25.8244 45.8133 25.8339 45.4839C25.8434 45.1545 25.727 44.8338 25.5084 44.5872C25.2898 44.3406 24.9855 44.1865 24.6573 44.1563L24.6635 44.1315Z" fill="#1D2B6B"/>
<path d="M27.1064 36.828C26.9567 36.7494 26.7929 36.7012 26.6245 36.686C26.456 36.6709 26.2863 36.6893 26.125 36.74C25.9636 36.7907 25.8139 36.8727 25.6844 36.9815C25.5549 37.0902 25.4482 37.2235 25.3704 37.3736V37.4108C25.2204 37.7176 25.1981 38.0713 25.3085 38.3944C25.419 38.7175 25.653 38.9836 25.9594 39.1344C26.134 39.2239 26.3274 39.2706 26.5236 39.2708C26.8147 39.2747 27.0987 39.1804 27.3297 39.0032C27.5607 38.826 27.7252 38.5761 27.7969 38.2939C27.8685 38.0117 27.843 37.7136 27.7245 37.4476C27.606 37.1817 27.4013 36.9634 27.1436 36.828H27.1064Z" fill="#1D2B6B"/>
<path d="M29.4313 33.7343C29.3019 33.6253 29.1522 33.5432 28.9908 33.4926C28.8294 33.442 28.6595 33.4239 28.4911 33.4395C28.3227 33.4551 28.159 33.504 28.0096 33.5833C27.8603 33.6626 27.7281 33.7708 27.6209 33.9017C27.4676 34.102 27.3765 34.3428 27.3587 34.5944C27.3409 34.8459 27.3973 35.0972 27.5208 35.3171C27.6444 35.537 27.8297 35.7158 28.0538 35.8314C28.2779 35.947 28.5311 35.9944 28.7819 35.9677C29.0326 35.9409 29.2701 35.8412 29.4648 35.6809C29.6595 35.5206 29.8029 35.3067 29.8773 35.0657C29.9517 34.8247 29.9538 34.5672 29.8833 34.3251C29.8129 34.0829 29.673 33.8667 29.4809 33.7033L29.4313 33.7343Z" fill="#1D2B6B"/>
<path d="M26.1207 49.0545C26.0462 48.7323 25.8507 48.4511 25.5747 48.269C25.2987 48.0868 24.9633 48.0176 24.6377 48.0757C24.3122 48.1338 24.0214 48.3148 23.8255 48.5812C23.6295 48.8476 23.5434 49.179 23.5849 49.5071C23.639 49.7985 23.7918 50.0624 24.0177 50.2544C24.2435 50.4464 24.5286 50.5547 24.8249 50.5611C24.9013 50.5672 24.978 50.5672 25.0543 50.5611C25.2234 50.5326 25.3853 50.471 25.5305 50.3797C25.6758 50.2885 25.8015 50.1694 25.9006 50.0294C25.9997 49.8894 26.0702 49.7312 26.1079 49.5639C26.1457 49.3966 26.1501 49.2235 26.1207 49.0545Z" fill="#1D2B6B"/>
<path d="M47.0208 39.277C46.2089 39.2757 45.4053 39.44 44.6591 39.7598C43.9129 40.0796 43.2397 40.5482 42.6808 41.137C42.1227 40.5339 41.4464 40.0522 40.694 39.7219C39.9416 39.3916 39.1292 39.2198 38.3075 39.2173C37.4858 39.2148 36.6723 39.3816 35.9179 39.7072C35.1635 40.0329 34.4842 40.5105 33.9225 41.1102C33.3608 41.71 32.9286 42.419 32.6529 43.1931C32.3772 43.9672 32.264 44.7897 32.3202 45.6095C32.3764 46.4293 32.6008 47.2288 32.9796 47.958C33.3583 48.6872 33.8832 49.3306 34.5216 49.848L41.8562 55.6574C42.084 55.8374 42.3657 55.9357 42.656 55.9365C42.95 55.9399 43.2356 55.8389 43.462 55.6513L51.1314 49.6C51.1714 49.5703 51.2088 49.5371 51.243 49.5008C52.0815 48.6657 52.6532 47.6003 52.8856 46.4399C53.118 45.2795 53.0006 44.0762 52.5484 42.9825C52.0962 41.8888 51.3295 40.954 50.3454 40.2965C49.3614 39.6391 48.2043 39.2886 47.0208 39.2894V39.277ZM49.5008 47.6222L42.6808 53.0286L36.1584 47.864C35.7634 47.5325 35.4489 47.1155 35.2386 46.6446C35.0284 46.1738 34.9279 45.6613 34.9447 45.1458C34.9616 44.6304 35.0953 44.1256 35.3358 43.6694C35.5763 43.2132 35.9174 42.8177 36.3331 42.5126C36.7489 42.2075 37.2286 42.0009 37.7359 41.9084C38.2432 41.8158 38.765 41.8398 39.2617 41.9784C39.7584 42.117 40.2171 42.3667 40.6032 42.7086C40.9893 43.0504 41.2927 43.4756 41.4904 43.9518C41.586 44.1892 41.7505 44.3926 41.9626 44.5358C42.1747 44.6791 42.4248 44.7556 42.6808 44.7556C42.9367 44.7556 43.1868 44.6791 43.3989 44.5358C43.6111 44.3926 43.7755 44.1892 43.8712 43.9518C44.061 43.4862 44.3516 43.0684 44.7222 42.7285C45.0927 42.3886 45.534 42.135 46.0142 41.986C46.4944 41.8369 47.0017 41.7961 47.4996 41.8665C47.9975 41.9369 48.4736 42.1167 48.8937 42.393C49.3138 42.6694 49.6674 43.0353 49.9292 43.4647C50.191 43.894 50.3544 44.3759 50.4078 44.8759C50.4611 45.3759 50.4029 45.8815 50.2375 46.3564C50.0721 46.8312 49.8036 47.2636 49.4512 47.6222H49.5008Z" fill="#1D2B6B"/>
<path d="M10.9121 66.402C11.6209 66.402 12.1955 65.8274 12.1955 65.1186C12.1955 64.4098 11.6209 63.8352 10.9121 63.8352C10.2033 63.8352 9.62866 64.4098 9.62866 65.1186C9.62866 65.8274 10.2033 66.402 10.9121 66.402Z" fill="#1D2B6B"/>
<path d="M74.2822 28.5944C74.991 28.5944 75.5656 28.0198 75.5656 27.311C75.5656 26.6022 74.991 26.0276 74.2822 26.0276C73.5734 26.0276 72.9988 26.6022 72.9988 27.311C72.9988 28.0198 73.5734 28.5944 74.2822 28.5944Z" fill="#1D2B6B"/>
</svg>
