<svg width="81" height="80" viewBox="0 0 81 80" fill="none" xmlns="http://www.w3.org/2000/svg">
<path d="M53.8435 9.90943L20.1907 7.68543C19.6635 7.65318 19.1448 7.82786 18.7473 8.17145C18.3499 8.51504 18.1059 8.99974 18.0685 9.52009L17.8201 13.4081H13.3327C12.8047 13.4095 12.2987 13.6173 11.9253 13.9861C11.5519 14.3548 11.3415 14.8546 11.3401 15.3761V63.2428C11.3415 63.7643 11.5519 64.264 11.9253 64.6328C12.2987 65.0016 12.8047 65.2094 13.3327 65.2108H39.0907C39.317 65.2104 39.5342 65.1223 39.6955 64.9654L43.5835 61.1414H43.7023L50.3443 61.5788C50.8682 61.6015 51.3809 61.4242 51.7761 61.0836C52.1712 60.743 52.4184 60.2652 52.4665 59.7494L55.7065 11.9894C55.7363 11.4694 55.5584 10.9586 55.2111 10.5667C54.8638 10.1748 54.3747 9.93309 53.8489 9.89343L53.8435 9.90943ZM39.9601 62.3254V56.4588C39.9594 56.4219 39.9661 56.3853 39.9799 56.351C39.9937 56.3167 40.0143 56.2855 40.0404 56.2592C40.0665 56.2329 40.0977 56.212 40.1322 56.1977C40.1666 56.1834 40.2036 56.1761 40.2409 56.1761H46.1809L39.9601 62.3254ZM50.7601 59.6588C50.7545 59.7328 50.7197 59.8018 50.6631 59.8507C50.6065 59.8996 50.5327 59.9245 50.4577 59.9201L45.1873 59.5681L48.8053 56.0161C48.9631 55.8562 49.0522 55.6421 49.0537 55.4188V15.3761C49.0537 15.1177 49.0021 14.8617 48.902 14.623C48.8019 14.3842 48.6551 14.1673 48.4701 13.9845C48.285 13.8018 48.0654 13.6568 47.8236 13.5579C47.5819 13.459 47.3228 13.4081 47.0611 13.4081H38.1781C37.9518 13.4081 37.7348 13.4969 37.5748 13.6549C37.4148 13.8129 37.3249 14.0273 37.3249 14.2508C37.3249 14.4743 37.4148 14.6886 37.5748 14.8466C37.7348 15.0046 37.9518 15.0934 38.1781 15.0934H47.0611C47.137 15.0934 47.2098 15.1232 47.2635 15.1762C47.3171 15.2292 47.3473 15.3011 47.3473 15.3761V54.4961H40.2301C39.7016 54.4961 39.1948 54.7034 38.8211 55.0725C38.4474 55.4416 38.2375 55.9422 38.2375 56.4641V63.5201H13.3327C13.2954 63.5208 13.2583 63.5142 13.2236 63.5005C13.1889 63.4869 13.1573 63.4666 13.1306 63.4408C13.104 63.415 13.0828 63.3841 13.0684 63.3501C13.0539 63.3161 13.0465 63.2796 13.0465 63.2428V15.3761C13.0465 15.3011 13.0766 15.2292 13.1303 15.1762C13.184 15.1232 13.2568 15.0934 13.3327 15.0934H27.1459C27.3722 15.0934 27.5892 15.0046 27.7492 14.8466C27.9092 14.6886 27.9991 14.4743 27.9991 14.2508C27.9991 14.0273 27.9092 13.8129 27.7492 13.6549C27.5892 13.4969 27.3722 13.4081 27.1459 13.4081H19.5211L19.7749 9.63209C19.7804 9.55803 19.8153 9.4891 19.8718 9.4402C19.9284 9.3913 20.0022 9.36636 20.0773 9.37076L53.7301 11.5948C53.8051 11.6002 53.8749 11.6346 53.9244 11.6905C53.9739 11.7464 53.9991 11.8193 53.9947 11.8934L50.7601 59.6588Z" fill="#1D2B6B" stroke="#1D2B6B" stroke-width="0.3" stroke-miterlimit="10"/>
<path d="M41.8446 34.3147H18.549C18.3227 34.3147 18.1057 34.4035 17.9457 34.5615C17.7857 34.7195 17.6958 34.9339 17.6958 35.1574C17.6958 35.3809 17.7857 35.5952 17.9457 35.7532C18.1057 35.9113 18.3227 36 18.549 36H41.8446C42.0709 36 42.2879 35.9113 42.4479 35.7532C42.6079 35.5952 42.6978 35.3809 42.6978 35.1574C42.6978 34.9339 42.6079 34.7195 42.4479 34.5615C42.2879 34.4035 42.0709 34.3147 41.8446 34.3147Z" fill="#1D2B6B" stroke="#1D2B6B" stroke-width="0.3" stroke-miterlimit="10"/>
<path d="M41.8446 40.1973H18.549C18.437 40.1973 18.326 40.2191 18.2225 40.2614C18.119 40.3038 18.0249 40.3658 17.9457 40.4441C17.8665 40.5223 17.8036 40.6152 17.7607 40.7175C17.7179 40.8197 17.6958 40.9293 17.6958 41.0399C17.6958 41.1506 17.7179 41.2602 17.7607 41.3624C17.8036 41.4646 17.8665 41.5575 17.9457 41.6358C18.0249 41.714 18.119 41.7761 18.2225 41.8185C18.326 41.8608 18.437 41.8826 18.549 41.8826H41.8446C41.9566 41.8826 42.0676 41.8608 42.1711 41.8185C42.2746 41.7761 42.3687 41.714 42.4479 41.6358C42.5271 41.5575 42.59 41.4646 42.6329 41.3624C42.6757 41.2602 42.6978 41.1506 42.6978 41.0399C42.6978 40.9293 42.6757 40.8197 42.6329 40.7175C42.59 40.6152 42.5271 40.5223 42.4479 40.4441C42.3687 40.3658 42.2746 40.3038 42.1711 40.2614C42.0676 40.2191 41.9566 40.1973 41.8446 40.1973Z" fill="#1D2B6B" stroke="#1D2B6B" stroke-width="0.3" stroke-miterlimit="10"/>
<path d="M17.6904 29.2745C17.6904 29.3857 17.7127 29.4957 17.7559 29.5983C17.7991 29.7008 17.8624 29.794 17.9422 29.8723C18.022 29.9506 18.1167 30.0126 18.2209 30.0546C18.325 30.0966 18.4365 30.1179 18.549 30.1172H41.8446C42.0709 30.1172 42.2879 30.0284 42.4479 29.8704C42.6079 29.7124 42.6978 29.498 42.6978 29.2745C42.6978 29.0511 42.6079 28.8367 42.4479 28.6787C42.2879 28.5207 42.0709 28.4319 41.8446 28.4319H18.549C18.3222 28.4319 18.1047 28.5205 17.9438 28.6784C17.7829 28.8362 17.6919 29.0506 17.6904 29.2745Z" fill="#1D2B6B" stroke="#1D2B6B" stroke-width="0.3" stroke-miterlimit="10"/>
<path d="M21.7998 23.392C21.799 23.5054 21.8214 23.6177 21.8657 23.7224C21.9099 23.827 21.9751 23.9218 22.0572 24.0009C22.1394 24.0801 22.2369 24.1421 22.344 24.1832C22.451 24.2242 22.5653 24.2436 22.68 24.24H37.7406C37.8587 24.2492 37.9775 24.2343 38.0895 24.196C38.2015 24.1577 38.3042 24.097 38.3912 24.0176C38.4783 23.9382 38.5477 23.8418 38.5952 23.7346C38.6427 23.6274 38.6673 23.5117 38.6673 23.3946C38.6673 23.2776 38.6427 23.1619 38.5952 23.0546C38.5477 22.9474 38.4783 22.8511 38.3912 22.7717C38.3042 22.6923 38.2015 22.6315 38.0895 22.5933C37.9775 22.555 37.8587 22.54 37.7406 22.5493H22.68C22.5657 22.5457 22.4519 22.5649 22.3452 22.6056C22.2386 22.6464 22.1413 22.7079 22.0592 22.7865C21.9771 22.8651 21.9118 22.9592 21.8673 23.0632C21.8227 23.1672 21.7998 23.279 21.7998 23.392Z" fill="#1D2B6B" stroke="#1D2B6B" stroke-width="0.3" stroke-miterlimit="10"/>
<path d="M33.5231 57.0081H28.9169H27.3671C26.4275 57.0081 25.8011 56.8215 25.5905 55.8028C25.4123 54.9441 24.1811 55.0615 23.9705 55.8028C23.3765 57.6428 22.3991 56.9228 21.8537 55.6855C21.3929 54.4165 21.0813 53.0994 20.9249 51.7601C20.7521 50.7948 19.2725 51.0668 19.2509 51.9841C19.2336 53.1884 19.0797 54.387 18.7919 55.5575C18.4413 56.7599 18.0139 57.9391 17.5121 59.0881C17.0963 60.0961 18.7487 60.5281 19.1321 59.5361C19.5726 58.5163 19.9601 57.4749 20.2931 56.4161C20.8763 57.8081 22.0913 59.3815 23.8139 58.4535C24.1477 58.2705 24.4472 58.0324 24.6995 57.7495C25.5959 58.7735 26.9351 58.6935 28.1825 58.6935H33.5231C33.7384 58.6766 33.9393 58.5802 34.0858 58.4235C34.2323 58.2668 34.3137 58.0614 34.3137 57.8481C34.3137 57.6349 34.2323 57.4294 34.0858 57.2728C33.9393 57.1161 33.7384 57.0197 33.5231 57.0028V57.0081Z" fill="#1D2B6B" stroke="#1D2B6B" stroke-width="0.3" stroke-miterlimit="10"/>
<path d="M68.9689 35.3706C68.5191 34.9419 67.9201 34.6995 67.2949 34.6933H66.6469V33.4933C66.638 33.1137 66.5348 32.7421 66.3465 32.411C66.1582 32.08 65.8905 31.7997 65.5669 31.5946V29.8933C65.5669 26.4 60.0589 26.416 60.0589 29.8933V31.5893C59.7302 31.7889 59.4585 32.068 59.2696 32.4003C59.0806 32.7325 58.9805 33.1069 58.9789 33.488V34.72C56.1331 34.912 56.1277 39.1946 58.9789 39.36C58.9789 43.136 58.9789 46.8266 58.9789 50.6933C58.9789 51.76 60.6799 51.8133 60.6853 50.6933C60.6853 46.848 60.6853 43.1306 60.6853 39.3493H64.9243C64.9243 39.3493 64.9243 51.8186 64.9243 57.4346C64.9243 60.176 60.6853 60.192 60.6853 57.4346V55.8986C60.6989 55.6751 60.6221 55.4555 60.4717 55.2879C60.3213 55.1204 60.1097 55.0187 59.8834 55.0053C59.6571 54.9919 59.4347 55.0678 59.2651 55.2163C59.0955 55.3648 58.9925 55.5738 58.9789 55.7973V57.2373C58.9544 57.791 59.0427 58.3439 59.2384 58.8633C59.4341 59.3827 59.7333 59.8581 60.1183 60.2613C60.1861 62.0389 60.9328 63.7252 62.2081 64.9813C62.3754 65.1327 62.5941 65.2167 62.821 65.2167C63.0479 65.2167 63.2666 65.1327 63.4339 64.9813C64.7191 63.7142 65.46 62.0063 65.5021 60.2133C66.0421 59.68 66.6307 59.0986 66.6307 57.184V49.456C66.9822 49.5502 67.3508 49.5639 67.7084 49.4961C68.066 49.4283 68.4033 49.2808 68.6944 49.0647C68.9856 48.8487 69.2229 48.5698 69.3884 48.2495C69.5539 47.9291 69.6431 47.5756 69.6493 47.216V37.0133C69.6507 36.7078 69.5903 36.4052 69.4716 36.1231C69.3529 35.841 69.1783 35.5852 68.9581 35.3706H68.9689ZM60.6961 34.7253V33.5093C60.6922 33.3882 60.7302 33.2694 60.8038 33.1724C60.8775 33.0755 60.9823 33.0062 61.1011 32.976H64.5247C64.6219 32.9949 64.7106 33.0434 64.7785 33.1146C64.8302 33.1647 64.8712 33.2244 64.899 33.2904C64.9268 33.3564 64.9409 33.4272 64.9405 33.4986V34.7093L60.6961 34.7253ZM62.8237 28.8586C63.0929 28.8748 63.3471 28.987 63.5388 29.1744C63.7305 29.3618 63.8468 29.6116 63.8659 29.8773V31.248H61.7761V29.9146C61.776 29.6372 61.8853 29.3706 62.0809 29.1715C62.2765 28.9723 62.5429 28.8563 62.8237 28.848V28.8586ZM62.8237 63.0506C62.4243 62.4947 62.1365 61.8683 61.9759 61.2053C62.2388 61.26 62.5065 61.2886 62.7751 61.2906C63.0771 61.2897 63.3779 61.2539 63.6715 61.184C63.5155 61.86 63.2275 62.4995 62.8237 63.0666V63.0506ZM67.9537 47.2C67.9537 47.3711 67.8849 47.5353 67.7623 47.6563C67.6398 47.7773 67.4736 47.8453 67.3003 47.8453C67.127 47.8453 66.9608 47.7773 66.8383 47.6563C66.7158 47.5353 66.6469 47.3711 66.6469 47.2V38.512C66.6455 38.288 66.5544 38.0737 66.3935 37.9158C66.2327 37.7579 66.0151 37.6693 65.7883 37.6693L59.1355 37.7013C58.9636 37.7013 58.7988 37.6339 58.6773 37.5138C58.5558 37.3938 58.4875 37.231 58.4875 37.0613C58.4875 36.8916 58.5558 36.7288 58.6773 36.6088C58.7988 36.4887 58.9636 36.4213 59.1355 36.4213L67.2949 36.384C67.3795 36.3826 67.4635 36.3978 67.5421 36.4288C67.6206 36.4598 67.6922 36.5059 67.7525 36.5645C67.8128 36.6231 67.8607 36.6929 67.8934 36.77C67.9261 36.847 67.9429 36.9297 67.9429 37.0133V47.216L67.9537 47.2Z" fill="#1D2B6B" stroke="#1D2B6B" stroke-width="0.3" stroke-miterlimit="10"/>
<path d="M32.9077 15.1627C33.358 15.1627 33.7231 14.8021 33.7231 14.3573C33.7231 13.9126 33.358 13.552 32.9077 13.552C32.4574 13.552 32.0923 13.9126 32.0923 14.3573C32.0923 14.8021 32.4574 15.1627 32.9077 15.1627Z" fill="#1D2B6B" stroke="#1D2B6B" stroke-miterlimit="10"/>
</svg>
