<svg width="83" height="83" viewBox="0 0 83 83" fill="none" xmlns="http://www.w3.org/2000/svg">
<path d="M60.5015 33.7422C60.963 33.7422 61.3371 33.3682 61.3371 32.9067C61.3371 32.4452 60.963 32.0712 60.5015 32.0712C60.0401 32.0712 59.666 32.4452 59.666 32.9067C59.666 33.3682 60.0401 33.7422 60.5015 33.7422Z" fill="#1D2B6B" stroke="#1D2B6B" stroke-miterlimit="10"/>
<path d="M53.5515 25.6414C53.6345 25.4984 53.6733 25.334 53.6628 25.169C53.6523 25.0039 53.5931 24.8457 53.4927 24.7144C53.3922 24.583 53.255 24.4844 53.0985 24.431C52.942 24.3777 52.7732 24.372 52.6134 24.4146C52.4536 24.4573 52.3101 24.5464 52.201 24.6707C52.0919 24.7949 52.0222 24.9488 52.0006 25.1127C51.979 25.2767 52.0065 25.4433 52.0797 25.5916C52.1529 25.7399 52.2684 25.8632 52.4116 25.9457C52.5063 26.0012 52.6111 26.0373 52.7198 26.052C52.8285 26.0667 52.9391 26.0597 53.0451 26.0314C53.1511 26.0031 53.2504 25.954 53.3373 25.8871C53.4243 25.8202 53.4971 25.7367 53.5515 25.6414Z" fill="#1D2B6B" stroke="#1D2B6B" stroke-miterlimit="10"/>
<path d="M42.3355 23.2455C42.797 23.2455 43.1711 22.8714 43.1711 22.41C43.1711 21.9485 42.797 21.5745 42.3355 21.5745C41.8741 21.5745 41.5 21.9485 41.5 22.41C41.5 22.8714 41.8741 23.2455 42.3355 23.2455Z" fill="#1D2B6B" stroke="#1D2B6B" stroke-miterlimit="10"/>
<path d="M32.2594 25.9457C32.4027 25.8632 32.5182 25.7399 32.5914 25.5916C32.6646 25.4433 32.6921 25.2767 32.6705 25.1127C32.6489 24.9488 32.5791 24.7949 32.47 24.6707C32.3609 24.5464 32.2174 24.4573 32.0577 24.4146C31.8979 24.372 31.7291 24.3777 31.5725 24.431C31.416 24.4844 31.2789 24.583 31.1784 24.7144C31.078 24.8457 31.0187 25.0039 31.0083 25.169C30.9978 25.334 31.0365 25.4984 31.1196 25.6414C31.2306 25.8327 31.4129 25.9721 31.6266 26.0291C31.8403 26.0862 32.0678 26.0562 32.2594 25.9457Z" fill="#1D2B6B" stroke="#1D2B6B" stroke-miterlimit="10"/>
<path d="M24.1585 33.7312C24.62 33.7312 24.9941 33.3572 24.9941 32.8957C24.9941 32.4343 24.62 32.0602 24.1585 32.0602C23.6971 32.0602 23.323 32.4343 23.323 32.8957C23.323 33.3572 23.6971 33.7312 24.1585 33.7312Z" fill="#1D2B6B" stroke="#1D2B6B" stroke-miterlimit="10"/>
<path d="M21.3475 44.2334C21.8089 44.2334 22.183 43.8594 22.183 43.3979C22.183 42.9365 21.8089 42.5624 21.3475 42.5624C20.886 42.5624 20.512 42.9365 20.512 43.3979C20.512 43.8594 20.886 44.2334 21.3475 44.2334Z" fill="#1D2B6B" stroke="#1D2B6B" stroke-miterlimit="10"/>
<path d="M24.1585 54.7302C24.62 54.7302 24.9941 54.3561 24.9941 53.8946C24.9941 53.4332 24.62 53.0591 24.1585 53.0591C23.6971 53.0591 23.323 53.4332 23.323 53.8946C23.323 54.3561 23.6971 54.7302 24.1585 54.7302Z" fill="#1D2B6B" stroke="#1D2B6B" stroke-miterlimit="10"/>
<path d="M31.1195 61.16C31.0348 61.3022 30.9942 61.4664 31.0029 61.6317C31.0116 61.797 31.0692 61.956 31.1683 62.0885C31.2675 62.221 31.4039 62.3211 31.56 62.376C31.7162 62.4309 31.8851 62.4382 32.0454 62.397C32.2057 62.3558 32.3502 62.2678 32.4604 62.1444C32.5707 62.0209 32.6418 61.8675 32.6647 61.7035C32.6877 61.5396 32.6614 61.3725 32.5892 61.2236C32.517 61.0746 32.4022 60.9504 32.2594 60.8668C32.1654 60.8109 32.0612 60.7741 31.953 60.7586C31.8447 60.7431 31.7344 60.7492 31.6285 60.7764C31.5226 60.8037 31.4231 60.8516 31.3357 60.9174C31.2484 60.9833 31.1749 61.0657 31.1195 61.16Z" fill="#1D2B6B" stroke="#1D2B6B" stroke-miterlimit="10"/>
<path d="M42.3355 65.227C42.797 65.227 43.1711 64.8529 43.1711 64.3914C43.1711 63.93 42.797 63.5559 42.3355 63.5559C41.8741 63.5559 41.5 63.93 41.5 64.3914C41.5 64.8529 41.8741 65.227 42.3355 65.227Z" fill="#1D2B6B" stroke="#1D2B6B" stroke-miterlimit="10"/>
<path d="M52.4116 60.8666C52.2684 60.9491 52.1529 61.0724 52.0797 61.2207C52.0065 61.369 51.979 61.5356 52.0006 61.6996C52.0222 61.8635 52.0919 62.0174 52.201 62.1416C52.3101 62.2659 52.4536 62.355 52.6134 62.3977C52.7732 62.4403 52.942 62.4346 53.0985 62.3813C53.255 62.3279 53.3922 62.2293 53.4927 62.098C53.5931 61.9666 53.6523 61.8084 53.6628 61.6434C53.6733 61.4783 53.6345 61.3139 53.5515 61.1709C53.4405 60.9796 53.2581 60.8402 53.0445 60.7832C52.8308 60.7261 52.6032 60.7561 52.4116 60.8666Z" fill="#1D2B6B" stroke="#1D2B6B" stroke-miterlimit="10"/>
<path d="M60.5235 54.7358C60.985 54.7358 61.3591 54.3617 61.3591 53.9002C61.3591 53.4388 60.985 53.0647 60.5235 53.0647C60.0621 53.0647 59.688 53.4388 59.688 53.9002C59.688 54.3617 60.0621 54.7358 60.5235 54.7358Z" fill="#1D2B6B" stroke="#1D2B6B" stroke-miterlimit="10"/>
<path d="M42.3355 44.2334C42.797 44.2334 43.1711 43.8594 43.1711 43.3979C43.1711 42.9365 42.797 42.5624 42.3355 42.5624C41.8741 42.5624 41.5 42.9365 41.5 43.3979C41.5 43.8594 41.8741 44.2334 42.3355 44.2334Z" fill="#1D2B6B" stroke="#1D2B6B" stroke-miterlimit="10"/>
<path d="M62.4935 23.24C57.8341 18.5737 51.7009 15.6674 45.1389 15.0163C38.5769 14.3652 31.9921 16.0095 26.5065 19.6691C21.021 23.3287 16.9741 28.7772 15.0554 35.0861C13.1368 41.3951 13.465 48.1741 15.9843 54.2681C18.5035 60.3622 23.0579 65.3941 28.8713 68.5066C34.6848 71.6191 41.3976 72.6196 47.866 71.3375C54.3344 70.0554 60.1582 66.5701 64.3449 61.4755C68.5316 56.3809 70.8223 49.9922 70.8267 43.3979C70.8388 39.6539 70.1086 35.9447 68.6783 32.4847C67.2479 29.0246 65.1458 25.8825 62.4935 23.24ZM42.3355 70.2346C37.0275 70.2357 31.8384 68.6627 27.4244 65.7145C23.0104 62.7663 19.5698 58.5754 17.5377 53.6717C15.5057 48.7681 14.9734 43.3719 16.0083 38.1658C17.0432 32.9596 19.5987 28.1772 23.3517 24.4235C27.1046 20.6698 31.8864 18.1133 37.0924 17.0773C42.2983 16.0414 47.6946 16.5725 52.5987 18.6036C57.5028 20.6346 61.6944 24.0743 64.6435 28.4877C67.5926 32.9011 69.1667 38.0899 69.1667 43.3979C69.1594 50.5132 66.3296 57.335 61.2983 62.3662C56.267 67.3975 49.4453 70.2273 42.33 70.2346H42.3355Z" fill="#1D2B6B" stroke="#1D2B6B" stroke-width="0.3" stroke-miterlimit="10"/>
<path d="M60.1307 25.6027C55.6229 21.1015 49.576 18.477 43.2094 18.2583C36.8429 18.0395 30.6301 20.2429 25.824 24.4241C25.6567 24.5709 25.5546 24.7781 25.54 25.0001C25.5255 25.2222 25.5998 25.4409 25.7466 25.6082C25.8933 25.7755 26.1005 25.8777 26.3226 25.8922C26.5446 25.9067 26.7634 25.8325 26.9307 25.6857C31.5149 21.7036 37.4664 19.6574 43.5302 19.9787C49.5939 20.3 55.2959 22.9636 59.4337 27.4078C63.5715 31.852 65.8216 37.7295 65.7096 43.8007C65.5975 49.8719 63.1321 55.6623 58.8331 59.9508C54.5342 64.2394 48.7378 66.6908 42.6663 66.7881C36.5949 66.8854 30.7229 64.621 26.2887 60.4725C21.8545 56.324 19.2048 50.6156 18.8982 44.551C18.5916 38.4865 20.6522 32.54 24.6454 27.9654C24.7181 27.883 24.7738 27.787 24.8094 27.683C24.8449 27.579 24.8597 27.469 24.8527 27.3593C24.8458 27.2496 24.8173 27.1423 24.7689 27.0436C24.7206 26.9449 24.6532 26.8567 24.5707 26.7841C24.4882 26.7114 24.3923 26.6557 24.2883 26.6201C24.1843 26.5846 24.0743 26.5698 23.9646 26.5768C23.8549 26.5837 23.7476 26.6122 23.6489 26.6606C23.5502 26.7089 23.462 26.7763 23.3894 26.8588C20.1685 30.5564 18.0981 35.1144 17.4326 39.9727C16.7671 44.831 17.5354 49.7779 19.6433 54.2055C21.7511 58.633 25.1065 62.3483 29.2972 64.8947C33.4879 67.4411 38.3313 68.7077 43.2321 68.5388C48.1329 68.3699 52.8775 66.7729 56.883 63.9441C60.8884 61.1152 63.9802 57.1777 65.7782 52.6156C67.5762 48.0534 68.0022 43.0654 67.0038 38.2644C66.0054 33.4634 63.6261 29.0587 60.1584 25.5916L60.1307 25.6027Z" fill="#1D2B6B" stroke="#1D2B6B" stroke-width="0.3" stroke-miterlimit="10"/>
<path d="M29.2658 56.4732C29.3429 56.551 29.4347 56.6128 29.5359 56.6549C29.637 56.697 29.7455 56.7187 29.8551 56.7187C29.9646 56.7187 30.0731 56.697 30.1743 56.6549C30.2754 56.6128 30.3672 56.551 30.4444 56.4732L40.0336 46.884C40.9186 47.4726 41.9948 47.7013 43.0427 47.5234C44.0905 47.3455 45.031 46.7744 45.6721 45.9267H61.6523C62.0035 45.9673 62.3592 45.9332 62.6963 45.8266C63.0333 45.72 63.3439 45.5433 63.6078 45.3082C63.8718 45.073 64.083 44.7847 64.2276 44.4622C64.3722 44.1396 64.4469 43.7902 64.4469 43.4367C64.4469 43.0832 64.3722 42.7337 64.2276 42.4112C64.083 42.0887 63.8718 41.8004 63.6078 41.5652C63.3439 41.3301 63.0333 41.1534 62.6963 41.0468C62.3592 40.9402 62.0035 40.9061 61.6523 40.9467H45.6721C45.4326 40.6118 45.1455 40.3135 44.82 40.0614V27.4232C44.82 26.7584 44.5559 26.1209 44.0858 25.6508C43.6157 25.1807 42.9781 24.9166 42.3134 24.9166C41.6486 24.9166 41.011 25.1807 40.5409 25.6508C40.0708 26.1209 39.8068 26.7584 39.8068 27.4232V40.0614C39.2929 40.4494 38.8757 40.951 38.5878 41.5269C38.2998 42.1028 38.1489 42.7375 38.1468 43.3814C38.1442 44.201 38.387 45.0027 38.844 45.6832L29.2658 55.2891C29.1878 55.3667 29.1259 55.459 29.0837 55.5606C29.0415 55.6622 29.0198 55.7711 29.0198 55.8812C29.0198 55.9912 29.0415 56.1001 29.0837 56.2017C29.1259 56.3033 29.1878 56.3956 29.2658 56.4732ZM61.6523 42.568C61.7694 42.5544 61.888 42.5658 62.0003 42.6013C62.1127 42.6369 62.2162 42.6957 62.3042 42.7741C62.3922 42.8525 62.4626 42.9486 62.5108 43.0561C62.559 43.1636 62.5839 43.2801 62.5839 43.398C62.5839 43.5158 62.559 43.6323 62.5108 43.7398C62.4626 43.8473 62.3922 43.9434 62.3042 44.0218C62.2162 44.1002 62.1127 44.1591 62.0003 44.1946C61.888 44.2301 61.7694 44.2415 61.6523 44.228H46.4246C46.5418 43.6808 46.5418 43.1151 46.4246 42.568H61.6523ZM41.5 27.4232C41.5235 27.2196 41.6211 27.0318 41.7741 26.8954C41.9272 26.759 42.125 26.6837 42.33 26.6837C42.5349 26.6837 42.7327 26.759 42.8858 26.8954C43.0388 27.0318 43.1364 27.2196 43.16 27.4232V39.2867C42.612 39.1776 42.0479 39.1776 41.5 39.2867V27.4232ZM42.3355 40.8969C42.8319 40.8947 43.3179 41.04 43.7317 41.3143C44.1454 41.5887 44.4684 41.9797 44.6597 42.4378C44.8509 42.896 44.9018 43.4006 44.8059 43.8877C44.71 44.3748 44.4716 44.8225 44.1209 45.1739C43.7703 45.5254 43.3231 45.7648 42.8363 45.8618C42.3494 45.9588 41.8446 45.909 41.386 45.7187C40.9275 45.5285 40.5357 45.2064 40.2605 44.7932C39.9852 44.38 39.8389 43.8944 39.84 43.398C39.8414 42.736 40.1046 42.1016 40.5722 41.633C41.0397 41.1644 41.6736 40.8998 42.3355 40.8969Z" fill="#1D2B6B" stroke="#1D2B6B" stroke-width="0.3" stroke-miterlimit="10"/>
</svg>
