<svg width="65" height="65" viewBox="0 0 65 65" fill="none" xmlns="http://www.w3.org/2000/svg">
<rect width="65" height="65" rx="10" fill="#E8E8E8"/>
<path d="M15 29.5C13.6193 29.5 12.5 30.6193 12.5 32C12.5 33.3807 13.6193 34.5 15 34.5L15 29.5ZM53.3897 33.7678C54.366 32.7914 54.366 31.2085 53.3897 30.2322L37.4798 14.3223C36.5035 13.346 34.9206 13.346 33.9443 14.3223C32.968 15.2986 32.968 16.8816 33.9443 17.8579L48.0864 32L33.9443 46.1421C32.968 47.1184 32.968 48.7014 33.9443 49.6777C34.9206 50.654 36.5035 50.654 37.4798 49.6777L53.3897 33.7678ZM15 34.5L51.622 34.5L51.622 29.5L15 29.5L15 34.5Z" fill="white"/>
</svg>
