<svg width="60" height="60" viewBox="0 0 60 60" fill="none" xmlns="http://www.w3.org/2000/svg">
<g clip-path="url(#clip0)">
<path d="M56.2424 34.9453H50.2931V25.9336C50.2931 25.4482 49.8996 25.0547 49.4142 25.0547C48.9288 25.0547 48.5353 25.4482 48.5353 25.9336V34.9453H25.1134C24.1118 34.9453 23.297 35.7601 23.297 36.7617V50.4179C23.297 51.4195 24.1118 52.2343 25.1134 52.2343H48.5353V57.1796C48.5353 57.7655 48.0587 58.2421 47.4729 58.2421H12.5274C11.9416 58.2421 11.465 57.7655 11.465 57.1796V10.5859C11.465 9.99996 11.9416 9.52336 12.5274 9.52336H40.7696V14.4687C40.7696 16.0239 42.0348 17.289 43.59 17.289H48.5353V22.418C48.5353 22.9034 48.9288 23.2969 49.4142 23.2969C49.8996 23.2969 50.2931 22.9034 50.2931 22.418V17.2143C50.2931 16.461 49.9998 15.7528 49.467 15.22L42.8387 8.59172C42.7406 8.49363 42.6365 8.40387 42.5274 8.3223V2.82035C42.5274 1.26516 41.2623 0 39.7071 0H4.76176C3.20668 0 1.94141 1.26516 1.94141 2.82035V4.94531C1.94141 5.4307 2.33492 5.82422 2.82031 5.82422C3.3057 5.82422 3.69922 5.4307 3.69922 4.94531V2.82035C3.69922 2.23453 4.17582 1.75781 4.76176 1.75781H39.7071C40.2929 1.75781 40.7696 2.23441 40.7696 2.82035V7.76566H12.5274C10.9723 7.76566 9.70719 9.03082 9.70719 10.586V46.5938H4.76188C4.17594 46.5938 3.69934 46.1171 3.69934 45.5312V8.46094C3.69934 7.97555 3.30582 7.58203 2.82043 7.58203C2.33504 7.58203 1.94152 7.97555 1.94152 8.46094V45.5312C1.94152 47.0864 3.20668 48.3516 4.76188 48.3516H9.70719V57.1796C9.70719 58.7348 10.9723 60 12.5274 60H47.4727C49.0278 60 50.293 58.7348 50.293 57.1798V52.2345H56.2422C57.2438 52.2345 58.0586 51.4197 58.0586 50.418V36.7617C58.0588 35.7601 57.2438 34.9453 56.2424 34.9453ZM47.2924 15.5312H43.59C43.004 15.5312 42.5274 15.0546 42.5274 14.4687V10.7664L47.2924 15.5312ZM56.3009 50.4179C56.3009 50.4503 56.2747 50.4765 56.2424 50.4765H25.1134C25.081 50.4765 25.0548 50.4503 25.0548 50.4179V36.7617C25.0548 36.7294 25.081 36.7031 25.1134 36.7031H56.2424C56.2747 36.7031 56.3009 36.7294 56.3009 36.7617V50.4179Z" fill="#1D2B6B"/>
<path d="M31.7654 38.8281H28.9082C27.8883 38.8281 27.0586 39.6579 27.0586 40.6776V47.4726C27.0586 47.958 27.4521 48.3515 27.9375 48.3515C28.4229 48.3515 28.8164 47.958 28.8164 47.4726V44.4688H31.8203C32.5875 44.4688 33.3314 44.1504 33.8611 43.595C34.3984 43.0318 34.6741 42.2925 34.6375 41.5132C34.5663 40.0076 33.3048 38.8281 31.7654 38.8281ZM32.5891 42.3817C32.3865 42.594 32.1135 42.711 31.8202 42.711H28.8163V40.6778C28.8163 40.6271 28.8575 40.586 28.908 40.586H31.7653C32.3544 40.586 32.8552 41.039 32.8814 41.5959C32.8954 41.8905 32.7915 42.1695 32.5891 42.3817Z" fill="#1D2B6B"/>
<path d="M40.5563 38.8281H38.6148C37.5949 38.8281 36.7651 39.6579 36.7651 40.6776V46.5018C36.7651 47.5217 37.5949 48.3514 38.6148 48.3514H40.5563C42.6464 48.3514 44.3472 46.6509 44.3473 44.5606V42.6187C44.3472 40.5287 42.6464 38.8281 40.5563 38.8281ZM42.5895 44.5606C42.5895 45.6817 41.6773 46.5937 40.5563 46.5937H38.6148C38.5642 46.5937 38.5229 46.5525 38.5229 46.502V40.6778C38.5229 40.6271 38.5642 40.586 38.6148 40.586H40.5563C41.6773 40.586 42.5895 41.4981 42.5895 42.619V44.5606Z" fill="#1D2B6B"/>
<path d="M53.2972 38.8281H48.3222C47.3023 38.8281 46.4727 39.6579 46.4727 40.6776V47.4726C46.4727 47.958 46.8662 48.3515 47.3516 48.3515C47.837 48.3515 48.2305 47.958 48.2305 47.4726V44.4688H51.2345C51.7199 44.4688 52.1134 44.0753 52.1134 43.5899C52.1134 43.1045 51.7199 42.711 51.2345 42.711H48.2305V40.6778C48.2305 40.6271 48.2717 40.586 48.3222 40.586H53.2972C53.7826 40.586 54.1761 40.1925 54.1761 39.7071C54.1761 39.2216 53.7826 38.8281 53.2972 38.8281Z" fill="#1D2B6B"/>
<path d="M34.8867 21.1719C35.8883 21.1719 36.7031 20.3571 36.7031 19.3555V17.3477C36.7031 16.3461 35.8883 15.5313 34.8867 15.5313H25.1133C24.1117 15.5313 23.2969 16.3461 23.2969 17.3477V19.3555C23.2969 20.3571 24.1117 21.1719 25.1133 21.1719H34.8867ZM25.0547 19.3555V17.3477C25.0547 17.3154 25.0809 17.2891 25.1133 17.2891H34.8867C34.9191 17.2891 34.9453 17.3154 34.9453 17.3477V19.3555C34.9453 19.3878 34.9191 19.4141 34.8867 19.4141H25.1133C25.0809 19.4141 25.0547 19.3877 25.0547 19.3555Z" fill="#1D2B6B"/>
<path d="M43.5899 23.2969H16.4102C15.9248 23.2969 15.5312 23.6904 15.5312 24.1758C15.5312 24.6612 15.9248 25.0547 16.4102 25.0547H43.5899C44.0753 25.0547 44.4688 24.6612 44.4688 24.1758C44.4688 23.6904 44.0753 23.2969 43.5899 23.2969Z" fill="#1D2B6B"/>
<path d="M43.5899 27.1796H16.4102C15.9248 27.1796 15.5312 27.5731 15.5312 28.0585C15.5312 28.5439 15.9248 28.9374 16.4102 28.9374H43.5899C44.0753 28.9374 44.4688 28.5439 44.4688 28.0585C44.4688 27.5731 44.0753 27.1796 43.5899 27.1796Z" fill="#1D2B6B"/>
<path d="M43.5899 31.0625H16.4102C15.9248 31.0625 15.5312 31.456 15.5312 31.9414C15.5312 32.4268 15.9248 32.8203 16.4102 32.8203H43.5899C44.0753 32.8203 44.4688 32.4268 44.4688 31.9414C44.4688 31.456 44.0753 31.0625 43.5899 31.0625Z" fill="#1D2B6B"/>
</g>
<defs>
<clipPath id="clip0">
<rect width="60" height="60" fill="white"/>
</clipPath>
</defs>
</svg>
