<svg width="17" height="17" viewBox="0 0 17 17" fill="none" xmlns="http://www.w3.org/2000/svg">
<path d="M15.6359 0.805683C14.673 -0.157233 13.1118 -0.157233 12.1489 0.805683L2.3738 10.5808C2.30681 10.6478 2.25844 10.7308 2.23319 10.822L0.947728 15.4628C0.894863 15.6531 0.948584 15.8568 1.08813 15.9966C1.22789 16.1361 1.43165 16.1899 1.62192 16.1372L6.26271 14.8515C6.35388 14.8263 6.43693 14.7779 6.50392 14.7109L16.2788 4.93558C17.2402 3.97203 17.2402 2.41218 16.2788 1.44863L15.6359 0.805683ZM3.56766 10.937L11.5678 2.93655L14.148 5.51667L6.14756 13.5171L3.56766 10.937ZM3.05227 11.9711L5.11359 14.0327L2.26229 14.8226L3.05227 11.9711ZM15.504 4.1608L14.923 4.74189L12.3426 2.16156L12.9239 1.58047C13.4588 1.04561 14.326 1.04561 14.8609 1.58047L15.504 2.22341C16.038 2.75891 16.038 3.62551 15.504 4.1608Z" fill="#333333"/>
</svg>
