<svg width="20" height="20" fill="none" xmlns="http://www.w3.org/2000/svg"><path d="M14.374 19.574a5.74 5.74 0 01-1.912-.33 20.482 20.482 0 01-7.402-4.566A19.656 19.656 0 01.342 7.516a5.19 5.19 0 01-.283-2.631 5.38 5.38 0 01.964-2.337A5.629 5.629 0 012.975.867 5.718 5.718 0 015.64.222c.295 0 .55.2.611.478l.981 4.43a.59.59 0 01-.169.554L5.388 7.306c1.581 3.042 4.147 5.524 7.291 7.054l1.676-1.621a.64.64 0 01.573-.164l4.578.95a.61.61 0 01.494.59 5.25 5.25 0 01-.666 2.58 5.567 5.567 0 01-1.738 1.89 5.772 5.772 0 01-3.222.989zM5.142 1.458a4.356 4.356 0 00-3.096 1.785c-.828 1.143-1.021 2.55-.53 3.86 1.926 5.13 6.071 9.14 11.373 11.004a4.427 4.427 0 003.99-.513c1.05-.713 1.706-1.786 1.844-2.995l-3.724-.773-1.75 1.694a.64.64 0 01-.709.12c-3.718-1.69-6.728-4.602-8.474-8.2a.59.59 0 01.123-.685L5.94 5.061l-.798-3.603z" fill="#1D2B6B"/></svg>