<svg width="75" height="75" viewBox="0 0 75 75" fill="none" xmlns="http://www.w3.org/2000/svg">
<g clip-path="url(#clip0)">
<path d="M69.6983 60.7012C70.2065 59.7284 70.4955 58.6238 70.4955 57.4522V54.6568C70.4955 51.6164 68.5588 49.0201 65.8544 48.0358C65.3096 45.0371 63.5804 42.4141 61.0479 40.7212C61.5557 39.7486 61.8446 38.6443 61.8446 37.4733V34.6779C61.8446 30.7943 58.685 27.6348 54.8015 27.6348C50.9179 27.6348 47.7583 30.7943 47.7583 34.6779V37.4733C47.7583 38.6444 48.0473 39.7487 48.5551 40.7215C47.6417 41.3323 46.8331 42.065 46.1461 42.8923C45.455 42.0576 44.6474 41.329 43.7452 40.7238C44.2537 39.7505 44.5431 38.6454 44.5431 37.4733V34.6779C44.5431 30.7943 41.3836 27.6348 37.5 27.6348C33.6164 27.6348 30.4568 30.7943 30.4568 34.6779V37.4733C30.4568 38.6454 30.7462 39.7506 31.2549 40.7238C30.3476 41.3323 29.5363 42.0663 28.8424 42.9071C28.1542 42.0739 27.3477 41.3354 26.4433 40.7247C26.9521 39.7512 27.2418 38.6457 27.2418 37.4733V34.6779C27.2418 30.7943 24.0822 27.6348 20.1985 27.6348C16.3149 27.6348 13.1554 30.7943 13.1554 34.6779V37.4733C13.1554 38.6444 13.4443 39.7487 13.9522 40.7215C11.4218 42.4137 9.69076 45.0372 9.14557 48.036C6.44113 49.0201 4.50458 51.6164 4.50458 54.6568V57.4522C4.50458 58.6236 4.79366 59.7284 5.3018 60.7012C2.1925 62.7783 0.311584 66.2365 0.311584 70.0309V73.5475C0.311584 74.3498 0.961946 75.0002 1.76426 75.0002H19.0659H36.3675H55.9344H73.236C74.0382 75.0002 74.6887 74.3498 74.6887 73.5475V70.0309C74.6885 66.2365 72.8078 62.7781 69.6983 60.7012ZM67.5903 54.6568V57.4522C67.5903 59.7337 65.7341 61.59 63.4526 61.59C61.171 61.59 59.3148 59.7337 59.3148 57.4522V54.6568C59.3148 52.3751 61.171 50.519 63.4526 50.519C65.7341 50.519 67.5903 52.3752 67.5903 54.6568ZM62.7726 47.6471C59.2068 47.9903 56.4093 51.0026 56.4093 54.6568V57.4522C56.4093 58.6243 56.6988 59.7297 57.2075 60.703C56.307 61.3073 55.5006 62.0362 54.8094 62.8701C54.1233 62.0445 53.3129 61.3134 52.3967 60.7012C52.9048 59.7284 53.1939 58.6236 53.1939 57.4522V54.6568C53.1939 51.0027 50.3965 47.9905 46.8309 47.6471C47.4197 45.7332 48.701 44.0542 50.4171 42.9795C51.6213 43.9401 53.1448 44.5164 54.8015 44.5164C56.4579 44.5164 57.9815 43.9401 59.1856 42.9795C60.9031 44.0546 62.1838 45.7329 62.7726 47.6471ZM42.0129 57.4522V54.6568C42.0129 52.3752 43.8691 50.519 46.1507 50.519C48.4322 50.519 50.2884 52.3752 50.2884 54.6568V57.4522C50.2884 59.7337 48.4322 61.59 46.1507 61.59C43.8691 61.59 42.0129 59.7337 42.0129 57.4522ZM50.6637 34.6779C50.6637 32.3962 52.5199 30.5401 54.8015 30.5401C57.083 30.5401 58.9392 32.3963 58.9392 34.6779V37.4733C58.9392 39.7548 57.083 41.6111 54.8015 41.6111C52.5199 41.6111 50.6637 39.7548 50.6637 37.4733V34.6779ZM33.362 34.6779C33.362 32.3962 35.2183 30.5401 37.4998 30.5401C39.7814 30.5401 41.6376 32.3963 41.6376 34.6779V37.4733C41.6376 39.7548 39.7814 41.6111 37.4998 41.6111C35.2181 41.6111 33.3619 39.7548 33.3619 37.4733V34.6779H33.362ZM33.1158 42.9795C34.3199 43.9401 35.8435 44.5164 37.5 44.5164C39.1565 44.5164 40.68 43.9401 41.884 42.9796C42.9373 43.6352 43.8283 44.5119 44.5029 45.5583C44.1598 46.3445 43.9051 47.1747 43.7485 48.036C41.0441 49.0201 39.1075 51.6165 39.1075 54.6568V57.4522C39.1075 58.6236 39.3966 59.7282 39.9047 60.7011C38.9888 61.3128 38.1787 62.0435 37.4929 62.8683C36.8021 62.0348 35.9956 61.3071 35.0944 60.7027C35.6031 59.7294 35.8925 58.6242 35.8925 57.452V54.6568C35.8925 51.6156 33.9549 49.019 31.2496 48.0352C31.092 47.1843 30.8348 46.358 30.4882 45.5724C31.1639 44.5196 32.0581 43.6378 33.1158 42.9795ZM24.7112 57.4522V54.6568C24.7112 52.3751 26.5675 50.519 28.8492 50.519C31.1309 50.519 32.9871 52.3752 32.9871 54.6568V57.4522C32.9871 59.7337 31.1309 61.59 28.8492 61.59C26.5675 61.59 24.7112 59.7337 24.7112 57.4522ZM16.0604 34.6779C16.0604 32.3962 17.9167 30.5401 20.1982 30.5401C22.4799 30.5401 24.3362 32.3963 24.3362 34.6779V37.4733C24.3362 39.7548 22.4799 41.6111 20.1984 41.6111C17.9167 41.6111 16.0604 39.7548 16.0604 37.4733V34.6779ZM15.8141 42.9795C17.0182 43.9401 18.5417 44.5164 20.1984 44.5164C21.8549 44.5164 23.3786 43.9401 24.5825 42.9795C26.3003 44.0546 27.5806 45.7327 28.1692 47.6471C24.6035 47.9903 21.8059 51.0026 21.8059 54.6568V57.4522C21.8059 58.6236 22.095 59.7284 22.6031 60.7012C21.6875 61.3128 20.8776 62.0432 20.1918 62.8677C19.5012 62.0342 18.6943 61.3071 17.7927 60.7027C18.3013 59.7294 18.5907 58.6243 18.5907 57.4522V54.6568C18.5907 51.0027 15.7933 47.9905 12.2277 47.6471C12.8168 45.7332 14.0979 44.0542 15.8141 42.9795ZM7.40977 54.6568C7.40977 52.3751 9.266 50.519 11.5477 50.519C13.8293 50.519 15.6855 52.3752 15.6855 54.6568V57.4522C15.6855 59.7337 13.8293 61.59 11.5477 61.59C9.266 61.59 7.40977 59.7337 7.40977 57.4522V54.6568ZM3.21678 70.0309C3.21678 67.1225 4.71071 64.4789 7.16268 62.958C8.3668 63.9189 9.89079 64.4955 11.5476 64.4955C13.204 64.4955 14.7276 63.9192 15.9317 62.9585C16.9842 63.6135 17.8741 64.4883 18.5481 65.5334C17.9411 66.9237 17.6131 68.4479 17.6131 70.0309V72.0948H3.21678V70.0309ZM20.5184 70.0309C20.5184 67.1225 22.0122 64.4789 24.4641 62.958C25.6683 63.9189 27.1923 64.4955 28.849 64.4955C30.5055 64.4955 32.0291 63.9192 33.2332 62.9587C34.2851 63.6134 35.1751 64.4888 35.8495 65.534C35.2425 66.9242 34.9145 68.4482 34.9145 70.031V72.095H20.5182V70.0309H20.5184ZM37.82 70.0309C37.82 67.1225 39.3138 64.4789 41.7658 62.958C42.9699 63.9189 44.4939 64.4955 46.1507 64.4955C47.8074 64.4955 49.3314 63.919 50.5355 62.958C52.9874 64.479 54.4816 67.1235 54.4816 70.0309V72.0948H37.82V70.0309ZM71.7832 72.0947H57.3869V70.0307C57.3869 68.4485 57.0589 66.9245 56.4518 65.5341C57.1265 64.4891 58.0175 63.6128 59.0682 62.9584C60.2722 63.919 61.7958 64.4952 63.4523 64.4952C65.109 64.4952 66.633 63.9187 67.8372 62.9577C70.2893 64.4786 71.783 67.1222 71.783 70.0306V72.0947H71.7832Z" fill="#1D2B6B"/>
<path d="M25.7688 12.3493C26.5233 12.0768 26.9142 11.2441 26.6417 10.4896C25.7282 7.96019 26.0581 5.95899 27.6504 4.3718C29.6146 2.41375 32.8107 2.41375 34.775 4.3718C36.303 5.89478 38.6968 5.89493 40.2247 4.3718C42.1892 2.41375 45.3852 2.41375 47.3495 4.3718C48.7755 5.79324 49.1864 7.53979 48.6055 9.7111C47.1499 15.1521 40.3985 20.7083 37.5011 21.804C36.6721 21.4879 35.5156 20.797 34.3087 19.8897C33.6674 19.4074 32.7566 19.5365 32.2747 20.1779C31.7926 20.8192 31.9216 21.7299 32.5629 22.2119C34.2968 23.5154 35.917 24.411 37.1252 24.7336C37.2479 24.7664 37.374 24.7829 37.5001 24.7829C37.6262 24.7829 37.7522 24.7664 37.875 24.7336C39.8086 24.2172 42.7521 22.2382 45.3743 19.6918C47.1751 17.9432 50.3538 14.4191 51.4124 10.4618C52.2612 7.2892 51.5656 4.47175 49.4007 2.31409C46.3055 -0.771527 41.2689 -0.771527 38.1739 2.31409C37.7315 2.75483 37.1611 2.64777 36.8264 2.31409C33.7309 -0.771382 28.6946 -0.771092 25.5994 2.31409C23.1946 4.71115 22.6101 7.87943 23.9091 11.4762C24.1816 12.2309 25.0141 12.6214 25.7688 12.3493Z" fill="#1D2B6B"/>
<path d="M28.6843 15.1085C27.882 15.1085 27.2322 15.7589 27.2322 16.5612C27.2322 17.3635 27.883 18.0139 28.6853 18.0139C29.4877 18.0139 30.138 17.3635 30.138 16.5612C30.138 15.7589 29.4877 15.1085 28.6853 15.1085H28.6843Z" fill="#1D2B6B"/>
</g>
<defs>
<clipPath id="clip0">
<rect width="75" height="75" fill="white"/>
</clipPath>
</defs>
</svg>
