<svg width="77" height="77" viewBox="0 0 77 77" fill="none" xmlns="http://www.w3.org/2000/svg">
<g clip-path="url(#clip0)">
<path d="M34.1032 18.0556L34.1033 18.0555C35.4034 17.1772 36.9232 16.713 38.4999 16.713C42.8366 16.713 46.3648 20.2414 46.3648 24.578C46.3648 28.9147 42.8366 32.4431 38.4999 32.4431C34.1633 32.4431 30.635 28.9147 30.635 24.578C30.635 23.2942 30.9509 22.021 31.5474 20.897L31.5474 20.8969C31.9031 20.2264 31.6482 19.3943 30.9778 19.0382L30.9776 19.0381C30.3067 18.6826 29.4751 18.9374 29.119 19.6078L29.1189 19.6079C28.3121 21.1283 27.8857 22.8467 27.8857 24.578C27.8857 30.4311 32.6471 35.1924 38.4999 35.1924C44.3527 35.1924 49.1141 30.431 49.1141 24.578C49.1141 18.725 44.3528 13.9637 38.4999 13.9637C36.3735 13.9637 34.3206 14.5909 32.5645 15.7774C31.9353 16.2024 31.7701 17.0569 32.1948 17.6858C32.6198 18.3152 33.4742 18.4801 34.1032 18.0556Z" fill="#1D2B6B" stroke="#1D2B6B" stroke-width="0.5"/>
<mask id="path-2-outside-1" maskUnits="userSpaceOnUse" x="-1" y="-0.712753" width="79" height="78" fill="black">
<rect fill="white" x="-1" y="-0.712753" width="79" height="78"/>
<path d="M76.9136 75.1558L68.3857 54.6655C68.3839 54.6613 68.3822 54.6569 68.3804 54.6527L65.8142 48.4868C65.6397 48.0676 65.23 47.7944 64.7759 47.7944H53.7151C55.8666 44.8841 57.6571 41.985 59.0556 39.1386C61.5339 34.0942 62.7906 29.1953 62.7906 24.5779C62.7906 11.184 51.8939 0.287247 38.5001 0.287247C25.1063 0.287247 14.2094 11.1839 14.2094 24.578C14.2094 29.1955 15.4659 34.0945 17.9444 39.1387C19.3429 41.9852 21.1334 44.8841 23.2849 47.7946H12.224C11.7698 47.7946 11.3601 48.0679 11.1857 48.487L6.47093 59.8153C6.23226 60.3888 6.50356 61.0472 7.077 61.2857C7.65029 61.5245 8.3087 61.2531 8.54737 60.6796L9.5577 58.2522C10.6883 58.2302 12.9004 58.0866 15.4992 57.3901C19.7554 56.2491 23.2926 54.0726 25.8446 51.0569C25.9149 51.1415 25.9838 51.2265 26.0548 51.3112C26.8798 52.2965 27.7025 53.2297 28.5084 54.1098C23.3905 55.8794 20.3422 58.9118 20.3422 62.2537C20.3422 63.5271 20.7788 64.7359 21.578 65.8407C18.1065 67.977 14.313 68.9022 10.2808 68.5914C8.25171 68.4348 6.62087 67.9839 5.64634 67.651L6.81713 64.8378C7.0558 64.2643 6.78449 63.6059 6.21105 63.3674C5.63731 63.1283 4.97921 63.3999 4.74069 63.9735L0.0863965 75.1558C-0.0581289 75.5027 -0.0196289 75.8991 0.189113 76.2118C0.397705 76.5246 0.748717 76.7125 1.12469 76.7125H45.4716C45.4726 76.7125 45.4737 76.7126 45.4747 76.7126C45.4756 76.7126 45.4765 76.7125 45.4776 76.7125H75.8755C76.2514 76.7125 76.6026 76.5246 76.811 76.2118C77.0196 75.8993 77.058 75.503 76.9136 75.1558ZM64.0257 50.0437L65.6958 54.0564C60.8143 54.5477 57.0572 57.1077 55.3193 58.5221C53.941 56.6956 51.5636 55.1589 48.4994 54.1011C49.3028 53.2235 50.1229 52.2932 50.9452 51.311C51.2989 50.8886 51.6432 50.4661 51.9821 50.0437H64.0257ZM14.9853 55.1992C13.2185 55.6788 11.6302 55.8761 10.5139 55.9552L12.9743 50.0437H23.7531C21.5453 52.4847 18.6069 54.216 14.9853 55.1992ZM27.7793 49.8674C18.4225 38.6923 16.4587 29.9467 16.4587 24.578C16.4587 12.4242 26.3464 2.53649 38.5001 2.53649C50.6537 2.53649 60.5415 12.4242 60.5415 24.578C60.5415 29.9395 58.5825 38.673 49.2497 49.8325C44.7482 55.2153 40.1929 59.1461 38.4998 60.5426C36.8115 59.1509 32.2778 55.24 27.7793 49.8674ZM46.7759 62.2536C46.7759 63.1722 43.8547 64.9602 38.4998 64.9602C33.1448 64.9602 30.2236 63.1722 30.2236 62.2536C30.2236 61.6083 31.6669 60.5348 34.381 59.9526C36.3656 61.7516 37.6983 62.7893 37.8119 62.8771C38.0146 63.034 38.2573 63.1122 38.5001 63.1122C38.7428 63.1122 38.9857 63.0338 39.1883 62.8771C39.3018 62.7893 40.6344 61.7514 42.6193 59.9528C45.3328 60.5349 46.7759 61.6083 46.7759 62.2536ZM56.8098 74.4635C58.5401 73.9119 60.1697 73.2774 61.6875 72.5573C62.2486 72.2911 62.4877 71.6202 62.2215 71.0591C61.9551 70.498 61.2844 70.2589 60.7233 70.5249C56.4987 72.5293 51.3481 73.8538 45.4149 74.4634H2.81072L4.77949 69.7328C5.86711 70.1154 7.69917 70.6368 10.0069 70.8257C10.5388 70.8692 11.1124 70.8956 11.7221 70.8956C14.8681 70.8956 18.9673 70.1917 23.1483 67.5084C26.3405 70.205 31.9657 71.9609 38.4993 71.9609C39.1204 71.9609 39.6239 71.4575 39.6239 70.8362C39.6239 70.2151 39.1204 69.7116 38.4993 69.7116C34.1221 69.7116 30.0244 68.8616 26.9614 67.3182C24.1839 65.9186 22.591 64.0726 22.591 62.2536C22.591 59.9107 25.221 57.5766 29.4547 56.162C29.6977 56.0808 29.8935 55.924 30.0272 55.7272C30.8711 56.6033 31.6823 57.4103 32.4425 58.1419C32.0889 58.2526 31.7487 58.3722 31.4274 58.5033C29.2002 59.4111 27.9738 60.7429 27.9738 62.2539C27.9738 63.7647 29.2004 65.0967 31.4274 66.0043C33.3345 66.7817 35.8461 67.2096 38.4992 67.2096C41.1522 67.2096 43.6637 66.7816 45.571 66.0043C47.798 65.0967 49.0246 63.7647 49.0246 62.2539C49.0246 60.7431 47.798 59.4111 45.571 58.5033C45.2499 58.3725 44.9099 58.2528 44.5566 58.1422C45.2598 57.4653 46.0064 56.7251 46.7824 55.9243C50.3835 56.9844 53.0528 58.6972 54.0151 60.6518C54.0333 60.6989 54.0544 60.745 54.0792 60.7897C54.293 61.2663 54.4076 61.7561 54.4076 62.2539C54.4076 64.8402 51.224 67.3795 46.2968 68.7228C45.6976 68.8863 45.3442 69.5045 45.5074 70.1037C45.6438 70.6039 46.0971 70.9328 46.5917 70.9328C46.6896 70.9328 46.7892 70.9199 46.8883 70.8929C52.9137 69.2501 56.6566 65.9398 56.6566 62.2541C56.6566 61.6749 56.5668 61.1085 56.3938 60.5588C57.754 59.3951 61.6109 56.5052 66.6048 56.2416L69.5929 63.4214C69.0703 64.2589 67.5987 66.2805 64.5109 68.3757C63.9968 68.7243 63.863 69.4236 64.2118 69.9377C64.4292 70.2583 64.7832 70.4309 65.1434 70.4309C65.3607 70.4309 65.5803 70.3679 65.7739 70.2368C68.1458 68.6274 69.6762 67.0405 70.6103 65.8655L74.189 74.464H56.8098V74.4635Z"/>
</mask>
<path d="M76.9136 75.1558L68.3857 54.6655C68.3839 54.6613 68.3822 54.6569 68.3804 54.6527L65.8142 48.4868C65.6397 48.0676 65.23 47.7944 64.7759 47.7944H53.7151C55.8666 44.8841 57.6571 41.985 59.0556 39.1386C61.5339 34.0942 62.7906 29.1953 62.7906 24.5779C62.7906 11.184 51.8939 0.287247 38.5001 0.287247C25.1063 0.287247 14.2094 11.1839 14.2094 24.578C14.2094 29.1955 15.4659 34.0945 17.9444 39.1387C19.3429 41.9852 21.1334 44.8841 23.2849 47.7946H12.224C11.7698 47.7946 11.3601 48.0679 11.1857 48.487L6.47093 59.8153C6.23226 60.3888 6.50356 61.0472 7.077 61.2857C7.65029 61.5245 8.3087 61.2531 8.54737 60.6796L9.5577 58.2522C10.6883 58.2302 12.9004 58.0866 15.4992 57.3901C19.7554 56.2491 23.2926 54.0726 25.8446 51.0569C25.9149 51.1415 25.9838 51.2265 26.0548 51.3112C26.8798 52.2965 27.7025 53.2297 28.5084 54.1098C23.3905 55.8794 20.3422 58.9118 20.3422 62.2537C20.3422 63.5271 20.7788 64.7359 21.578 65.8407C18.1065 67.977 14.313 68.9022 10.2808 68.5914C8.25171 68.4348 6.62087 67.9839 5.64634 67.651L6.81713 64.8378C7.0558 64.2643 6.78449 63.6059 6.21105 63.3674C5.63731 63.1283 4.97921 63.3999 4.74069 63.9735L0.0863965 75.1558C-0.0581289 75.5027 -0.0196289 75.8991 0.189113 76.2118C0.397705 76.5246 0.748717 76.7125 1.12469 76.7125H45.4716C45.4726 76.7125 45.4737 76.7126 45.4747 76.7126C45.4756 76.7126 45.4765 76.7125 45.4776 76.7125H75.8755C76.2514 76.7125 76.6026 76.5246 76.811 76.2118C77.0196 75.8993 77.058 75.503 76.9136 75.1558ZM64.0257 50.0437L65.6958 54.0564C60.8143 54.5477 57.0572 57.1077 55.3193 58.5221C53.941 56.6956 51.5636 55.1589 48.4994 54.1011C49.3028 53.2235 50.1229 52.2932 50.9452 51.311C51.2989 50.8886 51.6432 50.4661 51.9821 50.0437H64.0257ZM14.9853 55.1992C13.2185 55.6788 11.6302 55.8761 10.5139 55.9552L12.9743 50.0437H23.7531C21.5453 52.4847 18.6069 54.216 14.9853 55.1992ZM27.7793 49.8674C18.4225 38.6923 16.4587 29.9467 16.4587 24.578C16.4587 12.4242 26.3464 2.53649 38.5001 2.53649C50.6537 2.53649 60.5415 12.4242 60.5415 24.578C60.5415 29.9395 58.5825 38.673 49.2497 49.8325C44.7482 55.2153 40.1929 59.1461 38.4998 60.5426C36.8115 59.1509 32.2778 55.24 27.7793 49.8674ZM46.7759 62.2536C46.7759 63.1722 43.8547 64.9602 38.4998 64.9602C33.1448 64.9602 30.2236 63.1722 30.2236 62.2536C30.2236 61.6083 31.6669 60.5348 34.381 59.9526C36.3656 61.7516 37.6983 62.7893 37.8119 62.8771C38.0146 63.034 38.2573 63.1122 38.5001 63.1122C38.7428 63.1122 38.9857 63.0338 39.1883 62.8771C39.3018 62.7893 40.6344 61.7514 42.6193 59.9528C45.3328 60.5349 46.7759 61.6083 46.7759 62.2536ZM56.8098 74.4635C58.5401 73.9119 60.1697 73.2774 61.6875 72.5573C62.2486 72.2911 62.4877 71.6202 62.2215 71.0591C61.9551 70.498 61.2844 70.2589 60.7233 70.5249C56.4987 72.5293 51.3481 73.8538 45.4149 74.4634H2.81072L4.77949 69.7328C5.86711 70.1154 7.69917 70.6368 10.0069 70.8257C10.5388 70.8692 11.1124 70.8956 11.7221 70.8956C14.8681 70.8956 18.9673 70.1917 23.1483 67.5084C26.3405 70.205 31.9657 71.9609 38.4993 71.9609C39.1204 71.9609 39.6239 71.4575 39.6239 70.8362C39.6239 70.2151 39.1204 69.7116 38.4993 69.7116C34.1221 69.7116 30.0244 68.8616 26.9614 67.3182C24.1839 65.9186 22.591 64.0726 22.591 62.2536C22.591 59.9107 25.221 57.5766 29.4547 56.162C29.6977 56.0808 29.8935 55.924 30.0272 55.7272C30.8711 56.6033 31.6823 57.4103 32.4425 58.1419C32.0889 58.2526 31.7487 58.3722 31.4274 58.5033C29.2002 59.4111 27.9738 60.7429 27.9738 62.2539C27.9738 63.7647 29.2004 65.0967 31.4274 66.0043C33.3345 66.7817 35.8461 67.2096 38.4992 67.2096C41.1522 67.2096 43.6637 66.7816 45.571 66.0043C47.798 65.0967 49.0246 63.7647 49.0246 62.2539C49.0246 60.7431 47.798 59.4111 45.571 58.5033C45.2499 58.3725 44.9099 58.2528 44.5566 58.1422C45.2598 57.4653 46.0064 56.7251 46.7824 55.9243C50.3835 56.9844 53.0528 58.6972 54.0151 60.6518C54.0333 60.6989 54.0544 60.745 54.0792 60.7897C54.293 61.2663 54.4076 61.7561 54.4076 62.2539C54.4076 64.8402 51.224 67.3795 46.2968 68.7228C45.6976 68.8863 45.3442 69.5045 45.5074 70.1037C45.6438 70.6039 46.0971 70.9328 46.5917 70.9328C46.6896 70.9328 46.7892 70.9199 46.8883 70.8929C52.9137 69.2501 56.6566 65.9398 56.6566 62.2541C56.6566 61.6749 56.5668 61.1085 56.3938 60.5588C57.754 59.3951 61.6109 56.5052 66.6048 56.2416L69.5929 63.4214C69.0703 64.2589 67.5987 66.2805 64.5109 68.3757C63.9968 68.7243 63.863 69.4236 64.2118 69.9377C64.4292 70.2583 64.7832 70.4309 65.1434 70.4309C65.3607 70.4309 65.5803 70.3679 65.7739 70.2368C68.1458 68.6274 69.6762 67.0405 70.6103 65.8655L74.189 74.464H56.8098V74.4635Z" fill="#1D2B6B"/>
<path d="M76.9136 75.1558L68.3857 54.6655C68.3839 54.6613 68.3822 54.6569 68.3804 54.6527L65.8142 48.4868C65.6397 48.0676 65.23 47.7944 64.7759 47.7944H53.7151C55.8666 44.8841 57.6571 41.985 59.0556 39.1386C61.5339 34.0942 62.7906 29.1953 62.7906 24.5779C62.7906 11.184 51.8939 0.287247 38.5001 0.287247C25.1063 0.287247 14.2094 11.1839 14.2094 24.578C14.2094 29.1955 15.4659 34.0945 17.9444 39.1387C19.3429 41.9852 21.1334 44.8841 23.2849 47.7946H12.224C11.7698 47.7946 11.3601 48.0679 11.1857 48.487L6.47093 59.8153C6.23226 60.3888 6.50356 61.0472 7.077 61.2857C7.65029 61.5245 8.3087 61.2531 8.54737 60.6796L9.5577 58.2522C10.6883 58.2302 12.9004 58.0866 15.4992 57.3901C19.7554 56.2491 23.2926 54.0726 25.8446 51.0569C25.9149 51.1415 25.9838 51.2265 26.0548 51.3112C26.8798 52.2965 27.7025 53.2297 28.5084 54.1098C23.3905 55.8794 20.3422 58.9118 20.3422 62.2537C20.3422 63.5271 20.7788 64.7359 21.578 65.8407C18.1065 67.977 14.313 68.9022 10.2808 68.5914C8.25171 68.4348 6.62087 67.9839 5.64634 67.651L6.81713 64.8378C7.0558 64.2643 6.78449 63.6059 6.21105 63.3674C5.63731 63.1283 4.97921 63.3999 4.74069 63.9735L0.0863965 75.1558C-0.0581289 75.5027 -0.0196289 75.8991 0.189113 76.2118C0.397705 76.5246 0.748717 76.7125 1.12469 76.7125H45.4716C45.4726 76.7125 45.4737 76.7126 45.4747 76.7126C45.4756 76.7126 45.4765 76.7125 45.4776 76.7125H75.8755C76.2514 76.7125 76.6026 76.5246 76.811 76.2118C77.0196 75.8993 77.058 75.503 76.9136 75.1558ZM64.0257 50.0437L65.6958 54.0564C60.8143 54.5477 57.0572 57.1077 55.3193 58.5221C53.941 56.6956 51.5636 55.1589 48.4994 54.1011C49.3028 53.2235 50.1229 52.2932 50.9452 51.311C51.2989 50.8886 51.6432 50.4661 51.9821 50.0437H64.0257ZM14.9853 55.1992C13.2185 55.6788 11.6302 55.8761 10.5139 55.9552L12.9743 50.0437H23.7531C21.5453 52.4847 18.6069 54.216 14.9853 55.1992ZM27.7793 49.8674C18.4225 38.6923 16.4587 29.9467 16.4587 24.578C16.4587 12.4242 26.3464 2.53649 38.5001 2.53649C50.6537 2.53649 60.5415 12.4242 60.5415 24.578C60.5415 29.9395 58.5825 38.673 49.2497 49.8325C44.7482 55.2153 40.1929 59.1461 38.4998 60.5426C36.8115 59.1509 32.2778 55.24 27.7793 49.8674ZM46.7759 62.2536C46.7759 63.1722 43.8547 64.9602 38.4998 64.9602C33.1448 64.9602 30.2236 63.1722 30.2236 62.2536C30.2236 61.6083 31.6669 60.5348 34.381 59.9526C36.3656 61.7516 37.6983 62.7893 37.8119 62.8771C38.0146 63.034 38.2573 63.1122 38.5001 63.1122C38.7428 63.1122 38.9857 63.0338 39.1883 62.8771C39.3018 62.7893 40.6344 61.7514 42.6193 59.9528C45.3328 60.5349 46.7759 61.6083 46.7759 62.2536ZM56.8098 74.4635C58.5401 73.9119 60.1697 73.2774 61.6875 72.5573C62.2486 72.2911 62.4877 71.6202 62.2215 71.0591C61.9551 70.498 61.2844 70.2589 60.7233 70.5249C56.4987 72.5293 51.3481 73.8538 45.4149 74.4634H2.81072L4.77949 69.7328C5.86711 70.1154 7.69917 70.6368 10.0069 70.8257C10.5388 70.8692 11.1124 70.8956 11.7221 70.8956C14.8681 70.8956 18.9673 70.1917 23.1483 67.5084C26.3405 70.205 31.9657 71.9609 38.4993 71.9609C39.1204 71.9609 39.6239 71.4575 39.6239 70.8362C39.6239 70.2151 39.1204 69.7116 38.4993 69.7116C34.1221 69.7116 30.0244 68.8616 26.9614 67.3182C24.1839 65.9186 22.591 64.0726 22.591 62.2536C22.591 59.9107 25.221 57.5766 29.4547 56.162C29.6977 56.0808 29.8935 55.924 30.0272 55.7272C30.8711 56.6033 31.6823 57.4103 32.4425 58.1419C32.0889 58.2526 31.7487 58.3722 31.4274 58.5033C29.2002 59.4111 27.9738 60.7429 27.9738 62.2539C27.9738 63.7647 29.2004 65.0967 31.4274 66.0043C33.3345 66.7817 35.8461 67.2096 38.4992 67.2096C41.1522 67.2096 43.6637 66.7816 45.571 66.0043C47.798 65.0967 49.0246 63.7647 49.0246 62.2539C49.0246 60.7431 47.798 59.4111 45.571 58.5033C45.2499 58.3725 44.9099 58.2528 44.5566 58.1422C45.2598 57.4653 46.0064 56.7251 46.7824 55.9243C50.3835 56.9844 53.0528 58.6972 54.0151 60.6518C54.0333 60.6989 54.0544 60.745 54.0792 60.7897C54.293 61.2663 54.4076 61.7561 54.4076 62.2539C54.4076 64.8402 51.224 67.3795 46.2968 68.7228C45.6976 68.8863 45.3442 69.5045 45.5074 70.1037C45.6438 70.6039 46.0971 70.9328 46.5917 70.9328C46.6896 70.9328 46.7892 70.9199 46.8883 70.8929C52.9137 69.2501 56.6566 65.9398 56.6566 62.2541C56.6566 61.6749 56.5668 61.1085 56.3938 60.5588C57.754 59.3951 61.6109 56.5052 66.6048 56.2416L69.5929 63.4214C69.0703 64.2589 67.5987 66.2805 64.5109 68.3757C63.9968 68.7243 63.863 69.4236 64.2118 69.9377C64.4292 70.2583 64.7832 70.4309 65.1434 70.4309C65.3607 70.4309 65.5803 70.3679 65.7739 70.2368C68.1458 68.6274 69.6762 67.0405 70.6103 65.8655L74.189 74.464H56.8098V74.4635Z" stroke="#1D2B6B" mask="url(#path-2-outside-1)"/>
</g>
<defs>
<clipPath id="clip0">
<rect width="77" height="77" fill="white"/>
</clipPath>
</defs>
</svg>
