<svg width="77" height="78" viewBox="0 0 77 78" fill="none" xmlns="http://www.w3.org/2000/svg">
<g clip-path="url(#clip0)">
<path d="M64.2162 0.481445H12.7832C7.97364 0.481445 4.06055 4.39454 4.06055 9.2041V64.848C4.06055 67.336 6.08436 69.3598 8.57227 69.3598H28.3234C29.154 69.3598 29.8273 68.6865 29.8273 67.8559C29.8273 67.0252 29.154 66.352 28.3234 66.352H8.57227C7.74277 66.352 7.06836 65.6775 7.06836 64.848V9.2041C7.06836 6.05295 9.63205 3.48926 12.7832 3.48926H57.6349C56.3031 5.02136 55.4936 7.01933 55.4936 9.2041V57.6698C55.4936 59.0574 54.365 60.1859 52.9774 60.1859C51.893 60.1859 50.9337 59.4945 50.59 58.4658L48.3236 51.6654C47.6838 49.7455 45.8938 48.4561 43.8706 48.4561C41.2822 48.4561 39.1768 50.5615 39.1768 53.1493V54.3207H31.3817C30.551 54.3207 29.8778 54.9945 29.8778 55.8246C29.8778 56.6553 30.551 57.3285 31.3817 57.3285H39.1768V64.8104C39.1768 67.0311 39.6097 69.1964 40.4639 71.2455L42.6763 76.5556C42.9171 77.1331 43.4758 77.4814 44.065 77.4814C44.2577 77.4814 44.4539 77.4444 44.6425 77.3657C45.4097 77.0461 45.7722 76.1655 45.4526 75.3989L43.2402 70.0888C42.54 68.4081 42.1846 66.6322 42.1846 64.811V53.1499C42.1846 52.2199 42.9406 51.4639 43.8706 51.4639C44.5973 51.4639 45.2406 51.9268 45.4703 52.6165L47.7367 59.4169C48.4898 61.6757 50.5959 63.1937 52.9774 63.1937C56.0234 63.1937 58.5014 60.7158 58.5014 57.6698V31.8855L60.5111 33.8911C64.097 37.4699 66.0714 42.2313 66.0714 47.297V63.2836C66.0714 67.4247 65.1332 71.591 63.3591 75.3325C63.0031 76.0827 63.3233 76.9798 64.0735 77.3358C64.8236 77.6918 65.7207 77.3722 66.0767 76.6214C68.0406 72.4798 69.0792 67.8676 69.0792 63.2836V47.297C69.0792 41.4265 66.7911 35.9096 62.6359 31.7621L58.5014 27.6352V26.1982H68.4271C70.9151 26.1982 72.9389 24.1744 72.9389 21.6865V9.2041C72.9389 4.39454 69.0264 0.481445 64.2162 0.481445V0.481445ZM69.9311 21.6865C69.9311 22.5154 69.2566 23.1904 68.4271 23.1904H58.5014V9.2041C58.5014 6.05295 61.0651 3.48926 64.2162 3.48926C67.3674 3.48926 69.9311 6.05295 69.9311 9.2041V21.6865Z" fill="#1D2B6B"/>
<path d="M34.8906 66.3519C34.4947 66.3519 34.1069 66.5129 33.8273 66.7925C33.5477 67.0727 33.3867 67.4605 33.3867 67.8558C33.3867 68.2518 33.5477 68.6395 33.8273 68.9191C34.1069 69.1988 34.4947 69.3597 34.8906 69.3597C35.286 69.3597 35.6737 69.1988 35.9539 68.9191C36.2336 68.6395 36.3945 68.2518 36.3945 67.8558C36.3945 67.4605 36.2336 67.0727 35.9539 66.7925C35.6737 66.5129 35.286 66.3519 34.8906 66.3519Z" fill="#1D2B6B"/>
<path d="M48.6264 21.2353C49.457 21.2353 50.1303 20.5621 50.1303 19.7314C50.1303 18.9008 49.457 18.2275 48.6264 18.2275H38.2588C37.4281 18.2275 36.7549 18.9008 36.7549 19.7314C36.7549 20.5621 37.4281 21.2353 38.2588 21.2353H48.6264Z" fill="#1D2B6B"/>
<path d="M31.3818 21.2353C31.7778 21.2353 32.1655 21.0744 32.4451 20.7948C32.7248 20.5151 32.8857 20.1268 32.8857 19.7314C32.8857 19.3361 32.7248 18.9478 32.4451 18.6681C32.1655 18.3885 31.7778 18.2275 31.3818 18.2275C30.9847 18.2275 30.5982 18.3885 30.3185 18.6681C30.0377 18.9478 29.8779 19.3361 29.8779 19.7314C29.8779 20.1268 30.0377 20.5151 30.3185 20.7948C30.5982 21.0744 30.9847 21.2353 31.3818 21.2353Z" fill="#1D2B6B"/>
<path d="M31.3809 39.2822H48.6258C49.4565 39.2822 50.1297 38.609 50.1297 37.7783C50.1297 36.9476 49.4565 36.2744 48.6258 36.2744H31.3809C30.5508 36.2744 29.877 36.9476 29.877 37.7783C29.877 38.609 30.5508 39.2822 31.3809 39.2822Z" fill="#1D2B6B"/>
<path d="M10.2666 23.9333C10.2666 24.7638 10.9251 25.4372 11.7371 25.4372H23.501C24.313 25.4372 24.9715 24.7638 24.9715 23.9333V15.5329L27.4817 12.9656C28.056 12.3783 28.056 11.4261 27.4817 10.8386C26.9074 10.2515 25.9765 10.2515 25.402 10.8386L24.8769 11.3757C24.6681 10.8051 24.1315 10.3981 23.5008 10.3981H11.7371C10.9251 10.3981 10.2666 11.0716 10.2666 11.902V23.9333ZM22.0305 22.4294H13.2076V17.9184C13.2077 18.3031 13.3512 18.6877 13.6383 18.9811L16.5793 21.9889C16.8664 22.2825 17.2426 22.4294 17.619 22.4294C17.9955 22.4294 18.3716 22.2825 18.6588 21.9889L22.0305 18.5407V22.4294ZM22.0305 13.4059V14.2868L17.619 18.7985L15.7178 16.8541C15.1435 16.267 14.2127 16.267 13.6381 16.8541C13.3512 17.1475 13.2077 17.5322 13.2074 17.9168V13.4059H22.0305Z" fill="#1D2B6B"/>
<path d="M10.2666 42.5999C10.2666 43.4304 10.9251 44.1038 11.7371 44.1038H23.501C24.313 44.1038 24.9715 43.4304 24.9715 42.5999V34.1995L27.4817 31.6322C28.056 31.045 28.056 30.0927 27.4817 29.5053C26.9074 28.9181 25.9765 28.9181 25.402 29.5053L24.8769 30.0423C24.6681 29.4717 24.1315 29.0648 23.5008 29.0648H11.7371C10.9251 29.0648 10.2666 29.7382 10.2666 30.5687V42.5999ZM22.0305 41.096H13.2076V36.585C13.2077 36.9697 13.3512 37.3543 13.6383 37.6477L16.5793 40.6555C16.8664 40.9491 17.2426 41.096 17.619 41.096C17.9955 41.096 18.3716 40.9491 18.6588 40.6555L22.0305 37.2074V41.096ZM22.0305 32.0726V32.9534L17.619 37.4651L15.7178 35.5207C15.1435 34.9336 14.2127 34.9336 13.6381 35.5207C13.3512 35.8141 13.2077 36.1988 13.2074 36.5834V32.0726H22.0305Z" fill="#1D2B6B"/>
<path d="M10.2666 61.2666C10.2666 62.0971 10.9251 62.7705 11.7371 62.7705H23.501C24.313 62.7705 24.9715 62.0971 24.9715 61.2666V52.8662L27.4817 50.2989C28.056 49.7116 28.056 48.7594 27.4817 48.1719C26.9074 47.5848 25.9765 47.5848 25.402 48.1719L24.8769 48.709C24.6681 48.1384 24.1315 47.7314 23.5008 47.7314H11.7371C10.9251 47.7314 10.2666 48.4049 10.2666 49.2354V61.2666ZM22.0305 59.7627H13.2076V55.2517C13.2077 55.6364 13.3512 56.021 13.6383 56.3144L16.5793 59.3222C16.8664 59.6158 17.2426 59.7627 17.619 59.7627C17.9955 59.7627 18.3716 59.6158 18.6588 59.3222L22.0305 55.874V59.7627ZM22.0305 50.7393V51.6201L17.619 56.1318L15.7178 54.1874C15.1435 53.6003 14.2127 53.6003 13.6381 54.1874C13.3512 54.4808 13.2077 54.8655 13.2074 55.2501V50.7393H22.0305Z" fill="#1D2B6B"/>
</g>
<defs>
<clipPath id="clip0">
<rect width="77" height="77" fill="white" transform="translate(0 0.481445)"/>
</clipPath>
</defs>
</svg>
