<svg width="77" height="78" viewBox="0 0 77 78" fill="none" xmlns="http://www.w3.org/2000/svg">
<g clip-path="url(#clip0)">
<path d="M67.2463 38.1537C67.5143 38.3531 67.8297 38.451 68.1435 38.451C68.5312 38.451 68.917 38.3015 69.2085 38.0095L76.5606 30.6424C76.8692 30.3332 77.028 29.9054 76.996 29.4697C76.9639 29.0342 76.7442 28.634 76.3938 28.3734L68.8788 22.7833V7.77529C68.8788 6.94468 68.2054 6.27138 67.3749 6.27138H57.7499C56.9195 6.27138 56.246 6.94468 56.246 7.77529V13.3865L39.3976 0.853871C38.8648 0.457442 38.1351 0.457442 37.6023 0.853871L24.4333 10.6497C23.767 11.1454 23.6285 12.0876 24.1243 12.754C24.6201 13.4205 25.5623 13.5588 26.2286 13.063L38.5 3.93492L73.203 29.7487L67.9981 34.9642L39.3976 13.6898C38.8648 13.2934 38.1351 13.2934 37.6023 13.6898L9.00194 34.9642L3.79708 29.7487L17.283 19.7172C17.9494 19.2215 18.0879 18.2793 17.5921 17.6129C17.0963 16.9464 16.1542 16.8082 15.4878 17.3039L0.606252 28.3734C0.255843 28.634 0.0361223 29.0342 0.0040892 29.4697C-0.0280943 29.9052 0.130868 30.3332 0.439469 30.6424L7.7916 38.0095C8.31902 38.5379 9.15444 38.5994 9.75374 38.1537L10.8281 37.3544V49.283H3.00784C1.34933 49.283 2.86616e-05 50.6323 2.86616e-05 52.2908V74.5486C2.86616e-05 76.2071 1.34933 77.5564 3.00784 77.5564H13.2344C14.7366 77.5564 15.9816 76.4482 16.2034 75.0071L23.1979 77.471C23.3584 77.5275 23.5272 77.5564 23.6975 77.5564H45.172C47.6566 77.5564 50.0692 76.6726 51.9656 75.0676L68.2333 61.3004C69.522 60.2098 70.2856 58.6809 70.3827 56.9953C70.48 55.3098 69.8977 53.7031 68.7431 52.4714C68.0132 51.6927 67.124 51.1483 66.1718 50.8408V37.3544L67.2463 38.1537ZM65.871 20.546L59.2538 15.6239V9.27919H65.871V20.546ZM13.2344 74.5486H3.00784V52.2908H6.6172V63.4197C6.6172 64.2503 7.29065 64.9236 8.12111 64.9236C8.95156 64.9236 9.62501 64.2503 9.62501 63.4197V52.2908H13.2344V53.4918C13.2344 53.4926 13.2344 53.4932 13.2344 53.494C13.2344 53.4947 13.2344 53.4953 13.2344 53.4961L13.236 72.8286C13.2344 72.8633 13.2353 72.8979 13.236 72.9324L13.2363 74.5486C13.2363 74.5486 13.2357 74.5486 13.2344 74.5486ZM66.5485 54.5283C67.134 55.1528 67.429 55.9673 67.3799 56.8218C67.3305 57.6763 66.9436 58.4514 66.2901 59.0044L50.0224 72.7716C48.6684 73.9176 46.9459 74.5486 45.1719 74.5486H23.9547L16.2422 71.8318V54.9979H27.2741C28.7614 54.9979 30.2016 55.4338 31.439 56.2589L41.4999 62.9661C41.949 63.2656 42.2484 63.7231 42.343 64.2545C42.4376 64.786 42.3146 65.3188 41.9964 65.7548C41.4399 66.5172 40.4177 66.7758 39.5662 66.3686L30.9589 62.2572C30.2091 61.8991 29.3116 62.2164 28.9536 62.966C28.5955 63.7154 28.9129 64.6132 29.6624 64.9711L38.2697 69.0825C38.9561 69.4105 39.6861 69.5678 40.4081 69.5678C41.9552 69.5678 43.4649 68.8446 44.4261 67.5276C45.232 66.4232 45.5439 65.0734 45.3044 63.7271C45.0646 62.381 44.3061 61.2219 43.1684 60.4633L33.1074 53.7561C31.3743 52.6008 29.3571 51.99 27.2742 51.99H16.227C16.0956 50.6731 15.1114 49.6037 13.8361 49.3436V35.117L38.5001 16.7707L63.1641 35.117V50.649C62.164 50.8364 61.1981 51.2751 60.3669 51.9737L48.3952 62.0366C47.7593 62.5709 47.6772 63.5196 48.2116 64.1554C48.7462 64.7913 49.6947 64.8732 50.3306 64.3389L62.3022 54.276C63.5599 53.2189 65.4252 53.3297 66.5485 54.5283Z" fill="#1D2B6B"/>
<path d="M22.0543 14.0201C21.7747 13.7404 21.3867 13.5795 20.9912 13.5795C20.594 13.5795 20.206 13.7404 19.9264 14.0201C19.6467 14.2999 19.4873 14.6879 19.4873 15.0834C19.4873 15.4789 19.6467 15.8669 19.9264 16.1467C20.2077 16.4264 20.5942 16.5873 20.9912 16.5873C21.3867 16.5873 21.7731 16.4264 22.0543 16.1467C22.334 15.8669 22.4951 15.4789 22.4951 15.0834C22.4951 14.6879 22.3342 14.2999 22.0543 14.0201Z" fill="#1D2B6B"/>
<path d="M44.2504 29.6177C43.5271 29.2093 42.6098 29.4645 42.2015 30.188L32.1936 47.9156C31.7853 48.6388 32.0405 49.5562 32.7639 49.9645C32.9976 50.0964 33.2513 50.1591 33.5018 50.1591C34.0265 50.1591 34.5364 49.8839 34.8128 49.3942L44.8207 31.6666C45.229 30.9434 44.9737 30.026 44.2504 29.6177Z" fill="#1D2B6B"/>
<path d="M45.124 40.9966C42.3045 40.9966 40.0107 43.2903 40.0107 46.1098C40.0107 48.9293 42.3045 51.2231 45.124 51.2231C47.9435 51.2231 50.2373 48.9293 50.2373 46.1098C50.2373 43.2903 47.9435 40.9966 45.124 40.9966ZM45.124 48.2153C43.963 48.2153 43.0185 47.2708 43.0185 46.1098C43.0185 44.9488 43.963 44.0044 45.124 44.0044C46.285 44.0044 47.2295 44.9488 47.2295 46.1098C47.2295 47.2708 46.285 48.2153 45.124 48.2153Z" fill="#1D2B6B"/>
<path d="M31.8906 26.4245C29.0711 26.4245 26.7773 28.7182 26.7773 31.5377C26.7773 34.3573 29.0711 36.651 31.8906 36.651C34.7101 36.651 37.0039 34.3573 37.0039 31.5377C37.0039 28.7182 34.7101 26.4245 31.8906 26.4245ZM31.8906 33.6432C30.7296 33.6432 29.7851 32.6988 29.7851 31.5377C29.7851 30.3767 30.7296 29.4323 31.8906 29.4323C33.0516 29.4323 33.9961 30.3767 33.9961 31.5377C33.9961 32.6988 33.0516 33.6432 31.8906 33.6432Z" fill="#1D2B6B"/>
<path d="M9.2594 68.296C8.97982 68.0163 8.59181 67.8554 8.19629 67.8554C7.80076 67.8554 7.41275 68.0163 7.13303 68.296C6.8518 68.5757 6.69238 68.9638 6.69238 69.3593C6.69238 69.7548 6.8518 70.1428 7.13303 70.4225C7.41275 70.7023 7.80076 70.8632 8.19629 70.8632C8.59181 70.8632 8.97982 70.7023 9.2594 70.4225C9.53912 70.1428 9.70019 69.7548 9.70019 69.3593C9.70019 68.9638 9.53927 68.5757 9.2594 68.296Z" fill="#1D2B6B"/>
</g>
<defs>
<clipPath id="clip0">
<rect width="77" height="77" fill="white" transform="translate(0 0.555542)"/>
</clipPath>
</defs>
</svg>
