<svg width="75" height="75" viewBox="0 0 75 75" fill="none" xmlns="http://www.w3.org/2000/svg">
<g clip-path="url(#clip0)">
<path d="M74.9169 37.3799L67.8702 17.3024C67.6285 16.6137 66.9166 16.2082 66.2007 16.3512L58.8614 17.8194L45.9612 13.9819C44.0992 13.4279 42.0588 13.0985 39.7582 14.427L37.4591 15.7544L35.1599 14.427C32.8591 13.0985 30.8188 13.4281 28.957 13.9821L16.1026 17.806L9.42869 16.0456C8.70301 15.8543 7.9495 16.2425 7.68451 16.9449L0.0944872 37.062C-0.158782 37.7332 0.111333 38.489 0.732568 38.8476L7.04263 42.4907C6.59497 43.5317 6.50913 44.6875 6.80825 45.8038C7.15996 47.1166 7.99872 48.212 9.16986 48.8882C10.098 49.424 11.1273 49.6322 12.1222 49.5494C12.1634 51.2625 13.0694 52.9156 14.6587 53.8333C16.1344 54.6854 17.8645 54.71 19.308 54.0523C19.7203 55.0512 20.4524 55.9268 21.4586 56.5076C22.6298 57.1838 23.9978 57.3625 25.3107 57.0107C25.6965 56.9073 26.0638 56.7618 26.4068 56.5781C26.8429 57.5175 27.5531 58.298 28.4649 58.8243C29.2627 59.2848 30.1344 59.5037 30.9953 59.5037C32.2139 59.5035 33.4099 59.0642 34.3421 58.2521L38.7952 60.823C39.5927 61.2834 40.4645 61.5023 41.3253 61.5021C43.0816 61.5021 44.7921 60.5915 45.7315 58.9643C46.1202 58.2908 46.3369 57.5644 46.3948 56.8362C47.4549 57.312 48.6389 57.4073 49.7816 57.1013C51.0944 56.7495 52.1898 55.9107 52.8659 54.7394C53.3319 53.9323 53.5503 53.0492 53.545 52.1783C55.5004 52.4095 57.5014 51.4865 58.5469 49.6755C58.9472 48.9821 59.165 48.2321 59.215 47.4821C61.4751 48.281 64.0618 47.3819 65.3031 45.2322C65.8416 44.2996 66.0496 43.2653 65.9637 42.2658L74.0484 39.2365C74.7951 38.9569 75.1809 38.1318 74.9169 37.3799ZM10.6348 46.3512C10.1413 46.0663 9.78743 45.6027 9.63816 45.0456C9.48875 44.4887 9.5636 43.9102 9.84866 43.4166L11.8939 39.874C12.1788 39.3805 12.6424 39.0265 13.1995 38.8774C13.7564 38.7281 14.335 38.8029 14.8284 39.0879C15.8526 39.6792 16.206 40.994 15.6164 42.0193L13.5682 45.5668C13.568 45.5671 13.5679 45.5672 13.5677 45.5675C12.9748 46.591 11.6592 46.9426 10.6348 46.3512ZM19.0582 50.5099C18.4658 51.5354 17.15 51.8883 16.1237 51.2962C15.0979 50.704 14.7453 49.3875 15.3372 48.3619L16.1032 47.0353C16.1033 47.035 16.1035 47.0349 16.1036 47.0347L18.1535 43.4843C18.1537 43.484 18.154 43.4837 18.1541 43.4834L18.1548 43.4819C18.155 43.4818 18.155 43.4818 18.1551 43.4816L19.9635 40.3492C20.2484 39.8557 20.712 39.5018 21.2689 39.3526C21.8262 39.2033 22.4043 39.2781 22.898 39.5632C23.3915 39.8481 23.7455 40.3117 23.8948 40.8687C24.0441 41.4256 23.9693 42.004 23.6843 42.4975L23.1451 43.4312C23.1441 43.4328 23.1432 43.4345 23.1422 43.4361C23.142 43.4362 23.142 43.4365 23.1419 43.4367L19.6003 49.5709C19.6003 49.5711 19.6002 49.5711 19.6002 49.5712L19.5999 49.5715C19.5998 49.572 19.5993 49.5725 19.5992 49.573L19.0582 50.5099ZM25.8581 53.1844C25.5732 53.6777 25.1097 54.0316 24.5526 54.1809C23.9954 54.3302 23.417 54.2553 22.9236 53.9704C21.899 53.3788 21.5459 52.0644 22.1357 51.039L22.1371 51.0365C22.1373 51.0364 22.1373 51.0362 22.1374 51.0362C22.1377 51.0358 22.1379 51.0352 22.1382 51.0346L25.6787 44.9021C25.679 44.9016 25.6792 44.9013 25.6794 44.9009C26.2718 43.8751 27.5881 43.5223 28.6139 44.1147C29.1074 44.3996 29.4613 44.8633 29.6107 45.4202C29.76 45.9771 29.6853 46.5556 29.4002 47.0491L28.6521 48.3449C28.652 48.345 28.6518 48.3453 28.6517 48.3455L26.6066 51.8876C26.6066 51.8877 26.6065 51.8879 26.6063 51.888C26.6055 51.8895 26.6046 51.8909 26.6037 51.8924L25.8581 53.1844ZM29.93 56.2872C29.4365 56.0023 29.0825 55.5387 28.9332 54.9817C28.784 54.4248 28.8587 53.8463 29.1437 53.3527L31.1891 49.8101C31.7814 48.7845 33.0972 48.4316 34.1236 49.0238C35.1492 49.616 35.502 50.9325 34.9099 51.9583L32.8645 55.501C32.2723 56.5268 30.9559 56.8796 29.93 56.2872ZM43.1947 57.4998C42.6023 58.5257 41.2856 58.878 40.2602 58.2861L36.0447 55.8523L37.447 53.4233C37.7064 52.9739 37.8888 52.5007 37.9989 52.0194L42.4087 54.5654C42.4088 54.5654 42.4088 54.5656 42.4089 54.5656C42.4091 54.5656 42.4091 54.5656 42.4092 54.5657L42.4133 54.5681C43.4352 55.1618 43.786 56.4757 43.1947 57.4998ZM64.8867 39.5409C64.5001 39.0517 64.0167 38.626 63.4447 38.2958C62.9091 37.9866 60.9621 36.8165 57.4926 34.7186C56.8003 34.2999 55.8998 34.5217 55.4811 35.2141C55.0626 35.9064 55.2844 36.807 55.9767 37.2255C59.4634 39.3338 61.427 40.5139 61.9798 40.8331C63.0057 41.4253 63.3584 42.7417 62.7662 43.7676C62.1738 44.7935 60.857 45.1461 59.8317 44.554L56.6933 42.7419C56.6924 42.7414 56.6914 42.7409 56.6905 42.7403L56.6899 42.74L45.0325 36.0097C44.3317 35.6049 43.4359 35.8452 43.0315 36.5458C42.6269 37.2464 42.867 38.1423 43.5676 38.5467L55.2239 45.2765C55.224 45.2766 55.2243 45.2768 55.2245 45.2769C55.2248 45.2771 55.2248 45.2771 55.2251 45.2772L55.2281 45.279C56.2504 45.8724 56.6011 47.1868 56.0099 48.211C55.4175 49.2368 54.1015 49.5895 53.0756 48.9973L51.0128 47.8064C51.0115 47.8057 51.0103 47.8049 51.0091 47.8042L51.0087 47.8041L40.7748 41.8955C40.0739 41.4908 39.1783 41.731 38.7738 42.4316C38.3692 43.1323 38.6093 44.0282 39.3099 44.4326L49.543 50.3406C49.5431 50.3407 49.5433 50.3407 49.5434 50.3408C50.5686 50.9332 50.9209 52.2494 50.329 53.2751C50.0441 53.7686 49.5805 54.1225 49.0235 54.2717C48.4668 54.421 47.888 54.3463 47.3945 54.0614L43.8793 52.0318C43.8776 52.0308 43.8761 52.0299 43.8742 52.0288L43.8739 52.0286L37.4184 48.3015C36.9888 47.5719 36.3722 46.9397 35.5881 46.4869C34.6528 45.9469 33.6161 45.7391 32.6138 45.827C32.6012 45.4382 32.5436 45.0477 32.4402 44.6618C32.0885 43.3491 31.2496 42.2537 30.0784 41.5775C29.0721 40.9965 27.9468 40.8002 26.876 40.9428C26.8486 40.6643 26.7982 40.3861 26.7243 40.1102C26.3725 38.7974 25.5336 37.702 24.3624 37.0257C22.2142 35.7852 19.5269 36.2985 17.9687 38.1173C17.5505 37.4921 16.9869 36.9513 16.293 36.5506C15.1219 35.8745 13.7536 35.6956 12.441 36.0475C11.128 36.3992 10.0328 37.2379 9.35647 38.4092L8.47552 39.9351L3.27434 36.9324L9.95896 19.2154L15.7525 20.7435C16.0127 20.812 16.2863 20.8076 16.5438 20.7312L29.7921 16.79C31.3335 16.3315 32.4119 16.2234 33.6948 16.9641L34.529 17.4458L29.3974 20.4086C26.955 21.8188 26.1152 24.9532 27.5254 27.3959C28.8896 29.7588 31.8575 30.5832 34.4288 29.3127C35.8113 28.6298 37.8223 27.7257 39.3379 27.1486C40.4445 27.8152 42.926 29.3193 44.6977 30.3931C45.3902 30.8126 46.2907 30.5914 46.7097 29.8995C47.1289 29.2077 46.908 28.3068 46.2163 27.8876C44.5127 26.855 43.024 25.953 41.9594 25.3092C41.4259 24.9866 40.9986 24.7287 40.704 24.5513C40.0553 24.1612 39.9013 24.0685 39.4892 24.0685C39.325 24.0685 39.1621 24.096 39.007 24.1501C37.2744 24.754 34.7467 25.888 33.1314 26.6859C31.9634 27.2624 30.6443 26.9381 30.0626 25.9307C29.4601 24.887 29.8189 23.5479 30.8624 22.9454L41.223 16.9639C42.5059 16.2231 43.5846 16.3314 45.1258 16.7899L58.3741 20.731C58.6031 20.7991 58.8451 20.8103 59.0792 20.7634L65.5272 19.4735L71.6775 36.9964L64.8867 39.5409Z" fill="#1D2B6B"/>
<path d="M51.0956 31.0929H51.0944C50.2855 31.0929 49.6301 31.7487 49.6301 32.5577C49.6301 33.3668 50.2865 34.0226 51.0956 34.0226C51.9046 34.0226 52.5604 33.3668 52.5604 32.5577C52.5604 31.7487 51.9044 31.0929 51.0956 31.0929Z" fill="#1D2B6B"/>
</g>
<defs>
<clipPath id="clip0">
<rect width="75" height="75" fill="white"/>
</clipPath>
</defs>
</svg>
