<svg width="75" height="75" viewBox="0 0 75 75" fill="none" xmlns="http://www.w3.org/2000/svg">
<g clip-path="url(#clip0)">
<path d="M62.5483 0H12.4512C7.76653 0 3.95508 3.81145 3.95508 8.49609V62.6947C3.95508 65.118 5.92632 67.0893 8.34961 67.0893H27.5877C28.3968 67.0893 29.0525 66.4335 29.0525 65.6244C29.0525 64.8153 28.3968 64.1596 27.5877 64.1596H8.34961C7.54166 64.1596 6.88477 63.5027 6.88477 62.6947V8.49609C6.88477 5.42679 9.38187 2.92969 12.4512 2.92969H56.1378C54.8407 4.422 54.0522 6.36806 54.0522 8.49609V55.703C54.0522 57.0545 52.953 58.1537 51.6014 58.1537C50.5451 58.1537 49.6107 57.4802 49.276 56.4783L47.0684 49.8545C46.4453 47.9845 44.7018 46.7285 42.7311 46.7285C40.21 46.7285 38.1592 48.7793 38.1592 51.2999V52.4408H30.5666C29.7575 52.4408 29.1018 53.0972 29.1018 53.9057C29.1018 54.7148 29.7575 55.3705 30.5666 55.3705H38.1592V62.6581C38.1592 64.8211 38.5809 66.9302 39.4129 68.926L41.5678 74.0982C41.8024 74.6607 42.3466 75 42.9205 75C43.1082 75 43.2993 74.964 43.483 74.8873C44.2303 74.576 44.5833 73.7183 44.272 72.9715L42.1171 67.7994C41.4351 66.1623 41.0889 64.4325 41.0889 62.6587V51.3004C41.0889 50.3946 41.8253 49.6582 42.7311 49.6582C43.4389 49.6582 44.0655 50.1091 44.2892 50.7809L46.4968 57.4047C47.2303 59.6048 49.2817 61.0834 51.6014 61.0834C54.5683 61.0834 56.9818 58.6699 56.9818 55.703V30.5883L58.9394 32.5418C62.4321 36.0277 64.3553 40.6654 64.3553 45.5996V61.171C64.3553 65.2044 63.4415 69.2625 61.7134 72.9069C61.3667 73.6376 61.6785 74.5113 62.4092 74.8581C63.1399 75.2048 64.0137 74.8936 64.3604 74.1623C66.2733 70.1283 67.285 65.6359 67.285 61.171V45.5996C67.285 39.8815 65.0562 34.5079 61.009 30.4682L56.9818 26.4484V25.0488H66.6498C69.0731 25.0488 71.0443 23.0776 71.0443 20.6543V8.49609C71.0443 3.81145 67.2335 0 62.5483 0V0ZM68.1147 20.6543C68.1147 21.4617 67.4578 22.1191 66.6498 22.1191H56.9818V8.49609C56.9818 5.42679 59.479 2.92969 62.5483 2.92969C65.6176 2.92969 68.1147 5.42679 68.1147 8.49609V20.6543Z" fill="#1D2B6B"/>
<path d="M33.9844 64.1595C33.5987 64.1595 33.2211 64.3163 32.9487 64.5887C32.6763 64.8616 32.5195 65.2393 32.5195 65.6244C32.5195 66.0101 32.6763 66.3877 32.9487 66.6601C33.2211 66.9324 33.5987 67.0892 33.9844 67.0892C34.3695 67.0892 34.7471 66.9324 35.0201 66.6601C35.2924 66.3877 35.4492 66.0101 35.4492 65.6244C35.4492 65.2393 35.2924 64.8616 35.0201 64.5887C34.7471 64.3163 34.3695 64.1595 33.9844 64.1595Z" fill="#1D2B6B"/>
<path d="M24.1213 10.8398C24.1213 9.22451 22.8069 7.91016 21.1916 7.91016H14.7463C13.1304 7.91016 11.8166 9.22451 11.8166 10.8398V17.2852C11.8166 18.9005 13.1304 20.2148 14.7463 20.2148H21.1916C22.8069 20.2148 24.1213 18.9005 24.1213 17.2852V10.8398ZM21.1916 17.2852H14.7463V10.8398H21.1916L21.1933 17.2852C21.1933 17.2852 21.1927 17.2852 21.1916 17.2852Z" fill="#1D2B6B"/>
<path d="M24.1213 28.418C24.1213 26.8026 22.8069 25.4883 21.1916 25.4883H14.7463C13.1304 25.4883 11.8166 26.8026 11.8166 28.418V34.8633C11.8166 36.4786 13.1304 37.793 14.7463 37.793H21.1916C22.8069 37.793 24.1213 36.4786 24.1213 34.8633V28.418ZM21.1916 34.8633H14.7463V28.418H21.1916L21.1933 34.8633C21.1933 34.8633 21.1927 34.8633 21.1916 34.8633Z" fill="#1D2B6B"/>
<path d="M21.1916 43.0664H14.7463C13.1304 43.0664 11.8166 44.3802 11.8166 45.9961V52.4408C11.8166 54.0567 13.1304 55.3705 14.7463 55.3705H21.1916C22.8069 55.3705 24.1213 54.0567 24.1213 52.4408V45.9961C24.1213 44.3802 22.8069 43.0664 21.1916 43.0664ZM21.1916 52.4408H14.7463V45.9961H21.1916L21.1933 52.4408C21.1933 52.4408 21.1927 52.4408 21.1916 52.4408Z" fill="#1D2B6B"/>
<path d="M47.3631 20.2148C48.1722 20.2148 48.8279 19.5591 48.8279 18.75C48.8279 17.9409 48.1722 17.2852 47.3631 17.2852H37.2648C36.4557 17.2852 35.8 17.9409 35.8 18.75C35.8 19.5591 36.4557 20.2148 37.2648 20.2148H47.3631Z" fill="#1D2B6B"/>
<path d="M30.5666 20.2148C30.9523 20.2148 31.3299 20.0581 31.6023 19.7857C31.8746 19.5133 32.0314 19.1351 32.0314 18.75C32.0314 18.3649 31.8746 17.9867 31.6023 17.7143C31.3299 17.4419 30.9523 17.2852 30.5666 17.2852C30.1798 17.2852 29.8033 17.4419 29.5309 17.7143C29.2574 17.9867 29.1017 18.3649 29.1017 18.75C29.1017 19.1351 29.2574 19.5133 29.5309 19.7857C29.8033 20.0581 30.1798 20.2148 30.5666 20.2148Z" fill="#1D2B6B"/>
<path d="M30.566 37.793H47.3631C48.1722 37.793 48.8279 37.1372 48.8279 36.3281C48.8279 35.519 48.1722 34.8633 47.3631 34.8633H30.566C29.7575 34.8633 29.1012 35.519 29.1012 36.3281C29.1012 37.1372 29.7575 37.793 30.566 37.793Z" fill="#1D2B6B"/>
</g>
<defs>
<clipPath id="clip0">
<rect width="75" height="75" fill="white"/>
</clipPath>
</defs>
</svg>
