<svg width="19" height="20" viewBox="0 0 19 20" fill="none" xmlns="http://www.w3.org/2000/svg">
<path d="M16.4922 19.3954H2.22868C1.00023 19.3954 0 18.3951 0 17.1667V2.90312C0 1.67467 1.00023 0.674438 2.22868 0.674438H13.3721C13.6181 0.674438 13.8178 0.874128 13.8178 1.12018C13.8178 1.36622 13.6181 1.56591 13.3721 1.56591H2.22868C1.49143 1.56591 0.891473 2.16587 0.891473 2.90312V17.1667C0.891473 17.9039 1.49143 18.5039 2.22868 18.5039H16.4922C17.2295 18.5039 17.8295 17.9039 17.8295 17.1667V9.58917C17.8295 9.34312 18.0291 9.14343 18.2752 9.14343C18.5212 9.14343 18.7209 9.34312 18.7209 9.58917V17.1667C18.7209 18.3951 17.7207 19.3954 16.4922 19.3954Z" fill="#1D2B6B"/>
</svg>
