<svg width="100" height="100" viewBox="0 0 100 100" fill="none" xmlns="http://www.w3.org/2000/svg">
<path d="M98.7781 92.8914L70.3409 64.4542C75.8493 57.6502 79.1658 49.0044 79.1658 39.5879C79.1658 17.7631 61.4076 0.00488281 39.5828 0.00488281C17.758 0.00488281 0 17.7629 0 39.5877C0 61.4125 17.7582 79.1707 39.583 79.1707C48.9995 79.1707 57.6453 75.8541 64.4494 70.3458L92.8866 98.783C93.6991 99.5955 94.7657 100.004 95.8325 100.004C96.8992 100.004 97.9658 99.5955 98.7783 98.783C100.407 97.1539 100.407 94.5205 98.7781 92.8914ZM39.583 70.8374C22.3498 70.8374 8.33332 56.8209 8.33332 39.5877C8.33332 22.3545 22.3498 8.338 39.583 8.338C56.8162 8.338 70.8327 22.3545 70.8327 39.5877C70.8327 56.8209 56.816 70.8374 39.583 70.8374Z" fill="white"/>
</svg>
